<?xml version="1.0" standalone="no"?>
<!DOCTYPE svg PUBLIC "-//W3C//DTD SVG 1.1//EN" "http://www.w3.org/Graphics/SVG/1.1/DTD/svg11.dtd" >
<svg xmlns="http://www.w3.org/2000/svg" xmlns:xlink="http://www.w3.org/1999/xlink" version="1.1">
<metadata>
Created by FontForge 20170731 at Sun Sep 16 17:24:40 2018
 By Aleksey,,,
Copyright (c) 2018 by @kotentsov for Gastreet 
</metadata>
<defs>
<font id="GastreetFont" horiz-adv-x="500" >
  <font-face 
    font-family="Gastreet Font"
    font-weight="400"
    font-stretch="normal"
    units-per-em="1000"
    panose-1="0 0 0 0 0 0 0 0 0 0"
    ascent="805"
    descent="-195"
    x-height="705"
    cap-height="705"
    bbox="-318 -198 1258 932"
    underline-thickness="20"
    underline-position="-173"
    unicode-range="U+0020-FB04"
  />
<missing-glyph 
 />
    <glyph glyph-name="f_igrave" unicode="f&#xec;" horiz-adv-x="676" 
d="M-1 -170v144h9q40 0 55 12t17 48q1 15 1 58v304h-63v149h63v41q0 82 46 130.5t125 48.5h78q56 -2 168 -2l99 -174h-111l-77 66l-3 1q-128 0 -134 -78q-2 -26 -2 -33h354v-545h-189v396h-165v-399q0 -81 -46 -129.5t-125 -48.5q-61 0 -100 11z" />
    <glyph glyph-name="f_f" unicode="ff" horiz-adv-x="808" 
d="M3 -170v144h9q40 0 55 12t17 48q1 15 1 58v304h-63v149h63v17q0 82 46 130.5t125 48.5q35 0 62 -3q58 -10 78 -21v-134q-27 2 -44 3q-12 1 -32 1q-14 0 -26 -2q-19 -2 -19 -20q-1 -5 -1 -20h214v41q0 82 46 130.5t125 48.5q35 0 62 -3q58 -10 78 -21v-134q-4 0 -11 0.5
t-11 1.5h-20q-53 0 -70 -17q-7 -9 -9 -21q-1 -8 -1 -26h123v-149h-123v-380q0 -81 -46 -129.5t-125 -48.5q-61 0 -100 11v144h9q39 0 54.5 12t17.5 48q1 15 1 58v285h-214v-399q0 -81 -46 -129.5t-125 -48.5q-61 0 -100 11z" />
    <glyph glyph-name="f_i" unicode="fi" horiz-adv-x="682" 
d="M-1 -170v144h9q40 0 55 12t17 48q1 15 1 58v304h-63v149h63v41q0 82 46 130.5t125 48.5q35 0 62 -3q58 -10 78 -21v-134q-4 0 -11 0.5t-11 1.5h-20q-53 0 -70 -17q-8 -9 -9 -21q-1 -8 -1 -26h354v-545h-189v396h-165v-399q0 -81 -46 -129.5t-125 -48.5q-61 0 -100 11z
M456 611q-31 28 -31 73t31 73q30 30 73 30t73 -30t30 -73t-30 -73t-73 -30t-73 30z" />
    <glyph glyph-name="f_l" unicode="fl" horiz-adv-x="704" 
d="M3 -170v144h9q40 0 55 12t17 48q1 15 1 58v304h-63v149h63q0 59 22.5 103t61.5 69t86 36.5t102 11.5q117 0 195 -54.5t78 -164.5v-546h-189v491q0 25 -1 40t-5.5 33.5t-13 28.5t-25 17t-39.5 7q-12 0 -32 -2q-51 -11 -51 -70h121v-149h-121v-399q0 -81 -46 -129.5
t-125 -48.5q-60 0 -100 11z" />
    <glyph glyph-name="f_f_i" unicode="ffi" horiz-adv-x="1108" 
d="M3 -170v144h9q40 0 55 12t17 48q1 15 1 58v304h-63v149h63v17q0 82 46 130.5t125 48.5q35 0 62 -3q58 -10 78 -21v-134q-27 2 -44 3q-12 1 -32 1q-14 0 -26 -2q-19 -2 -19 -20q-1 -5 -1 -20h214v41q0 82 46 130.5t125 48.5q35 0 62 -3q58 -10 78 -21v-134q-4 0 -11 0.5
t-11 1.5h-20q-53 0 -70 -17q-7 -9 -9 -21q-1 -8 -1 -26h376v-545h-189v396h-187v-380q0 -81 -46 -129.5t-125 -48.5q-61 0 -100 11v144h9q39 0 54.5 12t17.5 48q1 15 1 58v285h-214v-399q0 -81 -46 -129.5t-125 -48.5q-61 0 -100 11zM885 611q-31 28 -31 73t31 73
q30 30 73 30t73 -30t30 -73t-30 -73t-73 -30t-73 30z" />
    <glyph glyph-name="f_f_l" unicode="ffl" horiz-adv-x="1087" 
d="M3 -170v144h9q40 0 55 12t17 48q1 15 1 58v304h-63v149h63v17q0 82 46 130.5t125 48.5q35 0 62 -3q58 -10 78 -21v-134q-27 2 -44 3q-12 1 -32 1q-14 0 -26 -2q-19 -2 -19 -20q-1 -5 -1 -20h214q0 59 22.5 103t61.5 69t86 36.5t102 11.5q117 0 195 -54.5t78 -164.5v-546
h-189v491q0 103 -49 121q-18 5 -35 5q-12 0 -32 -2q-51 -11 -51 -70h121v-149h-121v-380q0 -81 -46 -129.5t-125 -48.5q-60 0 -100 11v144h9q39 0 54.5 12t17.5 48q1 15 1 58v285h-214v-399q0 -81 -46 -129.5t-125 -48.5q-61 0 -100 11z" />
    <glyph glyph-name=".notdef" 
 />
    <glyph glyph-name=".null" horiz-adv-x="0" 
 />
    <glyph glyph-name=".null" horiz-adv-x="0" 
 />
    <glyph glyph-name="nonmarkingreturn" horiz-adv-x="333" 
 />
    <glyph glyph-name="space" unicode=" " horiz-adv-x="277" 
 />
    <glyph glyph-name="exclam" unicode="!" horiz-adv-x="324" 
d="M59 93q0 43 30 73t73 30q44 0 74 -30t30 -73q0 -44 -30.5 -73.5t-73.5 -29.5t-73 30t-30 73zM229 260h-133l-31 444h195z" />
    <glyph glyph-name="quotedbl" unicode="&#x22;" horiz-adv-x="537" 
d="M260 700l-127 -359h-99l22 359h204zM517 700l-127 -359h-100l23 359h204z" />
    <glyph glyph-name="numbersign" unicode="#" horiz-adv-x="706" 
d="M485 -8h-137l25 153h-110l-25 -153h-138l26 153h-96v156h121l19 110h-109v156h135l23 140h137l-23 -140h110l23 140h137l-23 -140h95v-156h-121l-18 -110h108v-156h-134zM307 411l-18 -110h110l18 110h-110z" />
    <glyph glyph-name="dollar" unicode="$" horiz-adv-x="666" 
d="M44 58l71 144q93 -43 190 -49v119q-44 10 -74.5 19.5t-66.5 27t-57.5 39t-36 55.5t-14.5 77q0 102 72 160t177 64v39h80v-41q102 -9 224 -56l-79 -148q-89 32 -145 39v-112q55 -13 92.5 -26.5t77 -37.5t59.5 -62.5t20 -90.5q0 -104 -70.5 -161t-178.5 -66v-62h-80v62
q-132 5 -261 67zM385 250v-97q53 8 53 46q0 16 -11 29q-12 12 -42 22zM305 456v96q-26 -3 -40 -15q-13 -13 -13 -31q0 -33 53 -50z" />
    <glyph glyph-name="percent" unicode="%" horiz-adv-x="899" 
d="M502 188q0 86 49 142.5t132 56.5q85 0 133 -57t48 -142t-49.5 -141.5t-131.5 -56.5t-131.5 57t-49.5 141zM624 188q0 -29 15.5 -55t43.5 -26t43.5 26t15.5 55q0 31 -15 56.5t-44 25.5t-44 -25.5t-15 -56.5zM216 317q-84 0 -132.5 57.5t-48.5 141.5q0 86 49 142.5
t132 56.5q85 0 133 -57t48 -142t-49.5 -142t-131.5 -57zM175 459q16 -24 41 -24q28 0 43.5 26t15.5 55q0 31 -15 56.5t-44 25.5q-28 0 -43.5 -26t-15.5 -56q0 -34 18 -57zM273 0h-135l483 701h135z" />
    <glyph glyph-name="ampersand" unicode="&#x26;" horiz-adv-x="698" 
d="M408 344l77 -76q28 33 62 95l134 -39q-4 -7 -12.5 -23t-13.5 -25q-3 -5 -9 -14.5t-11 -18.5t-10 -17q-14 -24 -40 -57l80 -80l-113 -100l-69 71q-84 -70 -173 -70q-55 0 -104.5 12.5t-91.5 37.5t-67 68.5t-25 100.5q0 61 40 111.5t100 77.5q-44 47 -44 116q0 98 58 150.5
t155 52.5q86 0 150 -50.5t64 -133.5q0 -60 -40 -113t-97 -76zM385 161l-123 127q-22 -10 -37.5 -29.5t-15.5 -42.5q0 -26 18 -46.5t44 -28.5q17 -7 39 -7q45 0 75 27zM296 456q11 -11 22 -18q21 8 35 17q36 20 36 53q0 29 -15.5 54t-42.5 25t-42 -25t-15 -54q0 -25 22 -52z
" />
    <glyph glyph-name="quotesingle" unicode="'" horiz-adv-x="284" 
d="M264 700l-127 -359h-103l22 359h208z" />
    <glyph glyph-name="parenleft" unicode="(" horiz-adv-x="445" 
d="M405 -31l-62 -100q-135 69 -214 177t-79 250t79.5 250t213.5 177l62 -100q-179 -121 -179 -327t179 -327z" />
    <glyph glyph-name="parenright" unicode=")" horiz-adv-x="445" 
d="M104 -131l-62 100q179 121 179 327t-179 327l62 100q136 -70 214.5 -177.5t78.5 -249.5q0 -144 -79 -251t-214 -176z" />
    <glyph glyph-name="asterisk" unicode="*" horiz-adv-x="425" 
d="M349 395l-96 62l5 -115h-88l6 115l-97 -62l-44 76l102 52l-102 53l44 76l97 -62l-6 115h88l-6 -115l97 62l44 -76l-102 -52l102 -53z" />
    <glyph glyph-name="plus" unicode="+" horiz-adv-x="640" 
d="M577 294h-178v-178h-156v178h-178v156h178v178h156v-178h178v-156z" />
    <glyph glyph-name="comma" unicode="," horiz-adv-x="284" 
d="M49 -135l-27 77q90 0 101 49q-36 8 -59.5 36.5t-23.5 65.5q0 43 30 73t73 30q51 0 77 -33.5t26 -86.5q0 -102 -49.5 -156.5t-147.5 -54.5z" />
    <glyph glyph-name="hyphen" unicode="-" horiz-adv-x="408" 
d="M368 255h-328v156h328v-156z" />
    <glyph glyph-name="period" unicode="." horiz-adv-x="284" 
d="M142 -11q-44 0 -73.5 30.5t-29.5 73.5t30 73t73 30t73.5 -30t30.5 -73t-30 -73.5t-74 -30.5z" />
    <glyph glyph-name="slash" unicode="/" horiz-adv-x="535" 
d="M559 798l-443 -926h-154l443 926h154z" />
    <glyph glyph-name="zero" unicode="0" horiz-adv-x="730" 
d="M366 -10q-150 0 -237 105t-87 257q0 155 87.5 258.5t236.5 103.5q102 0 177 -51t111 -131.5t36 -179.5q0 -154 -88 -258t-236 -104zM316 180q22 -15 50 -15q42 0 72.5 32t43.5 73t13 82q0 121 -78 173q-25 14 -51 14q-42 0 -72.5 -32t-43.5 -73t-13 -82q0 -50 20 -100.5
t59 -71.5z" />
    <glyph glyph-name="one" unicode="1" horiz-adv-x="422" 
d="M49 497l-38 151l257 57h87v-705h-195v521z" />
    <glyph glyph-name="two" unicode="2" horiz-adv-x="624" 
d="M381 161h207v-161h-554v67q82 108 253 208q59 34 89 69.5t30 91.5q0 69 -61 99q-21 8 -40 8q-33 0 -63 -22q-38 -31 -38 -87h-169v16q0 113 80.5 189t193.5 76t193.5 -77.5t80.5 -188.5q0 -58 -13.5 -101.5t-43 -77t-61.5 -56.5t-84 -53z" />
    <glyph glyph-name="three" unicode="3" horiz-adv-x="621" 
d="M34 40l70 146q91 -36 207 -36q30 0 58.5 17.5t28.5 46.5v4q0 25 -18 46q-34 34 -107 34h-72l-34 81l130 164h-229v161h505v-85l-159 -205q83 -26 128 -72t45 -125q0 -59 -24 -104t-65 -71.5t-90 -39.5t-104 -13q-85 0 -145.5 10t-124.5 41z" />
    <glyph glyph-name="four" unicode="4" horiz-adv-x="689" 
d="M666 134h-89v-134h-188v134h-348l-34 81l420 490h150v-415h89v-156zM389 290v142l-122 -142h122z" />
    <glyph glyph-name="five" unicode="5" horiz-adv-x="630" 
d="M38 40l70 146q91 -36 207 -36q54 0 81 49q6 14 6 25q2 27 -8 45q-20 46 -89 46q-14 0 -50 -2q-41 -4 -51 -5q-20 -3 -55 -7l-77 43l10 360h478v-161h-315l-3 -96q64 11 123 11q107 0 166.5 -67.5t59.5 -173.5q0 -59 -24 -104t-65 -71.5t-90 -39.5t-104 -13
q-85 0 -145.5 10t-124.5 41z" />
    <glyph glyph-name="six" unicode="6" horiz-adv-x="662" 
d="M240 408v-6q27 27 70 42t83 15q66 0 120 -32t84 -90q22 -43 22 -107q0 -116 -84.5 -178t-204.5 -62q-127 0 -208 95.5t-81 223.5q0 65 8.5 121.5t30 110t54.5 91t86 60.5t121 23q140 0 251 -75l-83 -137q-67 51 -156 51q-42 0 -71 -28.5t-36 -70.5q-6 -25 -6 -47z
M230 233q0 -40 30 -68t70 -28q41 0 70.5 28t29.5 68q0 41 -29.5 68.5t-70.5 27.5t-70.5 -28t-29.5 -68z" />
    <glyph glyph-name="seven" unicode="7" horiz-adv-x="614" 
d="M46 544v161h539v-85l-311 -620h-210l275 544h-293z" />
    <glyph glyph-name="eight" unicode="8" horiz-adv-x="630" 
d="M27 209q0 102 103 168q-64 57 -64 136q0 53 20.5 93t56.5 63.5t79 34.5t93 11q109 0 179.5 -50t70.5 -152q0 -77 -65 -136q103 -67 103 -168q0 -58 -25.5 -102t-68 -68.5t-91.5 -36.5t-103 -12q-55 0 -104.5 12.5t-91.5 37.5t-67 68.5t-25 100.5zM276 141q17 -7 39 -7
q39 0 70 22t31 59q0 50 -61 76q-20 6 -40 6q-21 0 -39 -6q-62 -26 -62 -76q0 -26 18 -45.5t44 -28.5zM234 507q0 -33 24 -56t57 -23q34 0 57.5 22.5t23.5 56.5t-23.5 56.5t-57.5 22.5q-33 0 -57 -23t-24 -56z" />
    <glyph glyph-name="nine" unicode="9" horiz-adv-x="662" 
d="M68 65l84 137q68 -51 155 -51q43 0 70.5 29t38.5 73q5 28 5 47v3q-27 -27 -70 -42t-84 -15q-99 0 -162.5 65t-63.5 163q0 79 42.5 135t106.5 81t140 25q129 0 209 -94.5t80 -224.5q0 -83 -14.5 -151.5t-47 -128t-93 -93t-144.5 -33.5q-141 0 -252 75zM230 472
q0 -40 30 -68t70 -28q41 0 70.5 28t29.5 68q0 41 -29.5 68.5t-70.5 27.5t-70.5 -28t-29.5 -68z" />
    <glyph glyph-name="colon" unicode=":" horiz-adv-x="294" 
d="M146 -11q-44 0 -73.5 30.5t-29.5 73.5t30 73t73 30t73.5 -30t30.5 -73t-30 -73.5t-74 -30.5zM43 443q0 43 30 73t73 30q44 0 74 -30t30 -73q0 -44 -30.5 -73.5t-73.5 -29.5t-73 30t-30 73z" />
    <glyph glyph-name="semicolon" unicode=";" horiz-adv-x="294" 
d="M52 -135l-26 77q27 0 45 3q21 5 30 11q12 8 17 15q7 10 8 20q-36 8 -59.5 36.5t-23.5 65.5q0 43 30 73t73 30q52 0 78 -33.5t26 -86.5q0 -211 -198 -211zM43 443q0 43 30 73t73 30q44 0 74 -30t30 -73q0 -44 -30.5 -73.5t-73.5 -29.5t-73 30t-30 73z" />
    <glyph glyph-name="less" unicode="&#x3c;" horiz-adv-x="644" 
d="M562 638v-177l-243 -110l243 -109v-177l-497 243v86z" />
    <glyph glyph-name="equal" unicode="=" horiz-adv-x="639" 
d="M73 148v157h491v-157h-491zM564 431h-491v157h491v-157z" />
    <glyph glyph-name="greater" unicode="&#x3e;" horiz-adv-x="644" 
d="M82 461v177l497 -244v-86l-497 -243v177l243 109z" />
    <glyph glyph-name="question" unicode="?" horiz-adv-x="540" 
d="M229 -11q-44 0 -73.5 30.5t-29.5 73.5t30 73t73 30t73.5 -30t30.5 -73t-30.5 -73.5t-73.5 -30.5zM301 293l-5 -59h-133l-10 129l16 43h65q94 0 110 59q4 12 3 25q0 29 -24.5 46.5t-54.5 17.5q-103 0 -188 -36l-63 146q98 51 245 51q115 0 186 -60t71 -170
q0 -92 -62.5 -142t-155.5 -50z" />
    <glyph glyph-name="at" unicode="@" horiz-adv-x="965" 
d="M726 0l48 -48q-122 -107 -288 -107q-182 0 -311 129.5t-129 310.5q0 183 129 311t311 128q183 0 311 -128t128 -309q0 -101 -61.5 -168.5t-160.5 -67.5q-46 0 -84.5 21t-54.5 61q-55 -77 -146 -77q-87 0 -142.5 60.5t-55.5 147.5q0 11 1 16q0 10 1 15q13 97 72.5 168.5
t151.5 71.5h10q7 0 10 -1q75 -9 113 -80l9 61l150 -23l-31 -202q-1 -6 -2.5 -18.5t-2.5 -17.5q-1 -13 -3 -25q-1 -7 -1 -16q-1 -5 -1 -13q0 -73 52 -73q39 0 66.5 30.5t38.5 71.5q4 38 4 56q0 155 -109 263.5t-263 108.5q-153 0 -262.5 -109.5t-109.5 -262.5
q0 -154 109.5 -263t262.5 -109q135 0 240 87zM387 295v-8q0 -31 17.5 -53t47.5 -22q33 0 55.5 24.5t25.5 58.5v8q0 31 -18 54q-19 21 -48 21q-32 0 -54.5 -25t-25.5 -58z" />
    <glyph glyph-name="A" unicode="A" horiz-adv-x="795" 
d="M792 4h-206l-53 112h-274l-51 -112h-206l284 574h-59v131h216zM465 273l-69 155l-67 -155h136z" />
    <glyph glyph-name="B" unicode="B" horiz-adv-x="715" 
d="M475 0h-412v704h357q67 0 112.5 -50.5t45.5 -118.5q0 -56 -31 -102q66 -30 103 -84t37 -125q0 -99 -58 -161.5t-154 -62.5zM404 322h-144v-165h144q90 0 90 83q0 34 -26.5 58t-63.5 24zM353 566h-93v-116h72q38 0 58.5 11t20.5 47q0 24 -17 41t-41 17z" />
    <glyph glyph-name="C" unicode="C" horiz-adv-x="730" 
d="M555 248l150 -123q-114 -136 -292 -136q-154 0 -264.5 105t-110.5 257q0 154 111 258.5t264 104.5q159 0 270 -114l22 -22l-23 -166l-140 18l6 35q-49 72 -135 72q-79 0 -126.5 -53t-47.5 -132q0 -80 48 -133t126 -53q92 0 142 82z" />
    <glyph glyph-name="D" unicode="D" horiz-adv-x="765" 
d="M395 0h-333v705h310q148 0 251.5 -103.5t103.5 -249.5q0 -140 -96.5 -241.5t-235.5 -110.5zM372 534h-121v-363h127q68 3 112.5 57.5t44.5 123.5q0 54 -26 98.5t-73 69.5q-31 14 -64 14z" />
    <glyph glyph-name="E" unicode="E" horiz-adv-x="667" 
d="M500 265h-249v-104h379v-160h-568v704h547v-160h-358v-125h249v-155z" />
    <glyph glyph-name="F" unicode="F" horiz-adv-x="689" 
d="M288 420h249v-156h-249v-264h-189v544h-56v161h603v-161h-358v-124z" />
    <glyph glyph-name="G" unicode="G" horiz-adv-x="769" 
d="M528 188v20h-127v156h322v-270q-133 -104 -308 -104q-155 0 -266 104.5t-111 257.5t112 257.5t265 104.5q175 0 283 -102l-21 -164l-139 17l5 42q-56 32 -128 32q-76 0 -127.5 -55.5t-51.5 -131.5q0 -80 50.5 -138.5t128.5 -58.5q61 0 113 33z" />
    <glyph glyph-name="H" unicode="H" horiz-adv-x="761" 
d="M699 0h-189v268h-259v-268h-189v705h189v-281h259v281h189v-705z" />
    <glyph glyph-name="I" unicode="I" horiz-adv-x="370" 
d="M8 705h285v-575h72v-130h-357v130h90v445h-90v130z" />
    <glyph glyph-name="J" unicode="J" horiz-adv-x="564" 
d="M5 222l166 15q17 -72 79 -72q13 0 25 6q22 8 36 35q5 13 5 25v474h195v-417q0 -116 -40 -186.5t-142 -101.5q-31 -10 -73 -10q-99 0 -170.5 67t-80.5 165z" />
    <glyph glyph-name="K" unicode="K" horiz-adv-x="730" 
d="M736 0h-254l-185 208l-46 -53v-155h-189v705h189v-281l243 282h233l-305 -353z" />
    <glyph glyph-name="L" unicode="L" horiz-adv-x="675" 
d="M315 161h198v101h141v-262h-624v130h90v445h-90v130h358v-130h-73v-414z" />
    <glyph glyph-name="M" unicode="M" horiz-adv-x="868" 
d="M611 0v293l-177 -225l-177 225v-293h-195v705h92l280 -356l280 356h92v-705h-195z" />
    <glyph glyph-name="N" unicode="N" horiz-adv-x="785" 
d="M723 705v-705h-92l-374 363v-363h-195v705h92l374 -363v363h195z" />
    <glyph glyph-name="O" unicode="O" horiz-adv-x="831" 
d="M37 352q0 153 112 257.5t265 104.5q155 0 266 -105t111 -257q0 -153 -112 -257.5t-265 -104.5q-154 0 -265.5 105.5t-111.5 256.5zM345 180q31 -15 69 -15q76 0 127.5 55.5t51.5 131.5q0 77 -51.5 132t-127.5 55t-127 -55.5t-51 -131.5q0 -55 29.5 -103.5t79.5 -68.5z
" />
    <glyph glyph-name="P" unicode="P" horiz-adv-x="673" 
d="M333 155h-76v-155h-195v705h301q136 0 213.5 -68t77.5 -199q0 -147 -87 -215t-234 -68zM330 544h-73v-234h56q61 0 99 28t38 86t-31.5 89t-88.5 31z" />
    <glyph glyph-name="Q" unicode="Q" horiz-adv-x="831" 
d="M727 149l73 -61l-88 -105l-84 71q-96 -64 -214 -64q-154 0 -265.5 105.5t-111.5 256.5q0 153 112 257.5t265 104.5q155 0 266 -105t111 -257q0 -109 -64 -203zM480 178l-41 34l88 105l50 -42q15 36 15 77q0 56 -29 102.5t-79 70.5q-34 14 -70 14q-76 0 -127.5 -55.5
t-51.5 -131.5q0 -55 30 -103t80 -69q31 -15 69 -15q39 0 66 13z" />
    <glyph glyph-name="R" unicode="R" horiz-adv-x="719" 
d="M694 130v-130h-220l-113 155h-104v-155h-195v705h331q137 0 214 -68t77 -199q0 -178 -131 -246l49 -62h92zM360 544h-103v-235h86q61 0 99 28.5t38 86.5q0 57 -30.5 88.5t-89.5 31.5z" />
    <glyph glyph-name="S" unicode="S" horiz-adv-x="652" 
d="M31 58l1 2l21 179l140 -17l-6 -53q78 -18 157 -18q80 0 80 50q0 14 -11.5 25.5t-21.5 15.5t-27 10q-27 9 -58 16q-48 11 -78.5 19.5t-69.5 26t-61.5 39t-38.5 57t-16 80.5q0 74 40 126.5t99.5 75t131.5 22.5q131 0 282 -58l-78 -149q-124 46 -209 46q-28 0 -49 -11
t-21 -36q0 -37 61 -53q45 -12 60 -15q45 -11 76 -20t69 -27t61 -39.5t39 -56t16 -77.5q0 -59 -24 -104.5t-65 -71.5t-90 -39t-104 -13q-96 0 -161 14t-145 54z" />
    <glyph glyph-name="T" unicode="T" horiz-adv-x="660" 
d="M638 544h-209v-414h89v-130h-369v130h85v414h-210v161h614v-161z" />
    <glyph glyph-name="U" unicode="U" horiz-adv-x="758" 
d="M54 283v422h189v-371q0 -83 29 -127.5t107 -44.5t108 44.5t30 127.5v371h189l-1 -422q0 -141 -92.5 -217t-233.5 -76q-144 0 -234.5 77.5t-90.5 215.5z" />
    <glyph glyph-name="V" unicode="V" horiz-adv-x="760" 
d="M219 705l161 -383l161 383h212l-329 -705h-88l-328 705h211z" />
    <glyph glyph-name="W" unicode="W" horiz-adv-x="1117" 
d="M1101 705l-283 -705h-76l-184 390l-184 -390h-76l-284 705h210l121 -341l175 341h76l174 -341l121 341h210z" />
    <glyph glyph-name="X" unicode="X" horiz-adv-x="732" 
d="M493 357l229 -357h-219l-136 214l-136 -214h-219l230 357l-220 348h215l130 -205l131 205h214z" />
    <glyph glyph-name="Y" unicode="Y" horiz-adv-x="723" 
d="M725 705l-266 -468v-106h92v-131h-373v131h87v106l-266 468h221l142 -264l142 264h221z" />
    <glyph glyph-name="Z" unicode="Z" horiz-adv-x="698" 
d="M318 161h198v59h143v-220h-619v81l343 463h-331v161h607v-85z" />
    <glyph glyph-name="bracketleft" unicode="[" horiz-adv-x="457" 
d="M412 565h-190v-555h190v-137h-346v828h346v-136z" />
    <glyph glyph-name="backslash" unicode="\" horiz-adv-x="535" 
d="M130 798l443 -926h-154l-443 926h154z" />
    <glyph glyph-name="bracketright" unicode="]" horiz-adv-x="457" 
d="M234 565h-190v136h346v-828h-346v137h190v555z" />
    <glyph glyph-name="asciicircum" unicode="^" 
d="M290 705l169 -215h-130l-80 107l-81 -107h-129l168 215h83z" />
    <glyph glyph-name="underscore" unicode="_" horiz-adv-x="600" 
d="M601 -136h-604v106h604v-106z" />
    <glyph glyph-name="grave" unicode="`" 
d="M289 560l-201 196l177 16l110 -212h-86z" />
    <glyph glyph-name="a" unicode="a" horiz-adv-x="795" 
d="M792 4h-206l-53 112h-274l-51 -112h-206l284 574h-59v131h216zM465 273l-69 155l-67 -155h136z" />
    <glyph glyph-name="b" unicode="b" horiz-adv-x="715" 
d="M475 0h-412v704h357q67 0 112.5 -50.5t45.5 -118.5q0 -56 -31 -102q66 -30 103 -84t37 -125q0 -99 -58 -161.5t-154 -62.5zM404 322h-144v-165h144q90 0 90 83q0 34 -26.5 58t-63.5 24zM353 566h-93v-116h72q38 0 58.5 11t20.5 47q0 24 -17 41t-41 17z" />
    <glyph glyph-name="c" unicode="c" horiz-adv-x="730" 
d="M555 248l150 -123q-114 -136 -292 -136q-154 0 -264.5 105t-110.5 257q0 154 111 258.5t264 104.5q159 0 270 -114l22 -22l-23 -166l-140 18l6 35q-49 72 -135 72q-79 0 -126.5 -53t-47.5 -132q0 -80 48 -133t126 -53q92 0 142 82z" />
    <glyph glyph-name="d" unicode="d" horiz-adv-x="765" 
d="M395 0h-333v705h310q148 0 251.5 -103.5t103.5 -249.5q0 -140 -96.5 -241.5t-235.5 -110.5zM372 534h-121v-363h127q68 3 112.5 57.5t44.5 123.5q0 54 -26 98.5t-73 69.5q-31 14 -64 14z" />
    <glyph glyph-name="e" unicode="e" horiz-adv-x="667" 
d="M500 265h-249v-104h379v-160h-568v704h547v-160h-358v-125h249v-155z" />
    <glyph glyph-name="f" unicode="f" horiz-adv-x="689" 
d="M288 420h249v-156h-249v-264h-189v544h-56v161h603v-161h-358v-124z" />
    <glyph glyph-name="g" unicode="g" horiz-adv-x="769" 
d="M528 188v20h-127v156h322v-270q-133 -104 -308 -104q-155 0 -266 104.5t-111 257.5t112 257.5t265 104.5q175 0 283 -102l-21 -164l-139 17l5 42q-56 32 -128 32q-76 0 -127.5 -55.5t-51.5 -131.5q0 -80 50.5 -138.5t128.5 -58.5q61 0 113 33z" />
    <glyph glyph-name="h" unicode="h" horiz-adv-x="761" 
d="M699 0h-189v268h-259v-268h-189v705h189v-281h259v281h189v-705z" />
    <glyph glyph-name="i" unicode="i" horiz-adv-x="370" 
d="M8 705h285v-575h72v-130h-357v130h90v445h-90v130z" />
    <glyph glyph-name="j" unicode="j" horiz-adv-x="564" 
d="M5 222l166 15q17 -72 79 -72q13 0 25 6q22 8 36 35q5 13 5 25v474h195v-417q0 -116 -40 -186.5t-142 -101.5q-31 -10 -73 -10q-99 0 -170.5 67t-80.5 165z" />
    <glyph glyph-name="k" unicode="k" horiz-adv-x="730" 
d="M736 0h-254l-185 208l-46 -53v-155h-189v705h189v-281l243 282h233l-305 -353z" />
    <glyph glyph-name="l" unicode="l" horiz-adv-x="675" 
d="M315 161h198v101h141v-262h-624v130h90v445h-90v130h358v-130h-73v-414z" />
    <glyph glyph-name="m" unicode="m" horiz-adv-x="868" 
d="M611 0v293l-177 -225l-177 225v-293h-195v705h92l280 -356l280 356h92v-705h-195z" />
    <glyph glyph-name="n" unicode="n" horiz-adv-x="785" 
d="M723 705v-705h-92l-374 363v-363h-195v705h92l374 -363v363h195z" />
    <glyph glyph-name="o" unicode="o" horiz-adv-x="831" 
d="M37 352q0 153 112 257.5t265 104.5q155 0 266 -105t111 -257q0 -153 -112 -257.5t-265 -104.5q-154 0 -265.5 105.5t-111.5 256.5zM345 180q31 -15 69 -15q76 0 127.5 55.5t51.5 131.5q0 77 -51.5 132t-127.5 55t-127 -55.5t-51 -131.5q0 -55 29.5 -103.5t79.5 -68.5z
" />
    <glyph glyph-name="p" unicode="p" horiz-adv-x="673" 
d="M333 155h-76v-155h-195v705h301q136 0 213.5 -68t77.5 -199q0 -147 -87 -215t-234 -68zM330 544h-73v-234h56q61 0 99 28t38 86t-31.5 89t-88.5 31z" />
    <glyph glyph-name="q" unicode="q" horiz-adv-x="831" 
d="M727 149l73 -61l-88 -105l-84 71q-96 -64 -214 -64q-154 0 -265.5 105.5t-111.5 256.5q0 153 112 257.5t265 104.5q155 0 266 -105t111 -257q0 -109 -64 -203zM480 178l-41 34l88 105l50 -42q15 36 15 77q0 56 -29 102.5t-79 70.5q-34 14 -70 14q-76 0 -127.5 -55.5
t-51.5 -131.5q0 -55 30 -103t80 -69q31 -15 69 -15q39 0 66 13z" />
    <glyph glyph-name="r" unicode="r" horiz-adv-x="719" 
d="M694 130v-130h-220l-113 155h-104v-155h-195v705h331q137 0 214 -68t77 -199q0 -178 -131 -246l49 -62h92zM360 544h-103v-235h86q61 0 99 28.5t38 86.5q0 57 -30.5 88.5t-89.5 31.5z" />
    <glyph glyph-name="s" unicode="s" horiz-adv-x="652" 
d="M31 58l1 2l21 179l140 -17l-6 -53q78 -18 157 -18q80 0 80 50q0 14 -11.5 25.5t-21.5 15.5t-27 10q-27 9 -58 16q-48 11 -78.5 19.5t-69.5 26t-61.5 39t-38.5 57t-16 80.5q0 74 40 126.5t99.5 75t131.5 22.5q131 0 282 -58l-78 -149q-124 46 -209 46q-28 0 -49 -11
t-21 -36q0 -37 61 -53q45 -12 60 -15q45 -11 76 -20t69 -27t61 -39.5t39 -56t16 -77.5q0 -59 -24 -104.5t-65 -71.5t-90 -39t-104 -13q-96 0 -161 14t-145 54z" />
    <glyph glyph-name="t" unicode="t" horiz-adv-x="660" 
d="M638 544h-209v-414h89v-130h-369v130h85v414h-210v161h614v-161z" />
    <glyph glyph-name="u" unicode="u" horiz-adv-x="758" 
d="M54 283v422h189v-371q0 -83 29 -127.5t107 -44.5t108 44.5t30 127.5v371h189l-1 -422q0 -141 -92.5 -217t-233.5 -76q-144 0 -234.5 77.5t-90.5 215.5z" />
    <glyph glyph-name="v" unicode="v" horiz-adv-x="760" 
d="M219 705l161 -383l161 383h212l-329 -705h-88l-328 705h211z" />
    <glyph glyph-name="w" unicode="w" horiz-adv-x="1117" 
d="M1101 705l-283 -705h-76l-184 390l-184 -390h-76l-284 705h210l121 -341l175 341h76l174 -341l121 341h210z" />
    <glyph glyph-name="x" unicode="x" horiz-adv-x="732" 
d="M493 357l229 -357h-219l-136 214l-136 -214h-219l230 357l-220 348h215l130 -205l131 205h214z" />
    <glyph glyph-name="y" unicode="y" horiz-adv-x="723" 
d="M725 705l-266 -468v-106h92v-131h-373v131h87v106l-266 468h221l142 -264l142 264h221z" />
    <glyph glyph-name="z" unicode="z" horiz-adv-x="698" 
d="M318 161h198v59h143v-220h-619v81l343 463h-331v161h607v-85z" />
    <glyph glyph-name="braceleft" unicode="{" horiz-adv-x="490" 
d="M186 13v12q0 43 -2 91q-2 27 -12.5 45t-22 27.5t-34 14t-38 5.5t-44.5 1v136q29 0 44.5 1t38 5.5t34 14t21.5 28t13 45.5q2 46 2 90v12q0 41 10 71t32 48t43 29t57.5 15.5t59.5 5.5t64 1v-116q-80 0 -103 -31q-13 -16 -16 -40q-3 -26 -3 -58v-64q0 -51 -18.5 -81
t-64.5 -44q46 -14 64.5 -44t18.5 -81v-64q0 -33 3 -57q3 -25 16 -41q23 -31 103 -31v-116q-40 0 -65 1.5t-60 6t-57 16t-43 29.5t-31 47.5t-10 69.5z" />
    <glyph glyph-name="bar" unicode="|" horiz-adv-x="355" 
d="M250 798v-926h-145v926h145z" />
    <glyph glyph-name="braceright" unicode="}" horiz-adv-x="490" 
d="M39 -157v116q76 0 103 30q12 17 15 41t3 57v65q0 51 18.5 81t65.5 44q-47 14 -65.5 44t-18.5 81v65q0 33 -3 58q-3 23 -15 40q-27 30 -103 30v116q35 0 55 -0.5t52 -4t51 -9.5t42 -18.5t35.5 -30.5t21.5 -45t9 -62v-12q0 -55 3 -90q1 -27 10.5 -45t22 -27.5t35 -14.5
t38 -6t43.5 -1v-136q-28 0 -43.5 -1t-38 -6t-35 -14t-22 -27.5t-10.5 -44.5q-3 -36 -3 -91v-12q0 -35 -8.5 -62t-21.5 -44.5t-36 -30t-42.5 -19t-50.5 -10t-52 -4t-55 -0.5z" />
    <glyph glyph-name="asciitilde" unicode="~" horiz-adv-x="505" 
d="M381 416l82 -10q0 -66 -32 -120t-92 -54q-37 0 -88 20q-7 3 -20 7t-18 6q-18 6 -30 6q-35 0 -61 -55l-81 9q0 68 30.5 121t93.5 53q36 0 89 -19q26 -10 38 -14q16 -6 29 -6q33 0 60 56z" />
    <glyph glyph-name="exclamdown" unicode="&#xa1;" horiz-adv-x="324" 
d="M260 0h-195l31 445h133zM59 612q0 43 30 73t73 30q44 0 74 -30t30 -73q0 -44 -30.5 -73.5t-73.5 -29.5t-73 30t-30 73z" />
    <glyph glyph-name="cent" unicode="&#xa2;" horiz-adv-x="575" 
d="M331 75l-15 -75h-119l19 97q-83 34 -134 107t-51 161q0 121 87 205.5t208 84.5l12 59h118l-15 -80q73 -29 119 -87l-118 -98q-11 15 -14 19q-11 11 -17 16l-52 -264q56 16 83 62l118 -98q-86 -106 -229 -109zM246 247l52 263q-49 -13 -77.5 -53.5t-28.5 -91.5
q0 -33 14.5 -65.5t39.5 -52.5z" />
    <glyph glyph-name="sterling" unicode="&#xa3;" horiz-adv-x="639" 
d="M527 243h-199l12 -87h264v-156h-561v85l99 61q-2 15 -6 47q-4 24 -6 50h-87v137h77q-1 6 -1 19v18q0 114 41 185.5t141 102.5q31 10 72 10q68 0 127 -34t92 -93l-122 -107q-33 59 -91 59q-34 0 -49.5 -26t-15.5 -62q0 -24 1 -36q0 -24 1 -36h211v-137z" />
    <glyph glyph-name="yen" unicode="&#xa5;" horiz-adv-x="730" 
d="M651 67h-188v-67h-195v67h-188v120h188v50h-188v119h119l-197 349h221l142 -264l143 264h221l-198 -349h120v-119h-188v-50h188v-120z" />
    <glyph glyph-name="brokenbar" unicode="&#xa6;" horiz-adv-x="355" 
d="M250 256v-383h-145v383h145zM250 798v-383h-145v383h145z" />
    <glyph glyph-name="section" unicode="&#xa7;" horiz-adv-x="626" 
d="M69 40l69 124q84 -43 161 -43h15q17 1 31.5 9.5t14.5 24.5q0 13 -12 20q-10 5 -25 9q-28 8 -44 11q-12 3 -37.5 8.5t-37.5 8.5q-66 12 -112 44t-46 89q0 67 77 110q-45 35 -45 83q0 85 62.5 130t149.5 45q62 0 133.5 -12t121.5 -34l-63 -133q-59 22 -145 38q-27 3 -51 3
q-40 0 -40 -29q0 -7 4 -11q7 -9 43 -20q73 -18 137 -29q72 -12 110.5 -46t38.5 -101q0 -23 -26 -57t-49 -37q11 -11 20 -32q6 -19 6 -48q0 -89 -64.5 -133.5t-156.5 -44.5q-74 0 -126.5 11t-113.5 42zM327 305l56 -11q24 5 39 13q16 7 16 25q0 13 -29 25q-27 12 -85 24
l-48 12q-31 7 -48 13q-15 -3 -28 -14.5t-13 -25.5q0 -12 12 -21q24 -24 128 -40z" />
    <glyph glyph-name="dieresis" unicode="&#xa8;" 
d="M83 601q-12 11 -18 27q-7 14 -7 32q0 36 24.5 60t60.5 24q35 0 60 -24q24 -26 24 -60q0 -35 -24.5 -59.5t-59.5 -24.5q-19 0 -33 7q-16 6 -27 18zM299 601q-12 11 -18 27q-7 14 -7 32q0 36 24.5 60t60.5 24q35 0 60 -24q24 -26 24 -60q0 -35 -24.5 -59.5t-59.5 -24.5
q-19 0 -33 7q-16 6 -27 18z" />
    <glyph glyph-name="copyright" unicode="&#xa9;" horiz-adv-x="830" 
d="M414 -10q-151 0 -256 107.5t-105 256.5q0 151 106.5 257.5t256.5 106.5q151 0 256 -107t105 -257q0 -151 -106.5 -257.5t-256.5 -106.5zM414 38q132 0 222 92t90 224q0 133 -89.5 224t-220.5 91q-132 0 -222.5 -92.5t-90.5 -224.5q0 -131 90.5 -222.5t220.5 -91.5z
M501 293l86 -71q-65 -79 -168 -79q-89 0 -153 61t-64 149q0 89 64 149t153 60q93 0 156 -66l12 -12l-13 -96l-81 10l4 20q-14 20 -34 31q-18 11 -44 11q-44 0 -72 -28q-29 -36 -29 -79q0 -47 27.5 -77t73.5 -30q25 0 47 12q21 14 35 35z" />
    <glyph glyph-name="ordfeminine" unicode="&#xaa;" horiz-adv-x="511" 
d="M319 681v16h133v-381h-133v20q-43 -27 -92 -27q-83 0 -134.5 57.5t-51.5 140.5q0 85 51.5 141.5t134.5 56.5q23 0 46 -6q26 -9 46 -18zM252 423q38 0 67 24v119q-29 24 -67 24q-37 0 -60.5 -23t-23.5 -60t23 -60.5t61 -23.5z" />
    <glyph glyph-name="guillemotleft" unicode="&#xab;" horiz-adv-x="631" 
d="M206 526l121 -89l-130 -171l130 -170l-121 -90l-176 260zM468 526l121 -89l-130 -171l130 -170l-121 -90l-176 260z" />
    <glyph glyph-name="logicalnot" unicode="&#xac;" horiz-adv-x="594" 
d="M34 523h512v-334h-156v178h-356v156z" />
    <glyph glyph-name="uni00AD" unicode="&#xad;" horiz-adv-x="408" 
d="M368 255h-328v156h328v-156z" />
    <glyph glyph-name="registered" unicode="&#xae;" horiz-adv-x="830" 
d="M415 -10q-151 0 -256 107.5t-105 256.5q0 151 106.5 257.5t256.5 106.5q151 0 256 -107t105 -257q0 -151 -106.5 -257.5t-256.5 -106.5zM415 38q132 0 222 92t90 224q0 133 -89.5 224t-220.5 91q-133 0 -223 -92.5t-90 -224.5t90 -223t221 -91zM415 243h-61v-89h-112v407
h190q79 0 124 -39t45 -115q0 -87 -53 -128l64 -63l-76 -78l-107 106q-3 -1 -14 -1zM414 471h-60v-149h50q36 0 57.5 18.5t21.5 54.5q0 29 -15 53q-17 23 -54 23z" />
    <glyph glyph-name="macron" unicode="&#xaf;" 
d="M62 592v116h376v-116h-376z" />
    <glyph glyph-name="degree" unicode="&#xb0;" horiz-adv-x="472" 
d="M69 473q-15 31 -15 69q0 73 54.5 125.5t127.5 52.5q74 0 128 -53.5t54 -126.5t-54.5 -124.5t-127.5 -51.5q-54 0 -100.5 30t-66.5 79zM152 540q0 -35 24.5 -59.5t59.5 -24.5q36 0 60 25t24 61t-24 61q-26 24 -60 24q-36 0 -60 -25.5t-24 -61.5z" />
    <glyph glyph-name="plusminus" unicode="&#xb1;" horiz-adv-x="640" 
d="M577 0h-512v156h512v-156zM577 367h-178v-178h-156v178h-178v156h178v178h156v-178h178v-156z" />
    <glyph glyph-name="twosuperior" unicode="&#xb2;" horiz-adv-x="415" 
d="M253 393h112v-94h-322v47q27 38 65 66q61 41 71 48q35 22 57 43q23 21 23 50q0 26 -16.5 44t-42.5 18q-34 0 -51 -33q-7 -11 -7 -31h-99v9q0 67 47 111t113 44q62 0 112 -44q47 -47 47 -111q0 -50 -31 -94.5t-78 -72.5z" />
    <glyph glyph-name="threesuperior" unicode="&#xb3;" horiz-adv-x="415" 
d="M34 323l40 84q50 -21 119 -21q17 0 33 10q17 9 17 29q0 46 -72 46h-41l-20 46l75 95h-131v92h290v-49l-92 -118q48 -15 74 -41t26 -72q0 -66 -47 -98.5t-116 -32.5q-89 0 -155 30z" />
    <glyph glyph-name="acute" unicode="&#xb4;" 
d="M213 560h-86l110 212l177 -16z" />
    <glyph glyph-name="mu" unicode="&#xb5;" horiz-adv-x="638" 
d="M240 6v-181h-189v720h189v-299q0 -47 17 -70t62 -23q46 0 78 29v363h189v-545h-189v17q-46 -27 -94 -27q-29 0 -63 16z" />
    <glyph glyph-name="paragraph" unicode="&#xb6;" horiz-adv-x="596" 
d="M315 700h219v-700h-195v220h-21q-126 0 -211 60t-85 179q0 63 24 110.5t66 75.5t93 41.5t110 13.5zM316 428h25v97h-26q-27 0 -43 -12q-17 -14 -17 -37q0 -24 18 -36t43 -12z" />
    <glyph glyph-name="periodcentered" unicode="&#xb7;" horiz-adv-x="284" 
d="M39 313q0 43 30 73t73 30q44 0 74 -30t30 -73q0 -44 -30.5 -73.5t-73.5 -29.5t-73 30t-30 73z" />
    <glyph glyph-name="cedilla" unicode="&#xb8;" 
d="M326 15l-72 -145l-177 16l124 129h125z" />
    <glyph glyph-name="onesuperior" unicode="&#xb9;" horiz-adv-x="415" 
d="M112 585l-22 87l148 33h50v-406h-112v300z" />
    <glyph glyph-name="ordmasculine" unicode="&#xba;" horiz-adv-x="507" 
d="M40 507q0 84 62 141t147 57t147 -57t62 -141t-62.5 -140.5t-146.5 -56.5t-146.5 57t-62.5 140zM193 449q22 -25 56 -25q33 0 56.5 24.5t23.5 58.5t-23 60q-24 24 -57 24q-34 0 -57 -25t-23 -59t24 -58z" />
    <glyph glyph-name="guillemotright" unicode="&#xbb;" horiz-adv-x="631" 
d="M170 266l-130 171l121 89l176 -260l-176 -260l-121 90zM432 266l-130 171l121 89l176 -260l-176 -260l-121 90z" />
    <glyph glyph-name="onequarter" unicode="&#xbc;" horiz-adv-x="919" 
d="M870 77h-52v-77h-108v77h-201l-20 47l243 283h86v-240h52v-90zM710 167v82l-71 -82h71zM86 585l-22 87l148 33h50v-406h-112v300zM786 700l-539 -700h-135l539 700h135z" />
    <glyph glyph-name="onehalf" unicode="&#xbd;" horiz-adv-x="957" 
d="M786 700l-539 -700h-135l539 700h135zM773 94h112v-94h-322v47q27 38 65 66q61 41 71 48q35 22 57 43q23 21 23 50q0 26 -16.5 44t-42.5 18q-34 0 -51 -33q-7 -11 -7 -31h-99v9q0 67 47 111t113 44q62 0 112 -44q47 -47 47 -111q0 -50 -31 -94.5t-78 -72.5zM86 585
l-22 87l148 33h50v-406h-112v300z" />
    <glyph glyph-name="threequarters" unicode="&#xbe;" horiz-adv-x="919" 
d="M870 77h-52v-77h-108v77h-201l-20 47l243 283h86v-240h52v-90zM710 167v82l-71 -82h71zM34 323l40 84q50 -21 119 -21q17 0 33 10q17 9 17 29q0 46 -72 46h-41l-20 46l75 95h-131v92h290v-49l-92 -118q48 -15 74 -41t26 -72q0 -66 -47 -98.5t-116 -32.5q-89 0 -155 30z
M786 700l-539 -700h-135l539 700h135z" />
    <glyph glyph-name="questiondown" unicode="&#xbf;" horiz-adv-x="540" 
d="M192 219v-4q0 -29 24.5 -46.5t54.5 -17.5q91 0 188 35l63 -146q-63 -30 -116 -40t-129 -10q-113 0 -184.5 60.5t-71.5 169.5q0 92 62 142t155 50l5 58h135l8 -129l-16 -42h-65q-90 0 -107 -52q-6 -13 -6 -28zM237 539q-31 28 -31 73t31 73q30 30 73 30t73 -30t30 -73
t-30 -73t-73 -30t-73 30z" />
    <glyph glyph-name="Agrave" unicode="&#xc0;" horiz-adv-x="795" 
d="M792 4h-206l-53 112h-274l-51 -112h-206l284 574h-59v131h216zM465 273l-69 155l-67 -155h136zM346 747l-195 169l202 16l104 -185h-111z" />
    <glyph glyph-name="Aacute" unicode="&#xc1;" horiz-adv-x="795" 
d="M792 4h-206l-53 112h-274l-51 -112h-206l284 574h-59v131h216zM465 273l-69 155l-67 -155h136zM454 747h-111l104 185l202 -16z" />
    <glyph glyph-name="Acircumflex" unicode="&#xc2;" horiz-adv-x="795" 
d="M792 4h-206l-53 112h-274l-51 -112h-206l284 574h-59v131h216zM465 273l-69 155l-67 -155h136zM341 912h114l148 -165h-122l-84 81l-84 -81h-120z" />
    <glyph glyph-name="Atilde" unicode="&#xc3;" horiz-adv-x="795" 
d="M792 4h-206l-53 112h-274l-51 -112h-206l284 574h-59v131h216zM465 273l-69 155l-67 -155h136zM523 931l81 -10q0 -66 -32 -120t-92 -54q-37 0 -88 20q-7 2 -19.5 6.5t-18.5 6.5q-18 6 -30 6q-34 0 -60 -55l-82 9q0 68 30.5 121t93.5 53q36 0 89 -19q26 -10 38 -14
q17 -6 29 -6q36 0 61 56z" />
    <glyph glyph-name="Adieresis" unicode="&#xc4;" horiz-adv-x="795" 
d="M792 4h-206l-53 112h-274l-51 -112h-206l284 574h-59v131h216zM465 273l-69 155l-67 -155h136zM230 760q-12 10 -18 27q-7 14 -7 32q0 36 24.5 60t60.5 24q34 0 60 -24q24 -25 24 -60t-24.5 -59.5t-59.5 -24.5q-19 0 -33 7q-17 6 -27 18zM446 760q-12 10 -18 27
q-7 14 -7 32q0 36 24.5 60t60.5 24q34 0 60 -24q24 -25 24 -60t-24.5 -59.5t-59.5 -24.5q-19 0 -33 7q-17 6 -27 18z" />
    <glyph glyph-name="Aring" unicode="&#xc5;" horiz-adv-x="795" 
d="M789 0h-204l-52 117h-272l-51 -117h-204l327 669q-58 38 -58 103q0 75 77 111q22 9 46 9q51 0 87 -35.5t36 -86.5q0 -65 -60 -102zM465 273l-68 153l-67 -153h135zM341 770q0 -24 16.5 -40.5t40.5 -16.5q25 0 41 17t16 42q0 24 -16.5 40.5t-40.5 16.5t-40.5 -17.5
t-16.5 -41.5z" />
    <glyph glyph-name="AE" unicode="&#xc6;" horiz-adv-x="1063" 
d="M1025 0h-568v117h-207l-51 -117h-204l345 705h664v-161h-358v-124h296v-156h-296v-103h379v-161zM431 528l-112 -255h138v255h-26z" />
    <glyph glyph-name="Ccedilla" unicode="&#xc7;" horiz-adv-x="730" 
d="M439 -9l-63 -121l-177 16l118 116q-122 31 -200.5 128.5t-78.5 221.5q0 153 111 258t264 105q179 0 292 -136l-150 -123q-50 82 -142 82q-79 0 -126.5 -53.5t-47.5 -132.5t48.5 -132.5t125.5 -53.5q92 0 142 82l150 -123q-48 -59 -118.5 -94t-147.5 -40z" />
    <glyph glyph-name="Egrave" unicode="&#xc8;" horiz-adv-x="667" 
d="M500 265h-249v-104h379v-160h-568v704h547v-160h-358v-125h249v-155zM316 747l-195 169l202 16l104 -185h-111z" />
    <glyph glyph-name="Eacute" unicode="&#xc9;" horiz-adv-x="667" 
d="M500 265h-249v-104h379v-160h-568v704h547v-160h-358v-125h249v-155zM363 747h-111l104 185l202 -16z" />
    <glyph glyph-name="Ecircumflex" unicode="&#xca;" horiz-adv-x="667" 
d="M500 265h-249v-104h379v-160h-568v704h547v-160h-358v-125h249v-155zM291 912h114l148 -165h-122l-84 81l-84 -81h-120z" />
    <glyph glyph-name="Igrave" unicode="&#xcc;" horiz-adv-x="327" 
d="M8 705h285v-575h72v-130h-357v130h90v445h-90v130zM112 747l-195 169l202 16l104 -185h-111z" />
    <glyph glyph-name="Iacute" unicode="&#xcd;" horiz-adv-x="327" 
d="M8 705h285v-575h72v-130h-357v130h90v445h-90v130zM221 747h-111l104 185l202 -16z" />
    <glyph glyph-name="Icircumflex" unicode="&#xce;" horiz-adv-x="327" 
d="M8 705h285v-575h72v-130h-357v130h90v445h-90v130zM106 912h114l148 -165h-122l-84 81l-84 -81h-120z" />
    <glyph glyph-name="Eth" unicode="&#xd0;" horiz-adv-x="815" 
d="M444 0h-333v275h-80v154h80v276h310q148 0 251.5 -103.5t103.5 -249.5q0 -140 -96.5 -241.5t-235.5 -110.5zM421 534h-121v-105h123v-154h-123v-104h127q68 3 112.5 57.5t44.5 123.5q0 54 -26 98.5t-73 69.5q-31 14 -64 14z" />
    <glyph glyph-name="Ntilde" unicode="&#xd1;" horiz-adv-x="785" 
d="M723 705v-705h-92l-374 363v-363h-195v705h92l374 -363v363h195zM523 931l81 -10q0 -66 -32 -120t-92 -54q-37 0 -88 20q-7 2 -19.5 6.5t-18.5 6.5q-18 6 -30 6q-34 0 -60 -55l-82 9q0 68 30.5 121t93.5 53q36 0 89 -19q26 -10 38 -14q17 -6 29 -6q36 0 61 56z" />
    <glyph glyph-name="Ograve" unicode="&#xd2;" horiz-adv-x="831" 
d="M37 352q0 153 112 257.5t265 104.5q155 0 266 -105t111 -257q0 -153 -112 -257.5t-265 -104.5q-154 0 -265.5 105.5t-111.5 256.5zM345 180q31 -15 69 -15q76 0 127.5 55.5t51.5 131.5q0 77 -51.5 132t-127.5 55t-127 -55.5t-51 -131.5q0 -55 29.5 -103.5t79.5 -68.5z
M366 747l-195 169l202 16l104 -185h-111z" />
    <glyph glyph-name="Oacute" unicode="&#xd3;" horiz-adv-x="831" 
d="M37 352q0 153 112 257.5t265 104.5q155 0 266 -105t111 -257q0 -153 -112 -257.5t-265 -104.5q-154 0 -265.5 105.5t-111.5 256.5zM345 180q31 -15 69 -15q76 0 127.5 55.5t51.5 131.5q0 77 -51.5 132t-127.5 55t-127 -55.5t-51 -131.5q0 -55 29.5 -103.5t79.5 -68.5z
M473 747h-111l104 185l202 -16z" />
    <glyph glyph-name="Ocircumflex" unicode="&#xd4;" horiz-adv-x="831" 
d="M37 352q0 153 112 257.5t265 104.5q155 0 266 -105t111 -257q0 -153 -112 -257.5t-265 -104.5q-154 0 -265.5 105.5t-111.5 256.5zM345 180q31 -15 69 -15q76 0 127.5 55.5t51.5 131.5q0 77 -51.5 132t-127.5 55t-127 -55.5t-51 -131.5q0 -55 29.5 -103.5t79.5 -68.5z
M359 912h114l148 -165h-122l-84 81l-84 -81h-120z" />
    <glyph glyph-name="Otilde" unicode="&#xd5;" horiz-adv-x="831" 
d="M37 352q0 153 112 257.5t265 104.5q155 0 266 -105t111 -257q0 -153 -112 -257.5t-265 -104.5q-154 0 -265.5 105.5t-111.5 256.5zM345 180q31 -15 69 -15q76 0 127.5 55.5t51.5 131.5q0 77 -51.5 132t-127.5 55t-127 -55.5t-51 -131.5q0 -55 29.5 -103.5t79.5 -68.5z
M546 931l81 -10q0 -66 -32 -120t-92 -54q-37 0 -88 20q-7 2 -19.5 6.5t-18.5 6.5q-18 6 -30 6q-34 0 -60 -55l-82 9q0 68 30.5 121t93.5 53q36 0 89 -19q26 -10 38 -14q16 -6 29 -6q36 0 61 56z" />
    <glyph glyph-name="Odieresis" unicode="&#xd6;" horiz-adv-x="831" 
d="M37 352q0 153 112 257.5t265 104.5q155 0 266 -105t111 -257q0 -153 -112 -257.5t-265 -104.5q-154 0 -265.5 105.5t-111.5 256.5zM345 180q31 -15 69 -15q76 0 127.5 55.5t51.5 131.5q0 77 -51.5 132t-127.5 55t-127 -55.5t-51 -131.5q0 -55 29.5 -103.5t79.5 -68.5z
M250 760q-12 10 -18 27q-7 14 -7 32q0 36 24.5 60t60.5 24q34 0 60 -24q24 -25 24 -60t-24.5 -59.5t-59.5 -24.5q-19 0 -33 7q-17 6 -27 18zM466 760q-12 10 -18 27q-7 14 -7 32q0 36 24.5 60t60.5 24q34 0 60 -24q24 -25 24 -60t-24.5 -59.5t-59.5 -24.5q-19 0 -33 7
q-17 6 -27 18z" />
    <glyph glyph-name="multiply" unicode="&#xd7;" horiz-adv-x="648" 
d="M435 316l161 -161l-110 -111l-161 161l-161 -161l-111 111l161 161l-161 161l111 110l161 -161l161 161l110 -110z" />
    <glyph glyph-name="Oslash" unicode="&#xd8;" horiz-adv-x="831" 
d="M226 38l-33 -38h-158l96 112q-94 103 -94 240q0 153 112 257.5t265 104.5q103 0 192 -51l36 42h158l-101 -117q92 -103 92 -236q0 -153 -112 -257.5t-265 -104.5q-98 0 -188 48zM258 260l227 263q-33 16 -71 16q-76 0 -127 -55.5t-51 -131.5q0 -51 22 -92zM572 440
l-225 -262q27 -13 67 -13q76 0 127.5 55.5t51.5 131.5q0 21 -5 46q-6 24 -16 42z" />
    <glyph glyph-name="Ugrave" unicode="&#xd9;" horiz-adv-x="758" 
d="M54 283v422h189v-371q0 -83 29 -127.5t107 -44.5t108 44.5t30 127.5v371h189l-1 -422q0 -141 -92.5 -217t-233.5 -76q-144 0 -234.5 77.5t-90.5 215.5zM334 747l-195 169l202 16l104 -185h-111z" />
    <glyph glyph-name="Uacute" unicode="&#xda;" horiz-adv-x="758" 
d="M54 283v422h189v-371q0 -83 29 -127.5t107 -44.5t108 44.5t30 127.5v371h189l-1 -422q0 -141 -92.5 -217t-233.5 -76q-144 0 -234.5 77.5t-90.5 215.5zM426 747h-111l104 185l202 -16z" />
    <glyph glyph-name="Ucircumflex" unicode="&#xdb;" horiz-adv-x="758" 
d="M54 283v422h189v-371q0 -83 29 -127.5t107 -44.5t108 44.5t30 127.5v371h189l-1 -422q0 -141 -92.5 -217t-233.5 -76q-144 0 -234.5 77.5t-90.5 215.5zM322 912h114l148 -165h-122l-84 81l-84 -81h-120z" />
    <glyph glyph-name="Udieresis" unicode="&#xdc;" horiz-adv-x="758" 
d="M54 283v422h189v-371q0 -83 29 -127.5t107 -44.5t108 44.5t30 127.5v371h189l-1 -422q0 -141 -92.5 -217t-233.5 -76q-144 0 -234.5 77.5t-90.5 215.5zM210 763q-12 11 -18 27q-7 14 -7 32q0 36 24.5 60t60.5 24q34 0 60 -24q24 -26 24 -60q0 -35 -24.5 -59.5
t-59.5 -24.5q-19 0 -33 7q-17 6 -27 18zM426 763q-12 11 -18 27q-7 14 -7 32q0 36 24.5 60t60.5 24q34 0 60 -24q24 -26 24 -60q0 -35 -24.5 -59.5t-59.5 -24.5q-19 0 -33 7q-17 6 -27 18z" />
    <glyph glyph-name="Yacute" unicode="&#xdd;" horiz-adv-x="723" 
d="M362 441l142 264h221l-266 -468v-237h-195v237l-266 468h221zM401 747h-111l104 185l202 -16z" />
    <glyph glyph-name="Thorn" unicode="&#xde;" horiz-adv-x="682" 
d="M352 85h-96v-85h-194v700h194v-80h106q133 0 212 -68.5t79 -196.5q0 -133 -83.5 -201.5t-217.5 -68.5zM347 464h-91v-224h92q53 0 82 30t29 83q0 111 -112 111z" />
    <glyph glyph-name="germandbls" unicode="&#xdf;" horiz-adv-x="676" 
d="M240 539v-714h-189v677q3 119 79 190.5t193 71.5q115 0 187 -59.5t72 -169.5q0 -72 -59 -119q56 -25 88.5 -69t32.5 -103q0 -121 -75.5 -187.5t-196.5 -66.5h-18q-7 0 -19 2v154h10q49 0 79 22q34 22 34 76q0 44 -30 65.5t-76 21.5h-17v138q49 0 67 51q3 14 3 25
q0 32 -24 51t-57 19q-40 0 -66 -26q-18 -21 -18 -50z" />
    <glyph glyph-name="agrave" unicode="&#xe0;" horiz-adv-x="666" 
d="M431 522v23h189v-545h-189v29q-68 -39 -132 -39q-121 0 -196.5 81.5t-75.5 201.5q0 123 75.5 203t196.5 80q67 0 132 -34zM213 273q0 -55 32.5 -87.5t88.5 -32.5q57 0 97 34v171q-40 34 -97 34q-54 0 -87.5 -32.5t-33.5 -86.5zM265 589l-195 169l202 16l104 -185h-111z
" />
    <glyph glyph-name="aacute" unicode="&#xe1;" horiz-adv-x="666" 
d="M431 522v23h189v-545h-189v29q-68 -39 -132 -39q-121 0 -196.5 81.5t-75.5 201.5q0 123 75.5 203t196.5 80q67 0 132 -34zM213 273q0 -55 32.5 -87.5t88.5 -32.5q57 0 97 34v171q-40 34 -97 34q-54 0 -87.5 -32.5t-33.5 -86.5zM341 589h-111l104 185l202 -16z" />
    <glyph glyph-name="acircumflex" unicode="&#xe2;" horiz-adv-x="666" 
d="M431 522v23h189v-545h-189v29q-68 -39 -132 -39q-121 0 -196.5 81.5t-75.5 201.5q0 123 75.5 203t196.5 80q67 0 132 -34zM213 273q0 -55 32.5 -87.5t88.5 -32.5q57 0 97 34v171q-40 34 -97 34q-54 0 -87.5 -32.5t-33.5 -86.5zM240 752h114l148 -165h-122l-84 81l-84 -81
h-120z" />
    <glyph glyph-name="atilde" unicode="&#xe3;" horiz-adv-x="666" 
d="M431 522v23h189v-545h-189v29q-68 -39 -132 -39q-121 0 -196.5 81.5t-75.5 201.5q0 123 75.5 203t196.5 80q67 0 132 -34zM213 273q0 -55 32.5 -87.5t88.5 -32.5q57 0 97 34v171q-40 34 -97 34q-54 0 -87.5 -32.5t-33.5 -86.5zM425 774l81 -10q0 -66 -32 -120t-92 -54
q-37 0 -88 20q-7 2 -19.5 6.5t-18.5 6.5q-18 6 -30 6q-34 0 -60 -55l-82 9q0 68 30.5 121t93.5 53q36 0 89 -19q26 -10 38 -14q17 -6 29 -6q36 0 61 56z" />
    <glyph glyph-name="adieresis" unicode="&#xe4;" horiz-adv-x="666" 
d="M431 522v23h189v-545h-189v29q-68 -39 -132 -39q-121 0 -196.5 81.5t-75.5 201.5q0 123 75.5 203t196.5 80q67 0 132 -34zM213 273q0 -55 32.5 -87.5t88.5 -32.5q57 0 97 34v171q-40 34 -97 34q-54 0 -87.5 -32.5t-33.5 -86.5zM161 605q-12 11 -18 27q-7 14 -7 32
q0 36 24.5 60t60.5 24q35 0 60 -24q24 -26 24 -60q0 -35 -24.5 -59.5t-59.5 -24.5q-19 0 -33 7q-16 6 -27 18zM377 605q-12 11 -18 27q-7 14 -7 32q0 36 24.5 60t60.5 24q35 0 60 -24q24 -26 24 -60q0 -35 -24.5 -59.5t-59.5 -24.5q-19 0 -33 7q-16 6 -27 18z" />
    <glyph glyph-name="aring" unicode="&#xe5;" horiz-adv-x="666" 
d="M431 522v23h189v-545h-189v29q-68 -39 -132 -39q-121 0 -196.5 81.5t-75.5 201.5q0 123 75.5 203t196.5 80q67 0 132 -34zM213 273q0 -55 32.5 -87.5t88.5 -32.5q57 0 97 34v171q-40 34 -97 34q-54 0 -87.5 -32.5t-33.5 -86.5zM245 630q-41 34 -41 90q0 52 40.5 89
t92.5 37q50 0 93 -37q40 -40 40 -91t-40.5 -89t-92.5 -38q-53 0 -92 39zM270 718q0 -27 20 -46.5t47 -19.5q28 0 47.5 19.5t19.5 48.5q0 28 -19.5 46.5t-47.5 18.5q-29 0 -48 -19.5t-19 -47.5z" />
    <glyph glyph-name="ae" unicode="&#xe6;" horiz-adv-x="1073" 
d="M617 43v-43h-189v29q-68 -39 -133 -39q-122 0 -196.5 80.5t-74.5 201.5q0 124 75 203.5t196 79.5q69 0 133 -33v23h189v-37q69 44 143 47q3 1 8 1h9q128 0 198.5 -84t70.5 -212v-19q0 -3 -1 -10t-1 -10h-361q21 -89 116 -89q66 0 121 55l105 -87q-88 -110 -232 -110
q-103 0 -176 53zM205 272q0 -56 35 -89t91 -33q53 0 97 37v171q-43 37 -97 37q-39 0 -70.5 -19.5t-45.5 -54.5q-10 -21 -10 -49zM774 416q-40 0 -63 -27.5t-31 -70.5h188q-4 42 -28.5 70t-65.5 28z" />
    <glyph glyph-name="ccedilla" unicode="&#xe7;" horiz-adv-x="569" 
d="M344 -9l-63 -121l-177 16l118 118q-193 93 -193 268q0 120 89 201.5t210 81.5q137 0 219 -115l-120 -109q-32 61 -99 61q-48 0 -81 -36t-33 -84q0 -36 19 -66t51 -43q19 -10 44 -10q30 0 57.5 17t41.5 44l118 -108q-70 -105 -201 -115z" />
    <glyph glyph-name="egrave" unicode="&#xe8;" horiz-adv-x="605" 
d="M441 202l118 -96q-41 -58 -107 -87t-142 -29q-121 0 -200.5 81.5t-79.5 200.5q0 122 80 202.5t200 80.5q127 0 196.5 -84t69.5 -211l-1 -39h-357q12 -40 41.5 -63.5t70.5 -23.5q68 0 111 68zM310 411q-34 0 -57.5 -24.5t-34.5 -59.5h180q0 33 -15 56q-24 28 -73 28z
M255 589l-195 169l202 16l104 -185h-111z" />
    <glyph glyph-name="eacute" unicode="&#xe9;" horiz-adv-x="605" 
d="M441 202l118 -96q-41 -58 -107 -87t-142 -29q-121 0 -200.5 81.5t-79.5 200.5q0 122 80 202.5t200 80.5q127 0 196.5 -84t69.5 -211l-1 -39h-357q12 -40 41.5 -63.5t70.5 -23.5q68 0 111 68zM310 411q-34 0 -57.5 -24.5t-34.5 -59.5h180q0 33 -15 56q-24 28 -73 28z
M351 589h-111l104 185l202 -16z" />
    <glyph glyph-name="ecircumflex" unicode="&#xea;" horiz-adv-x="605" 
d="M441 202l118 -96q-41 -58 -107 -87t-142 -29q-121 0 -200.5 81.5t-79.5 200.5q0 122 80 202.5t200 80.5q127 0 196.5 -84t69.5 -211l-1 -39h-357q12 -40 41.5 -63.5t70.5 -23.5q68 0 111 68zM310 411q-34 0 -57.5 -24.5t-34.5 -59.5h180q0 33 -15 56q-24 28 -73 28z
M242 752h114l148 -165h-122l-84 81l-84 -81h-120z" />
    <glyph glyph-name="edieresis" unicode="&#xeb;" horiz-adv-x="667" 
d="M500 265h-249v-104h379v-160h-568v704h547v-160h-358v-125h249v-155zM180 760q-12 10 -18 27q-7 14 -7 32q0 36 24.5 60t60.5 24q34 0 60 -24q24 -25 24 -60t-24.5 -59.5t-59.5 -24.5q-19 0 -33 7q-17 6 -27 18zM396 760q-12 10 -18 27q-7 14 -7 32q0 36 24.5 60t60.5 24
q34 0 60 -24q24 -25 24 -60t-24.5 -59.5t-59.5 -24.5q-19 0 -33 7q-17 6 -27 18z" />
    <glyph glyph-name="igrave" unicode="&#xec;" horiz-adv-x="300" 
d="M244 545v-545h-189v545h189zM106 589l-195 169l202 16l104 -185h-111z" />
    <glyph glyph-name="iacute" unicode="&#xed;" horiz-adv-x="300" 
d="M244 545v-545h-189v545h189zM199 589h-111l104 185l202 -16z" />
    <glyph glyph-name="icircumflex" unicode="&#xee;" horiz-adv-x="300" 
d="M244 545v-545h-189v545h189zM94 752h114l148 -165h-122l-84 81l-84 -81h-120z" />
    <glyph glyph-name="idieresis" unicode="&#xef;" horiz-adv-x="300" 
d="M244 545v-545h-189v545h189zM8 587q-24 9 -38 30t-14 47q0 16 6 33q8 15 18 27q27 24 61 24q35 0 60 -24q24 -26 24 -60q0 -35 -24.5 -59.5t-59.5 -24.5q-19 0 -33 7zM197 605q-12 11 -18 27q-7 14 -7 32q0 36 24.5 60t60.5 24q35 0 60 -24q24 -26 24 -60
q0 -35 -24.5 -59.5t-59.5 -24.5q-19 0 -33 7q-16 6 -27 18z" />
    <glyph glyph-name="eth" unicode="&#xf0;" horiz-adv-x="656" 
d="M346 495l-42 56l-140 -48q-22 27 -33 43q-5 6 -12.5 17t-10.5 14q-10 13 -9 15l11 4q4 2 14 5.5t16 5.5q15 6 44 16q27 9 53 18l-86 113h202l44 -58q30 10 43 15q18 7 35 12q6 2 17 6t15 5l62 -90l-103 -36q36 -47 58.5 -81t48.5 -81t39 -94.5t13 -94.5v-17
q-9 -112 -97 -181t-202 -69q-118 0 -208.5 76t-90.5 191q0 66 27.5 114.5t75 74.5t101 37.5t115.5 11.5zM212 257q0 -47 33.5 -80t80.5 -33t80.5 33t33.5 80q0 36 -18.5 63t-51.5 41q-22 8 -44 8q-47 0 -80.5 -33t-33.5 -79z" />
    <glyph glyph-name="ntilde" unicode="&#xf1;" horiz-adv-x="634" 
d="M240 363v-363h-189v545h189v-21q55 31 113 31q135 0 184 -61.5t49 -194.5v-299h-189v299q0 48 -17 70.5t-62 22.5q-46 0 -78 -29zM450 774l81 -10q0 -66 -32 -120t-92 -54q-37 0 -88 20q-7 2 -19.5 6.5t-18.5 6.5q-18 6 -30 6q-34 0 -60 -55l-82 9q0 68 30.5 121t93.5 53
q36 0 89 -19q26 -10 38 -14q16 -6 29 -6q36 0 61 56z" />
    <glyph glyph-name="ograve" unicode="&#xf2;" horiz-adv-x="656" 
d="M28 272q0 120 89 201.5t210 81.5q123 0 211 -81.5t88 -201.5t-89 -201t-210 -81t-210 81.5t-89 200.5zM283 163q19 -10 44 -10q48 0 81 35.5t33 83.5q0 74 -69 111q-21 9 -45 9q-48 0 -81 -36t-33 -84q0 -36 19 -66t51 -43zM280 589l-195 169l202 16l104 -185h-111z" />
    <glyph glyph-name="oacute" unicode="&#xf3;" horiz-adv-x="656" 
d="M28 272q0 120 89 201.5t210 81.5q123 0 211 -81.5t88 -201.5t-89 -201t-210 -81t-210 81.5t-89 200.5zM283 163q19 -10 44 -10q48 0 81 35.5t33 83.5q0 74 -69 111q-21 9 -45 9q-48 0 -81 -36t-33 -84q0 -36 19 -66t51 -43zM379 589h-111l104 185l202 -16z" />
    <glyph glyph-name="ocircumflex" unicode="&#xf4;" horiz-adv-x="656" 
d="M28 272q0 120 89 201.5t210 81.5q123 0 211 -81.5t88 -201.5t-89 -201t-210 -81t-210 81.5t-89 200.5zM283 163q19 -10 44 -10q48 0 81 35.5t33 83.5q0 74 -69 111q-21 9 -45 9q-48 0 -81 -36t-33 -84q0 -36 19 -66t51 -43zM270 752h114l148 -165h-122l-84 81l-84 -81
h-120z" />
    <glyph glyph-name="otilde" unicode="&#xf5;" horiz-adv-x="656" 
d="M28 272q0 120 89 201.5t210 81.5q123 0 211 -81.5t88 -201.5t-89 -201t-210 -81t-210 81.5t-89 200.5zM283 163q19 -10 44 -10q48 0 81 35.5t33 83.5q0 74 -69 111q-21 9 -45 9q-48 0 -81 -36t-33 -84q0 -36 19 -66t51 -43zM458 774l81 -10q0 -66 -32 -120t-92 -54
q-37 0 -88 20q-7 2 -19.5 6.5t-18.5 6.5q-18 6 -30 6q-34 0 -60 -55l-82 9q0 68 30.5 121t93.5 53q36 0 89 -19q26 -10 38 -14q16 -6 29 -6q36 0 61 56z" />
    <glyph glyph-name="odieresis" unicode="&#xf6;" horiz-adv-x="656" 
d="M28 272q0 120 89 201.5t210 81.5q123 0 211 -81.5t88 -201.5t-89 -201t-210 -81t-210 81.5t-89 200.5zM283 163q19 -10 44 -10q48 0 81 35.5t33 83.5q0 74 -69 111q-21 9 -45 9q-48 0 -81 -36t-33 -84q0 -36 19 -66t51 -43zM161 605q-12 11 -18 27q-7 14 -7 32
q0 36 24.5 60t60.5 24q35 0 60 -24q24 -26 24 -60q0 -35 -24.5 -59.5t-59.5 -24.5q-19 0 -33 7q-16 6 -27 18zM377 605q-12 11 -18 27q-7 14 -7 32q0 36 24.5 60t60.5 24q35 0 60 -24q24 -26 24 -60q0 -35 -24.5 -59.5t-59.5 -24.5q-19 0 -33 7q-16 6 -27 18z" />
    <glyph glyph-name="divide" unicode="&#xf7;" horiz-adv-x="526" 
d="M193 38q-28 25 -28 65q0 38 28 66q30 27 66 27t66 -27q27 -30 27 -66q0 -38 -27.5 -65.5t-65.5 -27.5t-66 28zM488 256h-448v156h448v-156zM193 500q-28 25 -28 65q0 38 28 66q30 27 66 27t66 -27q27 -30 27 -66q0 -38 -27.5 -65.5t-65.5 -27.5t-66 28z" />
    <glyph glyph-name="oslash" unicode="&#xf8;" horiz-adv-x="656" 
d="M177 28l-26 -29h-134l81 91q-70 79 -70 182q0 120 89 201.5t210 81.5q83 0 154 -40l28 31h133l-85 -94q69 -81 69 -180q0 -120 -89 -201t-210 -81q-80 0 -150 38zM221 227l143 158q-14 7 -37 7q-48 0 -81 -36t-33 -84q0 -21 8 -45zM433 314l-140 -156q15 -5 34 -5
q48 0 81 35.5t33 83.5q0 20 -8 42z" />
    <glyph glyph-name="ugrave" unicode="&#xf9;" horiz-adv-x="634" 
d="M48 246v299h189v-299q0 -47 17 -70t62 -23q46 0 78 29v363h189v-545h-189v21q-55 -31 -113 -31q-134 0 -183.5 62t-49.5 194zM280 589l-195 169l202 16l104 -185h-111z" />
    <glyph glyph-name="uacute" unicode="&#xfa;" horiz-adv-x="634" 
d="M48 246v299h189v-299q0 -47 17 -70t62 -23q46 0 78 29v363h189v-545h-189v21q-55 -31 -113 -31q-134 0 -183.5 62t-49.5 194zM354 589h-111l104 185l202 -16z" />
    <glyph glyph-name="ucircumflex" unicode="&#xfb;" horiz-adv-x="634" 
d="M48 246v299h189v-299q0 -47 17 -70t62 -23q46 0 78 29v363h189v-545h-189v21q-55 -31 -113 -31q-134 0 -183.5 62t-49.5 194zM260 752h114l148 -165h-122l-84 81l-84 -81h-120z" />
    <glyph glyph-name="udieresis" unicode="&#xfc;" horiz-adv-x="634" 
d="M48 246v299h189v-299q0 -47 17 -70t62 -23q46 0 78 29v363h189v-545h-189v21q-55 -31 -113 -31q-134 0 -183.5 62t-49.5 194zM153 605q-12 11 -18 27q-7 14 -7 32q0 36 24.5 60t60.5 24q35 0 60 -24q24 -26 24 -60q0 -35 -24.5 -59.5t-59.5 -24.5q-19 0 -33 7
q-16 6 -27 18zM369 605q-12 11 -18 27q-7 14 -7 32q0 36 24.5 60t60.5 24q35 0 60 -24q24 -26 24 -60q0 -35 -24.5 -59.5t-59.5 -24.5q-19 0 -33 7q-16 6 -27 18z" />
    <glyph glyph-name="yacute" unicode="&#xfd;" horiz-adv-x="626" 
d="M33 -188l25 135h16q70 0 104 22q19 15 29 31l-196 545h197l103 -315l111 315h193l-222 -574q-14 -38 -48 -74t-71 -56q-59 -32 -148 -32q-56 0 -93 3zM350 589h-111l104 185l202 -16z" />
    <glyph glyph-name="thorn" unicode="&#xfe;" horiz-adv-x="676" 
d="M240 20v-195h-189v929h189v-229q70 30 132 30q123 0 197.5 -80.5t74.5 -202.5t-76 -202t-196 -80q-62 0 -132 30zM240 358v-171q40 -34 97 -34q56 0 88.5 31.5t32.5 87.5q0 54 -33.5 87t-87.5 33q-57 0 -97 -34z" />
    <glyph glyph-name="ydieresis" unicode="&#xff;" horiz-adv-x="626" 
d="M33 -188l25 135h16q70 0 104 22q19 15 29 31l-196 545h197l103 -315l111 315h193l-222 -574q-14 -38 -48 -74t-71 -56q-59 -32 -148 -32q-56 0 -93 3zM144 605q-12 11 -18 27q-7 14 -7 32q0 36 24.5 60t60.5 24q34 0 60 -24q24 -26 24 -60q0 -35 -24.5 -59.5t-59.5 -24.5
q-19 0 -33 7q-17 6 -27 18zM360 605q-12 11 -18 27q-7 14 -7 32q0 36 24.5 60t60.5 24q34 0 60 -24q24 -26 24 -60q0 -35 -24.5 -59.5t-59.5 -24.5q-19 0 -33 7q-17 6 -27 18z" />
    <glyph glyph-name="dotlessi" unicode="&#x131;" horiz-adv-x="300" 
d="M251 0h-195v541h195v-541z" />
    <glyph glyph-name="Lslash" unicode="&#x141;" horiz-adv-x="659" 
d="M479 351l-179 -53v-142h338v-156h-533v241l-74 -22v177l74 22v287h195v-230l179 53v-177z" />
    <glyph glyph-name="lslash" unicode="&#x142;" horiz-adv-x="401" 
d="M292 475l85 27v-177l-85 -27v-298h-195v241l-74 -22v177l74 22v287h195v-230z" />
    <glyph glyph-name="OE" unicode="&#x152;" horiz-adv-x="1078" 
d="M659 544v-124h296v-156h-296v-103h379v-161h-666q-139 9 -235.5 111t-96.5 241q0 148 104.5 250.5t250.5 102.5h622v-161h-358zM389 171h81v363h-75q-70 0 -116.5 -55.5t-46.5 -126.5q0 -38 13 -68q18 -49 56 -80t88 -33z" />
    <glyph glyph-name="oe" unicode="&#x153;" horiz-adv-x="1013" 
d="M857 186l105 -87q-88 -110 -232 -110q-127 0 -208 81q-81 -81 -202 -81q-120 0 -205.5 82.5t-85.5 200.5q0 121 87 202t208 81q123 0 200 -81q75 81 189 81q130 0 200 -83t70 -213v-19q-1 -3 -1 -9.5t-1 -10.5h-361q21 -89 116 -89q66 0 121 55zM223 225
q10 -32 39.5 -53.5t63.5 -21.5q50 0 80.5 35.5t30.5 86.5q0 23 -8 47q-14 34 -42 54.5t-63 20.5q-51 0 -80.5 -35.5t-29.5 -86.5q0 -24 9 -47zM711 415q-40 0 -63 -27.5t-31 -70.5h188q-4 42 -28.5 70t-65.5 28z" />
    <glyph glyph-name="Scaron" unicode="&#x160;" horiz-adv-x="652" 
d="M31 58l1 2l21 179l140 -17l-6 -53q78 -18 157 -18q80 0 80 50q0 14 -11.5 25.5t-21.5 15.5t-27 10q-27 9 -58 16q-48 11 -78.5 19.5t-69.5 26t-61.5 39t-38.5 57t-16 80.5q0 74 40 126.5t99.5 75t131.5 22.5q131 0 282 -58l-78 -149q-124 46 -209 46q-28 0 -49 -11
t-21 -36q0 -37 61 -53q45 -12 60 -15q45 -11 76 -20t69 -27t61 -39.5t39 -56t16 -77.5q0 -59 -24 -104.5t-65 -71.5t-90 -39t-104 -13q-96 0 -161 14t-145 54zM237 913l84 -81l84 81h120l-148 -165h-114l-148 165h122z" />
    <glyph glyph-name="scaron" unicode="&#x161;" horiz-adv-x="514" 
d="M466 510l-63 -133q-96 34 -161 34q-25 0 -33 -5q-8 -6 -8 -17q0 -19 47 -32q33 -8 46 -11q89 -19 140.5 -58t51.5 -119q0 -90 -64.5 -134.5t-156.5 -44.5q-74 0 -126.5 11t-113.5 42l69 134q56 -25 92 -33q21 -7 40 -8q20 -3 44 -3t35 7q11 8 11 18q0 5 -2 11
q-9 13 -79 29q-46 11 -76.5 22t-62 31.5t-47 52t-15.5 75.5q0 86 62 131t150 45q102 0 220 -45zM177 751l84 -81l84 81h120l-148 -165h-114l-148 165h122z" />
    <glyph glyph-name="Ydieresis" unicode="&#x178;" horiz-adv-x="723" 
d="M725 705l-266 -468v-106h92v-131h-373v131h87v106l-266 468h221l142 -264l142 264h221zM194 760q-12 10 -18 27q-7 14 -7 32q0 36 24.5 60t60.5 24q34 0 60 -24q24 -25 24 -60t-24.5 -59.5t-59.5 -24.5q-19 0 -33 7q-17 6 -27 18zM410 760q-12 10 -18 27q-7 14 -7 32
q0 36 24.5 60t60.5 24q34 0 60 -24q24 -25 24 -60t-24.5 -59.5t-59.5 -24.5q-19 0 -33 7q-17 6 -27 18z" />
    <glyph glyph-name="Zcaron" unicode="&#x17d;" horiz-adv-x="698" 
d="M318 161h198v59h143v-220h-619v81l343 463h-331v161h607v-85zM271 913l84 -81l84 81h120l-148 -165h-114l-148 165h122z" />
    <glyph glyph-name="zcaron" unicode="&#x17e;" horiz-adv-x="563" 
d="M544 543v-87l-245 -307h236v-149h-516v87l245 307h-222v149h502zM203 751l84 -81l84 81h120l-148 -165h-114l-148 165h122z" />
    <glyph glyph-name="florin" unicode="&#x192;" horiz-adv-x="553" 
d="M58 50v145h8q41 0 59 18t28 58q3 11 13 61l3 17h-61v149h90l16 78q16 81 71 130t135 49q34 0 57 -3q23 -4 33 -9q13 -4 19 -12v-134q-33 3 -55 3q-48 0 -62 -20q-8 -10 -13 -30q-10 -44 -11 -48l-1 -4h92v-149h-121l-24 -130q-13 -79 -70.5 -129.5t-135.5 -50.5
q-31 0 -56 7q-1 0 -6 1.5t-8 2.5z" />
    <glyph glyph-name="circumflex" unicode="&#x2c6;" 
d="M193 752h114l148 -165h-122l-84 81l-84 -81h-120z" />
    <glyph glyph-name="caron" unicode="&#x2c7;" 
d="M167 752l84 -81l84 81h120l-148 -165h-114l-148 165h122z" />
    <glyph glyph-name="breve" unicode="&#x2d8;" 
d="M53 742l111 10q20 -58 86 -58q65 0 86 58l111 -10q-15 -157 -197 -157q-85 0 -137.5 38t-59.5 119z" />
    <glyph glyph-name="dotaccent" unicode="&#x2d9;" 
d="M193 603q-12 11 -18 27q-7 14 -7 32q0 36 24.5 60t60.5 24q35 0 60 -24q24 -26 24 -60q0 -35 -24.5 -59.5t-59.5 -24.5q-19 0 -33 7q-16 6 -27 18z" />
    <glyph glyph-name="ring" unicode="&#x2da;" 
d="M158 630q-41 34 -41 90q0 52 40.5 89t92.5 37q50 0 93 -37q40 -40 40 -91t-40.5 -89t-92.5 -38q-53 0 -92 39zM183 718q0 -27 20 -46.5t47 -19.5q28 0 47.5 19.5t19.5 48.5q0 28 -19.5 46.5t-47.5 18.5t-47.5 -19.5t-19.5 -47.5z" />
    <glyph glyph-name="ogonek" unicode="&#x2db;" 
d="M177 10h122q-5 -22 -5 -34q0 -56 87 -58v-82q-30 -3 -56 -3q-167 0 -167 109q0 34 19 68z" />
    <glyph glyph-name="tilde" unicode="&#x2dc;" 
d="M377 764l81 -10q0 -66 -32 -120t-92 -54q-37 0 -88 20q-7 2 -20 6.5t-18 6.5q-18 6 -30 6q-34 0 -60 -55l-82 9q0 68 30.5 121t93.5 53q36 0 89 -19q26 -10 38 -14q17 -6 29 -6q36 0 61 56z" />
    <glyph glyph-name="hungarumlaut" unicode="&#x2dd;" 
d="M315 772l166 -57l-143 -127h-123l59 108l-120 -108h-124l99 184l156 -54z" />
    <glyph glyph-name="uni037E" unicode="&#x37e;" horiz-adv-x="294" 
d="M52 -135l-26 77q27 0 45 3q21 5 30 11q12 8 17 15q7 10 8 20q-36 8 -59.5 36.5t-23.5 65.5q0 43 30 73t73 30q52 0 78 -33.5t26 -86.5q0 -211 -198 -211zM43 443q0 43 30 73t73 30q44 0 74 -30t30 -73q0 -44 -30.5 -73.5t-73.5 -29.5t-73 30t-30 73z" />
    <glyph glyph-name="tonos" unicode="&#x384;" 
d="M213 560h-86l110 212l177 -16z" />
    <glyph glyph-name="dieresistonos" unicode="&#x385;" horiz-adv-x="570" 
d="M31 601q-12 11 -18 27q-7 14 -7 32q0 36 24.5 60t60.5 24q35 0 60 -24q24 -26 24 -60q0 -35 -24.5 -59.5t-59.5 -24.5q-19 0 -33 7q-16 6 -27 18zM395 769l-94 -180h-94l47 213zM417 601q-12 11 -18 27q-7 14 -7 32q0 36 24.5 60t60.5 24q35 0 60 -24q24 -26 24 -60
q0 -35 -24.5 -59.5t-59.5 -24.5q-19 0 -33 7q-16 6 -27 18z" />
    <glyph glyph-name="Alphatonos" unicode="&#x386;" horiz-adv-x="795" 
d="M789 0h-204l-52 117h-272l-51 -117h-204l345 705h92zM465 273l-68 153l-67 -153h135zM33 537h-111l104 185l202 -16z" />
    <glyph glyph-name="anoteleia" unicode="&#x387;" horiz-adv-x="284" 
d="M39 313q0 43 30 73t73 30q44 0 74 -30t30 -73q0 -44 -30.5 -73.5t-73.5 -29.5t-73 30t-30 73z" />
    <glyph glyph-name="Epsilontonos" unicode="&#x388;" horiz-adv-x="667" 
d="M547 264h-296v-103h379v-161h-568v705h547v-161h-358v-124h296v-156zM-167 537h-111l104 185l202 -16z" />
    <glyph glyph-name="Etatonos" unicode="&#x389;" horiz-adv-x="761" 
d="M699 0h-189v155h-259v-155h-189v705h189v-389h259v389h189v-705zM-167 537h-111l104 185l202 -16z" />
    <glyph glyph-name="Iotatonos" unicode="&#x38a;" horiz-adv-x="327" 
d="M261 0h-195v705h195v-705zM-167 537h-111l104 185l202 -16z" />
    <glyph glyph-name="Omicrontonos" unicode="&#x38c;" horiz-adv-x="831" 
d="M37 352q0 153 112 257.5t265 104.5q155 0 266 -105t111 -257q0 -153 -112 -257.5t-265 -104.5q-154 0 -265.5 105.5t-111.5 256.5zM345 180q31 -15 69 -15q76 0 127.5 55.5t51.5 131.5q0 77 -51.5 132t-127.5 55t-127 -55.5t-51 -131.5q0 -55 29.5 -103.5t79.5 -68.5z
M-75 537h-111l104 185l202 -16z" />
    <glyph glyph-name="Upsilontonos" unicode="&#x38e;" horiz-adv-x="723" 
d="M362 441l142 264h221l-266 -468v-237h-195v237l-266 468h221zM-207 537h-111l104 185l202 -16z" />
    <glyph glyph-name="Omegatonos" unicode="&#x38f;" horiz-adv-x="829" 
d="M359 175v-175h-313v161h106q-26 13 -44 34q-71 71 -71 184q0 168 104.5 252t272.5 84q172 0 274.5 -85.5t102.5 -250.5q0 -66 -30.5 -128t-85.5 -90h107v-161h-314v175q62 21 93 77.5t31 126.5q0 57 -28 100t-80 63q-35 11 -70 11q-80 0 -129.5 -48t-49.5 -126
q0 -70 31 -126.5t93 -77.5zM-79 537h-111l104 185l202 -16z" />
    <glyph glyph-name="iotadieresistonos" unicode="&#x390;" horiz-adv-x="300" 
d="M244 545v-545h-189v545h189zM-106 660q0 16 6 33q8 15 18 27q12 10 27 18q17 6 34 6q35 0 60 -24q24 -26 24 -60q0 -35 -24.5 -59.5t-59.5 -24.5t-60 24.5t-25 59.5zM283 769l-94 -180h-94l47 213zM305 601q-12 11 -18 27q-7 14 -7 32q0 36 24.5 60t60.5 24q35 0 60 -24
q24 -26 24 -60q0 -35 -24.5 -59.5t-59.5 -24.5q-19 0 -33 7q-16 6 -27 18z" />
    <glyph glyph-name="Alpha" unicode="&#x391;" horiz-adv-x="795" 
d="M789 0h-204l-52 117h-272l-51 -117h-204l345 705h92zM465 273l-68 153l-67 -153h135z" />
    <glyph glyph-name="Beta" unicode="&#x392;" horiz-adv-x="715" 
d="M475 0h-412v704h357q67 0 112.5 -50.5t45.5 -118.5q0 -56 -31 -102q66 -30 103 -84t37 -125q0 -99 -58 -161.5t-154 -62.5zM404 322h-144v-165h144q90 0 90 83q0 34 -26.5 58t-63.5 24zM353 566h-93v-116h72q38 0 58.5 11t20.5 47q0 24 -17 41t-41 17z" />
    <glyph glyph-name="Gamma" unicode="&#x393;" horiz-adv-x="618" 
d="M62 705h533v-161h-338v-544h-195v705z" />
    <glyph glyph-name="uni0394" unicode="&#x394;" horiz-adv-x="785" 
d="M774 0h-766l338 705h90zM501 161l-110 256l-110 -256h220z" />
    <glyph glyph-name="Epsilon" unicode="&#x395;" horiz-adv-x="667" 
d="M500 265h-249v-104h379v-160h-568v704h547v-160h-358v-125h249v-155z" />
    <glyph glyph-name="Zeta" unicode="&#x396;" horiz-adv-x="698" 
d="M659 705v-85l-341 -459h341v-161h-619v81l343 463h-331v161h607z" />
    <glyph glyph-name="Eta" unicode="&#x397;" horiz-adv-x="761" 
d="M699 0h-189v268h-259v-268h-189v705h189v-281h259v281h189v-705z" />
    <glyph glyph-name="Theta" unicode="&#x398;" horiz-adv-x="831" 
d="M37 352q0 153 112 257.5t265 104.5q155 0 266 -105t111 -257q0 -153 -112 -257.5t-265 -104.5q-154 0 -265.5 105.5t-111.5 256.5zM345 180q31 -15 69 -15q76 0 127.5 55.5t51.5 131.5q0 77 -51.5 132t-127.5 55t-127 -55.5t-51 -131.5q0 -55 29.5 -103.5t79.5 -68.5z
M307 274v156h214v-156h-214z" />
    <glyph glyph-name="Iota" unicode="&#x399;" horiz-adv-x="327" 
d="M261 0h-195v705h195v-705z" />
    <glyph glyph-name="Kappa" unicode="&#x39a;" horiz-adv-x="730" 
d="M736 0h-254l-185 208l-46 -53v-155h-189v705h189v-281l243 282h233l-305 -353z" />
    <glyph glyph-name="Lambda" unicode="&#x39b;" horiz-adv-x="774" 
d="M430 705l330 -705h-203l-171 407l-171 -407h-203l330 705h88z" />
    <glyph glyph-name="Mu" unicode="&#x39c;" horiz-adv-x="868" 
d="M611 0v293l-177 -225l-177 225v-293h-195v705h92l280 -356l280 356h92v-705h-195z" />
    <glyph glyph-name="Nu" unicode="&#x39d;" horiz-adv-x="785" 
d="M723 705v-705h-92l-374 363v-363h-195v705h92l374 -363v363h195z" />
    <glyph glyph-name="Xi" unicode="&#x39e;" horiz-adv-x="708" 
d="M674 0h-626v161h626v-161zM607 274h-492v156h492v-156zM669 544h-616v161h616v-161z" />
    <glyph glyph-name="Omicron" unicode="&#x39f;" horiz-adv-x="831" 
d="M37 352q0 153 112 257.5t265 104.5q155 0 266 -105t111 -257q0 -153 -112 -257.5t-265 -104.5q-154 0 -265.5 105.5t-111.5 256.5zM345 180q31 -15 69 -15q76 0 127.5 55.5t51.5 131.5q0 77 -51.5 132t-127.5 55t-127 -55.5t-51 -131.5q0 -55 29.5 -103.5t79.5 -68.5z
" />
    <glyph glyph-name="Pi" unicode="&#x3a0;" horiz-adv-x="750" 
d="M689 0h-189v544h-248v-544h-189v705h626v-705z" />
    <glyph glyph-name="Rho" unicode="&#x3a1;" horiz-adv-x="673" 
d="M333 155h-76v-155h-195v705h301q136 0 213.5 -68t77.5 -199q0 -147 -87 -215t-234 -68zM330 544h-73v-234h56q61 0 99 28t38 86t-31.5 89t-88.5 31z" />
    <glyph glyph-name="Sigma" unicode="&#x3a3;" horiz-adv-x="690" 
d="M328 544l142 -192l-148 -191h331v-161h-616v85l214 267l-199 268v85h592v-161h-316z" />
    <glyph glyph-name="Tau" unicode="&#x3a4;" horiz-adv-x="660" 
d="M638 544h-209v-414h89v-130h-369v130h85v414h-210v161h614v-161z" />
    <glyph glyph-name="Upsilon" unicode="&#x3a5;" horiz-adv-x="723" 
d="M725 705l-266 -468v-106h92v-131h-373v131h87v106l-266 468h221l142 -264l142 264h221z" />
    <glyph glyph-name="Phi" unicode="&#x3a6;" horiz-adv-x="915" 
d="M553 51v-51h-189v51q-130 3 -224.5 88.5t-103.5 213.5v10q3 129 100.5 215.5t227.5 86.5v40h189v-40q131 -3 228 -89t100 -214v-9q-3 -129 -100.5 -215.5t-227.5 -86.5zM364 217v282q-65 -2 -102 -39t-37 -102q0 -64 38 -102.5t101 -38.5zM553 499v-282q64 0 101.5 39
t37.5 102q0 64 -38 102.5t-101 38.5z" />
    <glyph glyph-name="Chi" unicode="&#x3a7;" horiz-adv-x="732" 
d="M493 357l229 -357h-219l-136 214l-136 -214h-219l230 357l-220 348h215l130 -205l131 205h214z" />
    <glyph glyph-name="Psi" unicode="&#x3a8;" horiz-adv-x="877" 
d="M533 155v-155h-189v155q-121 0 -209.5 86.5t-88.5 205.5v258h189v-258q2 -31 8 -50q13 -48 52 -66q19 -10 49 -10v384h189v-384q103 0 110 126v258h188v-258q-6 -122 -92 -207t-206 -85z" />
    <glyph glyph-name="uni03A9" unicode="&#x3a9;" horiz-adv-x="829" 
d="M359 175v-175h-313v161h106q-26 13 -44 34q-71 71 -71 184q0 168 104.5 252t272.5 84q172 0 274.5 -85.5t102.5 -250.5q0 -66 -30.5 -128t-85.5 -90h107v-161h-314v175q62 21 93 77.5t31 126.5q0 57 -28 100t-80 63q-35 11 -70 11q-80 0 -129.5 -48t-49.5 -126
q0 -70 31 -126.5t93 -77.5z" />
    <glyph glyph-name="Iotadieresis" unicode="&#x3aa;" horiz-adv-x="327" 
d="M261 0h-195v705h195v-705zM22 742q-24 9 -38 30t-14 47q0 17 6 33q8 15 18 27q27 24 61 24q35 0 60 -24q24 -25 24 -60t-24.5 -59.5t-59.5 -24.5q-19 0 -33 7zM211 760q-12 10 -18 27q-7 14 -7 32q0 36 24.5 60t60.5 24q35 0 60 -24q24 -25 24 -60t-24.5 -59.5
t-59.5 -24.5q-19 0 -33 7q-16 6 -27 18z" />
    <glyph glyph-name="Upsilondieresis" unicode="&#x3ab;" horiz-adv-x="723" 
d="M362 441l142 264h221l-266 -468v-237h-195v237l-266 468h221zM195 760q-12 10 -18 27q-7 14 -7 32q0 36 24.5 60t60.5 24q35 0 60 -24q24 -25 24 -60t-24.5 -59.5t-59.5 -24.5q-19 0 -33 7q-16 6 -27 18zM411 760q-12 10 -18 27q-7 14 -7 32q0 36 24.5 60t60.5 24
q35 0 60 -24q24 -25 24 -60t-24.5 -59.5t-59.5 -24.5q-19 0 -33 7q-16 6 -27 18z" />
    <glyph glyph-name="alphatonos" unicode="&#x3ac;" horiz-adv-x="675" 
d="M431 522v23h189v-545h-189v29q-68 -39 -132 -39q-121 0 -196.5 81.5t-75.5 201.5q0 123 75.5 203t196.5 80q67 0 132 -34zM213 273q0 -55 32.5 -87.5t88.5 -32.5q57 0 97 34v171q-40 34 -97 34q-54 0 -87.5 -32.5t-33.5 -86.5zM361 589h-111l104 185l202 -16z" />
    <glyph glyph-name="epsilontonos" unicode="&#x3ad;" horiz-adv-x="578" 
d="M320 325h88v-98h-113q-65 0 -76 -36q-4 -9 -4 -19q0 -14 19 -25q20 -14 61 -14q51 0 92 11t99 36l73 -119q-140 -71 -270 -71q-258 0 -258 161q0 96 103 128q-83 39 -83 116q0 41 16 71.5t39.5 47t58.5 26.5t65.5 12.5t68.5 2.5q110 0 250 -64l-72 -112q-94 35 -152 35
q-31 0 -62 -9t-31 -32q0 -48 88 -48zM351 589h-111l104 185l202 -16z" />
    <glyph glyph-name="etatonos" unicode="&#x3ae;" horiz-adv-x="634" 
d="M240 363v-363h-189v545h189v-21q55 31 113 31q135 0 184 -61.5t49 -194.5v-299h-189v299q0 48 -17 70.5t-62 22.5q-46 0 -78 -29zM361 589h-111l104 185l202 -16z" />
    <glyph glyph-name="iotatonos" unicode="&#x3af;" horiz-adv-x="300" 
d="M244 545v-545h-189v545h189zM208 589h-111l104 185l202 -16z" />
    <glyph glyph-name="upsilondieresistonos" unicode="&#x3b0;" horiz-adv-x="621" 
d="M46 219v326h189v-286q0 -24 0.5 -35.5t4.5 -29t11.5 -26t22 -15t36.5 -6.5q69 0 74 70q1 13 1 42v286h190v-326q0 -105 -79 -167t-186 -62q-108 0 -186 62.5t-78 166.5zM58 601q-12 11 -18 27q-7 14 -7 32q0 36 24.5 60t60.5 24q34 0 60 -24q24 -26 24 -60
q0 -35 -24.5 -59.5t-59.5 -24.5q-19 0 -33 7q-17 6 -27 18zM422 769l-94 -180h-94l47 213zM444 601q-12 11 -18 27q-7 14 -7 32q0 36 24.5 60t60.5 24q34 0 60 -24q24 -26 24 -60q0 -35 -24.5 -59.5t-59.5 -24.5q-19 0 -33 7q-17 6 -27 18z" />
    <glyph glyph-name="alpha" unicode="&#x3b1;" horiz-adv-x="675" 
d="M435 522v23h189v-545h-189v29q-68 -39 -132 -39q-121 0 -196.5 81.5t-75.5 201.5q0 123 75.5 203t196.5 80q67 0 132 -34zM217 273q0 -55 32.5 -87.5t88.5 -32.5q57 0 97 34v171q-40 34 -97 34q-54 0 -87.5 -32.5t-33.5 -86.5z" />
    <glyph glyph-name="beta" unicode="&#x3b2;" horiz-adv-x="673" 
d="M241 20v-195h-189v677q0 117 77.5 190t193.5 73q115 0 187.5 -60t72.5 -170q0 -71 -59 -118q121 -58 121 -173q0 -121 -75.5 -187.5t-196.5 -66.5q-71 0 -132 30zM353 331h-112v-144q47 -41 99 -41q83 0 110 51q9 19 9 47q0 44 -30 65.5t-76 21.5zM241 539v-70h99
q66 3 66 76q0 36 -23 53t-59 17q-83 0 -83 -76z" />
    <glyph glyph-name="gamma" unicode="&#x3b3;" horiz-adv-x="625" 
d="M312 258l107 287h192l-204 -549v-171h-189v175l-208 545h193z" />
    <glyph glyph-name="delta" unicode="&#x3b4;" horiz-adv-x="651" 
d="M284 491l-197 176v87h459v-149h-184q63 -55 108 -89q79 -64 117 -120.5t38 -138.5v-17q-9 -112 -97 -181t-202 -69q-118 0 -208.5 76t-90.5 191q0 98 78.5 166t178.5 68zM212 257q0 -47 33.5 -80t80.5 -33t80.5 33t33.5 80q0 36 -18.5 63t-51.5 41q-22 8 -44 8
q-47 0 -80.5 -33t-33.5 -79z" />
    <glyph glyph-name="epsilon" unicode="&#x3b5;" horiz-adv-x="578" 
d="M320 325h88v-98h-113q-65 0 -76 -36q-4 -9 -4 -19q0 -14 19 -25q20 -14 61 -14q51 0 92 11t99 36l73 -119q-140 -71 -270 -71q-258 0 -258 161q0 96 103 128q-83 39 -83 116q0 41 16 71.5t39.5 47t58.5 26.5t65.5 12.5t68.5 2.5q110 0 250 -64l-72 -112q-94 35 -152 35
q-31 0 -62 -9t-31 -32q0 -48 88 -48z" />
    <glyph glyph-name="zeta" unicode="&#x3b6;" horiz-adv-x="539" 
d="M346 -188l-63 92q33 26 48 42q14 17 14 27q0 18 -37 21q-43 7 -77.5 15t-75 24.5t-67.5 38t-45.5 56t-18.5 78.5q0 55 27.5 116t71.5 113t94.5 96t100.5 74h-245v149h487v-114q-47 -32 -100.5 -77.5t-110.5 -103.5t-94.5 -122t-37.5 -115q0 -23 16 -39t33 -22t42 -12
q30 -8 83 -19q147 -30 147 -135q0 -68 -59.5 -118.5t-132.5 -64.5z" />
    <glyph glyph-name="eta" unicode="&#x3b7;" horiz-adv-x="634" 
d="M240 363v-363h-189v545h189v-21q55 31 113 31q135 0 184 -61.5t49 -194.5v-299h-189v299q0 48 -17 70.5t-62 22.5q-46 0 -78 -29z" />
    <glyph glyph-name="theta" unicode="&#x3b8;" horiz-adv-x="642" 
d="M322 -10q-73 0 -130 35t-89.5 92t-49 122t-16.5 133q0 69 16.5 134.5t49.5 122t89.5 91t129.5 34.5q98 0 165 -61t98 -159q22 -69 22 -162q0 -54 -9 -104.5t-28.5 -99.5t-54.5 -89t-82 -63q-51 -26 -111 -26zM219 296l-4 -1q0 -50 30 -104t77 -54q49 0 78 52.5t29 107.5
h-187q-13 -1 -23 -1zM426 449h3q0 53 -29 105t-78 52t-78 -52.5t-29 -107.5q95 0 124 1q50 0 63 1q21 0 24 1z" />
    <glyph glyph-name="iota" unicode="&#x3b9;" horiz-adv-x="300" 
d="M244 545v-545h-189v545h189z" />
    <glyph glyph-name="kappa" unicode="&#x3ba;" horiz-adv-x="603" 
d="M608 0h-208l-108 186l-52 -59v-127h-189v544h189v-169l146 170h217l-187 -215z" />
    <glyph glyph-name="lambda" unicode="&#x3bb;" horiz-adv-x="600" 
d="M383 574l214 -574h-203l-92 315l-86 -315h-202l213 541q-20 41 -39 59q-19 15 -35.5 19t-44.5 4q-22 -4 -33 -5v140q9 1 27 5q18 2 31 2q93 0 156.5 -50.5t93.5 -140.5z" />
    <glyph glyph-name="uni03BC" unicode="&#x3bc;" horiz-adv-x="638" 
d="M240 6v-181h-189v720h189v-299q0 -47 17 -70t62 -23q46 0 78 29v363h189v-545h-189v17q-46 -27 -94 -27q-29 0 -63 16z" />
    <glyph glyph-name="nu" unicode="&#x3bd;" horiz-adv-x="625" 
d="M207 545l106 -236l105 236h197l-259 -545h-87l-259 545h197z" />
    <glyph glyph-name="xi" unicode="&#x3be;" horiz-adv-x="561" 
d="M373 -188l-72 92q34 27 45 41q13 16 13 26q0 11 -10 15q-12 5 -28 8q-43 6 -77.5 14t-77.5 24.5t-71.5 37.5t-48.5 56t-20 78q0 109 150 160q-80 50 -80 132q0 59 50 109h-85v149h497v-114q-38 -8 -84 -18q-26 -5 -52.5 -13.5t-60.5 -23t-55 -36t-21 -46.5
q0 -29 24.5 -50t61.5 -31t70.5 -14.5t63.5 -4.5v-124q-135 -1 -207 -26q-70 -24 -70 -52q0 -22 13 -34q22 -22 80 -29q18 -3 56 -7l57 -9q122 -27 122 -126q0 -81 -94 -146q-28 -16 -45 -23q-22 -10 -44 -15z" />
    <glyph glyph-name="omicron" unicode="&#x3bf;" horiz-adv-x="656" 
d="M28 272q0 120 89 201.5t210 81.5q123 0 211 -81.5t88 -201.5t-89 -201t-210 -81t-210 81.5t-89 200.5zM283 163q19 -10 44 -10q48 0 81 35.5t33 83.5q0 74 -69 111q-21 9 -45 9q-48 0 -81 -36t-33 -84q0 -36 19 -66t51 -43z" />
    <glyph glyph-name="pi" unicode="&#x3c0;" horiz-adv-x="630" 
d="M579 0h-190v390h-149v-390h-189v545h528v-545z" />
    <glyph glyph-name="rho" unicode="&#x3c1;" horiz-adv-x="657" 
d="M224 20v-195h-189v453q0 123 89 200t213 77t207.5 -80.5t83.5 -202.5t-76 -202t-196 -80q-68 0 -132 30zM224 299v-112q40 -34 97 -34q56 0 88.5 31.5t32.5 87.5q0 55 -30.5 87.5t-85.5 32.5q-8 0 -25 -3q-77 -22 -77 -90z" />
    <glyph glyph-name="uni03C2" unicode="&#x3c2;" horiz-adv-x="566" 
d="M322 -198l-63 92q37 30 56 47q18 17 18 27q0 11 -29 16q-113 16 -194 96.5t-81 191.5q0 120 89.5 201.5t209.5 81.5q66 0 124 -30t95 -85l-120 -109q-32 61 -99 61q-48 0 -81 -36t-33 -84q0 -27 10.5 -49t23.5 -35.5t38.5 -27t41.5 -19.5t46 -16q43 -14 73 -32
q31 -14 50 -44t19 -65q0 -64 -62.5 -118t-131.5 -64z" />
    <glyph glyph-name="sigma" unicode="&#x3c3;" horiz-adv-x="680" 
d="M328 545h320v-149h-107q79 -44 79 -141q0 -113 -89 -189t-203 -76q-121 0 -210 81.5t-89 200.5q0 120 89 196.5t210 76.5zM284 163q19 -10 44 -10q48 0 81 35.5t33 83.5q0 74 -69 111q-21 9 -45 9q-48 0 -81 -36t-33 -84q0 -36 19 -66t51 -43z" />
    <glyph glyph-name="tau" unicode="&#x3c4;" horiz-adv-x="512" 
d="M20 545h471v-149h-140v-396h-189v396h-142v149z" />
    <glyph glyph-name="upsilon" unicode="&#x3c5;" horiz-adv-x="621" 
d="M46 219v326h189v-286q0 -24 0.5 -35.5t4.5 -29t11.5 -26t22 -15t36.5 -6.5q69 0 74 70q1 13 1 42v286h190v-326q0 -105 -79 -167t-186 -62q-108 0 -186 62.5t-78 166.5z" />
    <glyph glyph-name="phi" unicode="&#x3c6;" horiz-adv-x="839" 
d="M508 -10v-165h-176v165q-116 0 -210.5 81.5t-94.5 195.5q0 92 55.5 163t144.5 107l60 -135q-22 -6 -36 -20q-28 -25 -35 -69q-4 -19 -4 -41q0 -27 7 -51q12 -54 57 -75q19 -11 56 -11v410q60 12 123 12q73 0 136 -17t113.5 -51t79.5 -91t29 -131q0 -116 -94 -196.5
t-211 -80.5zM508 410v-275q37 0 56 11q64 29 64 126q0 62 -30 100t-90 38z" />
    <glyph glyph-name="chi" unicode="&#x3c7;" horiz-adv-x="589" 
d="M399 281l183 -281h-202l-85 126l-86 -126h-201l182 281l-178 264h209l74 -125l74 125h209z" />
    <glyph glyph-name="psi" unicode="&#x3c8;" horiz-adv-x="830" 
d="M505 -10v-165h-181v165q-176 0 -241 100q-39 57 -39 129v326h189v-286q0 -78 47 -101q15 -9 44 -11v469h181v-469q53 0 72 29t19 83v286h189v-326q0 -94 -59.5 -155t-153.5 -70q-21 -2 -67 -4z" />
    <glyph glyph-name="omega" unicode="&#x3c9;" horiz-adv-x="865" 
d="M344 269v75h176v-75q0 -26 1 -39q4 -50 26 -66q13 -11 35 -11q67 0 67 119q0 43 -23 75q-25 31 -63 41v167q123 0 197.5 -80.5t74.5 -202.5q0 -124 -61 -203t-179 -79q-122 0 -163 102q-40 -102 -163 -102q-119 0 -179.5 80.5t-60.5 201.5q0 124 75 203.5t196 79.5v-167
q-41 -11 -63 -42t-22 -74q0 -119 66 -119q22 0 36 10.5t19 31.5t6.5 35.5t1.5 38.5z" />
    <glyph glyph-name="iotadieresis" unicode="&#x3ca;" horiz-adv-x="300" 
d="M244 545v-545h-189v545h189zM8 587q-24 9 -38 30t-14 47q0 16 6 33q8 15 18 27q27 24 61 24q35 0 60 -24q24 -26 24 -60q0 -35 -24.5 -59.5t-59.5 -24.5q-19 0 -33 7zM197 605q-12 11 -18 27q-7 14 -7 32q0 36 24.5 60t60.5 24q35 0 60 -24q24 -26 24 -60
q0 -35 -24.5 -59.5t-59.5 -24.5q-19 0 -33 7q-16 6 -27 18z" />
    <glyph glyph-name="upsilondieresis" unicode="&#x3cb;" horiz-adv-x="621" 
d="M46 219v326h189v-286q0 -24 0.5 -35.5t4.5 -29t11.5 -26t22 -15t36.5 -6.5q69 0 74 70q1 13 1 42v286h190v-326q0 -105 -79 -167t-186 -62q-108 0 -186 62.5t-78 166.5zM142 605q-12 11 -18 27q-7 14 -7 32q0 36 24.5 60t60.5 24q34 0 60 -24q24 -26 24 -60
q0 -35 -24.5 -59.5t-59.5 -24.5q-19 0 -33 7q-17 6 -27 18zM358 605q-12 11 -18 27q-7 14 -7 32q0 36 24.5 60t60.5 24q34 0 60 -24q24 -26 24 -60q0 -35 -24.5 -59.5t-59.5 -24.5q-19 0 -33 7q-17 6 -27 18z" />
    <glyph glyph-name="omicrontonos" unicode="&#x3cc;" horiz-adv-x="656" 
d="M28 272q0 120 89 201.5t210 81.5q123 0 211 -81.5t88 -201.5t-89 -201t-210 -81t-210 81.5t-89 200.5zM283 163q19 -10 44 -10q48 0 81 35.5t33 83.5q0 74 -69 111q-21 9 -45 9q-48 0 -81 -36t-33 -84q0 -36 19 -66t51 -43zM387 589h-111l104 185l202 -16z" />
    <glyph glyph-name="upsilontonos" unicode="&#x3cd;" horiz-adv-x="621" 
d="M46 219v326h189v-286q0 -24 0.5 -35.5t4.5 -29t11.5 -26t22 -15t36.5 -6.5q69 0 74 70q1 13 1 42v286h190v-326q0 -105 -79 -167t-186 -62q-108 0 -186 62.5t-78 166.5zM364 589h-111l104 185l202 -16z" />
    <glyph glyph-name="omegatonos" unicode="&#x3ce;" horiz-adv-x="888" 
d="M344 269v75h176v-75q0 -26 1 -39q4 -50 26 -66q13 -11 35 -11q67 0 67 119q0 43 -23 75q-25 31 -63 41v167q123 0 197.5 -80.5t74.5 -202.5q0 -124 -61 -203t-179 -79q-122 0 -163 102q-40 -102 -163 -102q-119 0 -179.5 80.5t-60.5 201.5q0 124 75 203.5t196 79.5v-167
q-41 -11 -63 -42t-22 -74q0 -119 66 -119q22 0 36 10.5t19 31.5t6.5 35.5t1.5 38.5zM485 589h-111l104 185l202 -16z" />
    <glyph glyph-name="uni0401" unicode="&#x401;" horiz-adv-x="667" 
d="M500 265h-249v-104h379v-160h-568v704h547v-160h-358v-125h249v-155zM180 760q-12 10 -18 27q-7 14 -7 32q0 36 24.5 60t60.5 24q34 0 60 -24q24 -25 24 -60t-24.5 -59.5t-59.5 -24.5q-19 0 -33 7q-17 6 -27 18zM396 760q-12 10 -18 27q-7 14 -7 32q0 36 24.5 60t60.5 24
q34 0 60 -24q24 -25 24 -60t-24.5 -59.5t-59.5 -24.5q-19 0 -33 7q-17 6 -27 18z" />
    <glyph glyph-name="uni0404" unicode="&#x404;" horiz-adv-x="730" 
d="M251 428h221v-151h-221q19 -51 61.5 -81t99.5 -30q93 0 143 82l149 -123q-113 -136 -292 -136q-154 0 -264 105t-110 257q0 101 51.5 185t137.5 131t185 47q160 0 271 -114l21 -22l-22 -166l-140 18l6 35q-49 72 -136 72q-58 0 -100 -29.5t-61 -79.5z" />
    <glyph glyph-name="uni0406" unicode="&#x406;" horiz-adv-x="402" 
d="M26 705h285v-575h72v-130h-357v130h90v445h-90v130zM169 752q-24 9 -38 30t-14 47q0 17 6 33q7 15 18 27q27 24 61 24q36 0 60 -24t24 -60q0 -35 -24.5 -59.5t-59.5 -24.5q-19 0 -33 7z" />
    <glyph glyph-name="uni0407" unicode="&#x407;" horiz-adv-x="327" 
d="M8 705h285v-575h72v-130h-357v130h90v445h-90v130zM22 752q-24 9 -38 30t-14 47q0 33 24 60q27 24 61 24q36 0 60 -24t24 -60q0 -35 -24.5 -59.5t-59.5 -24.5q-19 0 -33 7zM186 829q0 36 24.5 60t60.5 24t60 -24t24 -60q0 -35 -24.5 -59.5t-59.5 -24.5q-34 0 -59.5 25
t-25.5 59z" />
    <glyph glyph-name="uni0410" unicode="&#x410;" horiz-adv-x="793" 
d="M783 1h-206l-53 112h-274l-51 -112h-206l284 574h-59v131h216zM456 270l-69 155l-67 -155h136z" />
    <glyph glyph-name="uni0411" unicode="&#x411;" horiz-adv-x="703" 
d="M466 0h-411v704h532v-161h-336v-94q17 0 57.5 1t63.5 1q113 0 167 -19q65 -30 102 -84.5t37 -124.5q0 -99 -57.5 -161t-154.5 -62zM395 321h-144v-165h144q90 0 90 83q0 34 -26.5 58t-63.5 24z" />
    <glyph glyph-name="uni0412" unicode="&#x412;" horiz-adv-x="715" 
d="M475 0h-412v704h357q67 0 112.5 -50.5t45.5 -118.5q0 -56 -31 -102q66 -30 103 -84t37 -125q0 -99 -58 -161.5t-154 -62.5zM404 322h-144v-165h144q90 0 90 83q0 34 -26.5 58t-63.5 24zM353 566h-93v-116h72q38 0 58.5 11t20.5 47q0 24 -17 41t-41 17z" />
    <glyph glyph-name="uni0413" unicode="&#x413;" horiz-adv-x="613" 
d="M600 499h-141v45h-197v-544h-195v705h533v-206z" />
    <glyph glyph-name="uni0414" unicode="&#x414;" horiz-adv-x="763" 
d="M762 -107h-163v108h-430v-108h-164v271h32q38 4 54.5 22.5t25.5 55.5q10 47 13 63l63 400h488v-541h81v-271zM304 188l-6 -24h190v378h-128q-14 -82 -33.5 -210.5t-22.5 -143.5z" />
    <glyph glyph-name="uni0415" unicode="&#x415;" horiz-adv-x="667" 
d="M500 265h-249v-104h379v-160h-568v704h547v-160h-358v-125h249v-155z" />
    <glyph glyph-name="uni0416" unicode="&#x416;" horiz-adv-x="1109" 
d="M652 0h-189v155l-39 53l-157 -208h-224l262 352q-102 150 -153 224h-113v129h218l206 -282v282h189v-282l207 282h192l-243 -349l267 -356h-224l-163 208l-36 -53v-155z" />
    <glyph glyph-name="uni0417" unicode="&#x417;" horiz-adv-x="613" 
d="M32 40l70 146q91 -36 207 -36q30 0 58.5 17.5t28.5 46.5q0 80 -117 80h-78l1 140h78q83 0 83 58q0 27 -27 39.5t-58 12.5q-61 0 -142 -31l-70 145q105 51 237 51q116 0 187 -59q48 -40 64 -96t-9 -109t-87 -79q7 -2 13 -5q82 -37 104 -124t-39 -160q-38 -43 -101 -65.5
t-133 -22.5q-85 0 -145.5 10t-124.5 41z" />
    <glyph glyph-name="uni0418" unicode="&#x418;" horiz-adv-x="764" 
d="M710 705v-705h-195v363l-361 -363h-92v705h195v-363l361 363h92z" />
    <glyph glyph-name="uni0419" unicode="&#x419;" horiz-adv-x="764" 
d="M710 705v-705h-195v363l-361 -363h-92v705h195v-363l361 363h92zM238 910h119q0 -55 54 -55q55 0 55 55h118q0 -75 -49 -120.5t-124 -45.5t-124 45.5t-49 120.5z" />
    <glyph glyph-name="uni041A" unicode="&#x41a;" horiz-adv-x="742" 
d="M734 0h-254l-185 208l-46 -53v-155h-189v705h189v-281l243 282h233l-305 -353z" />
    <glyph glyph-name="uni041B" unicode="&#x41b;" horiz-adv-x="765" 
d="M20 18v144q50 -10 54 -10q10 0 19 3q25 6 38 23.5t21 50.5q10 41 13 61l65 415h490v-705h-189v545h-137q-9 -59 -23.5 -147.5t-23.5 -146.5t-12 -75q-14 -80 -72 -131t-137 -51q-37 0 -70 11q-6 2 -17 6.5t-19 6.5z" />
    <glyph glyph-name="uni041C" unicode="&#x41c;" horiz-adv-x="868" 
d="M611 0v293l-177 -225l-177 225v-293h-195v705h92l280 -356l280 356h92v-705h-195z" />
    <glyph glyph-name="uni041D" unicode="&#x41d;" horiz-adv-x="805" 
d="M743 0h-189v268h-259v-268h-189v544h-62v161h251v-281h259v281h189v-705z" />
    <glyph glyph-name="uni041E" unicode="&#x41e;" horiz-adv-x="831" 
d="M37 352q0 153 112 257.5t265 104.5q155 0 266 -105t111 -257q0 -153 -112 -257.5t-265 -104.5q-154 0 -265.5 105.5t-111.5 256.5zM345 180q31 -15 69 -15q76 0 127.5 55.5t51.5 131.5q0 77 -51.5 132t-127.5 55t-127 -55.5t-51 -131.5q0 -55 29.5 -103.5t79.5 -68.5z
" />
    <glyph glyph-name="uni041F" unicode="&#x41f;" horiz-adv-x="768" 
d="M707 705v-705h-189v544h-248v-544h-189v544h-55v161h681z" />
    <glyph glyph-name="uni0420" unicode="&#x420;" horiz-adv-x="678" 
d="M333 155h-76v-155h-195v705h301q136 0 213.5 -68t77.5 -199q0 -147 -87 -215t-234 -68zM330 544h-73v-234h56q61 0 99 28t38 86t-31.5 89t-88.5 31z" />
    <glyph glyph-name="uni0421" unicode="&#x421;" horiz-adv-x="731" 
d="M539 248l150 -123q-114 -136 -292 -136q-154 0 -264.5 105t-110.5 257q0 154 111 258.5t264 104.5q159 0 270 -114l22 -22l-23 -166l-140 18l6 35q-49 72 -135 72q-79 0 -126.5 -53t-47.5 -132q0 -80 48 -133t126 -53q92 0 142 82z" />
    <glyph glyph-name="uni0422" unicode="&#x422;" horiz-adv-x="660" 
d="M638 544h-209v-414h89v-130h-369v130h85v414h-210v161h614v-161z" />
    <glyph glyph-name="uni0423" unicode="&#x423;" horiz-adv-x="684" 
d="M121 12l-9 3v164q23 -10 57 -10q31 0 58.5 16t41.5 43l10 20l-180 325h-74v132h216l129 -283l110 283h202l-234 -516q-86 -189 -250 -189q-48 0 -77 12z" />
    <glyph glyph-name="uni0424" unicode="&#x424;" horiz-adv-x="915" 
d="M553 51v-51h-189v51q-130 3 -224.5 88.5t-103.5 213.5v10q3 129 100.5 215.5t227.5 86.5v40h189v-40q131 -3 228 -89t100 -214v-9q-3 -129 -100.5 -215.5t-227.5 -86.5zM364 217v282q-65 -2 -102 -39t-37 -102q0 -64 38 -102.5t101 -38.5zM553 499v-282q64 0 101.5 39
t37.5 102q0 64 -38 102.5t-101 38.5z" />
    <glyph glyph-name="uni0425" unicode="&#x425;" horiz-adv-x="744" 
d="M505 357l229 -357h-219l-136 214l-136 -214h-219l230 357l-136 216h-94v132h225l130 -205l131 205h214z" />
    <glyph glyph-name="uni0426" unicode="&#x426;" horiz-adv-x="757" 
d="M663 161h84v-256h-161v95h-550v706h189v-545h248v545h190v-545z" />
    <glyph glyph-name="uni0427" unicode="&#x427;" horiz-adv-x="685" 
d="M445 385v319h195v-705h-195v194q-62 -31 -155 -31q-118 0 -186 75q-65 72 -67 214v253h204q0 -42 0.5 -126.5t0.5 -127.5q0 -47 22 -76t67 -29q61 0 114 40z" />
    <glyph glyph-name="uni0428" unicode="&#x428;" horiz-adv-x="1035" 
d="M617 161h174v543h189v-704h-915v704h189v-543h174v543h189v-543z" />
    <glyph glyph-name="uni0429" unicode="&#x429;" horiz-adv-x="1059" 
d="M971 161h83v-256h-158v95h-831v705h187v-544h172v544h188v-544h172v544h187v-544z" />
    <glyph glyph-name="uni042A" unicode="&#x42a;" horiz-adv-x="766" 
d="M456 0h-301v573h-153v132h348v-155h76q147 0 234 -68t87 -215q0 -131 -77.5 -199t-213.5 -68zM406 395h-56v-234h73q57 0 88.5 31t31.5 89t-38 86t-99 28z" />
    <glyph glyph-name="uni042B" unicode="&#x42b;" horiz-adv-x="949" 
d="M363 0h-301v705h195v-155h76q147 0 234 -68t87 -215q0 -131 -77.5 -199t-213.5 -68zM313 395h-56v-234h73q57 0 88.5 31t31.5 89t-38 86t-99 28zM899 0h-189v705h189v-705z" />
    <glyph glyph-name="uni042C" unicode="&#x42c;" horiz-adv-x="673" 
d="M363 0h-301v705h195v-155h76q147 0 234 -68t87 -215q0 -131 -77.5 -199t-213.5 -68zM313 395h-56v-234h73q57 0 88.5 31t31.5 89t-38 86t-99 28z" />
    <glyph glyph-name="uni042D" unicode="&#x42d;" horiz-adv-x="733" 
d="M493 274h-158v153h158q-19 50 -61 79.5t-100 29.5q-92 0 -142 -83l-151 124q113 136 293 136q154 0 265 -105t111 -259q0 -125 -78.5 -222.5t-201.5 -128.5q-108 -10 -114 -10q-77 0 -151.5 36t-123.5 97l151 123q50 -82 142 -82q57 0 99.5 30.5t61.5 81.5z" />
    <glyph glyph-name="uni042E" unicode="&#x42e;" horiz-adv-x="1047" 
d="M313 274h-73v-276h-189v705h189v-276h73q26 125 124 205.5t221 80.5q145 0 249 -104.5t104 -257.5q0 -154 -104.5 -258t-248.5 -104q-124 0 -221.5 80.5t-123.5 204.5zM594 178q28 -15 64 -15q71 0 119.5 55.5t48.5 131.5q0 77 -48.5 132t-119.5 55t-118.5 -55.5
t-47.5 -131.5q0 -55 27.5 -103.5t74.5 -68.5z" />
    <glyph glyph-name="uni042F" unicode="&#x42f;" horiz-adv-x="719" 
d="M671 0h-195v155h-104l-113 -155h-221l92 130l50 62q-131 67 -131 246q0 135 79 201t212 66h331v-705zM390 309h86v235h-103q-66 0 -94 -37q-26 -29 -26 -83q0 -59 38.5 -87t98.5 -28z" />
    <glyph glyph-name="uni0430" unicode="&#x430;" horiz-adv-x="793" 
d="M793 1h-206l-53 112h-274l-51 -112h-206l284 574h-59v131h216zM466 270l-69 155l-67 -155h136z" />
    <glyph glyph-name="uni0431" unicode="&#x431;" horiz-adv-x="703" 
d="M466 0h-411v704h532v-161h-336v-94q17 0 57.5 1t63.5 1q113 0 167 -19q65 -30 102 -84.5t37 -124.5q0 -99 -57.5 -161t-154.5 -62zM395 321h-144v-165h144q90 0 90 83q0 34 -26.5 58t-63.5 24z" />
    <glyph glyph-name="uni0432" unicode="&#x432;" horiz-adv-x="715" 
d="M475 0h-412v704h357q67 0 112.5 -50.5t45.5 -118.5q0 -56 -31 -102q66 -30 103 -84t37 -125q0 -99 -58 -161.5t-154 -62.5zM404 322h-144v-165h144q90 0 90 83q0 34 -26.5 58t-63.5 24zM353 566h-93v-116h72q38 0 58.5 11t20.5 47q0 24 -17 41t-41 17z" />
    <glyph glyph-name="uni0433" unicode="&#x433;" horiz-adv-x="613" 
d="M590 499h-141v45h-197v-544h-195v705h533v-206z" />
    <glyph glyph-name="uni0434" unicode="&#x434;" horiz-adv-x="763" 
d="M762 -107h-163v108h-430v-108h-164v271h32q38 4 54.5 22.5t25.5 55.5q10 47 13 63l63 400h488v-541h81v-271zM304 188l-6 -24h190v378h-128q-14 -82 -33.5 -210.5t-22.5 -143.5z" />
    <glyph glyph-name="uni0435" unicode="&#x435;" horiz-adv-x="667" 
d="M500 265h-249v-104h379v-160h-568v704h547v-160h-358v-125h249v-155z" />
    <glyph glyph-name="uni0436" unicode="&#x436;" horiz-adv-x="1109" 
d="M652 0h-189v155l-39 53l-157 -208h-224l262 352q-102 150 -153 224h-113v129h218l206 -282v282h189v-282l207 282h192l-243 -349l267 -356h-224l-163 208l-36 -53v-155z" />
    <glyph glyph-name="uni0437" unicode="&#x437;" horiz-adv-x="613" 
d="M32 40l70 146q91 -36 207 -36q30 0 58.5 17.5t28.5 46.5q0 80 -117 80h-78l1 140h78q83 0 83 58q0 27 -27 39.5t-58 12.5q-61 0 -142 -31l-70 145q105 51 237 51q116 0 187 -59q48 -40 64 -96t-9 -109t-87 -79q7 -2 13 -5q82 -37 104 -124t-39 -160q-38 -43 -101 -65.5
t-133 -22.5q-85 0 -145.5 10t-124.5 41z" />
    <glyph glyph-name="uni0438" unicode="&#x438;" horiz-adv-x="764" 
d="M710 705v-705h-195v363l-361 -363h-92v705h195v-363l361 363h92z" />
    <glyph glyph-name="uni0439" unicode="&#x439;" horiz-adv-x="764" 
d="M710 705v-705h-195v363l-361 -363h-92v705h195v-363l361 363h92zM238 910h119q0 -55 54 -55q55 0 55 55h118q0 -75 -49 -120.5t-124 -45.5t-124 45.5t-49 120.5z" />
    <glyph glyph-name="uni043A" unicode="&#x43a;" horiz-adv-x="742" 
d="M734 0h-254l-185 208l-46 -53v-155h-189v705h189v-281l243 282h233l-305 -353z" />
    <glyph glyph-name="uni043B" unicode="&#x43b;" horiz-adv-x="765" 
d="M20 18v144q50 -10 54 -10q10 0 19 3q25 6 38 23.5t21 50.5q10 41 13 61l65 415h490v-705h-189v545h-137q-9 -59 -23.5 -147.5t-23.5 -146.5t-12 -75q-14 -80 -72 -131t-137 -51q-37 0 -70 11q-6 2 -17 6.5t-19 6.5z" />
    <glyph glyph-name="uni043C" unicode="&#x43c;" horiz-adv-x="868" 
d="M611 0v293l-177 -225l-177 225v-293h-195v705h92l280 -356l280 356h92v-705h-195z" />
    <glyph glyph-name="uni043D" unicode="&#x43d;" horiz-adv-x="805" 
d="M743 0h-189v268h-259v-268h-189v544h-62v161h251v-281h259v281h189v-705z" />
    <glyph glyph-name="uni043E" unicode="&#x43e;" horiz-adv-x="831" 
d="M37 352q0 153 112 257.5t265 104.5q155 0 266 -105t111 -257q0 -153 -112 -257.5t-265 -104.5q-154 0 -265.5 105.5t-111.5 256.5zM345 180q31 -15 69 -15q76 0 127.5 55.5t51.5 131.5q0 77 -51.5 132t-127.5 55t-127 -55.5t-51 -131.5q0 -55 29.5 -103.5t79.5 -68.5z
" />
    <glyph glyph-name="uni043F" unicode="&#x43f;" horiz-adv-x="768" 
d="M707 705v-705h-189v544h-248v-544h-189v544h-55v161h681z" />
    <glyph glyph-name="uni0440" unicode="&#x440;" horiz-adv-x="678" 
d="M333 155h-76v-155h-195v705h301q136 0 213.5 -68t77.5 -199q0 -147 -87 -215t-234 -68zM330 544h-73v-234h56q61 0 99 28t38 86t-31.5 89t-88.5 31z" />
    <glyph glyph-name="uni0441" unicode="&#x441;" horiz-adv-x="731" 
d="M539 248l150 -123q-114 -136 -292 -136q-154 0 -264.5 105t-110.5 257q0 154 111 258.5t264 104.5q159 0 270 -114l22 -22l-23 -166l-140 18l6 35q-49 72 -135 72q-79 0 -126.5 -53t-47.5 -132q0 -80 48 -133t126 -53q92 0 142 82z" />
    <glyph glyph-name="uni0442" unicode="&#x442;" horiz-adv-x="660" 
d="M638 544h-209v-414h89v-130h-369v130h85v414h-210v161h614v-161z" />
    <glyph glyph-name="uni0443" unicode="&#x443;" horiz-adv-x="684" 
d="M121 12l-9 3v164q23 -10 57 -10q31 0 58.5 16t41.5 43l10 20l-180 325h-74v132h216l129 -283l110 283h202l-234 -516q-86 -189 -250 -189q-48 0 -77 12z" />
    <glyph glyph-name="uni0444" unicode="&#x444;" horiz-adv-x="915" 
d="M553 51v-51h-189v51q-130 3 -224.5 88.5t-103.5 213.5v10q3 129 100.5 215.5t227.5 86.5v40h189v-40q131 -3 228 -89t100 -214v-9q-3 -129 -100.5 -215.5t-227.5 -86.5zM364 217v282q-65 -2 -102 -39t-37 -102q0 -64 38 -102.5t101 -38.5zM553 499v-282q64 0 101.5 39
t37.5 102q0 64 -38 102.5t-101 38.5z" />
    <glyph glyph-name="uni0445" unicode="&#x445;" horiz-adv-x="744" 
d="M505 357l229 -357h-219l-136 214l-136 -214h-219l230 357l-136 216h-94v132h225l130 -205l131 205h214z" />
    <glyph glyph-name="uni0446" unicode="&#x446;" horiz-adv-x="757" 
d="M663 161h84v-256h-161v95h-550v706h189v-545h248v545h190v-545z" />
    <glyph glyph-name="uni0447" unicode="&#x447;" horiz-adv-x="685" 
d="M445 385v319h195v-705h-195v194q-62 -31 -155 -31q-118 0 -186 75q-65 72 -67 214v253h204q0 -42 0.5 -126.5t0.5 -127.5q0 -47 22 -76t67 -29q61 0 114 40z" />
    <glyph glyph-name="uni0448" unicode="&#x448;" horiz-adv-x="1035" 
d="M617 161h174v543h189v-704h-915v704h189v-543h174v543h189v-543z" />
    <glyph glyph-name="uni0449" unicode="&#x449;" horiz-adv-x="1059" 
d="M971 161h83v-256h-158v95h-831v705h187v-544h172v544h188v-544h172v544h187v-544z" />
    <glyph glyph-name="uni044A" unicode="&#x44a;" horiz-adv-x="766" 
d="M456 0h-301v573h-153v132h348v-155h76q147 0 234 -68t87 -215q0 -131 -77.5 -199t-213.5 -68zM406 395h-56v-234h73q57 0 88.5 31t31.5 89t-38 86t-99 28z" />
    <glyph glyph-name="uni044B" unicode="&#x44b;" horiz-adv-x="949" 
d="M363 0h-301v705h195v-155h76q147 0 234 -68t87 -215q0 -131 -77.5 -199t-213.5 -68zM313 395h-56v-234h73q57 0 88.5 31t31.5 89t-38 86t-99 28zM899 0h-189v705h189v-705z" />
    <glyph glyph-name="uni044C" unicode="&#x44c;" horiz-adv-x="673" 
d="M363 0h-301v705h195v-155h76q147 0 234 -68t87 -215q0 -131 -77.5 -199t-213.5 -68zM313 395h-56v-234h73q57 0 88.5 31t31.5 89t-38 86t-99 28z" />
    <glyph glyph-name="uni044D" unicode="&#x44d;" horiz-adv-x="733" 
d="M493 274h-158v153h158q-19 50 -61 79.5t-100 29.5q-92 0 -142 -83l-151 124q113 136 293 136q154 0 265 -105t111 -259q0 -125 -78.5 -222.5t-201.5 -128.5q-108 -10 -114 -10q-77 0 -151.5 36t-123.5 97l151 123q50 -82 142 -82q57 0 99.5 30.5t61.5 81.5z" />
    <glyph glyph-name="uni044E" unicode="&#x44e;" horiz-adv-x="1047" 
d="M313 274h-73v-276h-189v705h189v-276h73q26 125 124 205.5t221 80.5q145 0 249 -104.5t104 -257.5q0 -154 -104.5 -258t-248.5 -104q-124 0 -221.5 80.5t-123.5 204.5zM594 178q28 -15 64 -15q71 0 119.5 55.5t48.5 131.5q0 77 -48.5 132t-119.5 55t-118.5 -55.5
t-47.5 -131.5q0 -55 27.5 -103.5t74.5 -68.5z" />
    <glyph glyph-name="uni044F" unicode="&#x44f;" horiz-adv-x="719" 
d="M671 0h-195v155h-104l-113 -155h-221l92 130l50 62q-131 67 -131 246q0 135 79 201t212 66h331v-705zM390 309h86v235h-103q-66 0 -94 -37q-26 -29 -26 -83q0 -59 38.5 -87t98.5 -28z" />
    <glyph glyph-name="Edieresis" unicode="&#x451;" horiz-adv-x="667" 
d="M500 265h-249v-104h379v-160h-568v704h547v-160h-358v-125h249v-155zM180 760q-12 10 -18 27q-7 14 -7 32q0 36 24.5 60t60.5 24q34 0 60 -24q24 -25 24 -60t-24.5 -59.5t-59.5 -24.5q-19 0 -33 7q-17 6 -27 18zM396 760q-12 10 -18 27q-7 14 -7 32q0 36 24.5 60t60.5 24
q34 0 60 -24q24 -25 24 -60t-24.5 -59.5t-59.5 -24.5q-19 0 -33 7q-17 6 -27 18z" />
    <glyph glyph-name="uni0454" unicode="&#x454;" horiz-adv-x="730" 
d="M251 428h221v-151h-221q19 -51 61.5 -81t99.5 -30q93 0 143 82l149 -123q-113 -136 -292 -136q-154 0 -264 105t-110 257q0 101 51.5 185t137.5 131t185 47q160 0 271 -114l21 -22l-22 -166l-140 18l6 35q-49 72 -136 72q-58 0 -100 -29.5t-61 -79.5z" />
    <glyph glyph-name="uni0456" unicode="&#x456;" horiz-adv-x="214" 
 />
    <glyph glyph-name="Idieresis" unicode="&#x457;" horiz-adv-x="327" 
d="M8 705h285v-575h72v-130h-357v130h90v445h-90v130zM22 742q-24 9 -38 30t-14 47q0 17 6 33q8 15 18 27q27 24 61 24q35 0 60 -24q24 -25 24 -60t-24.5 -59.5t-59.5 -24.5q-19 0 -33 7zM211 760q-12 10 -18 27q-7 14 -7 32q0 36 24.5 60t60.5 24q35 0 60 -24
q24 -25 24 -60t-24.5 -59.5t-59.5 -24.5q-19 0 -33 7q-16 6 -27 18z" />
    <glyph glyph-name="uni0490" unicode="&#x490;" horiz-adv-x="618" 
d="M454 835h141v-291h-338v-544h-195v705h392v130z" />
    <glyph glyph-name="endash" unicode="&#x2013;" horiz-adv-x="528" 
d="M487 255h-448v156h448v-156z" />
    <glyph glyph-name="emdash" unicode="&#x2014;" horiz-adv-x="898" 
d="M858 255h-818v156h818v-156z" />
    <glyph glyph-name="quoteleft" unicode="&#x2018;" horiz-adv-x="284" 
d="M232 701l27 -77q-26 0 -42.5 -2t-35 -13.5t-22.5 -33.5q37 -8 59.5 -36t22.5 -65q0 -43 -30 -73t-73 -30q-51 0 -77 33.5t-26 86.5q0 102 49.5 156t147.5 54z" />
    <glyph glyph-name="quoteright" unicode="&#x2019;" horiz-adv-x="284" 
d="M50 376l-26 77q90 0 100 49q-36 8 -59.5 36.5t-23.5 65.5q0 43 30 73t73 30q51 0 77 -33.5t26 -86.5q0 -211 -197 -211z" />
    <glyph glyph-name="quotesinglbase" unicode="&#x201a;" horiz-adv-x="284" 
d="M47 -135l-26 77q27 0 45 3q21 5 30 11q12 8 17 15q7 10 8 20q-36 8 -59.5 36.5t-23.5 65.5q0 43 30 73t73 30q52 0 78 -33.5t26 -86.5q0 -211 -198 -211z" />
    <glyph glyph-name="quotedblleft" unicode="&#x201c;" horiz-adv-x="547" 
d="M232 701l27 -77q-26 0 -42.5 -2t-35 -13.5t-22.5 -33.5q37 -8 59.5 -36t22.5 -65q0 -43 -30 -73t-73 -30q-51 0 -77 33.5t-26 86.5q0 102 49.5 156t147.5 54zM498 701l26 -77q-26 0 -42.5 -2t-35 -13.5t-22.5 -33.5q37 -8 60 -36t23 -65q0 -43 -30.5 -73t-73.5 -30
q-51 0 -77 33.5t-26 86.5q0 102 49.5 156t148.5 54z" />
    <glyph glyph-name="quotedblright" unicode="&#x201d;" horiz-adv-x="547" 
d="M50 376l-26 77q90 0 100 49q-36 8 -59.5 36.5t-23.5 65.5q0 43 30 73t73 30q51 0 77 -33.5t26 -86.5q0 -211 -197 -211zM315 376l-26 77q90 0 100 49q-36 8 -59.5 36.5t-23.5 65.5q0 43 30 73t73 30q51 0 77 -33.5t26 -86.5q0 -211 -197 -211z" />
    <glyph glyph-name="quotedblbase" unicode="&#x201e;" horiz-adv-x="546" 
d="M47 -135l-26 77q27 0 45 3q21 5 30 11q12 8 17 15q7 10 8 20q-36 8 -59.5 36.5t-23.5 65.5q0 43 30 73t73 30q52 0 78 -33.5t26 -86.5q0 -211 -198 -211zM313 -135l-26 77q90 0 100 49q-36 8 -59.5 36.5t-23.5 65.5q0 43 30 73t73 30q51 0 77 -33.5t26 -86.5
q0 -211 -197 -211z" />
    <glyph glyph-name="dagger" unicode="&#x2020;" horiz-adv-x="410" 
d="M369 512l-103 6l-22 -1v-120l6 -140h-88l6 140l-1 120h-21l-104 -5v87l104 -5h20l-4 106h88l-5 -106h21l103 6v-88z" />
    <glyph glyph-name="daggerdbl" unicode="&#x2021;" horiz-adv-x="430" 
d="M254 105l5 -105h-87l5 105h-21l-104 -6v88l103 -5h22v58l-6 112h1l5 112v58h-21l-104 -5v87l103 -5h21l-5 106h88l-5 -106h21l104 6v-88l-104 6l-21 -1v-58l5 -112l-6 -112l1 -58h21l104 5v-87l-104 5h-21z" />
    <glyph glyph-name="bullet" unicode="&#x2022;" 
d="M117 296q-12 25 -12 56q0 60 42.5 102t102.5 42t102 -42.5t42 -101.5q0 -60 -42 -102t-102 -42q-43 0 -80 24.5t-53 63.5z" />
    <glyph glyph-name="ellipsis" unicode="&#x2026;" horiz-adv-x="840" 
d="M68 20q-31 28 -31 73t31 73q30 30 73 30t73 -30t30 -73t-30 -73t-73 -30t-73 30zM348 20q-31 28 -31 73t31 73q30 30 73 30t73 -30t30 -73t-30 -73t-73 -30t-73 30zM628 20q-31 28 -31 73t31 73q30 30 73 30t73 -30t30 -73t-30 -73t-73 -30t-73 30z" />
    <glyph glyph-name="perthousand" unicode="&#x2030;" horiz-adv-x="1295" 
d="M271 0h-135l483 701h135zM500 188q0 86 49 142.5t132 56.5q85 0 133 -57t48 -142t-49.5 -141.5t-131.5 -56.5t-131.5 57t-49.5 141zM640 131q16 -24 41 -24q28 0 43.5 26t15.5 55q0 31 -15 56.5t-44 25.5q-28 0 -43.5 -26t-15.5 -56q0 -34 18 -57zM896 188q0 86 49 142.5
t132 56.5q85 0 133 -57t48 -142t-49.5 -141.5t-131.5 -56.5t-131.5 57t-49.5 141zM1018 188q0 -29 15.5 -55t43.5 -26t43.5 26t15.5 55q0 34 -17 59q-18 23 -42 23q-29 0 -44 -25.5t-15 -56.5zM214 317q-84 0 -132.5 57.5t-48.5 141.5q0 86 49 142.5t132 56.5q85 0 133 -57
t48 -142t-49.5 -142t-131.5 -57zM173 459q17 -24 41 -24q28 0 43.5 26t15.5 55q0 31 -15 56.5t-44 25.5q-28 0 -43.5 -26t-15.5 -56q0 -34 18 -57z" />
    <glyph glyph-name="guilsinglleft" unicode="&#x2039;" horiz-adv-x="357" 
d="M206 526l121 -89l-130 -171l130 -170l-121 -90l-176 260z" />
    <glyph glyph-name="guilsinglright" unicode="&#x203a;" horiz-adv-x="357" 
d="M160 266l-130 171l121 89l176 -260l-176 -260l-121 90z" />
    <glyph glyph-name="fraction" unicode="&#x2044;" horiz-adv-x="501" 
d="M551 758l-465 -856h-159l466 856h158z" />
    <glyph glyph-name="Euro" unicode="&#x20ac;" horiz-adv-x="704" 
d="M113 240h-82v85h70v14q-1 4 -1 13t1 14v12h-70v85h82q29 116 112 183.5t199 67.5q80 0 147.5 -34t111.5 -98l-131 -112q-19 27 -36 41t-45 23q-22 5 -47 5q-66 0 -103 -76h142v-85h-166q-1 -4 -1 -12q-1 -5 -1 -14t1 -13q0 -9 1 -14h166v-85h-142q15 -33 42 -54t61 -21
q74 0 106 41q15 18 22 27l131 -111q-93 -132 -259 -132q-117 0 -200 68.5t-111 181.5z" />
    <glyph glyph-name="ruble" unicode="&#x20bd;" horiz-adv-x="673" 
d="M257 198h280v-124h-280v-77h-197v77h-73v124h73v504h412q96 0 154 -62.5t58 -161.5q0 -71 -37 -125t-103 -84q-54 -19 -167 -19q-23 0 -63 1t-57 1v-54zM401 545h-144v-165h144q37 0 63.5 24t26.5 58q0 83 -90 83z" />
    <glyph glyph-name="trademark" unicode="&#x2122;" horiz-adv-x="695" 
d="M16 699h271v-69h-92v-243h-86v243h-93v69zM579 387v130l-79 -100l-78 100v-130h-86v312h41l123 -158l124 158h41v-312h-86z" />
    <glyph glyph-name="Omega" unicode="&#x2126;" horiz-adv-x="829" 
d="M359 175v-175h-313v161h106q-26 13 -44 34q-71 71 -71 184q0 168 104.5 252t272.5 84q172 0 274.5 -85.5t102.5 -250.5q0 -66 -30.5 -128t-85.5 -90h107v-161h-314v175q62 21 93 77.5t31 126.5q0 57 -28 100t-80 63q-35 11 -70 11q-80 0 -129.5 -48t-49.5 -126
q0 -70 31 -126.5t93 -77.5z" />
    <glyph glyph-name="partialdiff" unicode="&#x2202;" horiz-adv-x="662" 
d="M150 525l-79 144q86 46 252 46q83 0 144 -35.5t93.5 -96.5t47 -128.5t14.5 -145.5q0 -131 -81 -225.5t-208 -94.5q-77 0 -141.5 26t-106 82t-41.5 133q0 99 64.5 163.5t162.5 64.5q97 0 153 -56q1 19 -2 44q-10 50 -52.5 79.5t-94.5 29.5q-11 0 -17 -1q-46 -4 -90 -21
q-3 -1 -6 -2.5t-5 -2t-3.5 -1.5t-2.5 -1zM233 233q0 -40 30 -68t70 -28q41 0 70.5 28t29.5 68q0 41 -29.5 68.5t-70.5 27.5t-70.5 -28t-29.5 -68z" />
    <glyph glyph-name="Delta" unicode="&#x2206;" horiz-adv-x="785" 
d="M774 0h-766l338 705h90zM501 161l-110 256l-110 -256h220z" />
    <glyph glyph-name="product" unicode="&#x220f;" horiz-adv-x="762" 
d="M702 705v-866h-189v705h-248v-705h-189v866h626z" />
    <glyph glyph-name="summation" unicode="&#x2211;" horiz-adv-x="700" 
d="M336 544l202 -272l-202 -272h313v-161h-591v85l258 348l-258 348v85h591v-161h-313z" />
    <glyph glyph-name="minus" unicode="&#x2212;" horiz-adv-x="528" 
d="M487 255h-448v156h448v-156z" />
    <glyph glyph-name="radical" unicode="&#x221a;" horiz-adv-x="852" 
d="M512 294l289 621h176l-103 -210l-329 -705h-88l-259 557h-162v148h304z" />
    <glyph glyph-name="infinity" unicode="&#x221e;" horiz-adv-x="862" 
d="M246 168q-84 0 -137.5 58t-53.5 141q0 86 53.5 142.5t137.5 56.5q56 0 98.5 -26.5t82.5 -76.5q84 103 182 103q85 0 138 -57.5t53 -141.5t-54.5 -141.5t-136.5 -57.5q-98 0 -182 103q-40 -50 -82.5 -76.5t-98.5 -26.5zM205 367q0 -62 61 -62q34 0 53 18q16 14 40 44
q-24 30 -40 44q-19 18 -53 18q-61 0 -61 -62zM537 323q19 -18 52 -18q61 0 61 62t-61 62q-33 0 -52 -18q-17 -16 -42 -44q25 -28 42 -44z" />
    <glyph glyph-name="integral" unicode="&#x222b;" horiz-adv-x="584" 
d="M15 -180l23 144h11q38 0 55 11.5t24 46.5t11 60l80 504q14 81 66.5 129.5t132.5 48.5q84 0 136 -23l-21 -134q-46 2 -70 2q-49 -3 -58 -51q-4 -18 -13 -67l-79 -504q-15 -82 -67.5 -130t-132.5 -48q-59 0 -98 11z" />
    <glyph glyph-name="approxequal" unicode="&#x2248;" horiz-adv-x="626" 
d="M90 148l-49 132q81 64 159 64q47 0 116 -28q32 -13 53 -19q25 -9 54 -9q61 0 115 47l51 -139q-63 -60 -146 -60q-29 0 -54 9q-21 6 -53 19q-69 28 -116 28q-63 0 -130 -44zM90 431l-49 132q81 64 159 64q47 0 116 -28q32 -13 53 -19q25 -9 54 -9q61 0 115 47l51 -139
q-63 -60 -146 -60q-29 0 -54 9q-21 6 -53 19q-69 28 -116 28q-63 0 -130 -44z" />
    <glyph glyph-name="notequal" unicode="&#x2260;" horiz-adv-x="639" 
d="M142 148h-69v157h150l64 126h-214v157h295q32 60 51 99t20 39h133l-71 -138h63v-157h-143l-64 -126h207v-157h-287l-66 -129h-134q7 17 18 36q9 19 21 41q12 23 26 52z" />
    <glyph glyph-name="lessequal" unicode="&#x2264;" horiz-adv-x="628" 
d="M562 0h-497v156h497v-156zM562 757v-177l-243 -110l243 -109v-177l-497 243v86z" />
    <glyph glyph-name="greaterequal" unicode="&#x2265;" horiz-adv-x="627" 
d="M562 0h-497v156h497v-156zM65 580v177l497 -244v-86l-497 -243v177l243 109z" />
    <glyph glyph-name="lozenge" unicode="&#x25ca;" horiz-adv-x="509" 
d="M35 377l186 377h65l187 -377l-187 -377h-65zM205 377l49 -99l48 99l-48 99z" />
    <glyph glyph-name="uni043B.1" horiz-adv-x="678" 
d="M-67 18v144q50 -10 54 -10q10 0 19 3q25 6 38 23.5t21 50.5q10 41 13 61l65 415h490v-705h-189v545h-137q-9 -59 -23.5 -147.5t-23.5 -146.5t-12 -75q-14 -80 -72 -131t-137 -51q-37 0 -70 11q-6 2 -17 6.5t-19 6.5z" />
    </font>
</defs>
</svg>
