<?xml version="1.0" standalone="no"?>
<!DOCTYPE svg PUBLIC "-//W3C//DTD SVG 1.1//EN" "http://www.w3.org/Graphics/SVG/1.1/DTD/svg11.dtd" >
<svg xmlns="http://www.w3.org/2000/svg" xmlns:xlink="http://www.w3.org/1999/xlink" version="1.1">
<metadata>
Created by FontForge 20170731 at Thu Oct 10 10:25:34 2019
 By Aleksey,,,
Copyright (c) 2019 by Nazar Kotentsov. All rights reserved.
</metadata>
<defs>
<font id="GastreetSans-Regular" horiz-adv-x="0" >
  <font-face 
    font-family="Gastreet Sans"
    font-weight="400"
    font-stretch="normal"
    units-per-em="1000"
    panose-1="0 0 0 0 0 0 0 0 0 0"
    ascent="825"
    descent="-175"
    x-height="541"
    cap-height="705"
    bbox="-488 -241 1364 1014"
    underline-thickness="43"
    underline-position="-175"
    unicode-range="U+000D-25CA"
  />
<missing-glyph horiz-adv-x="500" 
 />
    <glyph glyph-name=".notdef" horiz-adv-x="500" 
 />
    <glyph glyph-name=".null" 
 />
    <glyph glyph-name="uni000D" unicode="&#xd;" horiz-adv-x="277" 
 />
    <glyph glyph-name="uni0020" unicode=" " horiz-adv-x="244" 
 />
    <glyph glyph-name="uni0021" unicode="!" horiz-adv-x="222" 
d="M84 175l-15 530h86l-15 -530h-56zM112 -12q-26 0 -44 18t-18 43t18 42.5t44 17.5q25 0 42.5 -17.5t17.5 -42.5t-17.5 -43t-42.5 -18z" />
    <glyph glyph-name="uni0022" unicode="&#x22;" horiz-adv-x="367" 
d="M209 452l19 253h91l-66 -253h-44zM41 452l19 253h91l-66 -253h-44z" />
    <glyph glyph-name="uni0023" unicode="#" horiz-adv-x="680" 
d="M27 184v69h135l34 198h-137v69h149l32 185h64l-32 -185h180l32 185h63l-32 -185h133v-69h-144l-34 -198h145v-69h-157l-31 -184h-63l30 184h-180l-30 -184h-64l31 184h-124zM226 253h180l34 198h-180z" />
    <glyph glyph-name="uni0024" unicode="$" horiz-adv-x="609" 
d="M277 -11q-67 3 -118 17t-120 45l31 75q62 -32 107.5 -46.5t99.5 -17.5v258q-118 30 -174.5 75t-56.5 130q0 82 62.5 135.5t168.5 56.5v70h66v-72q110 -10 198 -53l-35 -68q-73 38 -163 47v-252q110 -27 168 -70.5t58 -125.5q0 -91 -61.5 -145t-164.5 -59v-81h-66v81z
M131 524q0 -45 36.5 -71.5t109.5 -46.5v238q-68 -3 -107 -35.5t-39 -84.5zM483 188q0 46 -34.5 71.5t-105.5 44.5v-242q66 6 103 38.5t37 87.5z" />
    <glyph glyph-name="uni0025" unicode="%" horiz-adv-x="968" 
d="M204 0l486 705h83l-486 -705h-83zM217 273q-89 0 -141 58.5t-52 159.5q0 102 52 160.5t141 58.5q88 0 140 -58.5t52 -160.5q0 -101 -52 -159.5t-140 -58.5zM217 333q55 0 88 42t33 116t-33 116.5t-88 42.5q-57 0 -90 -42.5t-33 -116.5q0 -73 33.5 -115.5t89.5 -42.5z
M752 -7q-89 0 -141 58.5t-52 159.5q0 102 52 160.5t141 58.5q88 0 140 -58.5t52 -160.5q0 -101 -52 -159.5t-140 -58.5zM752 53q55 0 88 42t33 116t-33 116.5t-88 42.5q-57 0 -90 -42.5t-33 -116.5q0 -73 33.5 -115.5t89.5 -42.5z" />
    <glyph glyph-name="uni0026" unicode="&#x26;" horiz-adv-x="619" 
d="M619 32l-51 -48l-94 92q-83 -87 -217 -87q-114 0 -173 52t-59 138q0 130 152 189q-51 52 -71.5 88t-20.5 82q0 80 52.5 125.5t136.5 45.5q86 0 134.5 -50t48.5 -122q0 -128 -158 -194l171 -165q52 61 57 150h69q3 -44 -15.5 -98t-59.5 -102zM271 638q-51 0 -78.5 -29.5
t-27.5 -78.5q0 -32 16.5 -59.5t65.5 -75.5q133 51 133 136q0 43 -27 75t-82 32zM258 62q97 0 165 65l-196 192q-59 -20 -89 -56t-30 -79q0 -53 37 -87.5t113 -34.5z" />
    <glyph glyph-name="uni0027" unicode="'" horiz-adv-x="199" 
d="M41 452l19 253h91l-66 -253h-44z" />
    <glyph glyph-name="uni0028" unicode="(" horiz-adv-x="376" 
d="M325 -111q-134 73 -209 185.5t-75 257.5t75 259t209 186l28 -50q-110 -67 -171 -167.5t-61 -227.5t61 -226.5t171 -166.5z" />
    <glyph glyph-name="uni0029" unicode=")" horiz-adv-x="376" 
d="M51 -111l-28 50q110 67 171 166.5t61 226.5t-61 227.5t-171 167.5l28 50q134 -72 209 -186t75 -259t-75 -257.5t-209 -185.5z" />
    <glyph glyph-name="uni002A" unicode="*" horiz-adv-x="410" 
d="M172 365l9 152l-128 -83l-32 58l135 67l-136 68l33 58l128 -84l-9 153h66l-9 -153l127 83l33 -57l-135 -68l136 -67l-34 -58l-126 83l8 -152h-66z" />
    <glyph glyph-name="uni002B" unicode="+" horiz-adv-x="598" 
d="M49 368h214v215h72v-215h214v-69h-214v-215h-72v215h-214v69z" />
    <glyph glyph-name="uni002C" unicode="," horiz-adv-x="204" 
d="M98 110q64 0 64 -92q0 -178 -140 -178v41q39 1 56 28t16 86q-21 2 -36 18.5t-15 38.5q0 27 14.5 42.5t40.5 15.5z" />
    <glyph glyph-name="uni002D" unicode="-" horiz-adv-x="407" 
d="M45 297v73h316v-73h-316z" />
    <glyph glyph-name="uni002E" unicode="." horiz-adv-x="208" 
d="M105 -12q-26 0 -44 18t-18 43t18 42.5t44 17.5q25 0 42.5 -17.5t17.5 -42.5t-17.5 -43t-42.5 -18z" />
    <glyph glyph-name="uni002F" unicode="/" horiz-adv-x="470" 
d="M-30 -128l443 926h82l-443 -926h-82z" />
    <glyph glyph-name="uni0030" unicode="0" horiz-adv-x="742" 
d="M371 -12q-149 0 -234.5 97t-85.5 267q0 171 85.5 268t234.5 97t234.5 -97t85.5 -268q0 -170 -85.5 -267t-234.5 -97zM371 64q108 0 171 77t63 211q0 135 -63 212t-171 77t-171 -77t-63 -212q0 -134 63 -211t171 -77z" />
    <glyph glyph-name="uni0031" unicode="1" horiz-adv-x="381" 
d="M194 0v617l-166 -57l-25 72l218 76h57v-708h-84z" />
    <glyph glyph-name="uni0032" unicode="2" horiz-adv-x="623" 
d="M132 75h441v-75h-527v35q3 50 16.5 86.5t52 70.5t63 50.5t93.5 56.5q8 5 13 8q48 28 70 42t52.5 36t43 38.5t22 39.5t9.5 50q0 61 -45.5 94.5t-114.5 33.5q-80 0 -133 -43.5t-53 -117.5v-23h-86v24q0 106 76 171t196 65q104 0 175.5 -53t71.5 -149q0 -38 -11 -70
t-26 -54.5t-46.5 -47.5t-58.5 -42t-75 -45q-16 -9 -24 -14q-16 -10 -45 -26.5t-41 -24t-32 -20.5t-29 -21.5t-20.5 -21t-17.5 -25.5t-10 -28z" />
    <glyph glyph-name="uni0033" unicode="3" horiz-adv-x="627" 
d="M342 443q115 0 177 -63.5t62 -161.5q0 -106 -72 -168t-198 -62q-125 0 -198 56.5t-73 154.5v11h84v-9q0 -64 50 -101t136 -37q88 0 137.5 41.5t49.5 114.5q0 74 -47.5 114t-137.5 40q-48 0 -101 -19l-37 41l246 235h-346v75h486v-48l-240 -215q7 1 22 1z" />
    <glyph glyph-name="uni0034" unicode="4" horiz-adv-x="650" 
d="M20 191l431 521h55v-498h126v-73h-126v-141h-84v141h-402v50zM422 558l-281 -344h281v344z" />
    <glyph glyph-name="uni0035" unicode="5" horiz-adv-x="639" 
d="M337 477q132 0 198 -66.5t66 -179.5q0 -115 -70 -179t-202 -64q-125 0 -202 57t-77 154v11h84v-9q0 -63 54 -100.5t140 -37.5q94 0 141.5 43t47.5 122q0 174 -195 174q-48 0 -95.5 -19t-68.5 -43h-81l19 365h455v-75h-380l-14 -206q74 53 180 53z" />
    <glyph glyph-name="uni0036" unicode="6" horiz-adv-x="664" 
d="M360 458q104 0 179 -56.5t75 -171.5q0 -111 -75.5 -176.5t-189.5 -65.5q-141 0 -219.5 87.5t-78.5 262.5q0 84 17.5 150.5t46 108.5t68 70t81 39t87.5 11q113 0 177.5 -52t64.5 -130v-13h-84q-1 53 -41.5 86t-115.5 33q-101 0 -158.5 -76.5t-59.5 -207.5q31 45 92 73
t134 28zM349 64q87 0 134 45t47 121q0 79 -51 116t-127 37q-79 0 -133 -38t-75 -89q4 -82 57.5 -137t147.5 -55z" />
    <glyph glyph-name="uni0037" unicode="7" horiz-adv-x="571" 
d="M28 705h503v-48l-367 -657h-93l354 630h-397v75z" />
    <glyph glyph-name="uni0038" unicode="8" horiz-adv-x="657" 
d="M455 383q70 -16 113 -66t43 -118q0 -107 -77.5 -159t-203.5 -52q-128 0 -205.5 51.5t-77.5 156.5q0 70 42.5 120.5t112.5 64.5q-57 13 -91 54.5t-34 97.5q0 92 69 138t184 46q114 0 182.5 -46t68.5 -138q0 -55 -34.5 -95.5t-91.5 -54.5zM158 531q0 -53 44.5 -85
t127.5 -32q82 0 126 32t44 85q0 110 -170 110q-172 0 -172 -110zM330 64q197 0 197 137q0 62 -54.5 100t-142.5 38q-90 0 -144.5 -37.5t-54.5 -100.5q0 -137 199 -137z" />
    <glyph glyph-name="uni0039" unicode="9" horiz-adv-x="666" 
d="M317 717q141 0 219.5 -87.5t78.5 -262.5q0 -84 -17.5 -150.5t-46 -108.5t-68 -70t-81 -39t-87.5 -11q-116 0 -181.5 52t-65.5 130v8h84q1 -49 42.5 -81.5t119.5 -32.5q101 0 158.5 76.5t59.5 207.5q-31 -45 -92 -73t-134 -28q-104 0 -179 56.5t-75 171.5
q0 111 75.5 176.5t189.5 65.5zM314 322q79 0 133 38t75 89q-4 82 -57.5 137t-147.5 55q-87 0 -134 -45t-47 -121q0 -79 51 -116t127 -37z" />
    <glyph glyph-name="uni003A" unicode=":" horiz-adv-x="209" 
d="M105 432q-26 0 -44 18t-18 43t18 42.5t44 17.5q25 0 42.5 -17.5t17.5 -42.5t-17.5 -43t-42.5 -18zM105 -12q-26 0 -44 18t-18 43t18 42.5t44 17.5q25 0 42.5 -17.5t17.5 -42.5t-17.5 -43t-42.5 -18z" />
    <glyph glyph-name="uni003B" unicode=";" horiz-adv-x="208" 
d="M104 432q-26 0 -44 18t-18 43t18 42.5t44 17.5q25 0 42.5 -17.5t17.5 -42.5t-17.5 -43t-42.5 -18zM98 110q64 0 64 -92q0 -178 -140 -178v41q39 1 56 28t16 86q-21 2 -36 18.5t-15 38.5q0 27 14.5 42.5t40.5 15.5z" />
    <glyph glyph-name="uni003C" unicode="&#x3c;" horiz-adv-x="561" 
d="M32 313v41l484 237v-78l-373 -180l373 -179v-78z" />
    <glyph glyph-name="uni003D" unicode="=" horiz-adv-x="596" 
d="M64 417v69h468v-69h-468zM64 250h468v-69h-468v69z" />
    <glyph glyph-name="uni003E" unicode="&#x3e;" horiz-adv-x="561" 
d="M529 313l-484 -237v78l373 179l-373 180v78l484 -237v-41z" />
    <glyph glyph-name="uni003F" unicode="?" horiz-adv-x="577" 
d="M539 492q0 -94 -66.5 -157t-180.5 -71l-12 -89h-48l-11 139l32 3q98 9 150.5 57.5t52.5 118.5q0 76 -51 114t-120 38q-84 0 -138 -45t-54 -125v-22h-80v24q0 107 75.5 173.5t195.5 66.5q109 0 182 -57.5t73 -167.5zM257 -12q-26 0 -44 18t-18 43t18 42.5t44 17.5
q25 0 42.5 -17.5t17.5 -42.5t-17.5 -43t-42.5 -18z" />
    <glyph glyph-name="uni0040" unicode="@" horiz-adv-x="944" 
d="M684 501l-39 -264q-10 -68 6.5 -92.5t54.5 -24.5q68 0 101 50t33 133q0 150 -103.5 252t-263.5 102q-161 0 -264.5 -108.5t-103.5 -272.5t95 -261t263 -97q169 0 254 81l44 -47q-102 -101 -298 -101q-197 0 -313.5 116.5t-116.5 308.5t125 320t315 128t314 -120.5
t124 -297.5q0 -111 -61.5 -183t-153.5 -72q-51 0 -84.5 26.5t-37.5 74.5q-47 -89 -158 -89q-87 0 -143 59.5t-56 155.5q0 109 62.5 181.5t161.5 72.5q63 0 105 -30.5t54 -79.5l14 79h70zM430 136q62 0 103.5 47t41.5 129q0 66 -36 106.5t-93 40.5q-64 0 -105 -51t-41 -127
q0 -64 36 -104.5t94 -40.5z" />
    <glyph glyph-name="uni0041" unicode="A" horiz-adv-x="709" 
d="M10 0l319 712h50l320 -712h-92l-77 170h-352l-76 -170h-92zM215 248h279l-75 180l-65 152l-65 -152z" />
    <glyph glyph-name="uni0042" unicode="B" horiz-adv-x="689" 
d="M409 0h-328v705h294q111 0 169 -47t58 -133q0 -124 -105 -156q158 -33 158 -167q0 -101 -59.5 -151.5t-186.5 -50.5zM165 78h244q84 0 121.5 31t37.5 93q0 119 -185 119h-218v-243zM376 627h-211v-228h197q80 0 116.5 29.5t36.5 92.5q0 53 -36.5 79.5t-102.5 26.5z" />
    <glyph glyph-name="uni0043" unicode="C" horiz-adv-x="749" 
d="M405 -12q-162 0 -260 100t-98 268t98 264.5t260 96.5q193 0 303 -135l-66 -55q-85 112 -237 112q-121 0 -196 -76t-75 -207t75.5 -210.5t195.5 -79.5q153 0 237 111l66 -55q-109 -134 -303 -134z" />
    <glyph glyph-name="uni0044" unicode="D" horiz-adv-x="724" 
d="M81 0v705h251q165 0 255 -86.5t90 -258.5q0 -167 -88 -263.5t-252 -96.5h-256zM165 78h172q116 0 184.5 74t68.5 208q0 130 -64.5 198.5t-193.5 68.5h-167v-549z" />
    <glyph glyph-name="uni0045" unicode="E" horiz-adv-x="622" 
d="M81 705h479v-78h-395v-238h333v-78h-333v-233h416v-78h-500v705z" />
    <glyph glyph-name="uni0046" unicode="F" horiz-adv-x="607" 
d="M81 705h489v-78h-405v-279h350v-78h-350v-270h-84v705z" />
    <glyph glyph-name="uni0047" unicode="G" horiz-adv-x="760" 
d="M389 360h332v-269q-104 -103 -288 -103q-180 0 -283 97t-103 267q0 169 100.5 267t268.5 98q170 0 279 -101l-54 -59q-90 82 -225 82q-128 0 -205 -77.5t-77 -209.5q0 -133 80 -209t219 -76q128 0 204 63v152h-248v78z" />
    <glyph glyph-name="uni0048" unicode="H" horiz-adv-x="729" 
d="M81 705h84v-343h399v343h84v-705h-84v284h-399v-284h-84v705z" />
    <glyph glyph-name="uni0049" unicode="I" horiz-adv-x="257" 
d="M85 0v705h87v-705h-87z" />
    <glyph glyph-name="uni004A" unicode="J" horiz-adv-x="600" 
d="M282 -12q-115 0 -186 65t-75 192h84q4 -93 52 -136t124 -43q167 0 167 216v423h86v-425q0 -151 -62 -221.5t-190 -70.5z" />
    <glyph glyph-name="uni004B" unicode="K" horiz-adv-x="689" 
d="M81 705h84v-420l365 420h113l-281 -317l316 -388h-111l-262 322l-140 -155v-167h-84v705z" />
    <glyph glyph-name="uni004C" unicode="L" horiz-adv-x="593" 
d="M81 0v705h84v-627h413v-78h-497z" />
    <glyph glyph-name="uni004D" unicode="M" horiz-adv-x="878" 
d="M165 0h-84v711h45l315 -472l311 472h45v-711h-84v509l-254 -380h-40l-254 375v-504z" />
    <glyph glyph-name="uni004E" unicode="N" horiz-adv-x="765" 
d="M600 705h84v-713h-43l-476 550v-542h-84v714h43l476 -551v542z" />
    <glyph glyph-name="uni004F" unicode="O" horiz-adv-x="839" 
d="M419 -12q-162 0 -267 99t-105 265q0 161 102 263t270 102q162 0 267.5 -99.5t105.5 -265.5q0 -160 -102.5 -262t-270.5 -102zM419 66q124 0 205 78t81 208q0 126 -79 206.5t-207 80.5q-123 0 -204 -78.5t-81 -208.5q0 -125 78.5 -205.5t206.5 -80.5z" />
    <glyph glyph-name="uni0050" unicode="P" horiz-adv-x="646" 
d="M165 0h-84v705h279q259 0 259 -238q0 -244 -286 -244h-168v-223zM165 627v-326h163q204 0 204 165q0 161 -182 161h-185z" />
    <glyph glyph-name="uni0051" unicode="Q" horiz-adv-x="839" 
d="M792 352q0 -175 -117 -276l83 -97l-61 -51l-89 103q-81 -43 -189 -43q-162 0 -267 99t-105 265q0 161 102 263t270 102q162 0 267.5 -99.5t105.5 -265.5zM419 66q73 0 134 29l-97 113l61 53l103 -121q85 80 85 212q0 126 -79 206.5t-207 80.5q-123 0 -204 -78.5
t-81 -208.5q0 -125 78.5 -205.5t206.5 -80.5z" />
    <glyph glyph-name="uni0052" unicode="R" horiz-adv-x="669" 
d="M81 705h278q127 0 193 -61t66 -177q0 -172 -154 -222l176 -245h-103l-164 228q-13 -1 -41 -1h-167v-227h-84v705zM165 305h160q99 0 151.5 42t52.5 120q0 79 -46.5 119.5t-135.5 40.5h-182v-322z" />
    <glyph glyph-name="uni0053" unicode="S" horiz-adv-x="623" 
d="M337 -12q-88 0 -150.5 14t-142.5 48l32 79q77 -35 131.5 -49t124.5 -14q78 0 121.5 32.5t43.5 90.5q0 55 -44.5 79.5t-149.5 46.5q-127 26 -189.5 70t-62.5 136q0 88 64.5 142t183.5 54q142 0 257 -55l-36 -74q-102 51 -222 51q-78 0 -119 -35t-41 -83q0 -53 46 -78
t149 -48q61 -13 100.5 -26t77 -35.5t55.5 -57t18 -82.5q0 -103 -65.5 -154.5t-181.5 -51.5z" />
    <glyph glyph-name="uni0054" unicode="T" horiz-adv-x="635" 
d="M32 627v78h570v-78h-242v-627h-86v627h-242z" />
    <glyph glyph-name="uni0055" unicode="U" horiz-adv-x="720" 
d="M70 705h84v-408q0 -119 48 -174t158 -55t158 55t48 174v408h84v-426q0 -146 -70.5 -218.5t-219.5 -72.5t-219.5 72.5t-70.5 218.5v426z" />
    <glyph glyph-name="uni0056" unicode="V" horiz-adv-x="695" 
d="M8 705h94l183 -425l61 -149l247 574h94l-316 -713h-48z" />
    <glyph glyph-name="uni0057" unicode="W" horiz-adv-x="1051" 
d="M8 705h92l194 -545l210 549h46l209 -550l192 546h92l-257 -713h-46l-214 548l-213 -548h-46z" />
    <glyph glyph-name="uni0058" unicode="X" horiz-adv-x="665" 
d="M10 0l264 357l-260 348h105l214 -290l214 290h105l-260 -348l263 -357h-105l-217 297l-217 -297h-106z" />
    <glyph glyph-name="uni0059" unicode="Y" horiz-adv-x="618" 
d="M266 242l-266 463h100l211 -376l210 376h97l-266 -463v-242h-86v242z" />
    <glyph glyph-name="uni005A" unicode="Z" horiz-adv-x="656" 
d="M165 78h451v-78h-580v47l445 580h-413v78h542v-48z" />
    <glyph glyph-name="uni005B" unicode="[" horiz-adv-x="362" 
d="M75 780h250v-66h-177v-765h177v-66h-250v897z" />
    <glyph glyph-name="uni005C" unicode="\" horiz-adv-x="470" 
d="M500 -128h-82l-443 926h82z" />
    <glyph glyph-name="uni005D" unicode="]" horiz-adv-x="362" 
d="M37 -51h177v765h-177v66h250v-897h-250v66z" />
    <glyph glyph-name="uni005E" unicode="^" horiz-adv-x="433" 
d="M29 460l168 246h41l168 -246h-90l-99 158l-102 -158h-86z" />
    <glyph glyph-name="uni005F" unicode="_" horiz-adv-x="585" 
d="M-3 -82v51h591v-51h-591z" />
    <glyph glyph-name="uni0060" unicode="`" horiz-adv-x="457" 
d="M369 619h-68l-162 147l98 7z" />
    <glyph glyph-name="uni0061" unicode="a" horiz-adv-x="610" 
d="M261 -19q-98 0 -160.5 45.5t-62.5 130.5q0 88 64 132t164 44h190v11q0 67 -49 103t-118 36q-55 0 -103 -22.5t-69 -63.5l-56 56q37 49 98.5 75t129.5 26q101 0 173.5 -55t72.5 -155v-347h-79v67q-70 -83 -195 -83zM264 261q-147 0 -147 -104q0 -52 39 -78t107 -26
q90 0 141.5 49t51.5 117v42h-192z" />
    <glyph glyph-name="uni0062" unicode="b" horiz-adv-x="659" 
d="M77 0v754h79v-273q70 71 192 71q120 0 193 -75.5t73 -203.5q0 -131 -73.5 -207t-197.5 -76q-122 0 -187 74v-64h-79zM156 386v-228q28 -47 77.5 -70t102.5 -23q88 0 141.5 56t53.5 152q0 94 -53.5 149t-138.5 55q-51 0 -102 -24t-81 -67z" />
    <glyph glyph-name="uni0063" unicode="c" horiz-adv-x="603" 
d="M331 -9q-133 0 -209.5 76t-76.5 205q0 127 79.5 203t211.5 76q68 0 127.5 -26.5t95.5 -71.5l-56 -55q-27 35 -72 56.5t-95 21.5q-95 0 -151 -55.5t-56 -148.5q0 -94 55 -150t147 -56q56 0 101.5 22t73.5 57l57 -54q-37 -47 -98 -73.5t-134 -26.5z" />
    <glyph glyph-name="uni0064" unicode="d" horiz-adv-x="657" 
d="M45 273q0 128 73 203.5t193 75.5q122 0 192 -71v273h79v-754h-79v64q-65 -74 -187 -74q-124 0 -197.5 76t-73.5 207zM320 477q-85 0 -138.5 -55t-53.5 -149q0 -96 53.5 -152t141.5 -56q53 0 102.5 23t77.5 70v228q-30 43 -81 67t-102 24z" />
    <glyph glyph-name="uni0065" unicode="e" horiz-adv-x="630" 
d="M597 268v-22h-469q9 -84 65 -133t141 -49q118 0 185 81l57 -47q-81 -108 -246 -108q-129 0 -207 76.5t-78 205.5q0 127 76 203.5t198 76.5q134 0 206 -77.5t72 -206.5zM320 478q-74 0 -126 -43.5t-64 -119.5h382q-8 75 -56.5 119t-135.5 44z" />
    <glyph glyph-name="uni0066" unicode="f" horiz-adv-x="370" 
d="M18 541h91v42q0 183 160 183q53 0 100 -15v-70q-45 14 -88 14q-51 0 -72 -25.5t-21 -90.5v-38h173v-74h-173v-467h-79v467h-91v74z" />
    <glyph glyph-name="uni0067" unicode="g" horiz-adv-x="654" 
d="M45 288q0 118 73.5 191t192.5 73q122 0 192 -71v60h79v-489q0 -127 -64.5 -185t-204.5 -58q-121 0 -224 46v86q54 -29 102 -43t116 -14q96 0 146 38.5t50 127.5v40q-65 -73 -187 -73q-123 0 -197 74.5t-74 196.5zM320 477q-84 0 -138 -52.5t-54 -136.5q0 -88 54 -142
t141 -54q53 0 102.5 23t77.5 70v201q-30 43 -81 67t-102 24z" />
    <glyph glyph-name="uni0068" unicode="h" horiz-adv-x="626" 
d="M76 0v754h79v-275q85 72 191 72q101 0 158.5 -52.5t57.5 -181.5v-317h-79v310q0 95 -42 131t-110 36q-96 0 -176 -80v-397h-79z" />
    <glyph glyph-name="uni0069" unicode="i" horiz-adv-x="238" 
d="M121 615q-26 0 -44 18t-18 43t18 42.5t44 17.5q25 0 42.5 -17.5t17.5 -42.5t-17.5 -43t-42.5 -18zM78 0v541h82v-541h-82z" />
    <glyph glyph-name="uni006A" unicode="j" horiz-adv-x="245" 
d="M132 615q-26 0 -44 18t-18 43t18 42.5t44 17.5q25 0 42.5 -17.5t17.5 -42.5t-17.5 -43t-42.5 -18zM16 -187q-45 0 -61 7v70q21 -6 43 -6q57 0 73.5 25.5t16.5 88.5v543h79v-585q0 -143 -151 -143z" />
    <glyph glyph-name="uni006B" unicode="k" horiz-adv-x="608" 
d="M77 0v754h79v-535l312 322h109l-201 -206l212 -335h-98l-173 275l-161 -161v-114h-79z" />
    <glyph glyph-name="uni006C" unicode="l" horiz-adv-x="240" 
d="M79 0v754h82v-754h-82z" />
    <glyph glyph-name="uni006D" unicode="m" horiz-adv-x="981" 
d="M78 541h79v-62q82 73 188 73q114 0 157 -76q84 76 206 76q209 0 209 -242v-310h-79v298q0 103 -41.5 141.5t-107.5 38.5q-91 0 -163 -70q9 -41 9 -97v-311h-79v313q0 165 -131 165q-91 0 -168 -79v-399h-79v541z" />
    <glyph glyph-name="uni006E" unicode="n" horiz-adv-x="628" 
d="M78 0v541h79v-62q85 72 191 72q101 0 158.5 -52.5t57.5 -181.5v-317h-79v310q0 95 -42 131t-110 36q-96 0 -176 -80v-397h-79z" />
    <glyph glyph-name="uni006F" unicode="o" horiz-adv-x="679" 
d="M340 -10q-131 0 -213 78t-82 204q0 125 82 202.5t213 77.5t212.5 -77.5t81.5 -202.5q0 -126 -81.5 -204t-212.5 -78zM340 65q92 0 151 57.5t59 149.5q0 91 -59 148t-151 57q-93 0 -152 -57t-59 -148q0 -92 59 -149.5t152 -57.5z" />
    <glyph glyph-name="uni0070" unicode="p" horiz-adv-x="660" 
d="M78 541h79v-60q70 71 192 71q120 0 193 -75.5t73 -203.5q0 -131 -73.5 -207t-197.5 -76q-122 0 -187 74v-239h-79v716zM157 386v-228q28 -47 77.5 -70t102.5 -23q88 0 141.5 56t53.5 152q0 94 -53.5 149t-138.5 55q-51 0 -102 -24t-81 -67z" />
    <glyph glyph-name="uni0071" unicode="q" horiz-adv-x="650" 
d="M316 -10q-124 0 -197.5 76t-73.5 207q0 128 73 203.5t193 75.5q122 0 192 -71v60h79v-716h-79v239q-65 -74 -187 -74zM320 477q-85 0 -138.5 -55t-53.5 -149q0 -96 53.5 -152t141.5 -56q53 0 102.5 23t77.5 70v228q-30 43 -81 67t-102 24z" />
    <glyph glyph-name="uni0072" unicode="r" horiz-adv-x="420" 
d="M78 541h79v-82q25 42 70 67.5t105 25.5q40 0 63 -10v-87q-41 16 -79 16q-68 0 -113.5 -54.5t-45.5 -147.5v-269h-79v541z" />
    <glyph glyph-name="uni0073" unicode="s" horiz-adv-x="529" 
d="M272 -11q-125 0 -225 53l31 72q93 -51 196 -51q126 0 126 87q0 36 -33.5 54t-109.5 34q-107 23 -153.5 58.5t-46.5 104.5q0 71 55.5 110.5t147.5 39.5q96 0 198 -42l-28 -71q-78 39 -172 39q-54 0 -85.5 -18t-31.5 -54q0 -37 31 -55.5t110 -36.5q108 -24 156 -58t48 -101
q0 -85 -52 -125t-162 -40z" />
    <glyph glyph-name="uni0074" unicode="t" horiz-adv-x="393" 
d="M11 541h89v213h79v-213h192v-74h-192v-287q0 -64 18.5 -90.5t73.5 -26.5q53 0 99 17v-76q-46 -15 -113 -15q-88 0 -122.5 44.5t-34.5 138.5v295h-89v74z" />
    <glyph glyph-name="uni0075" unicode="u" horiz-adv-x="612" 
d="M65 541h79v-310q0 -167 150 -167q96 0 171 86v391h79v-541h-79v68q-78 -78 -187 -78q-99 0 -156 52.5t-57 181.5v317z" />
    <glyph glyph-name="uni0076" unicode="v" horiz-adv-x="575" 
d="M8 541h90l122 -270l67 -155l193 425h87l-257 -548h-46z" />
    <glyph glyph-name="uni0077" unicode="w" horiz-adv-x="816" 
d="M8 541h86l136 -402l154 406h48l156 -408l137 404h83l-196 -548h-47l-159 407l-156 -407h-45z" />
    <glyph glyph-name="uni0078" unicode="x" horiz-adv-x="565" 
d="M16 0l210 277l-209 264h100l164 -212l164 212h102l-211 -264l213 -277h-101l-168 219l-164 -219h-100z" />
    <glyph glyph-name="uni0079" unicode="y" horiz-adv-x="566" 
d="M-8 541h90l200 -467l189 467h86l-232 -561q-19 -46 -42.5 -79t-44.5 -50.5t-47.5 -27t-45.5 -12t-44 -2.5q-43 0 -80 11v75q57 -12 83 -12q49 0 80 22.5t56 74.5z" />
    <glyph glyph-name="uni007A" unicode="z" horiz-adv-x="538" 
d="M149 68h355v-68h-474v47l351 425h-336v69h457v-45z" />
    <glyph glyph-name="uni007B" unicode="{" horiz-adv-x="414" 
d="M20 369q33 0 56.5 3.5t40.5 8t27.5 18t16.5 23.5t8.5 36.5t3 44t0.5 57.5v74q0 82 47 114t175 32v-61q-64 0 -97.5 -15t-42.5 -37.5t-9 -62.5v-96q0 -37 -1.5 -57t-9 -46.5t-25 -43t-46.5 -26.5q29 -10 46.5 -25.5t25 -41.5t9 -45t1.5 -56v-108q0 -61 29 -88t120 -27v-61
q-127 0 -174.5 32.5t-47.5 113.5v86q0 35 -0.5 51t-2 40t-5.5 33.5t-11.5 23.5t-18 18.5t-27 10.5t-38 7.5t-50.5 1.5v68z" />
    <glyph glyph-name="uni007C" unicode="|" horiz-adv-x="276" 
d="M100 -128v926h76v-926h-76z" />
    <glyph glyph-name="uni007D" unicode="}" horiz-adv-x="414" 
d="M19 719v61q128 0 175 -32t47 -114v-74q0 -40 0.5 -57.5t3 -44t8.5 -36.5t16.5 -23.5t27.5 -18t40.5 -8t56.5 -3.5v-68q-29 0 -50.5 -1.5t-38 -7.5t-27 -10.5t-18 -18.5t-11.5 -23.5t-5.5 -33.5t-2 -40t-0.5 -51v-86q0 -81 -47.5 -113.5t-174.5 -32.5v61q91 0 120 27
t29 88v108q0 37 1.5 56t9 45t25 41.5t46.5 25.5q-29 10 -46.5 26.5t-25 43t-9 46.5t-1.5 57v96q0 40 -9 62.5t-42.5 37.5t-97.5 15z" />
    <glyph glyph-name="uni007E" unicode="~" horiz-adv-x="630" 
d="M463 265q-47 0 -179 41q-80 25 -107 25q-62 0 -91 -67l-52 11q28 124 140 124q54 0 187 -42q63 -20 106 -20q24 0 44.5 17.5t29.5 48.5l55 -19q-16 -60 -51.5 -89.5t-81.5 -29.5z" />
    <glyph glyph-name="uni00A1" unicode="&#xa1;" horiz-adv-x="222" 
d="M112 717q25 0 42.5 -18t17.5 -43t-17.5 -42.5t-42.5 -17.5q-26 0 -44 17.5t-18 42.5t18 43t44 18zM84 530h56l15 -530h-86z" />
    <glyph glyph-name="uni00A2" unicode="&#xa2;" horiz-adv-x="575" 
d="M34 334q0 114 64 187.5t175 88.5v141h66v-138q135 -6 209 -98l-56 -55q-56 72 -153 79v-411q100 7 156 79l57 -54q-73 -92 -213 -100v-121h-66v124q-113 13 -176 87t-63 191zM118 334q0 -82 41 -136t114 -67v403q-73 -14 -114 -67t-41 -133z" />
    <glyph glyph-name="uni00A3" unicode="&#xa3;" horiz-adv-x="642" 
d="M133 285h-81v66h73q-4 35 -4 76q0 286 249 286q112 0 177 -62t65 -170v-24h-80v22q0 75 -44.5 116t-108.5 41q-94 0 -134 -56.5t-40 -159.5q0 -37 4 -69h284v-66h-276q2 -11 5.5 -31t4.5 -26q21 -111 21 -154h361v-74h-556v50l111 19q2 37 -18 140q-12 68 -13 76z" />
    <glyph glyph-name="uni00A4" unicode="&#xa4;" horiz-adv-x="578" 
d="M92 89l-46 46l86 85q-38 51 -38 113t38 111l-85 85l45 46l85 -86q51 39 115 39q62 0 112 -36l82 82l46 -44l-81 -81q41 -54 41 -118q0 -65 -41 -115l81 -81l-45 -46l-84 84q-49 -34 -111 -34q-64 0 -114 36zM171 330q0 -52 34.5 -88t86.5 -36q35 0 61 17q28 16 44.5 45.5
t16.5 64.5q0 54 -35.5 90t-86.5 36q-53 0 -87 -38t-34 -91z" />
    <glyph glyph-name="uni00A5" unicode="&#xa5;" horiz-adv-x="612" 
d="M223 315l-221 390h100l204 -376l206 376h98l-222 -390h151v-66h-189l-1 -2v-76h190v-66h-190v-105h-86v105h-192v66h192v74l-2 4h-190v66h152z" />
    <glyph glyph-name="uni00A6" unicode="&#xa6;" horiz-adv-x="276" 
d="M100 415v383h76v-383h-76zM100 256h76v-383h-76v383z" />
    <glyph glyph-name="uni00A7" unicode="&#xa7;" horiz-adv-x="513" 
d="M265 -11q-133 0 -239 56l31 69q100 -56 206 -56q129 0 129 70q0 36 -33 54t-109 34q-113 24 -162 54t-49 86q0 80 83 114q-72 35 -72 104q0 68 55 104.5t149 36.5q115 0 207 -42l-29 -64q-88 39 -182 39q-119 0 -119 -68q0 -31 30.5 -47t110.5 -34q109 -24 157.5 -55
t48.5 -90q0 -75 -78 -108q40 -19 58 -45t18 -68q0 -74 -51.5 -109t-159.5 -35zM317 276q38 5 58 23t20 43q0 35 -29 52.5t-81 28.5q-67 14 -74 15q-92 -9 -92 -70q0 -32 29.5 -47.5t104.5 -32.5q51 -11 64 -12z" />
    <glyph glyph-name="uni00A8" unicode="&#xa8;" horiz-adv-x="500" 
d="M155 615q-26 0 -44 18t-18 43t18 42.5t44 17.5q25 0 42.5 -17.5t17.5 -42.5t-17.5 -43t-42.5 -18zM347 615q-26 0 -44 18t-18 43t18 42.5t44 17.5q25 0 42.5 -17.5t17.5 -42.5t-17.5 -43t-42.5 -18z" />
    <glyph glyph-name="uni00A9" unicode="&#xa9;" horiz-adv-x="789" 
d="M394 -7q-156 0 -258 102.5t-102 259.5t102.5 259.5t259.5 102.5q155 0 256 -102.5t101 -259.5t-101.5 -259.5t-257.5 -102.5zM394 50q129 0 213 86.5t84 218.5q0 131 -84 217.5t-211 86.5q-130 0 -215 -86.5t-85 -218.5q0 -131 84 -217.5t214 -86.5zM398 144
q-91 0 -149.5 59t-58.5 151t58.5 150.5t149.5 58.5q45 0 89 -21.5t72 -55.5l-60 -50q-17 23 -45.5 39t-56.5 16q-56 0 -91.5 -38.5t-35.5 -98.5q0 -59 36 -97.5t91 -38.5q28 0 56.5 15t45.5 38l60 -49q-29 -35 -71.5 -56.5t-89.5 -21.5z" />
    <glyph glyph-name="uni00AA" unicode="&#xaa;" horiz-adv-x="453" 
d="M20 516q0 89 51.5 143t134.5 54q86 0 132 -50v42h65v-382h-64v45q-44 -52 -130 -52t-137.5 54.5t-51.5 145.5zM220 653q-57 0 -93.5 -37t-36.5 -100q0 -64 36 -102t96 -38q81 0 117 60v157q-39 60 -119 60z" />
    <glyph glyph-name="uni00AB" unicode="&#xab;" horiz-adv-x="539" 
d="M206 9l-174 257l174 257l57 -42l-150 -215l150 -214zM434 9l-174 257l174 257l57 -42l-150 -215l150 -214z" />
    <glyph glyph-name="uni00AC" unicode="&#xac;" horiz-adv-x="653" 
d="M527 81v219h-478v69h550v-288h-72z" />
    <glyph glyph-name="uni00AD" unicode="&#xad;" horiz-adv-x="407" 
d="M45 297v73h316v-73h-316z" />
    <glyph glyph-name="uni00AE" unicode="&#xae;" horiz-adv-x="495" 
d="M10 478q0 104 67.5 171.5t170.5 67.5t169.5 -67.5t66.5 -171.5t-67 -171t-170 -67t-170 67.5t-67 170.5zM58 477q0 -83 53.5 -138t135.5 -55t135.5 55.5t53.5 138.5t-53.5 139t-134.5 56q-82 0 -136 -56t-54 -140zM149 616h102q52 0 79 -24t27 -67q0 -60 -51 -80l55 -87
h-63l-44 75h-52v-75h-53v258zM202 572v-95h43q26 0 41 12t15 34q0 49 -52 49h-47z" />
    <glyph glyph-name="uni00AF" unicode="&#xaf;" horiz-adv-x="500" 
d="M82 661v65h336v-65h-336z" />
    <glyph glyph-name="uni00B0" unicode="&#xb0;" horiz-adv-x="415" 
d="M207 374q-76 0 -125.5 48.5t-49.5 122.5q0 75 49.5 123.5t125.5 48.5t126 -49t50 -124q0 -74 -50 -122t-126 -48zM207 440q46 0 76 29.5t30 75.5t-30 75.5t-76 29.5t-75.5 -30t-29.5 -76q0 -45 29.5 -74.5t75.5 -29.5z" />
    <glyph glyph-name="uni00B1" unicode="&#xb1;" horiz-adv-x="628" 
d="M64 373v69h214v215h72v-215h214v-69h-214v-215h-72v215h-214zM563 -1h-499v69h499v-69z" />
    <glyph glyph-name="uni00B2" unicode="&#xb2;" horiz-adv-x="369" 
d="M22 311q2 50 30 80t104 76q65 39 88 60.5t23 55.5q0 32 -23.5 49.5t-60.5 17.5q-43 0 -69 -23.5t-26 -63.5v-13h-66v16q0 66 43.5 105t118.5 39q67 0 111 -31.5t44 -89.5q0 -37 -17 -66t-42 -48t-74 -48q-7 -4 -24 -13.5t-23 -13.5t-18 -11.5t-17.5 -12t-13 -11
t-12 -12.5t-7.5 -13h252v-60h-321v31z" />
    <glyph glyph-name="uni00B3" unicode="&#xb3;" horiz-adv-x="371" 
d="M206 545q69 0 105.5 -37.5t36.5 -93.5q0 -68 -45 -103.5t-119 -35.5q-75 0 -119.5 35t-44.5 94v7h66v-4q0 -32 26.5 -52t69.5 -20t69.5 22t26.5 60q0 37 -25 58t-69 21q-30 0 -63 -13l-27 33l135 129h-190v60h294v-34l-136 -126h9z" />
    <glyph glyph-name="uni00B4" unicode="&#xb4;" horiz-adv-x="500" 
d="M133 620l132 154l98 -7l-162 -147h-68z" />
    <glyph glyph-name="uni00B5" unicode="&#xb5;" horiz-adv-x="631" 
d="M76 541h79v-310q0 -167 150 -167q96 0 171 86v391h79v-541h-79v68q-78 -78 -187 -78q-92 0 -134 56v-221h-79v716z" />
    <glyph glyph-name="uni00B6" unicode="&#xb6;" horiz-adv-x="574" 
d="M18 486q0 102 66.5 160.5t182.5 58.5h248v-705h-74v639h-76v-639h-74v271h-21q-118 0 -185 57t-67 158zM98 492q0 -74 43 -114.5t120 -40.5h30v302h-28q-77 0 -121 -39t-44 -108z" />
    <glyph glyph-name="uni00B7" unicode="&#xb7;" horiz-adv-x="203" 
d="M103 273q-26 0 -44 18t-18 43t18 42.5t44 17.5q25 0 42.5 -17.5t17.5 -42.5t-17.5 -43t-42.5 -18z" />
    <glyph glyph-name="uni00B8" unicode="&#xb8;" horiz-adv-x="429" 
d="M312 -42q55 -13 55 -58q0 -40 -30 -63.5t-86 -23.5q-39 0 -65 6v47q20 -5 46 -5q31 0 48.5 11t17.5 27q0 30 -60 34v16l44 54l55 6z" />
    <glyph glyph-name="uni00B9" unicode="&#xb9;" horiz-adv-x="249" 
d="M123 280v355l-94 -35l-21 54l136 51h43v-425h-64z" />
    <glyph glyph-name="uni00BA" unicode="&#xba;" horiz-adv-x="458" 
d="M228 316q-92 0 -150 55t-58 143t58 143.5t150 55.5t151 -55t59 -144q0 -88 -58.5 -143t-151.5 -55zM228 377q60 0 99 38.5t39 98.5t-39 98.5t-99 38.5q-59 0 -98.5 -38.5t-39.5 -98.5t39 -98.5t99 -38.5z" />
    <glyph glyph-name="uni00BB" unicode="&#xbb;" horiz-adv-x="539" 
d="M105 9l-57 43l150 214l-150 215l57 42l174 -257zM333 9l-57 43l150 214l-150 215l57 42l174 -257z" />
    <glyph glyph-name="uni00BC" unicode="&#xbc;" horiz-adv-x="755" 
d="M374 81v36l250 309h49v-288h67v-57h-67v-81h-64v81h-235zM75 0l486 705h83l-486 -705h-83zM8 654l136 51h43v-425h-64v355l-94 -35zM611 327l-152 -192h152v192z" />
    <glyph glyph-name="uni00BD" unicode="&#xbd;" horiz-adv-x="839" 
d="M492 270v16q0 66 43.5 105t118.5 39q67 0 111 -31.5t44 -89.5q0 -37 -17 -66t-42 -48t-74 -48q-7 -4 -24 -13.5t-23 -13.5t-18 -11.5t-17.5 -12t-13 -11t-12 -12.5t-7.5 -13h252v-60h-321v31q2 50 30 80t104 76q65 39 88 60.5t23 55.5q0 32 -23.5 49.5t-60.5 17.5
q-43 0 -69 -23.5t-26 -63.5v-13h-66zM75 0l486 705h83l-486 -705h-83zM8 654l136 51h43v-425h-64v355l-94 -35z" />
    <glyph glyph-name="uni00BE" unicode="&#xbe;" horiz-adv-x="867" 
d="M486 81v36l250 309h49v-288h67v-57h-67v-81h-64v81h-235zM20 411h66v-4q0 -32 26.5 -52t69.5 -20t69.5 22t26.5 60q0 37 -25 58t-69 21q-30 0 -63 -13l-27 33l135 129h-190v60h294v-34l-136 -126h9q69 0 105.5 -37.5t36.5 -93.5q0 -68 -45 -103.5t-119 -35.5
q-75 0 -119.5 35t-44.5 94v7zM270 0h-83l486 705h83zM571 135h152v192z" />
    <glyph glyph-name="uni00BF" unicode="&#xbf;" horiz-adv-x="577" 
d="M320 717q26 0 44 -18t18 -43t-18 -42.5t-44 -17.5q-25 0 -42.5 17.5t-17.5 42.5t17.5 43t42.5 18zM38 213q0 94 66.5 157t180.5 71l12 89h48l11 -139l-32 -3q-98 -9 -150.5 -57.5t-52.5 -118.5q0 -76 51 -114t120 -38q84 0 138 45t54 125v22h80v-24q0 -107 -75.5 -173.5
t-195.5 -66.5q-109 0 -182 57.5t-73 167.5z" />
    <glyph glyph-name="uni00C0" unicode="&#xc0;" horiz-adv-x="709" 
d="M102 0h-92l319 712h50l320 -712h-92l-77 170h-352zM215 248h279l-75 180l-65 152l-65 -152zM322 765l-162 147l98 7l132 -154h-68z" />
    <glyph glyph-name="uni00C1" unicode="&#xc1;" horiz-adv-x="709" 
d="M10 0l319 712h50l320 -712h-92l-77 170h-352l-76 -170h-92zM289 428l-74 -180h279l-75 180l-65 152zM319 765l132 154l98 -7l-162 -147h-68z" />
    <glyph glyph-name="uni00C2" unicode="&#xc2;" horiz-adv-x="709" 
d="M102 0h-92l319 712h50l320 -712h-92l-77 170h-352zM215 248h279l-75 180l-65 152l-65 -152zM261 765h-75l139 143h62l140 -143h-76l-95 79z" />
    <glyph glyph-name="uni00C3" unicode="&#xc3;" horiz-adv-x="709" 
d="M102 0h-92l319 712h50l320 -712h-92l-77 170h-352zM289 428l-74 -180h279l-75 180l-65 152zM198 760l-42 11q24 115 108 115q40 0 98 -33t83 -33q45 0 68 63l42 -12q-26 -114 -105 -114q-35 0 -95 33.5t-81 33.5q-27 0 -44.5 -15t-31.5 -49z" />
    <glyph glyph-name="uni00C4" unicode="&#xc4;" horiz-adv-x="709" 
d="M102 0h-92l319 712h50l320 -712h-92l-77 170h-352zM215 248h279l-75 180l-65 152l-65 -152zM390 819q0 25 18 42.5t44 17.5q25 0 42.5 -17.5t17.5 -42.5t-17.5 -43t-42.5 -18q-26 0 -44 18t-18 43zM198 819q0 25 18 42.5t44 17.5q25 0 42.5 -17.5t17.5 -42.5t-17.5 -43
t-42.5 -18q-26 0 -44 18t-18 43z" />
    <glyph glyph-name="uni00C5" unicode="&#xc5;" horiz-adv-x="709" 
d="M10 0l311 694q-34 9 -54.5 36.5t-20.5 64.5q0 46 30.5 75.5t77.5 29.5t77.5 -29.5t30.5 -75.5q0 -37 -20.5 -64.5t-54.5 -36.5l312 -694h-92l-77 170h-352l-76 -170h-92zM289 428l-74 -180h279l-75 180l-65 152zM354 855q-26 0 -42 -16.5t-16 -43.5t16 -43.5t42 -16.5
t42 16.5t16 44.5q0 26 -16 42.5t-42 16.5z" />
    <glyph glyph-name="uni00C6" unicode="&#xc6;" horiz-adv-x="988" 
d="M10 0l369 705h547v-78h-395v-238h333v-78h-333v-233h416v-78h-500v170h-255l-87 -170h-95zM428 626l-195 -378h214v378h-19z" />
    <glyph glyph-name="uni00C7" unicode="&#xc7;" horiz-adv-x="749" 
d="M405 66q153 0 237 111l66 -55q-101 -123 -273 -133l-15 -31q55 -13 55 -58q0 -40 -30 -63.5t-86 -23.5q-39 0 -65 6v47q20 -5 46 -5q31 0 48.5 11t17.5 27q0 30 -60 34v16l32 40q-150 8 -240.5 107t-90.5 260q0 168 98 264.5t260 96.5q193 0 303 -135l-66 -55
q-85 112 -237 112q-121 0 -196 -76t-75 -207t75.5 -210.5t195.5 -79.5z" />
    <glyph glyph-name="uni00C8" unicode="&#xc8;" horiz-adv-x="622" 
d="M81 705h479v-78h-395v-238h333v-78h-333v-233h416v-78h-500v705zM109 912l98 7l132 -154h-68z" />
    <glyph glyph-name="uni00C9" unicode="&#xc9;" horiz-adv-x="622" 
d="M81 705h479v-78h-395v-238h333v-78h-333v-233h416v-78h-500v705zM336 765h-68l132 154l98 -7z" />
    <glyph glyph-name="uni00CA" unicode="&#xca;" horiz-adv-x="622" 
d="M81 705h479v-78h-395v-238h333v-78h-333v-233h416v-78h-500v705zM135 765l139 143h62l140 -143h-76l-95 79l-95 -79h-75z" />
    <glyph glyph-name="uni00CB" unicode="&#xcb;" horiz-adv-x="622" 
d="M81 0v705h479v-78h-395v-238h333v-78h-333v-233h416v-78h-500zM339 819q0 25 18 42.5t44 17.5q25 0 42.5 -17.5t17.5 -42.5t-17.5 -43t-42.5 -18q-26 0 -44 18t-18 43zM209 758q-26 0 -44 18t-18 43t18 42.5t44 17.5q25 0 42.5 -17.5t17.5 -42.5t-17.5 -43t-42.5 -18z
" />
    <glyph glyph-name="uni00CC" unicode="&#xcc;" horiz-adv-x="257" 
d="M165 765h-68l-162 147l98 7zM85 0v705h87v-705h-87z" />
    <glyph glyph-name="uni00CD" unicode="&#xcd;" horiz-adv-x="257" 
d="M94 765l132 154l98 -7l-162 -147h-68zM85 0v705h87v-705h-87z" />
    <glyph glyph-name="uni00CE" unicode="&#xce;" horiz-adv-x="257" 
d="M172 0h-87v705h87v-705zM-39 765l139 143h62l140 -143h-76l-95 79l-95 -79h-75z" />
    <glyph glyph-name="uni00CF" unicode="&#xcf;" horiz-adv-x="257" 
d="M35 758q-26 0 -44 18t-18 43t18 42.5t44 17.5q25 0 42.5 -17.5t17.5 -42.5t-17.5 -43t-42.5 -18zM227 758q-26 0 -44 18t-18 43t18 42.5t44 17.5q25 0 42.5 -17.5t17.5 -42.5t-17.5 -43t-42.5 -18zM85 0v705h87v-705h-87z" />
    <glyph glyph-name="uni00D0" unicode="&#xd0;" horiz-adv-x="748" 
d="M105 314h-91v74h91v317h251q165 0 255 -86.5t90 -258.5q0 -167 -88 -263.5t-252 -96.5h-256v314zM189 627v-239h188v-74h-188v-236h172q116 0 184.5 74t68.5 208q0 130 -64.5 198.5t-193.5 68.5h-167z" />
    <glyph glyph-name="uni00D1" unicode="&#xd1;" horiz-adv-x="765" 
d="M227 760l-42 11q24 115 108 115q39 0 98 -33t83 -33q46 0 68 63l42 -12q-26 -114 -105 -114q-35 0 -95 33.5t-81 33.5q-27 0 -44.5 -15t-31.5 -49zM600 705h84v-713h-43l-476 550v-542h-84v714h43l476 -551v542z" />
    <glyph glyph-name="uni00D2" unicode="&#xd2;" horiz-adv-x="839" 
d="M456 765h-68l-162 147l98 7zM419 -12q-162 0 -267 99t-105 265q0 161 102 263t270 102q162 0 267.5 -99.5t105.5 -265.5q0 -160 -102.5 -262t-270.5 -102zM419 66q124 0 205 78t81 208q0 126 -79 206.5t-207 80.5q-123 0 -204 -78.5t-81 -208.5q0 -125 78.5 -205.5
t206.5 -80.5z" />
    <glyph glyph-name="uni00D3" unicode="&#xd3;" horiz-adv-x="839" 
d="M385 765l132 154l98 -7l-162 -147h-68zM419 -12q-162 0 -267 99t-105 265q0 161 102 263t270 102q162 0 267.5 -99.5t105.5 -265.5q0 -160 -102.5 -262t-270.5 -102zM419 66q124 0 205 78t81 208q0 126 -79 206.5t-207 80.5q-123 0 -204 -78.5t-81 -208.5
q0 -125 78.5 -205.5t206.5 -80.5z" />
    <glyph glyph-name="uni00D4" unicode="&#xd4;" horiz-adv-x="839" 
d="M47 352q0 161 102 263t270 102q162 0 267.5 -99.5t105.5 -265.5q0 -160 -102.5 -262t-270.5 -102q-162 0 -267 99t-105 265zM419 639q-123 0 -204 -78.5t-81 -208.5q0 -125 78.5 -205.5t206.5 -80.5q124 0 205 78t81 208q0 126 -79 206.5t-207 80.5zM327 765h-75l139 143
h62l140 -143h-76l-95 79z" />
    <glyph glyph-name="uni00D5" unicode="&#xd5;" horiz-adv-x="839" 
d="M264 760l-42 11q24 115 108 115q40 0 98.5 -33t82.5 -33q45 0 68 63l42 -12q-26 -114 -105 -114q-35 0 -95 33.5t-81 33.5q-27 0 -44.5 -15t-31.5 -49zM419 -12q-162 0 -267 99t-105 265q0 161 102 263t270 102q162 0 267.5 -99.5t105.5 -265.5q0 -160 -102.5 -262
t-270.5 -102zM419 66q124 0 205 78t81 208q0 126 -79 206.5t-207 80.5q-123 0 -204 -78.5t-81 -208.5q0 -125 78.5 -205.5t206.5 -80.5z" />
    <glyph glyph-name="uni00D6" unicode="&#xd6;" horiz-adv-x="839" 
d="M326 758q-26 0 -44 18t-18 43t18 42.5t44 17.5q25 0 42.5 -17.5t17.5 -42.5t-17.5 -43t-42.5 -18zM518 758q-26 0 -44 18t-18 43t18 42.5t44 17.5q25 0 42.5 -17.5t17.5 -42.5t-17.5 -43t-42.5 -18zM419 -12q-162 0 -267 99t-105 265q0 161 102 263t270 102
q162 0 267.5 -99.5t105.5 -265.5q0 -160 -102.5 -262t-270.5 -102zM419 66q124 0 205 78t81 208q0 126 -79 206.5t-207 80.5q-123 0 -204 -78.5t-81 -208.5q0 -125 78.5 -205.5t206.5 -80.5z" />
    <glyph glyph-name="uni00D7" unicode="&#xd7;" horiz-adv-x="564" 
d="M42 523l49 50l191 -192l191 192l49 -49l-191 -191l190 -190l-48 -50l-191 191l-190 -190l-50 49l191 190z" />
    <glyph glyph-name="uni00D8" unicode="&#xd8;" horiz-adv-x="839" 
d="M697 607q95 -98 95 -255q0 -160 -102.5 -262t-270.5 -102q-123 0 -216 59l-41 -47h-98l82 93q-99 99 -99 259q0 161 102 263t270 102q126 0 222 -62l44 50h99zM134 352q0 -117 69 -195l382 435q-71 47 -166 47q-123 0 -204 -78.5t-81 -208.5zM419 66q124 0 205 78t81 208
q0 113 -64 191l-382 -433q69 -44 160 -44z" />
    <glyph glyph-name="uni00D9" unicode="&#xd9;" horiz-adv-x="720" 
d="M70 279v426h84v-408q0 -119 48 -174t158 -55t158 55t48 174v408h84v-426q0 -146 -70.5 -218.5t-219.5 -72.5t-219.5 72.5t-70.5 218.5zM328 765l-162 147l98 7l132 -154h-68z" />
    <glyph glyph-name="uni00DA" unicode="&#xda;" horiz-adv-x="720" 
d="M70 705h84v-408q0 -119 48 -174t158 -55t158 55t48 174v408h84v-426q0 -146 -70.5 -218.5t-219.5 -72.5t-219.5 72.5t-70.5 218.5v426zM325 765l132 154l98 -7l-162 -147h-68z" />
    <glyph glyph-name="uni00DB" unicode="&#xdb;" horiz-adv-x="720" 
d="M70 279v426h84v-408q0 -119 48 -174t158 -55t158 55t48 174v408h84v-426q0 -146 -70.5 -218.5t-219.5 -72.5t-219.5 72.5t-70.5 218.5zM267 765h-75l139 143h62l140 -143h-76l-95 79z" />
    <glyph glyph-name="uni00DC" unicode="&#xdc;" horiz-adv-x="720" 
d="M360 -12q-149 0 -219.5 72.5t-70.5 218.5v426h84v-408q0 -119 48 -174t158 -55t158 55t48 174v408h84v-426q0 -146 -70.5 -218.5t-219.5 -72.5zM458 758q-26 0 -44 18t-18 43t18 42.5t44 17.5q25 0 42.5 -17.5t17.5 -42.5t-17.5 -43t-42.5 -18zM204 819q0 25 18 42.5
t44 17.5q25 0 42.5 -17.5t17.5 -42.5t-17.5 -43t-42.5 -18q-26 0 -44 18t-18 43z" />
    <glyph glyph-name="uni00DD" unicode="&#xdd;" horiz-adv-x="618" 
d="M266 242l-266 463h100l211 -376l210 376h97l-266 -463v-242h-86v242zM342 765h-68l132 154l98 -7z" />
    <glyph glyph-name="uni00DE" unicode="&#xde;" horiz-adv-x="646" 
d="M81 705h84v-109h195q259 0 259 -238q0 -244 -286 -244h-168v-114h-84v705zM165 192h163q204 0 204 165q0 161 -182 161h-185v-326z" />
    <glyph glyph-name="uni00DF" unicode="&#xdf;" horiz-adv-x="631" 
d="M434 428q72 -14 114.5 -71.5t42.5 -128.5q0 -119 -67.5 -177.5t-185.5 -58.5q-46 0 -101 11v75q53 -12 99 -12q171 0 171 162q0 71 -49.5 111.5t-141.5 40.5h-42v66h34q59 0 96 35.5t37 93.5q0 56 -38.5 86.5t-95.5 30.5q-75 0 -119.5 -42.5t-44.5 -127.5v-697h-79v695
q0 121 67.5 183.5t174.5 62.5q100 0 159.5 -50t59.5 -144q0 -48 -26 -86.5t-65 -57.5z" />
    <glyph glyph-name="uni00E0" unicode="&#xe0;" horiz-adv-x="630" 
d="M281 -16q-98 0 -160.5 45.5t-62.5 130.5q0 88 64 132t164 44h190v11q0 67 -49 103t-118 36q-55 0 -103 -22.5t-69 -63.5l-56 56q37 49 98.5 75t129.5 26q101 0 173.5 -55t72.5 -155v-347h-79v67q-70 -83 -195 -83zM284 264q-147 0 -147 -104q0 -52 39 -78t107 -26
q90 0 141.5 49t51.5 117v42h-192zM123 766l98 7l132 -154h-68z" />
    <glyph glyph-name="uni00E1" unicode="&#xe1;" horiz-adv-x="630" 
d="M281 -16q-98 0 -160.5 45.5t-62.5 130.5q0 88 64 132t164 44h190v11q0 67 -49 103t-118 36q-55 0 -103 -22.5t-69 -63.5l-56 56q37 49 98.5 75t129.5 26q101 0 173.5 -55t72.5 -155v-347h-79v67q-70 -83 -195 -83zM137 160q0 -52 39 -78t107 -26q90 0 141.5 49t51.5 117
v42h-192q-147 0 -147 -104zM328 620h-68l132 154l98 -7z" />
    <glyph glyph-name="uni00E2" unicode="&#xe2;" horiz-adv-x="630" 
d="M281 -16q-98 0 -160.5 45.5t-62.5 130.5q0 88 64 132t164 44h190v11q0 67 -49 103t-118 36q-55 0 -103 -22.5t-69 -63.5l-56 56q37 49 98.5 75t129.5 26q101 0 173.5 -55t72.5 -155v-347h-79v67q-70 -83 -195 -83zM137 160q0 -52 39 -78t107 -26q90 0 141.5 49t51.5 117
v42h-192q-147 0 -147 -104zM138 619l139 143h62l140 -143h-76l-95 79l-95 -79h-75z" />
    <glyph glyph-name="uni00E3" unicode="&#xe3;" horiz-adv-x="630" 
d="M281 -16q-98 0 -160.5 45.5t-62.5 130.5q0 88 64 132t164 44h190v11q0 67 -49 103t-118 36q-55 0 -103 -22.5t-69 -63.5l-56 56q37 49 98.5 75t129.5 26q101 0 173.5 -55t72.5 -155v-347h-79v67q-70 -83 -195 -83zM284 264q-147 0 -147 -104q0 -52 39 -78t107 -26
q90 0 141.5 49t51.5 117v42h-192zM150 632l-42 11q24 115 108 115q40 0 98 -33t83 -33q45 0 68 63l42 -12q-26 -114 -105 -114q-35 0 -95 33.5t-81 33.5q-27 0 -44.5 -15t-31.5 -49z" />
    <glyph glyph-name="uni00E4" unicode="&#xe4;" horiz-adv-x="630" 
d="M58 160q0 88 64 132t164 44h190v11q0 67 -49 103t-118 36q-55 0 -103 -22.5t-69 -63.5l-56 56q37 49 98.5 75t129.5 26q101 0 173.5 -55t72.5 -155v-347h-79v67q-70 -83 -195 -83q-98 0 -160.5 45.5t-62.5 130.5zM284 264q-147 0 -147 -104q0 -52 39 -78t107 -26
q90 0 141.5 49t51.5 117v42h-192zM403 615q-26 0 -44 18t-18 43t18 42.5t44 17.5q25 0 42.5 -17.5t17.5 -42.5t-17.5 -43t-42.5 -18zM149 676q0 25 18 42.5t44 17.5q25 0 42.5 -17.5t17.5 -42.5t-17.5 -43t-42.5 -18q-26 0 -44 18t-18 43z" />
    <glyph glyph-name="uni00E5" unicode="&#xe5;" horiz-adv-x="630" 
d="M58 160q0 88 64 132t164 44h190v11q0 67 -49 103t-118 36q-55 0 -103 -22.5t-69 -63.5l-56 56q37 49 98.5 75t129.5 26q101 0 173.5 -55t72.5 -155v-347h-79v67q-70 -83 -195 -83q-98 0 -160.5 45.5t-62.5 130.5zM137 160q0 -52 39 -78t107 -26q90 0 141.5 49t51.5 117
v42h-192q-147 0 -147 -104zM199 717q0 46 30.5 75.5t77.5 29.5t77.5 -29.5t30.5 -75.5t-30.5 -76t-77.5 -30t-77.5 30t-30.5 76zM307 777q-26 0 -42 -16.5t-16 -43.5t16 -43.5t42 -16.5t42 16.5t16 44.5q0 26 -16 42.5t-42 16.5z" />
    <glyph glyph-name="uni00E6" unicode="&#xe6;" horiz-adv-x="1073" 
d="M309 -10q-120 0 -192 76.5t-72 206.5q0 128 71.5 203.5t187.5 75.5q119 0 187 -71v60h79v-69q67 78 192 78q135 0 206.5 -77t71.5 -205v-22h-469q9 -84 64 -132.5t142 -48.5q118 0 185 81l57 -47q-81 -108 -246 -108q-132 0 -203 80v-71h-79v64q-64 -74 -182 -74z
M315 477q-82 0 -133.5 -55t-51.5 -149q0 -96 51.5 -152t136.5 -56q51 0 98.5 23t74.5 70v228q-29 43 -77.5 67t-98.5 24zM763 476q-78 0 -128.5 -42.5t-61.5 -118.5h386q-8 75 -56.5 118t-139.5 43z" />
    <glyph glyph-name="uni00E7" unicode="&#xe7;" horiz-adv-x="603" 
d="M563 91q-72 -91 -209 -99l-16 -34q55 -13 55 -58q0 -40 -30 -63.5t-86 -23.5q-39 0 -65 6v47q20 -5 46 -5q31 0 48.5 11t17.5 27q0 30 -60 34v16l35 43q-120 10 -187 84.5t-67 195.5q0 127 79.5 203t211.5 76q68 0 127.5 -26.5t95.5 -71.5l-56 -55q-27 35 -72 56.5
t-95 21.5q-95 0 -151 -55.5t-56 -148.5q0 -94 55 -150t147 -56q56 0 101.5 22t73.5 57z" />
    <glyph glyph-name="uni00E8" unicode="&#xe8;" horiz-adv-x="630" 
d="M369 619h-68l-162 147l98 7zM597 268v-22h-469q9 -84 65 -133t141 -49q118 0 185 81l57 -47q-81 -108 -246 -108q-129 0 -207 76.5t-78 205.5q0 127 76 203.5t198 76.5q134 0 206 -77.5t72 -206.5zM320 478q-74 0 -126 -43.5t-64 -119.5h382q-8 75 -56.5 119t-135.5 44z
" />
    <glyph glyph-name="uni00E9" unicode="&#xe9;" horiz-adv-x="630" 
d="M276 620l132 154l98 -7l-162 -147h-68zM597 268v-22h-469q9 -84 65 -133t141 -49q118 0 185 81l57 -47q-81 -108 -246 -108q-129 0 -207 76.5t-78 205.5q0 127 76 203.5t198 76.5q134 0 206 -77.5t72 -206.5zM320 478q-74 0 -126 -43.5t-64 -119.5h382q-8 75 -56.5 119
t-135.5 44z" />
    <glyph glyph-name="uni00EA" unicode="&#xea;" horiz-adv-x="630" 
d="M330 -10q-129 0 -207 76.5t-78 205.5q0 127 76 203.5t198 76.5q134 0 206 -77.5t72 -206.5v-22h-469q9 -84 65 -133t141 -49q118 0 185 81l57 -47q-81 -108 -246 -108zM320 478q-74 0 -126 -43.5t-64 -119.5h382q-8 75 -56.5 119t-135.5 44zM229 619h-75l139 143h62
l140 -143h-76l-95 79z" />
    <glyph glyph-name="uni00EB" unicode="&#xeb;" horiz-adv-x="630" 
d="M227 615q-26 0 -44 18t-18 43t18 42.5t44 17.5q25 0 42.5 -17.5t17.5 -42.5t-17.5 -43t-42.5 -18zM419 615q-26 0 -44 18t-18 43t18 42.5t44 17.5q25 0 42.5 -17.5t17.5 -42.5t-17.5 -43t-42.5 -18zM597 268v-22h-469q9 -84 65 -133t141 -49q118 0 185 81l57 -47
q-81 -108 -246 -108q-129 0 -207 76.5t-78 205.5q0 127 76 203.5t198 76.5q134 0 206 -77.5t72 -206.5zM320 478q-74 0 -126 -43.5t-64 -119.5h382q-8 75 -56.5 119t-135.5 44z" />
    <glyph glyph-name="uni00EC" unicode="&#xec;" horiz-adv-x="238" 
d="M167 619h-68l-162 147l98 7zM78 0v541h82v-541h-82z" />
    <glyph glyph-name="uni00ED" unicode="&#xed;" horiz-adv-x="238" 
d="M74 620l132 154l98 -7l-162 -147h-68zM78 0v541h82v-541h-82z" />
    <glyph glyph-name="uni00EE" unicode="&#xee;" horiz-adv-x="238" 
d="M160 0h-82v541h82v-541zM-48 619l139 143h62l140 -143h-76l-95 79l-95 -79h-75z" />
    <glyph glyph-name="uni00EF" unicode="&#xef;" horiz-adv-x="238" 
d="M25 615q-26 0 -44 18t-18 43t18 42.5t44 17.5q25 0 42.5 -17.5t17.5 -42.5t-17.5 -43t-42.5 -18zM217 615q-26 0 -44 18t-18 43t18 42.5t44 17.5q25 0 42.5 -17.5t17.5 -42.5t-17.5 -43t-42.5 -18zM78 0v541h82v-541h-82z" />
    <glyph glyph-name="uni00F0" unicode="&#xf0;" horiz-adv-x="679" 
d="M515 652q119 -112 119 -315q0 -165 -79.5 -256t-220.5 -91q-127 0 -208 77.5t-81 201.5q0 116 75.5 190.5t199.5 74.5q147 0 231 -114q-24 135 -118 204l-154 -65v68l82 35q-69 26 -165 31v73q155 -7 254 -66l139 67v-77zM336 65q96 0 152.5 64t59.5 171
q-33 82 -95 120.5t-131 38.5q-86 0 -139.5 -54.5t-53.5 -137.5q0 -89 58.5 -145.5t148.5 -56.5z" />
    <glyph glyph-name="uni00F1" unicode="&#xf1;" horiz-adv-x="628" 
d="M78 541h79v-62q85 72 191 72q101 0 158.5 -52.5t57.5 -181.5v-317h-79v310q0 95 -42 131t-110 36q-96 0 -176 -80v-397h-79v541zM118 643q24 115 108 115q40 0 98 -33t83 -33q46 0 68 63l42 -12q-26 -114 -105 -114q-35 0 -95 33.5t-81 33.5q-27 0 -44.5 -15t-31.5 -49z
" />
    <glyph glyph-name="uni00F2" unicode="&#xf2;" horiz-adv-x="679" 
d="M388 619h-68l-162 147l98 7zM340 -10q-131 0 -213 78t-82 204q0 125 82 202.5t213 77.5t212.5 -77.5t81.5 -202.5q0 -126 -81.5 -204t-212.5 -78zM340 65q92 0 151 57.5t59 149.5q0 91 -59 148t-151 57q-93 0 -152 -57t-59 -148q0 -92 59 -149.5t152 -57.5z" />
    <glyph glyph-name="uni00F3" unicode="&#xf3;" horiz-adv-x="679" 
d="M295 620l132 154l98 -7l-162 -147h-68zM340 -10q-131 0 -213 78t-82 204q0 125 82 202.5t213 77.5t212.5 -77.5t81.5 -202.5q0 -126 -81.5 -204t-212.5 -78zM340 65q92 0 151 57.5t59 149.5q0 91 -59 148t-151 57q-93 0 -152 -57t-59 -148q0 -92 59 -149.5t152 -57.5z
" />
    <glyph glyph-name="uni00F4" unicode="&#xf4;" horiz-adv-x="679" 
d="M45 272q0 125 82 202.5t213 77.5t212.5 -77.5t81.5 -202.5q0 -126 -81.5 -204t-212.5 -78t-213 78t-82 204zM340 477q-93 0 -152 -57t-59 -148q0 -92 59 -149.5t152 -57.5q92 0 151 57.5t59 149.5q0 91 -59 148t-151 57zM248 619h-75l139 143h62l140 -143h-76l-95 79z
" />
    <glyph glyph-name="uni00F5" unicode="&#xf5;" horiz-adv-x="679" 
d="M185 632l-42 11q24 115 108 115q39 0 98 -33t83 -33q46 0 68 63l42 -12q-26 -114 -105 -114q-35 0 -95 33.5t-81 33.5q-27 0 -44.5 -15t-31.5 -49zM340 -10q-131 0 -213 78t-82 204q0 125 82 202.5t213 77.5t212.5 -77.5t81.5 -202.5q0 -126 -81.5 -204t-212.5 -78z
M340 65q92 0 151 57.5t59 149.5q0 91 -59 148t-151 57q-93 0 -152 -57t-59 -148q0 -92 59 -149.5t152 -57.5z" />
    <glyph glyph-name="uni00F6" unicode="&#xf6;" horiz-adv-x="679" 
d="M246 615q-26 0 -44 18t-18 43t18 42.5t44 17.5q25 0 42.5 -17.5t17.5 -42.5t-17.5 -43t-42.5 -18zM438 615q-26 0 -44 18t-18 43t18 42.5t44 17.5q25 0 42.5 -17.5t17.5 -42.5t-17.5 -43t-42.5 -18zM340 -10q-131 0 -213 78t-82 204q0 125 82 202.5t213 77.5t212.5 -77.5
t81.5 -202.5q0 -126 -81.5 -204t-212.5 -78zM340 65q92 0 151 57.5t59 149.5q0 91 -59 148t-151 57q-93 0 -152 -57t-59 -148q0 -92 59 -149.5t152 -57.5z" />
    <glyph glyph-name="uni00F7" unicode="&#xf7;" horiz-adv-x="520" 
d="M261 463q-26 0 -44 18t-18 43t18 42.5t44 17.5q25 0 42.5 -17.5t17.5 -42.5t-17.5 -43t-42.5 -18zM49 298v69h422v-69h-422zM261 79q-26 0 -44 18t-18 43t18 42.5t44 17.5q25 0 42.5 -17.5t17.5 -42.5t-17.5 -43t-42.5 -18z" />
    <glyph glyph-name="uni00F8" unicode="&#xf8;" horiz-adv-x="679" 
d="M560 467q74 -76 74 -195q0 -126 -81.5 -204t-212.5 -78q-91 0 -164 41l-29 -33h-93l67 76q-76 78 -76 198q0 125 82 202.5t213 77.5q93 0 164 -41l25 28h94zM129 272q0 -80 46 -136l276 314q-51 27 -111 27q-93 0 -152 -57t-59 -148zM340 65q92 0 151 57.5t59 149.5
q0 79 -45 133l-276 -313q48 -27 111 -27z" />
    <glyph glyph-name="uni00F9" unicode="&#xf9;" horiz-adv-x="612" 
d="M65 224v317h79v-310q0 -167 150 -167q96 0 171 86v391h79v-541h-79v68q-78 -78 -187 -78q-99 0 -156 52.5t-57 181.5zM284 619l-162 147l98 7l132 -154h-68z" />
    <glyph glyph-name="uni00FA" unicode="&#xfa;" horiz-adv-x="612" 
d="M65 541h79v-310q0 -167 150 -167q96 0 171 86v391h79v-541h-79v68q-78 -78 -187 -78q-99 0 -156 52.5t-57 181.5v317zM327 620h-68l132 154l98 -7z" />
    <glyph glyph-name="uni00FB" unicode="&#xfb;" horiz-adv-x="612" 
d="M65 541h79v-310q0 -167 150 -167q96 0 171 86v391h79v-541h-79v68q-78 -78 -187 -78q-99 0 -156 52.5t-57 181.5v317zM212 619h-75l139 143h62l140 -143h-76l-95 79z" />
    <glyph glyph-name="uni00FC" unicode="&#xfc;" horiz-adv-x="612" 
d="M65 541h79v-310q0 -167 150 -167q96 0 171 86v391h79v-541h-79v68q-78 -78 -187 -78q-99 0 -156 52.5t-57 181.5v317zM402 615q-26 0 -44 18t-18 43t18 42.5t44 17.5q25 0 42.5 -17.5t17.5 -42.5t-17.5 -43t-42.5 -18zM148 676q0 25 18 42.5t44 17.5q25 0 42.5 -17.5
t17.5 -42.5t-17.5 -43t-42.5 -18q-26 0 -44 18t-18 43z" />
    <glyph glyph-name="uni00FD" unicode="&#xfd;" horiz-adv-x="566" 
d="M240 -20l-248 561h90l200 -467l189 467h86l-232 -561q-19 -46 -42.5 -79t-44.5 -50.5t-47.5 -27t-45.5 -12t-44 -2.5q-43 0 -80 11v75q57 -12 83 -12q49 0 80 22.5t56 74.5zM234 620l132 154l98 -7l-162 -147h-68z" />
    <glyph glyph-name="uni00FE" unicode="&#xfe;" horiz-adv-x="658" 
d="M76 754h79v-273q70 71 192 71q120 0 193 -75.5t73 -203.5q0 -131 -73.5 -207t-197.5 -76q-122 0 -187 74v-239h-79v929zM155 386v-228q28 -47 77.5 -70t102.5 -23q88 0 141.5 56t53.5 152q0 94 -53.5 149t-138.5 55q-51 0 -102 -24t-81 -67z" />
    <glyph glyph-name="uni00FF" unicode="&#xff;" horiz-adv-x="566" 
d="M-8 541h90l200 -467l189 467h86l-232 -561q-19 -46 -42.5 -79t-44.5 -50.5t-47.5 -27t-45.5 -12t-44 -2.5q-43 0 -80 11v75q57 -12 83 -12q49 0 80 22.5t56 74.5zM315 676q0 25 18 42.5t44 17.5q25 0 42.5 -17.5t17.5 -42.5t-17.5 -43t-42.5 -18q-26 0 -44 18t-18 43z
M123 676q0 25 18 42.5t44 17.5q25 0 42.5 -17.5t17.5 -42.5t-17.5 -43t-42.5 -18q-26 0 -44 18t-18 43z" />
    <glyph glyph-name="uni0100" unicode="&#x100;" horiz-adv-x="709" 
d="M102 0h-92l319 712h50l320 -712h-92l-77 170h-352zM289 428l-74 -180h279l-75 180l-65 152zM522 775h-336v65h336v-65z" />
    <glyph glyph-name="uni0101" unicode="&#x101;" horiz-adv-x="630" 
d="M281 -16q-98 0 -160.5 45.5t-62.5 130.5q0 88 64 132t164 44h190v11q0 67 -49 103t-118 36q-55 0 -103 -22.5t-69 -63.5l-56 56q37 49 98.5 75t129.5 26q101 0 173.5 -55t72.5 -155v-347h-79v67q-70 -83 -195 -83zM137 160q0 -52 39 -78t107 -26q90 0 141.5 49t51.5 117
v42h-192q-147 0 -147 -104zM138 726h336v-65h-336v65z" />
    <glyph glyph-name="uni0102" unicode="&#x102;" horiz-adv-x="709" 
d="M102 0h-92l319 712h50l320 -712h-92l-77 170h-352zM289 428l-74 -180h279l-75 180l-65 152zM354 765q-147 0 -158 138h62q12 -76 96 -76t95 76h63q-12 -138 -158 -138z" />
    <glyph glyph-name="uni0103" unicode="&#x103;" horiz-adv-x="630" 
d="M281 -16q-98 0 -160.5 45.5t-62.5 130.5q0 88 64 132t164 44h190v11q0 67 -49 103t-118 36q-55 0 -103 -22.5t-69 -63.5l-56 56q37 49 98.5 75t129.5 26q101 0 173.5 -55t72.5 -155v-347h-79v67q-70 -83 -195 -83zM284 264q-147 0 -147 -104q0 -52 39 -78t107 -26
q90 0 141.5 49t51.5 117v42h-192zM149 758h62q12 -76 96 -76t95 76h63q-12 -138 -158 -138q-147 0 -158 138z" />
    <glyph glyph-name="uni0104" unicode="&#x104;" horiz-adv-x="709" 
d="M10 0l319 712h50l320 -712q-40 -25 -59.5 -43.5t-19.5 -41.5q0 -36 48 -36q19 0 32 2l3 -56q-27 -6 -55 -6q-47 0 -74 17.5t-27 51.5q0 31 23.5 61t58.5 51h-22l-77 170h-352l-76 -170h-92zM289 428l-74 -180h279l-75 180l-65 152z" />
    <glyph glyph-name="uni0105" unicode="&#x105;" horiz-adv-x="657" 
d="M45 273q0 128 73 203.5t193 75.5q122 0 192 -71v60h79v-541q-40 -25 -59.5 -43.5t-19.5 -41.5q0 -36 48 -36q19 0 32 2l3 -56q-27 -6 -55 -6q-47 0 -74 17.5t-27 51.5q0 31 23.5 61t58.5 51h-9v64q-65 -74 -187 -74q-124 0 -197.5 76t-73.5 207zM320 477
q-85 0 -138.5 -55t-53.5 -149q0 -96 53.5 -152t141.5 -56q53 0 102.5 23t77.5 70v228q-30 43 -81 67t-102 24z" />
    <glyph glyph-name="uni0106" unicode="&#x106;" horiz-adv-x="749" 
d="M357 765l132 154l98 -7l-162 -147h-68zM405 -12q-162 0 -260 100t-98 268t98 264.5t260 96.5q193 0 303 -135l-66 -55q-85 112 -237 112q-121 0 -196 -76t-75 -207t75.5 -210.5t195.5 -79.5q153 0 237 111l66 -55q-109 -134 -303 -134z" />
    <glyph glyph-name="uni0107" unicode="&#x107;" horiz-adv-x="603" 
d="M278 620l132 154l98 -7l-162 -147h-68zM331 -9q-133 0 -209.5 76t-76.5 205q0 127 79.5 203t211.5 76q68 0 127.5 -26.5t95.5 -71.5l-56 -55q-27 35 -72 56.5t-95 21.5q-95 0 -151 -55.5t-56 -148.5q0 -94 55 -150t147 -56q56 0 101.5 22t73.5 57l57 -54
q-37 -47 -98 -73.5t-134 -26.5z" />
    <glyph glyph-name="uni0108" unicode="&#x108;" horiz-adv-x="749" 
d="M47 356q0 168 98 264.5t260 96.5q193 0 303 -135l-66 -55q-85 112 -237 112q-121 0 -196 -76t-75 -207t75.5 -210.5t195.5 -79.5q153 0 237 111l66 -55q-109 -134 -303 -134q-162 0 -260 100t-98 268zM224 765l139 143h62l140 -143h-76l-95 79l-95 -79h-75z" />
    <glyph glyph-name="uni0109" unicode="&#x109;" horiz-adv-x="603" 
d="M45 272q0 127 79.5 203t211.5 76q68 0 127.5 -26.5t95.5 -71.5l-56 -55q-27 35 -72 56.5t-95 21.5q-95 0 -151 -55.5t-56 -148.5q0 -94 55 -150t147 -56q56 0 101.5 22t73.5 57l57 -54q-37 -47 -98 -73.5t-134 -26.5q-133 0 -209.5 76t-76.5 205zM156 619l139 143h62
l140 -143h-76l-95 79l-95 -79h-75z" />
    <glyph glyph-name="uni010A" unicode="&#x10a;" horiz-adv-x="749" 
d="M393 763q-26 0 -44 18t-18 43t18 42.5t44 17.5q25 0 42.5 -17.5t17.5 -42.5t-17.5 -43t-42.5 -18zM405 -12q-162 0 -260 100t-98 268t98 264.5t260 96.5q193 0 303 -135l-66 -55q-85 112 -237 112q-121 0 -196 -76t-75 -207t75.5 -210.5t195.5 -79.5q153 0 237 111
l66 -55q-109 -134 -303 -134z" />
    <glyph glyph-name="uni010B" unicode="&#x10b;" horiz-adv-x="603" 
d="M325 615q-26 0 -44 18t-18 43t18 42.5t44 17.5q25 0 42.5 -17.5t17.5 -42.5t-17.5 -43t-42.5 -18zM331 -9q-133 0 -209.5 76t-76.5 205q0 127 79.5 203t211.5 76q68 0 127.5 -26.5t95.5 -71.5l-56 -55q-27 35 -72 56.5t-95 21.5q-95 0 -151 -55.5t-56 -148.5
q0 -94 55 -150t147 -56q56 0 101.5 22t73.5 57l57 -54q-37 -47 -98 -73.5t-134 -26.5z" />
    <glyph glyph-name="uni010C" unicode="&#x10c;" horiz-adv-x="749" 
d="M47 356q0 168 98 264.5t260 96.5q193 0 303 -135l-66 -55q-85 112 -237 112q-121 0 -196 -76t-75 -207t75.5 -210.5t195.5 -79.5q153 0 237 111l66 -55q-109 -134 -303 -134q-162 0 -260 100t-98 268zM363 765l-139 143h75l95 -79l95 79h76l-140 -143h-62z" />
    <glyph glyph-name="uni010D" unicode="&#x10d;" horiz-adv-x="603" 
d="M45 272q0 127 79.5 203t211.5 76q68 0 127.5 -26.5t95.5 -71.5l-56 -55q-27 35 -72 56.5t-95 21.5q-95 0 -151 -55.5t-56 -148.5q0 -94 55 -150t147 -56q56 0 101.5 22t73.5 57l57 -54q-37 -47 -98 -73.5t-134 -26.5q-133 0 -209.5 76t-76.5 205zM292 620l-139 143h75
l95 -79l95 79h76l-140 -143h-62z" />
    <glyph glyph-name="uni010E" unicode="&#x10e;" horiz-adv-x="724" 
d="M81 705h251q165 0 255 -86.5t90 -258.5q0 -167 -88 -263.5t-252 -96.5h-256v705zM332 627h-167v-549h172q116 0 184.5 74t68.5 208q0 130 -64.5 198.5t-193.5 68.5zM168 908h75l95 -79l95 79h76l-140 -143h-62z" />
    <glyph glyph-name="uni010F" unicode="&#x10f;" horiz-adv-x="697" 
d="M316 -10q-124 0 -197.5 76t-73.5 207q0 128 73 203.5t193 75.5q122 0 192 -71v273h79v-754h-79v64q-65 -74 -187 -74zM128 273q0 -96 53.5 -152t141.5 -56q53 0 102.5 23t77.5 70v228q-30 43 -81 67t-102 24q-85 0 -138.5 -55t-53.5 -149zM654 742q0 26 15.5 42t40.5 16
q63 0 63 -81q0 -56 -32.5 -101t-84.5 -45v39q17 0 34 21t21 56q-23 -1 -40 14.5t-17 38.5z" />
    <glyph glyph-name="uni0110" unicode="&#x110;" horiz-adv-x="748" 
d="M105 314h-91v74h91v317h251q165 0 255 -86.5t90 -258.5q0 -167 -88 -263.5t-252 -96.5h-256v314zM189 627v-239h188v-74h-188v-236h172q116 0 184.5 74t68.5 208q0 130 -64.5 198.5t-193.5 68.5h-167z" />
    <glyph glyph-name="uni0111" unicode="&#x111;" horiz-adv-x="657" 
d="M314 -10q-123 0 -196 74.5t-73 198.5q0 122 72.5 195.5t191.5 73.5q124 0 194 -71v168h-208v74h208v51h79v-51h87v-74h-87v-629h-79v64q-65 -74 -189 -74zM128 263q0 -90 53 -144t140 -54q53 0 103.5 23.5t78.5 69.5v208q-30 43 -81.5 67t-103.5 24q-84 0 -137 -53.5
t-53 -140.5z" />
    <glyph glyph-name="uni0112" unicode="&#x112;" horiz-adv-x="622" 
d="M81 0v705h479v-78h-395v-238h333v-78h-333v-233h416v-78h-500zM471 775h-336v65h336v-65z" />
    <glyph glyph-name="uni0113" unicode="&#x113;" horiz-adv-x="630" 
d="M154 661v65h336v-65h-336zM597 268v-22h-469q9 -84 65 -133t141 -49q118 0 185 81l57 -47q-81 -108 -246 -108q-129 0 -207 76.5t-78 205.5q0 127 76 203.5t198 76.5q134 0 206 -77.5t72 -206.5zM320 478q-74 0 -126 -43.5t-64 -119.5h382q-8 75 -56.5 119t-135.5 44z
" />
    <glyph glyph-name="uni0114" unicode="&#x114;" horiz-adv-x="622" 
d="M81 0v705h479v-78h-395v-238h333v-78h-333v-233h416v-78h-500zM303 765q-147 0 -158 138h62q12 -76 96 -76t95 76h63q-12 -138 -158 -138z" />
    <glyph glyph-name="uni0115" unicode="&#x115;" horiz-adv-x="630" 
d="M45 272q0 127 76 203.5t198 76.5q134 0 206 -77.5t72 -206.5v-22h-469q9 -84 65 -133t141 -49q118 0 185 81l57 -47q-81 -108 -246 -108q-129 0 -207 76.5t-78 205.5zM320 478q-74 0 -126 -43.5t-64 -119.5h382q-8 75 -56.5 119t-135.5 44zM323 620q-147 0 -158 138h62
q12 -76 96 -76t95 76h63q-12 -138 -158 -138z" />
    <glyph glyph-name="uni0116" unicode="&#x116;" horiz-adv-x="622" 
d="M81 705h479v-78h-395v-238h333v-78h-333v-233h416v-78h-500v705zM242 824q0 25 18 42.5t44 17.5q25 0 42.5 -17.5t17.5 -42.5t-17.5 -43t-42.5 -18q-26 0 -44 18t-18 43z" />
    <glyph glyph-name="uni0117" unicode="&#x117;" horiz-adv-x="630" 
d="M323 615q-26 0 -44 18t-18 43t18 42.5t44 17.5q25 0 42.5 -17.5t17.5 -42.5t-17.5 -43t-42.5 -18zM597 268v-22h-469q9 -84 65 -133t141 -49q118 0 185 81l57 -47q-81 -108 -246 -108q-129 0 -207 76.5t-78 205.5q0 127 76 203.5t198 76.5q134 0 206 -77.5t72 -206.5z
M320 478q-74 0 -126 -43.5t-64 -119.5h382q-8 75 -56.5 119t-135.5 44z" />
    <glyph glyph-name="uni0118" unicode="&#x118;" horiz-adv-x="622" 
d="M511 0h-430v705h479v-78h-395v-238h333v-78h-333v-233h416v-78q-40 -25 -59.5 -43.5t-19.5 -41.5q0 -36 48 -36q19 0 32 2l3 -56q-27 -6 -55 -6q-47 0 -74 17.5t-27 51.5q0 31 23.5 61t58.5 51z" />
    <glyph glyph-name="uni0119" unicode="&#x119;" horiz-adv-x="630" 
d="M597 268v-22h-469q9 -84 65 -133t141 -49q118 0 185 81l57 -47q-60 -81 -168 -101q-25 -16 -38.5 -26t-24.5 -25t-11 -31q0 -36 48 -36q19 0 32 2l3 -56q-27 -6 -55 -6q-47 0 -74 17.5t-27 51.5q0 56 66 102q-128 1 -205 77.5t-77 204.5q0 127 76 203.5t198 76.5
q134 0 206 -77.5t72 -206.5zM130 315h382q-8 75 -56.5 119t-135.5 44q-74 0 -126 -43.5t-64 -119.5z" />
    <glyph glyph-name="uni011A" unicode="&#x11a;" horiz-adv-x="622" 
d="M81 705h479v-78h-395v-238h333v-78h-333v-233h416v-78h-500v705zM135 908h75l95 -79l95 79h76l-140 -143h-62z" />
    <glyph glyph-name="uni011B" unicode="&#x11b;" horiz-adv-x="630" 
d="M330 -10q-129 0 -207 76.5t-78 205.5q0 127 76 203.5t198 76.5q134 0 206 -77.5t72 -206.5v-22h-469q9 -84 65 -133t141 -49q118 0 185 81l57 -47q-81 -108 -246 -108zM320 478q-74 0 -126 -43.5t-64 -119.5h382q-8 75 -56.5 119t-135.5 44zM290 620l-139 143h75l95 -79
l95 79h76l-140 -143h-62z" />
    <glyph glyph-name="uni011C" unicode="&#x11c;" horiz-adv-x="760" 
d="M433 -12q-180 0 -283 97t-103 267q0 169 100.5 267t268.5 98q170 0 279 -101l-54 -59q-90 82 -225 82q-128 0 -205 -77.5t-77 -209.5q0 -133 80 -209t219 -76q128 0 204 63v152h-248v78h332v-269q-104 -103 -288 -103zM239 765l139 143h62l140 -143h-76l-95 79l-95 -79
h-75z" />
    <glyph glyph-name="uni011D" unicode="&#x11d;" horiz-adv-x="654" 
d="M45 288q0 118 73.5 191t192.5 73q122 0 192 -71v60h79v-489q0 -127 -64.5 -185t-204.5 -58q-121 0 -224 46v86q54 -29 102 -43t116 -14q96 0 146 38.5t50 127.5v40q-65 -73 -187 -73q-123 0 -197 74.5t-74 196.5zM128 288q0 -88 54 -142t141 -54q53 0 102.5 23t77.5 70
v201q-30 43 -81 67t-102 24q-84 0 -138 -52.5t-54 -136.5zM235 619h-75l139 143h62l140 -143h-76l-95 79z" />
    <glyph glyph-name="uni011E" unicode="&#x11e;" horiz-adv-x="760" 
d="M47 352q0 169 100.5 267t268.5 98q170 0 279 -101l-54 -59q-90 82 -225 82q-128 0 -205 -77.5t-77 -209.5q0 -133 80 -209t219 -76q128 0 204 63v152h-248v78h332v-269q-104 -103 -288 -103q-180 0 -283 97t-103 267zM249 903h62q12 -76 96 -76t95 76h63
q-12 -138 -158 -138q-147 0 -158 138z" />
    <glyph glyph-name="uni011F" unicode="&#x11f;" horiz-adv-x="654" 
d="M45 288q0 118 73.5 191t192.5 73q122 0 192 -71v60h79v-489q0 -127 -64.5 -185t-204.5 -58q-121 0 -224 46v86q54 -29 102 -43t116 -14q96 0 146 38.5t50 127.5v40q-65 -73 -187 -73q-123 0 -197 74.5t-74 196.5zM128 288q0 -88 54 -142t141 -54q53 0 102.5 23t77.5 70
v201q-30 43 -81 67t-102 24q-84 0 -138 -52.5t-54 -136.5zM329 620q-147 0 -158 138h62q12 -76 96 -76t95 76h63q-12 -138 -158 -138z" />
    <glyph glyph-name="uni0120" unicode="&#x120;" horiz-adv-x="760" 
d="M408 763q-26 0 -44 18t-18 43t18 42.5t44 17.5q25 0 42.5 -17.5t17.5 -42.5t-17.5 -43t-42.5 -18zM389 360h332v-269q-104 -103 -288 -103q-180 0 -283 97t-103 267q0 169 100.5 267t268.5 98q170 0 279 -101l-54 -59q-90 82 -225 82q-128 0 -205 -77.5t-77 -209.5
q0 -133 80 -209t219 -76q128 0 204 63v152h-248v78z" />
    <glyph glyph-name="uni0121" unicode="&#x121;" horiz-adv-x="654" 
d="M45 288q0 118 73.5 191t192.5 73q122 0 192 -71v60h79v-489q0 -127 -64.5 -185t-204.5 -58q-121 0 -224 46v86q54 -29 102 -43t116 -14q96 0 146 38.5t50 127.5v40q-65 -73 -187 -73q-123 0 -197 74.5t-74 196.5zM320 477q-84 0 -138 -52.5t-54 -136.5q0 -88 54 -142
t141 -54q53 0 102.5 23t77.5 70v201q-30 43 -81 67t-102 24zM329 615q-26 0 -44 18t-18 43t18 42.5t44 17.5q25 0 42.5 -17.5t17.5 -42.5t-17.5 -43t-42.5 -18z" />
    <glyph glyph-name="uni0122" unicode="&#x122;" horiz-adv-x="760" 
d="M389 360h332v-269q-104 -103 -288 -103q-180 0 -283 97t-103 267q0 169 100.5 267t268.5 98q170 0 279 -101l-54 -59q-90 82 -225 82q-128 0 -205 -77.5t-77 -209.5q0 -133 80 -209t219 -76q128 0 204 63v152h-248v78zM413 -55q25 0 39.5 -16.5t14.5 -45.5
q0 -50 -29.5 -87t-90.5 -37q-11 0 -17 1v36q6 -1 18 -1q24 0 40.5 17t18.5 43q-18 2 -30 15t-12 30q0 21 13 33t35 12z" />
    <glyph glyph-name="uni0123" unicode="&#x123;" horiz-adv-x="654" 
d="M316 17q-123 0 -197 74.5t-74 196.5q0 118 73.5 191t192.5 73q122 0 192 -71v60h79v-489q0 -127 -64.5 -185t-204.5 -58q-121 0 -224 46v86q54 -29 102 -43t116 -14q96 0 146 38.5t50 127.5v40q-65 -73 -187 -73zM128 288q0 -88 54 -142t141 -54q53 0 102.5 23t77.5 70
v201q-30 43 -81 67t-102 24q-84 0 -138 -52.5t-54 -136.5zM329 617q-24 0 -39 17t-15 47q0 51 29.5 88.5t90.5 37.5q11 0 17 -1v-37q-6 1 -18 1q-24 0 -40.5 -17t-18.5 -44q18 -2 30 -15t12 -31q0 -21 -13 -33.5t-35 -12.5z" />
    <glyph glyph-name="uni0124" unicode="&#x124;" horiz-adv-x="729" 
d="M81 705h84v-343h399v343h84v-705h-84v284h-399v-284h-84v705zM272 765h-75l139 143h62l140 -143h-76l-95 79z" />
    <glyph glyph-name="uni0125" unicode="&#x125;" horiz-adv-x="626" 
d="M76 754h79v-275q85 72 191 72q101 0 158.5 -52.5t57.5 -181.5v-317h-79v310q0 95 -42 131t-110 36q-96 0 -176 -80v-397h-79v754zM161 765l139 143h62l140 -143h-76l-95 79l-95 -79h-75z" />
    <glyph glyph-name="uni0126" unicode="&#x126;" horiz-adv-x="729" 
d="M21 609h60v96h84v-96h399v96h84v-96h61v-74h-61v-535h-84v284h-399v-284h-84v535h-60v74zM564 535h-399v-173h399v173z" />
    <glyph glyph-name="uni0127" unicode="&#x127;" horiz-adv-x="626" 
d="M-3 703h79v51h79v-51h209v-74h-209v-169q85 72 191 72t161 -55.5t55 -178.5v-298h-79v291q0 167 -152 167q-96 0 -176 -80v-378h-79v629h-79v74z" />
    <glyph glyph-name="uni0128" unicode="&#x128;" horiz-adv-x="257" 
d="M-27 760l-42 11q24 115 108 115q39 0 98 -33t83 -33q46 0 68 63l42 -12q-26 -114 -105 -114q-35 0 -95 33.5t-81 33.5q-27 0 -44.5 -15t-31.5 -49zM85 0v705h87v-705h-87z" />
    <glyph glyph-name="uni0129" unicode="&#x129;" horiz-adv-x="238" 
d="M-36 632l-42 11q24 115 108 115q40 0 98 -33t83 -33q45 0 68 63l42 -12q-26 -114 -105 -114q-35 0 -95 33.5t-81 33.5q-27 0 -44.5 -15t-31.5 -49zM78 0v541h82v-541h-82z" />
    <glyph glyph-name="uni012A" unicode="&#x12a;" horiz-adv-x="257" 
d="M-39 775v65h336v-65h-336zM85 0v705h87v-705h-87z" />
    <glyph glyph-name="uni012B" unicode="&#x12b;" horiz-adv-x="238" 
d="M-48 661v65h336v-65h-336zM78 0v541h82v-541h-82z" />
    <glyph glyph-name="uni012C" unicode="&#x12c;" horiz-adv-x="257" 
d="M172 0h-87v705h87v-705zM129 765q-147 0 -158 138h62q12 -76 96 -76t95 76h63q-12 -138 -158 -138z" />
    <glyph glyph-name="uni012D" unicode="&#x12d;" horiz-adv-x="238" 
d="M160 0h-82v541h82v-541zM121 620q-147 0 -158 138h62q12 -76 96 -76t95 76h63q-12 -138 -158 -138z" />
    <glyph glyph-name="uni012E" unicode="&#x12e;" horiz-adv-x="257" 
d="M173 -119l3 -56q-27 -6 -55 -6q-47 0 -74 17.5t-27 51.5q0 31 23.5 61t58.5 51h-17v705h87v-705q-40 -25 -59.5 -43.5t-19.5 -41.5q0 -36 48 -36q19 0 32 2z" />
    <glyph glyph-name="uni012F" unicode="&#x12f;" horiz-adv-x="238" 
d="M121 615q-26 0 -44 18t-18 43t18 42.5t44 17.5q25 0 42.5 -17.5t17.5 -42.5t-17.5 -43t-42.5 -18zM129 -121q19 0 32 2l3 -56q-27 -6 -55 -6q-47 0 -74 17.5t-27 51.5q0 31 23.5 61t58.5 51h-12v541h82v-541q-40 -25 -59.5 -43.5t-19.5 -41.5q0 -36 48 -36z" />
    <glyph glyph-name="uni0130" unicode="&#x130;" horiz-adv-x="257" 
d="M130 763q-26 0 -44 18t-18 43t18 42.5t44 17.5q25 0 42.5 -17.5t17.5 -42.5t-17.5 -43t-42.5 -18zM85 0v705h87v-705h-87z" />
    <glyph glyph-name="uni0131" unicode="&#x131;" horiz-adv-x="238" 
d="M78 0v541h82v-541h-82z" />
    <glyph glyph-name="uni0132" unicode="&#x132;" horiz-adv-x="857" 
d="M539 -12q-115 0 -186 65t-75 192h84q4 -93 52 -136t124 -43q167 0 167 216v423h86v-425q0 -151 -62 -221.5t-190 -70.5zM85 0v705h87v-705h-87z" />
    <glyph glyph-name="uni0133" unicode="&#x133;" horiz-adv-x="483" 
d="M254 -187q-45 0 -61 7v70q21 -6 43 -6q57 0 73.5 25.5t16.5 88.5v543h79v-585q0 -143 -151 -143zM78 541h82v-541h-82v541zM308 676q0 25 18 42.5t44 17.5q25 0 42.5 -17.5t17.5 -42.5t-17.5 -43t-42.5 -18q-26 0 -44 18t-18 43zM59 676q0 25 18 42.5t44 17.5
q25 0 42.5 -17.5t17.5 -42.5t-17.5 -43t-42.5 -18q-26 0 -44 18t-18 43z" />
    <glyph glyph-name="uni0134" unicode="&#x134;" horiz-adv-x="600" 
d="M282 -12q-115 0 -186 65t-75 192h84q4 -93 52 -136t124 -43q167 0 167 216v423h86v-425q0 -151 -62 -221.5t-190 -70.5zM358 765h-75l139 143h62l140 -143h-76l-95 79z" />
    <glyph glyph-name="uni0135" unicode="&#x135;" horiz-adv-x="245" 
d="M-45 -110q21 -6 43 -6q57 0 73.5 25.5t16.5 88.5v543h79v-585q0 -143 -151 -143q-45 0 -61 7v70zM38 619h-75l139 143h62l140 -143h-76l-95 79z" />
    <glyph glyph-name="uni0136" unicode="&#x136;" horiz-adv-x="689" 
d="M165 0h-84v705h84v-420l365 420h113l-281 -317l316 -388h-111l-262 322l-140 -155v-167zM275 -240v36q6 -1 18 -1q24 0 40.5 17t18.5 43q-18 2 -30 15t-12 30q0 21 13 33t35 12q25 0 39.5 -16.5t14.5 -45.5q0 -50 -29.5 -87t-90.5 -37q-11 0 -17 1z" />
    <glyph glyph-name="uni0137" unicode="&#x137;" horiz-adv-x="608" 
d="M156 0h-79v754h79v-535l312 322h109l-201 -206l212 -335h-98l-173 275l-161 -161v-114zM229 -240v36q6 -1 18 -1q24 0 40.5 17t18.5 43q-18 2 -30 15t-12 30q0 21 13 33t35 12q25 0 39.5 -16.5t14.5 -45.5q0 -50 -29.5 -87t-90.5 -37q-11 0 -17 1z" />
    <glyph glyph-name="uni0138" unicode="&#x138;" horiz-adv-x="609" 
d="M78 0v541h79v-322l312 322h109l-201 -206l212 -335h-98l-173 275l-161 -161v-114h-79z" />
    <glyph glyph-name="uni0139" unicode="&#x139;" horiz-adv-x="593" 
d="M81 765l132 154l98 -7l-162 -147h-68zM81 0v705h84v-627h413v-78h-497z" />
    <glyph glyph-name="uni013A" unicode="&#x13a;" horiz-adv-x="240" 
d="M86 811l132 154l98 -7l-162 -147h-68zM79 0v754h82v-754h-82z" />
    <glyph glyph-name="uni013B" unicode="&#x13b;" horiz-adv-x="593" 
d="M165 78h413v-78h-497v705h84v-627zM336 -55q25 0 39.5 -16.5t14.5 -45.5q0 -50 -29.5 -87t-90.5 -37q-11 0 -17 1v36q6 -1 18 -1q24 0 40.5 17t18.5 43q-18 2 -30 15t-12 30q0 21 13 33t35 12z" />
    <glyph glyph-name="uni013C" unicode="&#x13c;" horiz-adv-x="240" 
d="M161 754v-754h-82v754h82zM118 -55q25 0 39.5 -16.5t14.5 -45.5q0 -50 -29.5 -87t-90.5 -37q-11 0 -17 1v36q6 -1 18 -1q24 0 40.5 17t18.5 43q-18 2 -30 15t-12 30q0 21 13 33t35 12z" />
    <glyph glyph-name="uni013D" unicode="&#x13d;" horiz-adv-x="593" 
d="M392 633q-23 -1 -40 14.5t-17 38.5q0 26 15.5 42t40.5 16q63 0 63 -81q0 -56 -32.5 -101t-84.5 -45v39q17 0 34 21t21 56zM165 78h413v-78h-497v705h84v-627z" />
    <glyph glyph-name="uni013E" unicode="&#x13e;" horiz-adv-x="280" 
d="M290 800q63 0 63 -81q0 -56 -32.5 -101t-84.5 -45v39q17 0 34 21t21 56q-23 -1 -40 14.5t-17 38.5q0 26 15.5 42t40.5 16zM79 0v754h82v-754h-82z" />
    <glyph glyph-name="uni013F" unicode="&#x13f;" horiz-adv-x="593" 
d="M81 0v705h84v-627h413v-78h-497zM422 299q-26 0 -44 18t-18 43t18 42.5t44 17.5q25 0 42.5 -17.5t17.5 -42.5t-17.5 -43t-42.5 -18z" />
    <glyph glyph-name="uni0140" unicode="&#x140;" horiz-adv-x="307" 
d="M79 0v754h82v-754h-82zM277 275q-26 0 -44 18t-18 43t18 42.5t44 17.5q25 0 42.5 -17.5t17.5 -42.5t-17.5 -43t-42.5 -18z" />
    <glyph glyph-name="uni0141" unicode="&#x141;" horiz-adv-x="613" 
d="M14 265v77l87 25v338h84v-313l231 67v-77l-231 -67v-237h413v-78h-497v290z" />
    <glyph glyph-name="uni0142" unicode="&#x142;" horiz-adv-x="350" 
d="M13 322l123 44v388h82v-359l125 44v-77l-125 -44v-318h-82v289l-123 -44v77z" />
    <glyph glyph-name="uni0143" unicode="&#x143;" horiz-adv-x="765" 
d="M348 765l132 154l98 -7l-162 -147h-68zM600 705h84v-713h-43l-476 550v-542h-84v714h43l476 -551v542z" />
    <glyph glyph-name="uni0144" unicode="&#x144;" horiz-adv-x="628" 
d="M78 541h79v-62q85 72 191 72q101 0 158.5 -52.5t57.5 -181.5v-317h-79v310q0 95 -42 131t-110 36q-96 0 -176 -80v-397h-79v541zM338 620h-68l132 154l98 -7z" />
    <glyph glyph-name="uni0145" unicode="&#x145;" horiz-adv-x="765" 
d="M600 705h84v-713h-43l-476 550v-542h-84v714h43l476 -551v542zM392 -55q25 0 39.5 -16.5t14.5 -45.5q0 -50 -29.5 -87t-90.5 -37q-11 0 -17 1v36q6 -1 18 -1q24 0 40.5 17t18.5 43q-18 2 -30 15t-12 30q0 21 13 33t35 12z" />
    <glyph glyph-name="uni0146" unicode="&#x146;" horiz-adv-x="628" 
d="M157 0h-79v541h79v-62q85 72 191 72q101 0 158.5 -52.5t57.5 -181.5v-317h-79v310q0 95 -42 131t-110 36q-96 0 -176 -80v-397zM230 -240v36q6 -1 18 -1q24 0 40.5 17t18.5 43q-18 2 -30 15t-12 30q0 21 13 33t35 12q25 0 39.5 -16.5t14.5 -45.5q0 -50 -29.5 -87
t-90.5 -37q-11 0 -17 1z" />
    <glyph glyph-name="uni0147" unicode="&#x147;" horiz-adv-x="765" 
d="M81 0v714h43l476 -551v542h84v-713h-43l-476 550v-542h-84zM354 765l-139 143h75l95 -79l95 79h76l-140 -143h-62z" />
    <glyph glyph-name="uni0148" unicode="&#x148;" horiz-adv-x="628" 
d="M78 541h79v-62q85 72 191 72q101 0 158.5 -52.5t57.5 -181.5v-317h-79v310q0 95 -42 131t-110 36q-96 0 -176 -80v-397h-79v541zM145 763h75l95 -79l95 79h76l-140 -143h-62z" />
    <glyph glyph-name="uni0149" unicode="&#x149;" horiz-adv-x="628" 
d="M78 0v541h79v-62q85 72 191 72q101 0 158.5 -52.5t57.5 -181.5v-317h-79v310q0 95 -42 131t-110 36q-96 0 -176 -80v-397h-79zM97 606q-11 0 -17 1v39q6 -1 18 -1q24 0 40.5 18t18.5 46q-18 2 -30 15.5t-12 32.5q0 23 12.5 35.5t35.5 12.5q25 0 39.5 -17t14.5 -49
q0 -54 -29.5 -93.5t-90.5 -39.5z" />
    <glyph glyph-name="uni014A" unicode="&#x14a;" horiz-adv-x="765" 
d="M600 705h84v-624q0 -80 -15 -132.5t-48 -82t-77.5 -41.5t-110.5 -12v78q91 0 126.5 32.5t39.5 116.5l-434 502v-542h-84v714h43l476 -551v542z" />
    <glyph glyph-name="uni014B" unicode="&#x14b;" horiz-adv-x="628" 
d="M157 0h-79v541h79v-62q85 72 191 72q101 0 158.5 -52.5t57.5 -181.5v-361q0 -143 -151 -143q-45 0 -61 7v70q21 -6 43 -6q57 0 73.5 25.5t16.5 88.5v312q0 95 -42 131t-110 36q-96 0 -176 -80v-397z" />
    <glyph glyph-name="uni014C" unicode="&#x14c;" horiz-adv-x="839" 
d="M252 775v65h336v-65h-336zM419 -12q-162 0 -267 99t-105 265q0 161 102 263t270 102q162 0 267.5 -99.5t105.5 -265.5q0 -160 -102.5 -262t-270.5 -102zM419 66q124 0 205 78t81 208q0 126 -79 206.5t-207 80.5q-123 0 -204 -78.5t-81 -208.5q0 -125 78.5 -205.5
t206.5 -80.5z" />
    <glyph glyph-name="uni014D" unicode="&#x14d;" horiz-adv-x="679" 
d="M173 661v65h336v-65h-336zM340 -10q-131 0 -213 78t-82 204q0 125 82 202.5t213 77.5t212.5 -77.5t81.5 -202.5q0 -126 -81.5 -204t-212.5 -78zM340 65q92 0 151 57.5t59 149.5q0 91 -59 148t-151 57q-93 0 -152 -57t-59 -148q0 -92 59 -149.5t152 -57.5z" />
    <glyph glyph-name="uni014E" unicode="&#x14e;" horiz-adv-x="839" 
d="M47 352q0 161 102 263t270 102q162 0 267.5 -99.5t105.5 -265.5q0 -160 -102.5 -262t-270.5 -102q-162 0 -267 99t-105 265zM134 352q0 -125 78.5 -205.5t206.5 -80.5q124 0 205 78t81 208q0 126 -79 206.5t-207 80.5q-123 0 -204 -78.5t-81 -208.5zM262 903h62
q12 -76 96 -76t95 76h63q-12 -138 -158 -138q-147 0 -158 138z" />
    <glyph glyph-name="uni014F" unicode="&#x14f;" horiz-adv-x="679" 
d="M45 272q0 125 82 202.5t213 77.5t212.5 -77.5t81.5 -202.5q0 -126 -81.5 -204t-212.5 -78t-213 78t-82 204zM129 272q0 -92 59 -149.5t152 -57.5q92 0 151 57.5t59 149.5q0 91 -59 148t-151 57q-93 0 -152 -57t-59 -148zM184 758h62q12 -76 96 -76t95 76h63
q-12 -138 -158 -138q-147 0 -158 138z" />
    <glyph glyph-name="uni0150" unicode="&#x150;" horiz-adv-x="839" 
d="M47 352q0 161 102 263t270 102q162 0 267.5 -99.5t105.5 -265.5q0 -160 -102.5 -262t-270.5 -102q-162 0 -267 99t-105 265zM134 352q0 -125 78.5 -205.5t206.5 -80.5q124 0 205 78t81 208q0 126 -79 206.5t-207 80.5q-123 0 -204 -78.5t-81 -208.5zM516 765h-60l88 160
l82 -26zM360 765h-60l88 160l78 -25z" />
    <glyph glyph-name="uni0151" unicode="&#x151;" horiz-adv-x="679" 
d="M45 272q0 125 82 202.5t213 77.5t212.5 -77.5t81.5 -202.5q0 -126 -81.5 -204t-212.5 -78t-213 78t-82 204zM129 272q0 -92 59 -149.5t152 -57.5q92 0 151 57.5t59 149.5q0 91 -59 148t-151 57q-93 0 -152 -57t-59 -148zM437 619h-60l88 160l82 -26zM281 619h-60l88 160
l78 -25z" />
    <glyph glyph-name="uni0152" unicode="&#x152;" horiz-adv-x="1009" 
d="M47 352q0 162 96.5 257.5t267.5 95.5h536v-78h-395v-238h333v-78h-333v-233h416v-78h-555q-174 0 -270 95t-96 257zM410 632q-130 0 -202.5 -76t-72.5 -204q0 -129 74 -204t210 -75h49v559h-58z" />
    <glyph glyph-name="uni0153" unicode="&#x153;" horiz-adv-x="1128" 
d="M1095 268v-22h-469q8 -84 63.5 -133t142.5 -49q118 0 185 81l57 -47q-81 -108 -246 -108q-180 0 -247 137q-33 -65 -97 -101t-148 -36q-128 0 -209.5 77.5t-81.5 202.5t81.5 203t209.5 78q85 0 148.5 -36t96.5 -101q32 65 92.5 101t143.5 36q135 0 206.5 -77t71.5 -206z
M818 477q-78 0 -128.5 -43t-61.5 -119h386q-8 75 -56.5 118.5t-139.5 43.5zM336 65q89 0 147 57t58 148t-58 148.5t-147 57.5q-90 0 -148.5 -57.5t-58.5 -148.5t58.5 -148t148.5 -57z" />
    <glyph glyph-name="uni0154" unicode="&#x154;" horiz-adv-x="669" 
d="M165 0h-84v705h278q127 0 193 -61t66 -177q0 -172 -154 -222l176 -245h-103l-164 228q-13 -1 -41 -1h-167v-227zM165 305h160q99 0 151.5 42t52.5 120q0 79 -46.5 119.5t-135.5 40.5h-182v-322zM287 765l132 154l98 -7l-162 -147h-68z" />
    <glyph glyph-name="uni0155" unicode="&#x155;" horiz-adv-x="420" 
d="M78 541h79v-82q25 42 70 67.5t105 25.5q40 0 63 -10v-87q-41 16 -79 16q-68 0 -113.5 -54.5t-45.5 -147.5v-269h-79v541zM194 620h-68l132 154l98 -7z" />
    <glyph glyph-name="uni0156" unicode="&#x156;" horiz-adv-x="669" 
d="M165 0h-84v705h278q127 0 193 -61t66 -177q0 -172 -154 -222l176 -245h-103l-164 228q-13 -1 -41 -1h-167v-227zM347 627h-182v-322h160q99 0 151.5 42t52.5 120q0 79 -46.5 119.5t-135.5 40.5zM265 -240v36q6 -1 18 -1q24 0 40.5 17t18.5 43q-18 2 -30 15t-12 30
q0 21 13 33t35 12q25 0 39.5 -16.5t14.5 -45.5q0 -50 -29.5 -87t-90.5 -37q-11 0 -17 1z" />
    <glyph glyph-name="uni0157" unicode="&#x157;" horiz-adv-x="420" 
d="M78 541h79v-82q25 42 70 67.5t105 25.5q40 0 63 -10v-87q-41 16 -79 16q-68 0 -113.5 -54.5t-45.5 -147.5v-269h-79v541zM34 -240v36q6 -1 18 -1q24 0 40.5 17t18.5 43q-18 2 -30 15t-12 30q0 21 13 33t35 12q25 0 39.5 -16.5t14.5 -45.5q0 -50 -29.5 -87t-90.5 -37
q-11 0 -17 1z" />
    <glyph glyph-name="uni0158" unicode="&#x158;" horiz-adv-x="669" 
d="M81 705h278q127 0 193 -61t66 -177q0 -172 -154 -222l176 -245h-103l-164 228q-13 -1 -41 -1h-167v-227h-84v705zM165 305h160q99 0 151.5 42t52.5 120q0 79 -46.5 119.5t-135.5 40.5h-182v-322zM293 765l-139 143h75l95 -79l95 79h76l-140 -143h-62z" />
    <glyph glyph-name="uni0159" unicode="&#x159;" horiz-adv-x="420" 
d="M157 0h-79v541h79v-82q25 42 70 67.5t105 25.5q40 0 63 -10v-87q-41 16 -79 16q-68 0 -113.5 -54.5t-45.5 -147.5v-269zM203 620l-139 143h75l95 -79l95 79h76l-140 -143h-62z" />
    <glyph glyph-name="uni015A" unicode="&#x15a;" horiz-adv-x="623" 
d="M272 765l132 154l98 -7l-162 -147h-68zM337 -12q-88 0 -150.5 14t-142.5 48l32 79q77 -35 131.5 -49t124.5 -14q78 0 121.5 32.5t43.5 90.5q0 55 -44.5 79.5t-149.5 46.5q-127 26 -189.5 70t-62.5 136q0 88 64.5 142t183.5 54q142 0 257 -55l-36 -74q-102 51 -222 51
q-78 0 -119 -35t-41 -83q0 -53 46 -78t149 -48q61 -13 100.5 -26t77 -35.5t55.5 -57t18 -82.5q0 -103 -65.5 -154.5t-181.5 -51.5z" />
    <glyph glyph-name="uni015B" unicode="&#x15b;" horiz-adv-x="529" 
d="M210 620l132 154l98 -7l-162 -147h-68zM272 -11q-125 0 -225 53l31 72q93 -51 196 -51q126 0 126 87q0 36 -33.5 54t-109.5 34q-107 23 -153.5 58.5t-46.5 104.5q0 71 55.5 110.5t147.5 39.5q96 0 198 -42l-28 -71q-78 39 -172 39q-54 0 -85.5 -18t-31.5 -54
q0 -37 31 -55.5t110 -36.5q108 -24 156 -58t48 -101q0 -85 -52 -125t-162 -40z" />
    <glyph glyph-name="uni015C" unicode="&#x15c;" horiz-adv-x="623" 
d="M337 -12q-88 0 -150.5 14t-142.5 48l32 79q77 -35 131.5 -49t124.5 -14q78 0 121.5 32.5t43.5 90.5q0 55 -44.5 79.5t-149.5 46.5q-127 26 -189.5 70t-62.5 136q0 88 64.5 142t183.5 54q142 0 257 -55l-36 -74q-102 51 -222 51q-78 0 -119 -35t-41 -83q0 -53 46 -78
t149 -48q61 -13 100.5 -26t77 -35.5t55.5 -57t18 -82.5q0 -103 -65.5 -154.5t-181.5 -51.5zM214 765h-75l139 143h62l140 -143h-76l-95 79z" />
    <glyph glyph-name="uni015D" unicode="&#x15d;" horiz-adv-x="529" 
d="M272 -11q-125 0 -225 53l31 72q93 -51 196 -51q126 0 126 87q0 36 -33.5 54t-109.5 34q-107 23 -153.5 58.5t-46.5 104.5q0 71 55.5 110.5t147.5 39.5q96 0 198 -42l-28 -71q-78 39 -172 39q-54 0 -85.5 -18t-31.5 -54q0 -37 31 -55.5t110 -36.5q108 -24 156 -58t48 -101
q0 -85 -52 -125t-162 -40zM163 619h-75l139 143h62l140 -143h-76l-95 79z" />
    <glyph glyph-name="uni015E" unicode="&#x15e;" horiz-adv-x="623" 
d="M584 194q0 -100 -62 -151.5t-172 -54.5l-15 -30q55 -13 55 -58q0 -40 -30 -63.5t-86 -23.5q-39 0 -65 6v47q20 -5 46 -5q31 0 48.5 11t17.5 27q0 30 -60 34v16l33 40q-70 3 -125 17t-125 44l32 79q77 -35 131.5 -49t124.5 -14q78 0 121.5 32.5t43.5 90.5q0 55 -44.5 79.5
t-149.5 46.5q-127 26 -189.5 70t-62.5 136q0 88 64.5 142t183.5 54q142 0 257 -55l-36 -74q-102 51 -222 51q-78 0 -119 -35t-41 -83q0 -53 46 -78t149 -48q61 -13 100.5 -26t77 -35.5t55.5 -57t18 -82.5z" />
    <glyph glyph-name="uni015F" unicode="&#x15f;" horiz-adv-x="529" 
d="M486 154q0 -81 -46.5 -121t-145.5 -44l-15 -31q55 -13 55 -58q0 -40 -30 -63.5t-86 -23.5q-39 0 -65 6v47q20 -5 46 -5q31 0 48.5 11t17.5 27q0 30 -60 34v16l33 41q-101 6 -191 52l31 72q93 -51 196 -51q126 0 126 87q0 36 -33.5 54t-109.5 34q-107 23 -153.5 58.5
t-46.5 104.5q0 71 55.5 110.5t147.5 39.5q96 0 198 -42l-28 -71q-78 39 -172 39q-54 0 -85.5 -18t-31.5 -54q0 -37 31 -55.5t110 -36.5q108 -24 156 -58t48 -101z" />
    <glyph glyph-name="uni0160" unicode="&#x160;" horiz-adv-x="623" 
d="M337 -12q-88 0 -150.5 14t-142.5 48l32 79q77 -35 131.5 -49t124.5 -14q78 0 121.5 32.5t43.5 90.5q0 55 -44.5 79.5t-149.5 46.5q-127 26 -189.5 70t-62.5 136q0 88 64.5 142t183.5 54q142 0 257 -55l-36 -74q-102 51 -222 51q-78 0 -119 -35t-41 -83q0 -53 46 -78
t149 -48q61 -13 100.5 -26t77 -35.5t55.5 -57t18 -82.5q0 -103 -65.5 -154.5t-181.5 -51.5zM278 765l-139 143h75l95 -79l95 79h76l-140 -143h-62z" />
    <glyph glyph-name="uni0161" unicode="&#x161;" horiz-adv-x="529" 
d="M272 -11q-125 0 -225 53l31 72q93 -51 196 -51q126 0 126 87q0 36 -33.5 54t-109.5 34q-107 23 -153.5 58.5t-46.5 104.5q0 71 55.5 110.5t147.5 39.5q96 0 198 -42l-28 -71q-78 39 -172 39q-54 0 -85.5 -18t-31.5 -54q0 -37 31 -55.5t110 -36.5q108 -24 156 -58t48 -101
q0 -85 -52 -125t-162 -40zM85 763h75l95 -79l95 79h76l-140 -143h-62z" />
    <glyph glyph-name="uni0162" unicode="&#x162;" horiz-adv-x="635" 
d="M32 705h570v-78h-242v-627h-12l-21 -42q55 -13 55 -58q0 -40 -30 -63.5t-86 -23.5q-39 0 -65 6v47q20 -5 46 -5q31 0 48.5 11t17.5 27q0 30 -60 34v16l42 51h-21v627h-242v78z" />
    <glyph glyph-name="uni0163" unicode="&#x163;" horiz-adv-x="393" 
d="M11 541h89v213h79v-213h192v-74h-192v-287q0 -64 18.5 -90.5t73.5 -26.5q53 0 99 17v-76q-36 -12 -92 -15l-15 -31q55 -13 55 -58q0 -40 -30 -63.5t-86 -23.5q-39 0 -65 6v47q20 -5 46 -5q31 0 48.5 11t17.5 27q0 30 -60 34v16l34 42q-68 8 -95.5 52t-27.5 129v295h-89
v74z" />
    <glyph glyph-name="uni0164" unicode="&#x164;" horiz-adv-x="635" 
d="M32 705h570v-78h-242v-627h-86v627h-242v78zM286 765l-139 143h75l95 -79l95 79h76l-140 -143h-62z" />
    <glyph glyph-name="uni0165" unicode="&#x165;" horiz-adv-x="433" 
d="M11 467v74h89v213h79v-213h192v-74h-192v-287q0 -64 18.5 -90.5t73.5 -26.5q53 0 99 17v-76q-46 -15 -113 -15q-88 0 -122.5 44.5t-34.5 138.5v295h-89zM280 762q0 26 15.5 42t40.5 16q63 0 63 -81q0 -56 -32.5 -101t-84.5 -45v39q17 0 34 21t21 56q-23 -1 -40 14.5
t-17 38.5z" />
    <glyph glyph-name="uni0166" unicode="&#x166;" horiz-adv-x="635" 
d="M32 705h570v-78h-242v-249h138v-74h-138v-304h-86v304h-139v74h139v249h-242v78z" />
    <glyph glyph-name="uni0167" unicode="&#x167;" horiz-adv-x="393" 
d="M11 541h89v213h79v-213h192v-74h-192v-113h166v-74h-166v-100q0 -64 18.5 -90.5t73.5 -26.5q53 0 99 17v-76q-46 -15 -113 -15q-88 0 -122.5 44.5t-34.5 138.5v108h-75v74h75v113h-89v74z" />
    <glyph glyph-name="uni0168" unicode="&#x168;" horiz-adv-x="720" 
d="M70 705h84v-408q0 -119 48 -174t158 -55t158 55t48 174v408h84v-426q0 -146 -70.5 -218.5t-219.5 -72.5t-219.5 72.5t-70.5 218.5v426zM162 771q24 115 108 115q40 0 98 -33t83 -33q45 0 68 63l42 -12q-26 -114 -105 -114q-35 0 -95 33.5t-81 33.5q-27 0 -44.5 -15
t-31.5 -49z" />
    <glyph glyph-name="uni0169" unicode="&#x169;" horiz-adv-x="612" 
d="M65 541h79v-310q0 -167 150 -167q96 0 171 86v391h79v-541h-79v68q-78 -78 -187 -78q-99 0 -156 52.5t-57 181.5v317zM107 643q24 115 108 115q39 0 98 -33t83 -33q45 0 68 63l42 -12q-26 -114 -105 -114q-35 0 -95 33.5t-81 33.5q-27 0 -44.5 -15t-31.5 -49z" />
    <glyph glyph-name="uni016A" unicode="&#x16a;" horiz-adv-x="720" 
d="M70 705h84v-408q0 -119 48 -174t158 -55t158 55t48 174v408h84v-426q0 -146 -70.5 -218.5t-219.5 -72.5t-219.5 72.5t-70.5 218.5v426zM192 775v65h336v-65h-336z" />
    <glyph glyph-name="uni016B" unicode="&#x16b;" horiz-adv-x="612" 
d="M278 -10q-99 0 -156 52.5t-57 181.5v317h79v-310q0 -167 150 -167q96 0 171 86v391h79v-541h-79v68q-78 -78 -187 -78zM137 726h336v-65h-336v65z" />
    <glyph glyph-name="uni016C" unicode="&#x16c;" horiz-adv-x="720" 
d="M70 705h84v-408q0 -119 48 -174t158 -55t158 55t48 174v408h84v-426q0 -146 -70.5 -218.5t-219.5 -72.5t-219.5 72.5t-70.5 218.5v426zM360 765q-147 0 -158 138h62q12 -76 96 -76t95 76h63q-12 -138 -158 -138z" />
    <glyph glyph-name="uni016D" unicode="&#x16d;" horiz-adv-x="612" 
d="M65 224v317h79v-310q0 -167 150 -167q96 0 171 86v391h79v-541h-79v68q-78 -78 -187 -78q-99 0 -156 52.5t-57 181.5zM148 758h62q12 -76 96 -76t95 76h63q-12 -138 -158 -138q-147 0 -158 138z" />
    <glyph glyph-name="uni016E" unicode="&#x16e;" horiz-adv-x="720" 
d="M360 -12q-149 0 -219.5 72.5t-70.5 218.5v426h84v-408q0 -119 48 -174t158 -55t158 55t48 174v408h84v-426q0 -146 -70.5 -218.5t-219.5 -72.5zM252 795q0 46 30.5 75.5t77.5 29.5t77.5 -29.5t30.5 -75.5q0 -47 -31 -76.5t-77 -29.5t-77 29.5t-31 76.5zM360 855
q-26 0 -42 -16.5t-16 -43.5t16 -43.5t42 -16.5t42 16.5t16 44.5q0 26 -16 42.5t-42 16.5z" />
    <glyph glyph-name="uni016F" unicode="&#x16f;" horiz-adv-x="612" 
d="M65 541h79v-310q0 -167 150 -167q96 0 171 86v391h79v-541h-79v68q-78 -78 -187 -78q-99 0 -156 52.5t-57 181.5v317zM306 611q-47 0 -77.5 30t-30.5 76t30.5 75.5t77.5 29.5t77.5 -29.5t30.5 -75.5t-30.5 -76t-77.5 -30zM306 777q-26 0 -42 -16.5t-16 -43.5t16 -43.5
t42 -16.5t42 16.5t16 44.5q0 26 -16 42.5t-42 16.5z" />
    <glyph glyph-name="uni0170" unicode="&#x170;" horiz-adv-x="720" 
d="M70 279v426h84v-408q0 -119 48 -174t158 -55t158 55t48 174v408h84v-426q0 -146 -70.5 -218.5t-219.5 -72.5t-219.5 72.5t-70.5 218.5zM456 765h-60l88 160l82 -26zM240 765l88 160l78 -25l-106 -135h-60z" />
    <glyph glyph-name="uni0171" unicode="&#x171;" horiz-adv-x="612" 
d="M65 224v317h79v-310q0 -167 150 -167q96 0 171 86v391h79v-541h-79v68q-78 -78 -187 -78q-99 0 -156 52.5t-57 181.5zM401 619h-60l88 160l82 -26zM185 619l88 160l78 -25l-106 -135h-60z" />
    <glyph glyph-name="uni0172" unicode="&#x172;" horiz-adv-x="720" 
d="M360 -12q-149 0 -219.5 72.5t-70.5 218.5v426h84v-408q0 -119 48 -174t158 -55t158 55t48 174v408h84v-426q0 -245 -202 -283q-36 -24 -54 -41.5t-18 -39.5q0 -36 48 -36q19 0 32 2l3 -56q-27 -6 -55 -6q-47 0 -74 17.5t-27 51.5q0 54 64 100h-7z" />
    <glyph glyph-name="uni0173" unicode="&#x173;" horiz-adv-x="612" 
d="M65 541h79v-310q0 -167 150 -167q96 0 171 86v391h79v-541q-40 -25 -59.5 -43.5t-19.5 -41.5q0 -36 48 -36q19 0 32 2l3 -56q-27 -6 -55 -6q-47 0 -74 17.5t-27 51.5q0 31 23.5 61t58.5 51h-9v68q-78 -78 -187 -78q-99 0 -156 52.5t-57 181.5v317z" />
    <glyph glyph-name="uni0174" unicode="&#x174;" horiz-adv-x="1051" 
d="M267 -8l-259 713h92l194 -545l210 549h46l209 -550l192 546h92l-257 -713h-46l-214 548l-213 -548h-46zM432 765h-75l139 143h62l140 -143h-76l-95 79z" />
    <glyph glyph-name="uni0175" unicode="&#x175;" horiz-adv-x="816" 
d="M205 -7l-197 548h86l136 -402l154 406h48l156 -408l137 404h83l-196 -548h-47l-159 407l-156 -407h-45zM241 619l139 143h62l140 -143h-76l-95 79l-95 -79h-75z" />
    <glyph glyph-name="uni0176" unicode="&#x176;" horiz-adv-x="618" 
d="M0 705h100l211 -376l210 376h97l-266 -463v-242h-86v242zM141 765l139 143h62l140 -143h-76l-95 79l-95 -79h-75z" />
    <glyph glyph-name="uni0177" unicode="&#x177;" horiz-adv-x="566" 
d="M240 -20l-248 561h90l200 -467l189 467h86l-232 -561q-19 -46 -42.5 -79t-44.5 -50.5t-47.5 -27t-45.5 -12t-44 -2.5q-43 0 -80 11v75q57 -12 83 -12q49 0 80 22.5t56 74.5zM112 619l139 143h62l140 -143h-76l-95 79l-95 -79h-75z" />
    <glyph glyph-name="uni0178" unicode="&#x178;" horiz-adv-x="618" 
d="M0 705h100l211 -376l210 376h97l-266 -463v-242h-86v242zM345 819q0 25 18 42.5t44 17.5q25 0 42.5 -17.5t17.5 -42.5t-17.5 -43t-42.5 -18q-26 0 -44 18t-18 43zM153 819q0 25 18 42.5t44 17.5q25 0 42.5 -17.5t17.5 -42.5t-17.5 -43t-42.5 -18q-26 0 -44 18t-18 43z
" />
    <glyph glyph-name="uni0179" unicode="&#x179;" horiz-adv-x="656" 
d="M309 765l132 154l98 -7l-162 -147h-68zM165 78h451v-78h-580v47l445 580h-413v78h542v-48z" />
    <glyph glyph-name="uni017A" unicode="&#x17a;" horiz-adv-x="538" 
d="M218 620l132 154l98 -7l-162 -147h-68zM149 68h355v-68h-474v47l351 425h-336v69h457v-45z" />
    <glyph glyph-name="uni017B" unicode="&#x17b;" horiz-adv-x="656" 
d="M345 763q-26 0 -44 18t-18 43t18 42.5t44 17.5q25 0 42.5 -17.5t17.5 -42.5t-17.5 -43t-42.5 -18zM165 78h451v-78h-580v47l445 580h-413v78h542v-48z" />
    <glyph glyph-name="uni017C" unicode="&#x17c;" horiz-adv-x="538" 
d="M265 615q-26 0 -44 18t-18 43t18 42.5t44 17.5q25 0 42.5 -17.5t17.5 -42.5t-17.5 -43t-42.5 -18zM149 68h355v-68h-474v47l351 425h-336v69h457v-45z" />
    <glyph glyph-name="uni017D" unicode="&#x17d;" horiz-adv-x="656" 
d="M616 0h-580v47l445 580h-413v78h542v-48l-445 -579h451v-78zM315 765l-139 143h75l95 -79l95 79h76l-140 -143h-62z" />
    <glyph glyph-name="uni017E" unicode="&#x17e;" horiz-adv-x="538" 
d="M504 0h-474v47l351 425h-336v69h457v-45l-353 -428h355v-68zM93 763h75l95 -79l95 79h76l-140 -143h-62z" />
    <glyph glyph-name="uni018F" unicode="&#x18f;" horiz-adv-x="804" 
d="M388 717q160 0 264.5 -99.5t104.5 -265.5q0 -160 -99 -262t-262 -102q-151 0 -250 93.5t-99 257.5q0 33 1 42h621q-9 115 -85.5 186.5t-195.5 71.5q-137 0 -238 -131l-68 49q123 160 306 160zM396 66q107 0 181.5 64t89.5 173h-531q10 -108 81 -172.5t179 -64.5z" />
    <glyph glyph-name="uni0192" unicode="&#x192;" horiz-adv-x="479" 
d="M12 -99v70q21 -6 45 -6q57 0 75.5 25.5t22.5 88.5l20 303h-88v66h92l5 75q5 91 49.5 142t123.5 51q52 0 97 -15v-70q-45 14 -90 14q-50 0 -73.5 -30t-27.5 -96l-5 -71h172v-66h-176l-23 -345q-9 -143 -161 -143q-44 0 -58 7z" />
    <glyph glyph-name="uni01E6" unicode="&#x1e6;" horiz-adv-x="760" 
d="M433 -12q-180 0 -283 97t-103 267q0 169 100.5 267t268.5 98q170 0 279 -101l-54 -59q-90 82 -225 82q-128 0 -205 -77.5t-77 -209.5q0 -133 80 -209t219 -76q128 0 204 63v152h-248v78h332v-269q-104 -103 -288 -103zM378 765l-139 143h75l95 -79l95 79h76l-140 -143
h-62z" />
    <glyph glyph-name="uni01E7" unicode="&#x1e7;" horiz-adv-x="654" 
d="M45 288q0 118 73.5 191t192.5 73q122 0 192 -71v60h79v-489q0 -127 -64.5 -185t-204.5 -58q-121 0 -224 46v86q54 -29 102 -43t116 -14q96 0 146 38.5t50 127.5v40q-65 -73 -187 -73q-123 0 -197 74.5t-74 196.5zM128 288q0 -88 54 -142t141 -54q53 0 102.5 23t77.5 70
v201q-30 43 -81 67t-102 24q-84 0 -138 -52.5t-54 -136.5zM157 763h75l95 -79l95 79h76l-140 -143h-62z" />
    <glyph glyph-name="uni01EA" unicode="&#x1ea;" horiz-adv-x="839" 
d="M473 -9q-65 -42 -65 -76q0 -36 48 -36q19 0 32 2l3 -56q-27 -6 -55 -6q-47 0 -74 17.5t-27 51.5q0 54 64 100q-155 7 -253.5 105t-98.5 259t102 263t270 102q162 0 267.5 -99.5t105.5 -265.5q0 -147 -86.5 -246t-232.5 -115zM134 352q0 -125 78.5 -205.5t206.5 -80.5
q124 0 205 78t81 208q0 126 -79 206.5t-207 80.5q-123 0 -204 -78.5t-81 -208.5z" />
    <glyph glyph-name="uni01EB" unicode="&#x1eb;" horiz-adv-x="679" 
d="M417 -2q-38 -23 -57 -42t-19 -41q0 -36 48 -36q19 0 32 2l3 -56q-27 -6 -55 -6q-47 0 -74 17.5t-27 51.5q0 56 66 102q-129 2 -209 79.5t-80 202.5t82 202.5t213 77.5t212.5 -77.5t81.5 -202.5q0 -106 -59 -179.5t-158 -94.5zM129 272q0 -92 59 -149.5t152 -57.5
q92 0 151 57.5t59 149.5q0 91 -59 148t-151 57q-93 0 -152 -57t-59 -148z" />
    <glyph glyph-name="uni01FA" unicode="&#x1fa;" horiz-adv-x="709" 
d="M10 0l311 694q-34 9 -54.5 36.5t-20.5 64.5q0 40 24 68t62 35l99 116l98 -7l-128 -116q28 -12 44.5 -37.5t16.5 -58.5q0 -37 -20.5 -64.5t-54.5 -36.5l312 -694h-92l-77 170h-352l-76 -170h-92zM289 428l-74 -180h279l-75 180l-65 152zM354 855q-26 0 -42 -16.5
t-16 -43.5t16 -43.5t42 -16.5t42 16.5t16 44.5q0 26 -16 42.5t-42 16.5z" />
    <glyph glyph-name="uni01FB" unicode="&#x1fb;" horiz-adv-x="630" 
d="M58 160q0 88 64 132t164 44h190v11q0 67 -49 103t-118 36q-55 0 -103 -22.5t-69 -63.5l-56 56q37 49 98.5 75t129.5 26q101 0 173.5 -55t72.5 -155v-347h-79v67q-70 -83 -195 -83q-98 0 -160.5 45.5t-62.5 130.5zM284 264q-147 0 -147 -104q0 -52 39 -78t107 -26
q90 0 141.5 49t51.5 117v42h-192zM199 717q0 37 20.5 64t54.5 37l130 151l98 -7l-160 -145q33 -10 53 -37t20 -63q0 -46 -30.5 -76t-77.5 -30t-77.5 30t-30.5 76zM307 777q-26 0 -42 -16.5t-16 -43.5t16 -43.5t42 -16.5t42 16.5t16 44.5q0 26 -16 42.5t-42 16.5z" />
    <glyph glyph-name="uni01FC" unicode="&#x1fc;" horiz-adv-x="988" 
d="M10 0l369 705h547v-78h-395v-238h333v-78h-333v-233h416v-78h-500v170h-255l-87 -170h-95zM428 626l-195 -378h214v378h-19zM522 765h-68l132 154l98 -7z" />
    <glyph glyph-name="uni01FD" unicode="&#x1fd;" horiz-adv-x="1073" 
d="M45 273q0 128 71.5 203.5t187.5 75.5q119 0 187 -71v60h79v-69q67 78 192 78q135 0 206.5 -77t71.5 -205v-22h-469q9 -84 64 -132.5t142 -48.5q118 0 185 81l57 -47q-81 -108 -246 -108q-132 0 -203 80v-71h-79v64q-64 -74 -182 -74q-120 0 -192 76.5t-72 206.5zM315 477
q-82 0 -133.5 -55t-51.5 -149q0 -96 51.5 -152t136.5 -56q51 0 98.5 23t74.5 70v228q-29 43 -77.5 67t-98.5 24zM573 315h386q-8 75 -56.5 118t-139.5 43q-78 0 -128.5 -42.5t-61.5 -118.5zM555 620h-68l132 154l98 -7z" />
    <glyph glyph-name="uni01FE" unicode="&#x1fe;" horiz-adv-x="839" 
d="M385 765l132 154l98 -7l-162 -147h-68zM697 607q95 -98 95 -255q0 -160 -102.5 -262t-270.5 -102q-123 0 -216 59l-41 -47h-98l82 93q-99 99 -99 259q0 161 102 263t270 102q126 0 222 -62l44 50h99zM134 352q0 -117 69 -195l382 435q-71 47 -166 47q-123 0 -204 -78.5
t-81 -208.5zM419 66q124 0 205 78t81 208q0 113 -64 191l-382 -433q69 -44 160 -44z" />
    <glyph glyph-name="uni01FF" unicode="&#x1ff;" horiz-adv-x="679" 
d="M295 620l132 154l98 -7l-162 -147h-68zM560 467q74 -76 74 -195q0 -126 -81.5 -204t-212.5 -78q-91 0 -164 41l-29 -33h-93l67 76q-76 78 -76 198q0 125 82 202.5t213 77.5q93 0 164 -41l25 28h94zM129 272q0 -80 46 -136l276 314q-51 27 -111 27q-93 0 -152 -57
t-59 -148zM340 65q92 0 151 57.5t59 149.5q0 79 -45 133l-276 -313q48 -27 111 -27z" />
    <glyph glyph-name="uni0218" unicode="&#x218;" horiz-adv-x="623" 
d="M333 395q61 -13 100.5 -26t77 -35.5t55.5 -57t18 -82.5q0 -103 -65.5 -154.5t-181.5 -51.5q-88 0 -150.5 14t-142.5 48l32 79q77 -35 131.5 -49t124.5 -14q78 0 121.5 32.5t43.5 90.5q0 55 -44.5 79.5t-149.5 46.5q-127 26 -189.5 70t-62.5 136q0 88 64.5 142t183.5 54
q142 0 257 -55l-36 -74q-102 51 -222 51q-78 0 -119 -35t-41 -83q0 -53 46 -78t149 -48zM320 -55q25 0 39.5 -16.5t14.5 -45.5q0 -50 -29.5 -87t-90.5 -37q-11 0 -17 1v36q6 -1 18 -1q24 0 40.5 17t18.5 43q-18 2 -30 15t-12 30q0 21 13 33t35 12z" />
    <glyph glyph-name="uni0219" unicode="&#x219;" horiz-adv-x="529" 
d="M282 313q108 -24 156 -58t48 -101q0 -85 -52 -125t-162 -40q-125 0 -225 53l31 72q93 -51 196 -51q126 0 126 87q0 36 -33.5 54t-109.5 34q-107 23 -153.5 58.5t-46.5 104.5q0 71 55.5 110.5t147.5 39.5q96 0 198 -42l-28 -71q-78 39 -172 39q-54 0 -85.5 -18t-31.5 -54
q0 -37 31 -55.5t110 -36.5zM264 -55q25 0 39.5 -16.5t14.5 -45.5q0 -50 -29.5 -87t-90.5 -37q-11 0 -17 1v36q6 -1 18 -1q24 0 40.5 17t18.5 43q-18 2 -30 15t-12 30q0 21 13 33t35 12z" />
    <glyph glyph-name="uni021A" unicode="&#x21a;" horiz-adv-x="635" 
d="M32 705h570v-78h-242v-627h-86v627h-242v78zM246 -241q-11 0 -17 1v36q6 -1 18 -1q24 0 40.5 17t18.5 43q-18 2 -30 15t-12 30q0 21 13 33t35 12q25 0 39.5 -16.5t14.5 -45.5q0 -50 -29.5 -87t-90.5 -37z" />
    <glyph glyph-name="uni021B" unicode="&#x21b;" horiz-adv-x="393" 
d="M11 467v74h89v213h79v-213h192v-74h-192v-287q0 -64 18.5 -90.5t73.5 -26.5q53 0 99 17v-76q-46 -15 -113 -15q-88 0 -122.5 44.5t-34.5 138.5v295h-89zM182 -241q-11 0 -17 1v36q6 -1 18 -1q24 0 40.5 17t18.5 43q-18 2 -30 15t-12 30q0 21 13 33t35 12q25 0 39.5 -16.5
t14.5 -45.5q0 -50 -29.5 -87t-90.5 -37z" />
    <glyph glyph-name="uni0232" unicode="&#x232;" horiz-adv-x="618" 
d="M0 705h100l211 -376l210 376h97l-266 -463v-242h-86v242zM477 775h-336v65h336v-65z" />
    <glyph glyph-name="uni0233" unicode="&#x233;" horiz-adv-x="566" 
d="M-8 541h90l200 -467l189 467h86l-232 -561q-19 -46 -42.5 -79t-44.5 -50.5t-47.5 -27t-45.5 -12t-44 -2.5q-43 0 -80 11v75q57 -12 83 -12q49 0 80 22.5t56 74.5zM112 726h336v-65h-336v65z" />
    <glyph glyph-name="uni0237" unicode="&#x237;" horiz-adv-x="245" 
d="M16 -187q-45 0 -61 7v70q21 -6 43 -6q57 0 73.5 25.5t16.5 88.5v543h79v-585q0 -143 -151 -143z" />
    <glyph glyph-name="uni0259" unicode="&#x259;" horiz-adv-x="630" 
d="M33 273v22h469q-9 84 -65 133t-141 49q-118 0 -185 -81l-57 47q81 108 246 108q129 0 207 -76.5t78 -205.5q0 -127 -76 -203.5t-198 -76.5q-134 0 -206 77.5t-72 206.5zM310 63q74 0 126 43.5t64 119.5h-382q8 -75 56.5 -119t135.5 -44z" />
    <glyph glyph-name="uni02C6" unicode="&#x2c6;" horiz-adv-x="500" 
d="M80 619l139 143h62l140 -143h-76l-95 79l-95 -79h-75z" />
    <glyph glyph-name="uni02C7" unicode="&#x2c7;" horiz-adv-x="500" 
d="M221 620l-139 143h75l95 -79l95 79h76l-140 -143h-62z" />
    <glyph glyph-name="uni02D8" unicode="&#x2d8;" horiz-adv-x="500" 
d="M251 620q-147 0 -158 138h62q12 -76 96 -76t95 76h63q-12 -138 -158 -138z" />
    <glyph glyph-name="uni02D9" unicode="&#x2d9;" horiz-adv-x="379" 
d="M190 615q-26 0 -44 18t-18 43t18 42.5t44 17.5q25 0 42.5 -17.5t17.5 -42.5t-17.5 -43t-42.5 -18z" />
    <glyph glyph-name="uni02DA" unicode="&#x2da;" horiz-adv-x="500" 
d="M251 611q-47 0 -77.5 30t-30.5 76t30.5 75.5t77.5 29.5t77.5 -29.5t30.5 -75.5t-30.5 -76t-77.5 -30zM251 657q26 0 42 16.5t16 44.5q0 26 -16 42.5t-42 16.5t-42 -16.5t-16 -43.5t16 -43.5t42 -16.5z" />
    <glyph glyph-name="uni02DB" unicode="&#x2db;" horiz-adv-x="500" 
d="M239 -181q-47 0 -74 17.5t-27 51.5t27 66t66 52l59 -6q-40 -25 -59.5 -43.5t-19.5 -41.5q0 -36 48 -36q19 0 32 2l3 -56q-27 -6 -55 -6z" />
    <glyph glyph-name="uni02DC" unicode="&#x2dc;" horiz-adv-x="500" 
d="M92 632l-42 11q24 115 108 115q40 0 98 -33t83 -33q45 0 68 63l42 -12q-26 -114 -105 -114q-35 0 -95 33.5t-81 33.5q-27 0 -44.5 -15t-31.5 -49z" />
    <glyph glyph-name="uni02DD" unicode="&#x2dd;" horiz-adv-x="500" 
d="M246 619l88 160l82 -26l-110 -134h-60zM90 619l88 160l78 -25l-106 -135h-60z" />
    <glyph glyph-name="uni0300" unicode="&#x300;" 
d="M-231 619h-68l-162 147l98 7z" />
    <glyph glyph-name="uni0301" unicode="&#x301;" 
d="M-336 620l132 154l98 -7l-162 -147h-68z" />
    <glyph glyph-name="uni0302" unicode="&#x302;" 
d="M-458 619l139 143h62l140 -143h-76l-95 79l-95 -79h-75z" />
    <glyph glyph-name="uni0303" unicode="&#x303;" 
d="M-446 632l-42 11q24 115 108 115q40 0 98.5 -33t82.5 -33q45 0 68 63l42 -12q-26 -114 -105 -114q-35 0 -95 33.5t-81 33.5q-27 0 -44.5 -15t-31.5 -49z" />
    <glyph glyph-name="uni0304" unicode="&#x304;" 
d="M-458 661v65h336v-65h-336z" />
    <glyph glyph-name="uni0306" unicode="&#x306;" 
d="M-289 620q-147 0 -158 138h62q12 -76 96 -76t95 76h63q-12 -138 -158 -138z" />
    <glyph glyph-name="uni0307" unicode="&#x307;" 
d="M-289 615q-26 0 -44 18t-18 43t18 42.5t44 17.5q25 0 42.5 -17.5t17.5 -42.5t-17.5 -43t-42.5 -18z" />
    <glyph glyph-name="uni0308" unicode="&#x308;" 
d="M-385 615q-26 0 -44 18t-18 43t18 42.5t44 17.5q25 0 42.5 -17.5t17.5 -42.5t-17.5 -43t-42.5 -18zM-193 615q-26 0 -44 18t-18 43t18 42.5t44 17.5q25 0 42.5 -17.5t17.5 -42.5t-17.5 -43t-42.5 -18z" />
    <glyph glyph-name="uni030A" unicode="&#x30a;" 
d="M-289 611q-47 0 -77.5 30t-30.5 76t30.5 75.5t77.5 29.5t77.5 -29.5t30.5 -75.5t-30.5 -76t-77.5 -30zM-289 657q26 0 42 16.5t16 44.5q0 26 -16 42.5t-42 16.5t-42 -16.5t-16 -43.5t16 -43.5t42 -16.5z" />
    <glyph glyph-name="uni030B" unicode="&#x30b;" 
d="M-254 619l88 160l82 -26l-110 -134h-60zM-410 619l88 160l78 -25l-106 -135h-60z" />
    <glyph glyph-name="uni030C" unicode="&#x30c;" 
d="M-319 620l-139 143h75l95 -79l95 79h76l-140 -143h-62z" />
    <glyph glyph-name="uni0312" unicode="&#x312;" 
d="M-227 802q11 0 17 -1v-36q-6 1 -18 1q-24 0 -40.5 -17t-18.5 -43q18 -2 30 -15t12 -30q0 -21 -13 -33t-35 -12q-25 0 -39.5 16.5t-14.5 45.5q0 50 29.5 87t90.5 37z" />
    <glyph glyph-name="uni0326" unicode="&#x326;" 
d="M-308 -55q25 0 39.5 -16.5t14.5 -45.5q0 -50 -29.5 -87t-90.5 -37q-11 0 -17 1v36q6 -1 18 -1q24 0 40.5 17t18.5 43q-18 2 -30 15t-12 30q0 21 13 33t35 12z" />
    <glyph glyph-name="uni0327" unicode="&#x327;" 
d="M-288 -42q55 -13 55 -58q0 -40 -30 -63.5t-86 -23.5q-39 0 -65 6v47q20 -5 46 -5q31 0 48.5 11t17.5 27q0 30 -60 34v16l44 54l55 6z" />
    <glyph glyph-name="uni0328" unicode="&#x328;" 
d="M-364 -181q-47 0 -74 17.5t-27 51.5t27 66t66 52l59 -6q-40 -25 -59.5 -43.5t-19.5 -41.5q0 -36 48 -36q19 0 32 2l3 -56q-27 -6 -55 -6z" />
    <glyph glyph-name="uni037E" unicode="&#x37e;" horiz-adv-x="208" 
d="M104 432q-26 0 -44 18t-18 43t18 42.5t44 17.5q25 0 42.5 -17.5t17.5 -42.5t-17.5 -43t-42.5 -18zM98 110q64 0 64 -92q0 -178 -140 -178v41q39 1 56 28t16 86q-21 2 -36 18.5t-15 38.5q0 27 14.5 42.5t40.5 15.5z" />
    <glyph glyph-name="uni0384" unicode="&#x384;" horiz-adv-x="413" 
d="M194 620l113 154l98 -7l-143 -147h-68z" />
    <glyph glyph-name="uni0385" unicode="&#x385;" horiz-adv-x="570" 
d="M234 620l33 178l94 -7l-84 -171h-43zM142 615q-26 0 -44 18t-18 43t18 42.5t44 17.5q25 0 42.5 -17.5t17.5 -42.5t-17.5 -43t-42.5 -18zM421 615q-26 0 -44 18t-18 43t18 42.5t44 17.5q25 0 42.5 -17.5t17.5 -42.5t-17.5 -43t-42.5 -18z" />
    <glyph glyph-name="uni0386" unicode="&#x386;" horiz-adv-x="709" 
d="M102 0h-92l319 712h50l320 -712h-92l-77 170h-352zM289 428l-74 -180h279l-75 180l-65 152zM55 531h-66l104 183l97 -7z" />
    <glyph glyph-name="uni0387" unicode="&#x387;" horiz-adv-x="208" 
d="M105 432q-26 0 -44 18t-18 43t18 42.5t44 17.5q25 0 42.5 -17.5t17.5 -42.5t-17.5 -43t-42.5 -18z" />
    <glyph glyph-name="uni0388" unicode="&#x388;" horiz-adv-x="622" 
d="M81 705h479v-78h-395v-238h333v-78h-333v-233h416v-78h-500v705zM-121 531h-66l104 183l97 -7z" />
    <glyph glyph-name="uni0389" unicode="&#x389;" horiz-adv-x="729" 
d="M81 705h84v-343h399v343h84v-705h-84v284h-399v-284h-84v705zM-121 531h-66l104 183l97 -7z" />
    <glyph glyph-name="uni038A" unicode="&#x38a;" horiz-adv-x="257" 
d="M-184 531l104 183l97 -7l-135 -176h-66zM85 0v705h87v-705h-87z" />
    <glyph glyph-name="uni038C" unicode="&#x38c;" horiz-adv-x="839" 
d="M419 -12q-162 0 -267 99t-105 265q0 161 102 263t270 102q162 0 267.5 -99.5t105.5 -265.5q0 -160 -102.5 -262t-270.5 -102zM-95 531l104 183l97 -7l-135 -176h-66zM419 66q124 0 205 78t81 208q0 126 -79 206.5t-207 80.5q-123 0 -204 -78.5t-81 -208.5
q0 -125 78.5 -205.5t206.5 -80.5z" />
    <glyph glyph-name="uni038E" unicode="&#x38e;" horiz-adv-x="618" 
d="M0 705h100l211 -376l210 376h97l-266 -463v-242h-86v242zM-171 531h-66l104 183l97 -7z" />
    <glyph glyph-name="uni038F" unicode="&#x38f;" horiz-adv-x="838" 
d="M227 78q-72 41 -123 117.5t-51 179.5q0 162 103.5 252t262.5 90t262.5 -90t103.5 -252q0 -103 -50.5 -179.5t-122.5 -117.5h167v-78h-315v61q232 115 232 316q0 116 -79 188t-198 72t-198 -72t-79 -188q0 -201 232 -316v-61h-311v78h164zM-28 531h-66l104 183l97 -7z" />
    <glyph glyph-name="uni0390" unicode="&#x390;" horiz-adv-x="238" 
d="M85 620l33 178l94 -7l-84 -171h-43zM-7 615q-26 0 -44 18t-18 43t18 42.5t44 17.5q25 0 42.5 -17.5t17.5 -42.5t-17.5 -43t-42.5 -18zM272 615q-26 0 -44 18t-18 43t18 42.5t44 17.5q25 0 42.5 -17.5t17.5 -42.5t-17.5 -43t-42.5 -18zM78 0v541h82v-541h-82z" />
    <glyph glyph-name="uni0391" unicode="&#x391;" horiz-adv-x="709" 
d="M10 0l319 712h50l320 -712h-92l-77 170h-352l-76 -170h-92zM215 248h279l-75 180l-65 152l-65 -152z" />
    <glyph glyph-name="uni0392" unicode="&#x392;" horiz-adv-x="689" 
d="M409 0h-328v705h294q111 0 169 -47t58 -133q0 -124 -105 -156q158 -33 158 -167q0 -101 -59.5 -151.5t-186.5 -50.5zM165 78h244q84 0 121.5 31t37.5 93q0 119 -185 119h-218v-243zM376 627h-211v-228h197q80 0 116.5 29.5t36.5 92.5q0 53 -36.5 79.5t-102.5 26.5z" />
    <glyph glyph-name="uni0393" unicode="&#x393;" horiz-adv-x="571" 
d="M81 0v705h477v-78h-393v-627h-84z" />
    <glyph glyph-name="uni0394" unicode="&#x394;" horiz-adv-x="699" 
d="M374 712l305 -665v-47h-659v47l304 665h50zM348 581l-224 -503h447z" />
    <glyph glyph-name="uni0395" unicode="&#x395;" horiz-adv-x="622" 
d="M81 705h479v-78h-395v-238h333v-78h-333v-233h416v-78h-500v705z" />
    <glyph glyph-name="uni0396" unicode="&#x396;" horiz-adv-x="656" 
d="M165 78h451v-78h-580v47l445 580h-413v78h542v-48z" />
    <glyph glyph-name="uni0397" unicode="&#x397;" horiz-adv-x="729" 
d="M81 705h84v-343h399v343h84v-705h-84v284h-399v-284h-84v705z" />
    <glyph glyph-name="uni0398" unicode="&#x398;" horiz-adv-x="839" 
d="M419 -12q-162 0 -267 99t-105 265q0 161 102 263t270 102q162 0 267.5 -99.5t105.5 -265.5q0 -160 -102.5 -262t-270.5 -102zM419 66q124 0 205 78t81 208q0 126 -79 206.5t-207 80.5q-123 0 -204 -78.5t-81 -208.5q0 -125 78.5 -205.5t206.5 -80.5zM234 305v78h375v-78
h-375z" />
    <glyph glyph-name="uni0399" unicode="&#x399;" horiz-adv-x="257" 
d="M85 0v705h87v-705h-87z" />
    <glyph glyph-name="uni039A" unicode="&#x39a;" horiz-adv-x="689" 
d="M81 705h84v-420l365 420h113l-281 -317l316 -388h-111l-262 322l-140 -155v-167h-84v705z" />
    <glyph glyph-name="uni039B" unicode="&#x39b;" horiz-adv-x="704" 
d="M10 0l316 712h50l318 -712h-96l-248 576l-246 -576h-94z" />
    <glyph glyph-name="uni039C" unicode="&#x39c;" horiz-adv-x="878" 
d="M165 0h-84v711h45l315 -472l311 472h45v-711h-84v509l-254 -380h-40l-254 375v-504z" />
    <glyph glyph-name="uni039D" unicode="&#x39d;" horiz-adv-x="765" 
d="M600 705h84v-713h-43l-476 550v-542h-84v714h43l476 -551v542z" />
    <glyph glyph-name="uni039E" unicode="&#x39e;" horiz-adv-x="648" 
d="M49 625v80h550v-80h-550zM97 304v78h454v-78h-454zM41 0v80h566v-80h-566z" />
    <glyph glyph-name="uni039F" unicode="&#x39f;" horiz-adv-x="839" 
d="M419 -12q-162 0 -267 99t-105 265q0 161 102 263t270 102q162 0 267.5 -99.5t105.5 -265.5q0 -160 -102.5 -262t-270.5 -102zM419 66q124 0 205 78t81 208q0 126 -79 206.5t-207 80.5q-123 0 -204 -78.5t-81 -208.5q0 -125 78.5 -205.5t206.5 -80.5z" />
    <glyph glyph-name="uni03A0" unicode="&#x3a0;" horiz-adv-x="738" 
d="M81 705h576v-705h-84v627h-408v-627h-84v705z" />
    <glyph glyph-name="uni03A1" unicode="&#x3a1;" horiz-adv-x="646" 
d="M165 0h-84v705h279q259 0 259 -238q0 -244 -286 -244h-168v-223zM165 627v-326h163q204 0 204 165q0 161 -182 161h-185z" />
    <glyph glyph-name="uni03A3" unicode="&#x3a3;" horiz-adv-x="636" 
d="M160 78h435v-78h-566v47l241 299l-236 312v47h558v-78h-429l203 -266v-31z" />
    <glyph glyph-name="uni03A4" unicode="&#x3a4;" horiz-adv-x="635" 
d="M32 627v78h570v-78h-242v-627h-86v627h-242z" />
    <glyph glyph-name="uni03A5" unicode="&#x3a5;" horiz-adv-x="618" 
d="M266 242l-266 463h100l211 -376l210 376h97l-266 -463v-242h-86v242z" />
    <glyph glyph-name="uni03A6" unicode="&#x3a6;" horiz-adv-x="866" 
d="M43 358q0 139 90 221t243 82h15v66h84v-66h15q153 0 243 -82t90 -221q0 -136 -90 -219.5t-244 -83.5h-14v-75h-84v75h-14q-154 0 -244 83.5t-90 219.5zM475 589v-461h15q112 0 178.5 64t66.5 166q0 105 -66 168t-179 63h-15zM131 358q0 -102 66.5 -166t178.5 -64h15v461
h-15q-113 0 -179 -63t-66 -168z" />
    <glyph glyph-name="uni03A7" unicode="&#x3a7;" horiz-adv-x="665" 
d="M10 0l264 357l-260 348h105l214 -290l214 290h105l-260 -348l263 -357h-105l-217 297l-217 -297h-106z" />
    <glyph glyph-name="uni03A8" unicode="&#x3a8;" horiz-adv-x="829" 
d="M47 705h84v-253q0 -105 59.5 -162t165.5 -57h17v472h84v-472h16q106 0 165.5 57t59.5 162v253h84v-256q0 -139 -82.5 -216.5t-226.5 -77.5h-16v-155h-84v155h-17q-144 0 -226.5 77.5t-82.5 216.5v256z" />
    <glyph glyph-name="uni03A9" unicode="&#x3a9;" horiz-adv-x="838" 
d="M227 78q-72 41 -123 117.5t-51 179.5q0 162 103.5 252t262.5 90t262.5 -90t103.5 -252q0 -103 -50.5 -179.5t-122.5 -117.5h167v-78h-315v61q232 115 232 316q0 116 -79 188t-198 72t-198 -72t-79 -188q0 -201 232 -316v-61h-311v78h164z" />
    <glyph glyph-name="uni03AA" unicode="&#x3aa;" horiz-adv-x="257" 
d="M35 758q-26 0 -44 18t-18 43t18 42.5t44 17.5q25 0 42.5 -17.5t17.5 -42.5t-17.5 -43t-42.5 -18zM227 758q-26 0 -44 18t-18 43t18 42.5t44 17.5q25 0 42.5 -17.5t17.5 -42.5t-17.5 -43t-42.5 -18zM85 0v705h87v-705h-87z" />
    <glyph glyph-name="uni03AB" unicode="&#x3ab;" horiz-adv-x="618" 
d="M0 705h100l211 -376l210 376h97l-266 -463v-242h-86v242zM345 819q0 25 18 42.5t44 17.5q25 0 42.5 -17.5t17.5 -42.5t-17.5 -43t-42.5 -18q-26 0 -44 18t-18 43zM153 819q0 25 18 42.5t44 17.5q25 0 42.5 -17.5t17.5 -42.5t-17.5 -43t-42.5 -18q-26 0 -44 18t-18 43z
" />
    <glyph glyph-name="uni03AC" unicode="&#x3ac;" horiz-adv-x="657" 
d="M45 273q0 128 73 203.5t193 75.5q122 0 192 -71v60h79v-541h-79v64q-65 -74 -187 -74q-124 0 -197.5 76t-73.5 207zM320 477q-85 0 -138.5 -55t-53.5 -149q0 -96 53.5 -152t141.5 -56q53 0 102.5 23t77.5 70v228q-30 43 -81 67t-102 24zM356 620h-68l113 154l98 -7z" />
    <glyph glyph-name="uni03AD" unicode="&#x3ad;" horiz-adv-x="564" 
d="M248 620l113 154l98 -7l-143 -147h-68zM514 129l34 -72q-97 -66 -255 -66q-247 0 -247 152q0 106 114 135q-95 32 -95 121q0 82 61 117.5t155 35.5q144 0 251 -64l-33 -68q-101 58 -214 58q-57 0 -96.5 -20t-39.5 -65q0 -32 28.5 -57t85.5 -25h130v-71h-124
q-71 0 -105.5 -24t-34.5 -63q0 -88 172 -88q121 0 213 64z" />
    <glyph glyph-name="uni03AE" unicode="&#x3ae;" horiz-adv-x="628" 
d="M78 0v541h79v-62q85 72 191 72q101 0 158.5 -52.5t57.5 -181.5v-492h-79v485q0 95 -42 131t-110 36q-96 0 -176 -80v-397h-79zM271 620l113 154l98 -7l-143 -147h-68z" />
    <glyph glyph-name="uni03AF" unicode="&#x3af;" horiz-adv-x="238" 
d="M75 620l113 154l98 -7l-143 -147h-68zM78 0v541h82v-541h-82z" />
    <glyph glyph-name="uni03B0" unicode="&#x3b0;" horiz-adv-x="624" 
d="M63 541h79v-310q0 -167 170 -167t170 167v310h79v-317q0 -235 -249 -235t-249 235v317zM124 676q0 25 18 42.5t44 17.5q25 0 42.5 -17.5t17.5 -42.5t-17.5 -43t-42.5 -18q-26 0 -44 18t-18 43zM465 615q-26 0 -44 18t-18 43t18 42.5t44 17.5q25 0 42.5 -17.5t17.5 -42.5
t-17.5 -43t-42.5 -18zM278 620l33 178l94 -7l-84 -171h-43z" />
    <glyph glyph-name="uni03B1" unicode="&#x3b1;" horiz-adv-x="657" 
d="M45 273q0 128 73 203.5t193 75.5q122 0 192 -71v60h79v-541h-79v64q-65 -74 -187 -74q-124 0 -197.5 76t-73.5 207zM320 477q-85 0 -138.5 -55t-53.5 -149q0 -96 53.5 -152t141.5 -56q53 0 102.5 23t77.5 70v228q-30 43 -81 67t-102 24z" />
    <glyph glyph-name="uni03B2" unicode="&#x3b2;" horiz-adv-x="658" 
d="M76 485q0 141 67.5 211t187.5 70q105 0 178 -52.5t73 -143.5q0 -53 -27.5 -95.5t-74.5 -61.5q73 -15 110.5 -69t37.5 -129q0 -110 -69 -167.5t-185 -57.5q-63 0 -123.5 20.5t-95.5 59.5v-245h-79v660zM155 167q31 -50 92.5 -76t126.5 -26q77 0 123 39t46 119
q0 149 -204 149h-184v-205zM332 691q-177 0 -177 -206v-43h178q26 0 52 5t53 17t43.5 37t16.5 60q0 62 -48.5 96t-117.5 34z" />
    <glyph glyph-name="uni03B3" unicode="&#x3b3;" horiz-adv-x="583" 
d="M252 -3l-244 544h89l196 -453l193 453h89l-243 -545v-171h-80v172z" />
    <glyph glyph-name="uni03B4" unicode="&#x3b4;" horiz-adv-x="674" 
d="M512 500q120 -105 120 -243q0 -117 -81 -192t-213 -75q-131 0 -212 77t-81 200q0 114 71.5 185t186.5 71q43 0 81 -11q-100 79 -268 197v45h468v-72h-308q45 -29 125 -92t111 -90zM338 65q93 0 151.5 55t58.5 139q0 106 -90 177q-61 19 -118 19q-94 0 -152.5 -50
t-58.5 -138q0 -89 58 -145.5t151 -56.5z" />
    <glyph glyph-name="uni03B5" unicode="&#x3b5;" horiz-adv-x="564" 
d="M514 129l34 -72q-97 -66 -255 -66q-247 0 -247 152q0 106 114 135q-95 32 -95 121q0 82 61 117.5t155 35.5q144 0 251 -64l-33 -68q-101 58 -214 58q-57 0 -96.5 -20t-39.5 -65q0 -32 28.5 -57t85.5 -25h130v-71h-124q-71 0 -105.5 -24t-34.5 -63q0 -88 172 -88
q121 0 213 64z" />
    <glyph glyph-name="uni03B6" unicode="&#x3b6;" horiz-adv-x="546" 
d="M542 709q-73 -46 -115.5 -75t-106.5 -80t-100 -92.5t-63 -97t-27 -109.5q0 -74 38 -104.5t153 -42.5q117 -13 165 -45.5t48 -99.5q0 -145 -201 -145h-9v71q127 0 127 71q0 33 -31 48t-119 25q-61 7 -104.5 19.5t-79.5 36.5t-54 63t-18 94q0 69 27.5 133t79 119t106 98
t126.5 89h-300v69h458v-45z" />
    <glyph glyph-name="uni03B7" unicode="&#x3b7;" horiz-adv-x="628" 
d="M78 0v541h79v-62q85 72 191 72q101 0 158.5 -52.5t57.5 -181.5v-492h-79v485q0 95 -42 131t-110 36q-96 0 -176 -80v-397h-79z" />
    <glyph glyph-name="uni03B8" unicode="&#x3b8;" horiz-adv-x="648" 
d="M324 766q137 0 211.5 -106t74.5 -288q0 -178 -72 -279.5t-214 -101.5q-143 0 -214.5 101.5t-71.5 279.5q0 182 74.5 288t211.5 106zM324 694q-96 0 -148 -76.5t-56 -209.5h408q-4 133 -56.5 209.5t-147.5 76.5zM324 63q100 0 150 72.5t54 202.5h-408q4 -130 53.5 -202.5
t150.5 -72.5z" />
    <glyph glyph-name="uni03B9" unicode="&#x3b9;" horiz-adv-x="238" 
d="M78 0v541h82v-541h-82z" />
    <glyph glyph-name="uni03BA" unicode="&#x3ba;" horiz-adv-x="609" 
d="M78 0v541h79v-322l312 322h109l-201 -206l212 -335h-98l-173 275l-161 -161v-114h-79z" />
    <glyph glyph-name="uni03BB" unicode="&#x3bb;" horiz-adv-x="602" 
d="M25 0l271 554l-1 3q-24 71 -55 103t-84 32q-44 0 -74 -11v75q32 9 74 9q80 0 124.5 -31.5t82.5 -129.5l235 -604h-88l-177 458l-220 -458h-88z" />
    <glyph glyph-name="uni03BC" unicode="&#x3bc;" horiz-adv-x="631" 
d="M76 541h79v-310q0 -167 150 -167q96 0 171 86v391h79v-541h-79v68q-78 -78 -187 -78q-92 0 -134 56v-221h-79v716z" />
    <glyph glyph-name="uni03BD" unicode="&#x3bd;" horiz-adv-x="575" 
d="M8 541h90l122 -270l67 -155l193 425h87l-257 -548h-46z" />
    <glyph glyph-name="uni03BE" unicode="&#x3be;" horiz-adv-x="527" 
d="M293 27q-132 5 -196.5 45.5t-64.5 136.5q0 83 46.5 132.5t116.5 69.5q-105 36 -105 130q0 47 26 86t75 58h-144v69h455v-69h-76q-133 0 -192.5 -34t-59.5 -101q0 -27 9 -46.5t30.5 -31.5t42 -19t57.5 -10.5t62.5 -4t71.5 -0.5v-69h-61q-143 0 -206.5 -34t-63.5 -114
q0 -60 42.5 -87t153.5 -31q121 -4 167.5 -37t46.5 -103q0 -145 -201 -145h-9v71q127 0 127 71q0 33 -32.5 48.5t-117.5 18.5z" />
    <glyph glyph-name="uni03BF" unicode="&#x3bf;" horiz-adv-x="679" 
d="M340 -10q-131 0 -213 78t-82 204q0 125 82 202.5t213 77.5t212.5 -77.5t81.5 -202.5q0 -126 -81.5 -204t-212.5 -78zM340 65q92 0 151 57.5t59 149.5q0 91 -59 148t-151 57q-93 0 -152 -57t-59 -148q0 -92 59 -149.5t152 -57.5z" />
    <glyph glyph-name="uni03C0" unicode="&#x3c0;" horiz-adv-x="638" 
d="M76 0v541h486v-541h-79v467h-328v-467h-79z" />
    <glyph glyph-name="uni03C1" unicode="&#x3c1;" horiz-adv-x="650" 
d="M133 -175h-79v445q0 133 72 207t201 74q130 0 204 -76.5t74 -205.5q0 -134 -74.5 -206.5t-203.5 -72.5q-123 0 -194 80v-245zM133 262v-95q32 -50 83 -76t107 -26q97 0 147.5 53.5t50.5 148.5q0 96 -52 153t-144 57q-91 0 -141.5 -55.5t-50.5 -159.5z" />
    <glyph glyph-name="uni03C2" unicode="&#x3c2;" horiz-adv-x="563" 
d="M322 -182v71q127 0 127 71q0 30 -29 43t-115 32q-53 11 -93.5 26.5t-82 43.5t-64.5 75.5t-23 110.5q0 116 71 188t196 72q76 0 139.5 -26t99.5 -71l-56 -55q-27 35 -76 56t-106 21q-88 0 -136 -50.5t-48 -129.5q0 -83 52.5 -125.5t143.5 -61.5q117 -24 163.5 -53.5
t46.5 -92.5q0 -145 -201 -145h-9z" />
    <glyph glyph-name="uni03C3" unicode="&#x3c3;" horiz-adv-x="674" 
d="M45 270q0 125 81 198t215 73h304v-74h-114q43 -34 69.5 -92t26.5 -122q0 -117 -81 -190.5t-206 -73.5q-133 0 -214 77.5t-81 203.5zM340 467q-96 0 -153.5 -53t-57.5 -145t58 -149t153 -57q90 0 146.5 54.5t56.5 142.5q0 74 -39 132t-78 75h-86z" />
    <glyph glyph-name="uni03C4" unicode="&#x3c4;" horiz-adv-x="495" 
d="M21 467v74h453v-74h-187v-467h-79v467h-187z" />
    <glyph glyph-name="uni03C5" unicode="&#x3c5;" horiz-adv-x="624" 
d="M63 541h79v-310q0 -167 170 -167t170 167v310h79v-317q0 -235 -249 -235t-249 235v317z" />
    <glyph glyph-name="uni03C6" unicode="&#x3c6;" horiz-adv-x="811" 
d="M366 -10q-158 3 -239.5 78.5t-81.5 203.5q0 127 81.5 202t239.5 78v110h79v-110q158 -3 239.5 -78t81.5 -202q0 -128 -81.5 -203.5t-239.5 -78.5v-165h-79v165zM445 477v-412q117 1 177 56.5t60 150.5q0 94 -60 149t-177 56zM129 272q0 -95 60 -150.5t177 -56.5v412
q-117 -1 -177 -56t-60 -149z" />
    <glyph glyph-name="uni03C7" unicode="&#x3c7;" horiz-adv-x="595" 
d="M13 -175l236 370l-230 346h95l184 -283l183 283h95l-230 -346l236 -370h-93l-191 298l-192 -298h-93z" />
    <glyph glyph-name="uni03C8" unicode="&#x3c8;" horiz-adv-x="787" 
d="M331 -6q-127 0 -197.5 68.5t-70.5 196.5v282h79v-283q0 -92 50 -141t139 -49h23v594h79v-594h23q90 0 139.5 48t49.5 140v285h79v-282q0 -128 -70.5 -196.5t-197.5 -68.5h-23v-169h-79v169h-23z" />
    <glyph glyph-name="uni03C9" unicode="&#x3c9;" horiz-adv-x="867" 
d="M585 549q103 -6 170 -84.5t67 -209.5q0 -120 -56.5 -193t-157.5 -73q-65 0 -110 32t-64 91q-20 -59 -65 -91t-110 -32q-101 0 -157.5 73t-56.5 193q0 131 66.5 209.5t170.5 84.5v-75q-65 -9 -109 -68t-44 -151q0 -82 35.5 -137t95.5 -55q63 0 98.5 59t35.5 141v85h79v-85
q0 -82 35.5 -141t98.5 -59q60 0 95.5 55t35.5 137q0 92 -44.5 150.5t-108.5 68.5v75z" />
    <glyph glyph-name="uni03CA" unicode="&#x3ca;" horiz-adv-x="238" 
d="M25 615q-26 0 -44 18t-18 43t18 42.5t44 17.5q25 0 42.5 -17.5t17.5 -42.5t-17.5 -43t-42.5 -18zM217 615q-26 0 -44 18t-18 43t18 42.5t44 17.5q25 0 42.5 -17.5t17.5 -42.5t-17.5 -43t-42.5 -18zM78 0v541h82v-541h-82z" />
    <glyph glyph-name="uni03CB" unicode="&#x3cb;" horiz-adv-x="624" 
d="M312 -11q-249 0 -249 235v317h79v-310q0 -167 170 -167t170 167v310h79v-317q0 -235 -249 -235zM410 615q-26 0 -44 18t-18 43t18 42.5t44 17.5q25 0 42.5 -17.5t17.5 -42.5t-17.5 -43t-42.5 -18zM156 676q0 25 18 42.5t44 17.5q25 0 42.5 -17.5t17.5 -42.5t-17.5 -43
t-42.5 -18q-26 0 -44 18t-18 43z" />
    <glyph glyph-name="uni03CC" unicode="&#x3cc;" horiz-adv-x="679" 
d="M296 620l113 154l98 -7l-143 -147h-68zM340 -10q-131 0 -213 78t-82 204q0 125 82 202.5t213 77.5t212.5 -77.5t81.5 -202.5q0 -126 -81.5 -204t-212.5 -78zM340 65q92 0 151 57.5t59 149.5q0 91 -59 148t-151 57q-93 0 -152 -57t-59 -148q0 -92 59 -149.5t152 -57.5z
" />
    <glyph glyph-name="uni03CD" unicode="&#x3cd;" horiz-adv-x="624" 
d="M63 541h79v-310q0 -167 170 -167t170 167v310h79v-317q0 -235 -249 -235t-249 235v317zM268 620l113 154l98 -7l-143 -147h-68z" />
    <glyph glyph-name="uni03CE" unicode="&#x3ce;" horiz-adv-x="867" 
d="M389 620l113 154l98 -7l-143 -147h-68zM585 549q103 -6 170 -84.5t67 -209.5q0 -120 -56.5 -193t-157.5 -73q-65 0 -110 32t-64 91q-20 -59 -65 -91t-110 -32q-101 0 -157.5 73t-56.5 193q0 131 66.5 209.5t170.5 84.5v-75q-65 -9 -109 -68t-44 -151q0 -82 35.5 -137
t95.5 -55q63 0 98.5 59t35.5 141v85h79v-85q0 -82 35.5 -141t98.5 -59q60 0 95.5 55t35.5 137q0 92 -44.5 150.5t-108.5 68.5v75z" />
    <glyph glyph-name="uni0400" unicode="&#x400;" horiz-adv-x="622" 
d="M81 705h479v-78h-395v-238h333v-78h-333v-233h416v-78h-500v705zM109 912l98 7l132 -154h-68z" />
    <glyph glyph-name="uni0401" unicode="&#x401;" horiz-adv-x="622" 
d="M81 0v705h479v-78h-395v-238h333v-78h-333v-233h416v-78h-500zM338 840q0 25 18 42.5t44 17.5q25 0 42.5 -17.5t17.5 -42.5t-17.5 -43t-42.5 -18q-26 0 -44 18t-18 43zM208 779q-26 0 -44 18t-18 43t18 42.5t44 17.5q25 0 42.5 -17.5t17.5 -42.5t-17.5 -43t-42.5 -18z
" />
    <glyph glyph-name="uni0402" unicode="&#x402;" horiz-adv-x="812" 
d="M22 705h590v-78h-291v-190q84 30 212 30q259 0 259 -233q0 -235 -286 -235q-27 0 -38 1v78q10 -1 33 -1q204 0 204 156t-182 156q-112 0 -202 -27v-362h-84v627h-215v78z" />
    <glyph glyph-name="uni0403" unicode="&#x403;" horiz-adv-x="571" 
d="M253 765l132 154l98 -7l-162 -147h-68zM81 0v705h477v-78h-393v-627h-84z" />
    <glyph glyph-name="uni0404" unicode="&#x404;" horiz-adv-x="756" 
d="M649 173l66 -55q-105 -130 -301 -130q-168 0 -267.5 97t-99.5 271q0 169 98.5 265t261.5 96q193 0 306 -135l-66 -55q-86 112 -240 112q-116 0 -190.5 -68.5t-81.5 -189.5h397v-78h-395q15 -113 89 -175t188 -62q155 0 235 107z" />
    <glyph glyph-name="uni0405" unicode="&#x405;" horiz-adv-x="623" 
d="M337 -12q-88 0 -150.5 14t-142.5 48l32 79q77 -35 131.5 -49t124.5 -14q78 0 121.5 32.5t43.5 90.5q0 55 -44.5 79.5t-149.5 46.5q-127 26 -189.5 70t-62.5 136q0 88 64.5 142t183.5 54q142 0 257 -55l-36 -74q-102 51 -222 51q-78 0 -119 -35t-41 -83q0 -53 46 -78
t149 -48q61 -13 100.5 -26t77 -35.5t55.5 -57t18 -82.5q0 -103 -65.5 -154.5t-181.5 -51.5z" />
    <glyph glyph-name="uni0406" unicode="&#x406;" horiz-adv-x="257" 
d="M85 0v705h87v-705h-87z" />
    <glyph glyph-name="uni0407" unicode="&#x407;" horiz-adv-x="257" 
d="M34 779q-26 0 -44 18t-18 43t18 42.5t44 17.5q25 0 42.5 -17.5t17.5 -42.5t-17.5 -43t-42.5 -18zM226 779q-26 0 -44 18t-18 43t18 42.5t44 17.5q25 0 42.5 -17.5t17.5 -42.5t-17.5 -43t-42.5 -18zM85 0v705h87v-705h-87z" />
    <glyph glyph-name="uni0408" unicode="&#x408;" horiz-adv-x="600" 
d="M282 -12q-115 0 -186 65t-75 192h84q4 -93 52 -136t124 -43q167 0 167 216v423h86v-425q0 -151 -62 -221.5t-190 -70.5z" />
    <glyph glyph-name="uni0409" unicode="&#x409;" horiz-adv-x="1147" 
d="M25 0v78q10 -1 33 -1q68 0 96 61t28 194v373h484v-235h202q259 0 259 -232q0 -238 -286 -238h-259v627h-316v-304q0 -99 -14 -164.5t-42.5 -99.5t-63.5 -47t-86 -13q-24 0 -35 1zM666 78h170q204 0 204 159q0 155 -182 155h-192v-314z" />
    <glyph glyph-name="uni040A" unicode="&#x40a;" horiz-adv-x="1129" 
d="M81 705h84v-331h389v331h84v-247h212q128 0 193.5 -57t65.5 -169q0 -232 -286 -232h-269v296h-389v-296h-84v705zM840 380h-202v-302h180q204 0 204 153q0 149 -182 149z" />
    <glyph glyph-name="uni040B" unicode="&#x40b;" horiz-adv-x="820" 
d="M22 705h590v-78h-291v-186q77 26 181 26q63 0 111 -12.5t87 -40t59.5 -77.5t20.5 -121v-216h-84v204q0 103 -49 144t-148 41q-100 0 -178 -23v-366h-84v627h-215v78z" />
    <glyph glyph-name="uni040C" unicode="&#x40c;" horiz-adv-x="682" 
d="M165 0h-84v705h84v-346l347 346h118l-352 -351l393 -354h-128l-378 340v-340zM376 765h-68l132 154l98 -7z" />
    <glyph glyph-name="uni040D" unicode="&#x40d;" horiz-adv-x="765" 
d="M418 765h-68l-162 147l98 7zM641 714h43v-714h-84v542l-476 -550h-43v713h84v-542z" />
    <glyph glyph-name="uni040E" unicode="&#x40e;" horiz-adv-x="646" 
d="M2 705h98l227 -435l50 101l169 334h97l-277 -541q-49 -96 -91 -136t-118 -40q-27 0 -62 7v78q24 -7 53 -7q40 0 69.5 21.5t64.5 91.5zM165 903h62q12 -76 96 -76t95 76h63q-12 -138 -158 -138q-147 0 -158 138z" />
    <glyph glyph-name="uni040F" unicode="&#x40f;" horiz-adv-x="733" 
d="M81 0v705h84v-627h403v627h84v-705h-244v-165h-80v165h-247z" />
    <glyph glyph-name="uni0410" unicode="&#x410;" horiz-adv-x="709" 
d="M10 0l319 712h50l320 -712h-92l-77 170h-352l-76 -170h-92zM215 248h279l-75 180l-65 152l-65 -152z" />
    <glyph glyph-name="uni0411" unicode="&#x411;" horiz-adv-x="666" 
d="M370 0h-289v705h494v-78h-410v-200h232q127 0 186.5 -52.5t59.5 -157.5q0 -109 -66.5 -163t-206.5 -54zM165 78h200q100 0 145.5 34t45.5 103q0 68 -40 101t-129 33h-222v-271z" />
    <glyph glyph-name="uni0412" unicode="&#x412;" horiz-adv-x="689" 
d="M409 0h-328v705h294q111 0 169 -47t58 -133q0 -124 -105 -156q158 -33 158 -167q0 -101 -59.5 -151.5t-186.5 -50.5zM165 78h244q84 0 121.5 31t37.5 93q0 119 -185 119h-218v-243zM376 627h-211v-228h197q80 0 116.5 29.5t36.5 92.5q0 53 -36.5 79.5t-102.5 26.5z" />
    <glyph glyph-name="uni0413" unicode="&#x413;" horiz-adv-x="571" 
d="M81 0v705h477v-78h-393v-627h-84z" />
    <glyph glyph-name="uni0414" unicode="&#x414;" horiz-adv-x="827" 
d="M110 -165h-80v243h72q65 60 65 283v344h506v-627h117v-243h-80v165h-600v-165zM198 78h391v549h-338v-275q0 -202 -53 -274z" />
    <glyph glyph-name="uni0415" unicode="&#x415;" horiz-adv-x="622" 
d="M81 705h479v-78h-395v-238h333v-78h-333v-233h416v-78h-500v705z" />
    <glyph glyph-name="uni0416" unicode="&#x416;" horiz-adv-x="1074" 
d="M133 0h-122l378 349l-352 356h119l339 -344v344h84v-345l334 345h116l-344 -352l378 -353h-126l-358 337v-337h-84v336z" />
    <glyph glyph-name="uni0417" unicode="&#x417;" horiz-adv-x="679" 
d="M480 360q73 -14 119.5 -57.5t46.5 -108.5q0 -103 -76.5 -154.5t-210.5 -51.5q-124 0 -199 32.5t-119 96.5l64 59q64 -110 254 -110q93 0 146.5 32t53.5 98q0 53 -54 84t-158 31h-113v78h92q87 0 141 36t54 94q0 61 -52.5 90.5t-133.5 29.5q-74 0 -123 -28t-89 -83l-64 59
q54 66 117 98t159 32q125 0 199 -49.5t74 -137.5q0 -62 -35 -106.5t-93 -63.5z" />
    <glyph glyph-name="uni0418" unicode="&#x418;" horiz-adv-x="765" 
d="M641 714h43v-714h-84v542l-476 -550h-43v713h84v-542z" />
    <glyph glyph-name="uni0419" unicode="&#x419;" horiz-adv-x="765" 
d="M124 -8h-43v713h84v-542l476 551h43v-714h-84v542zM224 903h62q12 -76 96 -76t95 76h63q-12 -138 -158 -138q-147 0 -158 138z" />
    <glyph glyph-name="uni041A" unicode="&#x41a;" horiz-adv-x="682" 
d="M81 705h84v-346l347 346h118l-352 -351l393 -354h-128l-378 340v-340h-84v705z" />
    <glyph glyph-name="uni041B" unicode="&#x41b;" horiz-adv-x="769" 
d="M60 -1q-24 0 -35 1v78q10 -1 33 -1q68 0 96 61t28 194v373h506v-705h-84v627h-338v-304q0 -99 -14 -164.5t-42.5 -99.5t-63.5 -47t-86 -13z" />
    <glyph glyph-name="uni041C" unicode="&#x41c;" horiz-adv-x="878" 
d="M165 0h-84v711h45l315 -472l311 472h45v-711h-84v509l-254 -380h-40l-254 375v-504z" />
    <glyph glyph-name="uni041D" unicode="&#x41d;" horiz-adv-x="729" 
d="M81 705h84v-343h399v343h84v-705h-84v284h-399v-284h-84v705z" />
    <glyph glyph-name="uni041E" unicode="&#x41e;" horiz-adv-x="839" 
d="M419 -12q-162 0 -267 99t-105 265q0 161 102 263t270 102q162 0 267.5 -99.5t105.5 -265.5q0 -160 -102.5 -262t-270.5 -102zM419 66q124 0 205 78t81 208q0 126 -79 206.5t-207 80.5q-123 0 -204 -78.5t-81 -208.5q0 -125 78.5 -205.5t206.5 -80.5z" />
    <glyph glyph-name="uni041F" unicode="&#x41f;" horiz-adv-x="738" 
d="M81 705h576v-705h-84v627h-408v-627h-84v705z" />
    <glyph glyph-name="uni0420" unicode="&#x420;" horiz-adv-x="646" 
d="M165 0h-84v705h279q259 0 259 -238q0 -244 -286 -244h-168v-223zM165 627v-326h163q204 0 204 165q0 161 -182 161h-185z" />
    <glyph glyph-name="uni0421" unicode="&#x421;" horiz-adv-x="749" 
d="M405 -12q-162 0 -260 100t-98 268t98 264.5t260 96.5q193 0 303 -135l-66 -55q-85 112 -237 112q-121 0 -196 -76t-75 -207t75.5 -210.5t195.5 -79.5q153 0 237 111l66 -55q-109 -134 -303 -134z" />
    <glyph glyph-name="uni0422" unicode="&#x422;" horiz-adv-x="635" 
d="M32 627v78h570v-78h-242v-627h-86v627h-242z" />
    <glyph glyph-name="uni0423" unicode="&#x423;" horiz-adv-x="646" 
d="M282 179l-280 526h98l227 -435l50 101l169 334h97l-277 -541q-49 -96 -91 -136t-118 -40q-27 0 -62 7v78q24 -7 53 -7q40 0 69.5 21.5t64.5 91.5z" />
    <glyph glyph-name="uni0424" unicode="&#x424;" horiz-adv-x="866" 
d="M43 358q0 139 90 221t243 82h15v66h84v-66h15q153 0 243 -82t90 -221q0 -136 -90 -219.5t-244 -83.5h-14v-75h-84v75h-14q-154 0 -244 83.5t-90 219.5zM475 589v-461h15q112 0 178.5 64t66.5 166q0 105 -66 168t-179 63h-15zM131 358q0 -102 66.5 -166t178.5 -64h15v461
h-15q-113 0 -179 -63t-66 -168z" />
    <glyph glyph-name="uni0425" unicode="&#x425;" horiz-adv-x="665" 
d="M10 0l264 357l-260 348h105l214 -290l214 290h105l-260 -348l263 -357h-105l-217 297l-217 -297h-106z" />
    <glyph glyph-name="uni0426" unicode="&#x426;" horiz-adv-x="765" 
d="M679 0h-598v705h84v-627h393v627h84v-627h117v-243h-80v165z" />
    <glyph glyph-name="uni0427" unicode="&#x427;" horiz-adv-x="673" 
d="M40 705h84v-199q0 -195 205 -195q103 0 179 25v369h84v-705h-84v261q-71 -28 -182 -28q-130 0 -208 62t-78 199v211z" />
    <glyph glyph-name="uni0428" unicode="&#x428;" horiz-adv-x="1060" 
d="M81 705h84v-627h323v627h84v-627h323v627h84v-705h-898v705z" />
    <glyph glyph-name="uni0429" unicode="&#x429;" horiz-adv-x="1102" 
d="M81 0v705h84v-627h323v627h84v-627h323v627h84v-627h117v-243h-80v165h-935z" />
    <glyph glyph-name="uni042A" unicode="&#x42a;" horiz-adv-x="802" 
d="M22 705h299v-235h202q259 0 259 -232q0 -238 -286 -238h-259v627h-215v78zM513 392h-192v-314h170q204 0 204 159q0 155 -182 155z" />
    <glyph glyph-name="uni042B" unicode="&#x42b;" horiz-adv-x="892" 
d="M81 0v705h84v-235h202q259 0 259 -232q0 -238 -286 -238h-259zM357 392h-192v-314h170q204 0 204 159q0 155 -182 155zM724 705h87v-705h-87v705z" />
    <glyph glyph-name="uni042C" unicode="&#x42c;" horiz-adv-x="646" 
d="M340 0h-259v705h84v-235h202q259 0 259 -232q0 -238 -286 -238zM357 392h-192v-314h170q204 0 204 159q0 155 -182 155z" />
    <glyph glyph-name="uni042D" unicode="&#x42d;" horiz-adv-x="756" 
d="M349 717q163 0 261.5 -96t98.5 -265q0 -174 -99.5 -271t-267.5 -97q-196 0 -301 130l66 55q80 -107 235 -107q114 0 188 62t89 175h-395v78h397q-7 121 -81.5 189.5t-190.5 68.5q-154 0 -240 -112l-66 55q113 135 306 135z" />
    <glyph glyph-name="uni042E" unicode="&#x42e;" horiz-adv-x="1104" 
d="M74 0v705h84v-343h166q4 157 104.5 256t263.5 99q161 0 265.5 -99.5t104.5 -265.5q0 -160 -102 -262t-268 -102q-142 0 -242 79.5t-121 216.5h-171v-284h-84zM410 352q0 -125 78 -205.5t204 -80.5q122 0 202.5 78t80.5 208q0 126 -78.5 206.5t-204.5 80.5
q-121 0 -201.5 -78.5t-80.5 -208.5z" />
    <glyph glyph-name="uni042F" unicode="&#x42f;" horiz-adv-x="670" 
d="M30 0l167 246q-145 49 -145 221q0 238 249 238h288v-705h-84v227h-177q-16 0 -44 2l-155 -229h-99zM313 627q-172 0 -172 -160q0 -162 194 -162h170v322h-192z" />
    <glyph glyph-name="uni0430" unicode="&#x430;" horiz-adv-x="607" 
d="M258 -19q-98 0 -160.5 45.5t-62.5 130.5q0 88 64 132t164 44h190v11q0 67 -49 103t-118 36q-55 0 -103 -22.5t-69 -63.5l-56 56q37 49 98.5 75t129.5 26q101 0 173.5 -55t72.5 -155v-347h-79v67q-70 -83 -195 -83zM261 261q-147 0 -147 -104q0 -52 39 -78t107 -26
q90 0 141.5 49t51.5 117v42h-192z" />
    <glyph glyph-name="uni0431" unicode="&#x431;" horiz-adv-x="684" 
d="M357 534q128 0 205 -74.5t77 -190.5q0 -124 -80.5 -201.5t-206.5 -77.5q-143 0 -222.5 88.5t-79.5 250.5q0 76 7 133.5t27.5 114t55.5 93.5t94 61.5t140 29.5q138 8 205 20l8 -83q-68 -13 -205 -21q-123 -7 -179 -65.5t-72 -195.5q37 53 95 85.5t131 32.5zM352 65
q87 0 145 57t58 147q0 82 -54 136t-144 54q-66 0 -127 -39t-94 -120q3 -107 60 -171t156 -64z" />
    <glyph glyph-name="uni0432" unicode="&#x432;" horiz-adv-x="601" 
d="M376 0h-298v541h271q185 0 185 -139q0 -92 -75 -119q112 -27 112 -134q0 -74 -44.5 -111.5t-150.5 -37.5zM157 74h220q60 0 85 18.5t25 62.5t-26.5 64.5t-98.5 20.5h-205v-166zM348 467h-191v-158h182q55 0 83.5 18.5t28.5 71.5q0 68 -103 68z" />
    <glyph glyph-name="uni0433" unicode="&#x433;" horiz-adv-x="494" 
d="M474 542v-74h-317v-468h-79v541h61v1h335z" />
    <glyph glyph-name="uni0434" unicode="&#x434;" horiz-adv-x="645" 
d="M86 -147h-76v221h45q33 26 49.5 93.5t16.5 151.5v222h419v-467h83v-221h-76v147h-461v-147zM200 312q0 -175 -53 -238h314v393h-261v-155z" />
    <glyph glyph-name="uni0435" unicode="&#x435;" horiz-adv-x="630" 
d="M597 268v-22h-469q9 -84 65 -133t141 -49q118 0 185 81l57 -47q-81 -108 -246 -108q-129 0 -207 76.5t-78 205.5q0 127 76 203.5t198 76.5q134 0 206 -77.5t72 -206.5zM320 478q-74 0 -126 -43.5t-64 -119.5h382q-8 75 -56.5 119t-135.5 44z" />
    <glyph glyph-name="uni0436" unicode="&#x436;" horiz-adv-x="876" 
d="M10 0l288 257l-278 284h112l267 -272v272h78v-274l271 274h108l-278 -283l288 -258h-121l-268 242v-242h-78v243l-274 -243h-115z" />
    <glyph glyph-name="uni0437" unicode="&#x437;" horiz-adv-x="566" 
d="M416 277q120 -29 120 -134q0 -152 -258 -152q-153 0 -250 66l34 72q50 -35 96 -49.5t112 -14.5q183 0 183 88q0 38 -34.5 62t-105.5 24h-134v71h126q57 0 85.5 25t28.5 58q0 44 -43 64.5t-102 20.5q-98 0 -199 -58l-33 68q107 64 236 64q44 0 81.5 -7.5t71 -24t53 -47.5
t19.5 -74q0 -93 -87 -122z" />
    <glyph glyph-name="uni0438" unicode="&#x438;" horiz-adv-x="655" 
d="M536 549h41v-549h-76v400l-381 -408h-42v549h76v-402z" />
    <glyph glyph-name="uni0439" unicode="&#x439;" horiz-adv-x="655" 
d="M120 -8h-42v549h76v-402l382 410h41v-549h-76v400zM171 758h62q12 -76 96 -76t95 76h63q-12 -138 -158 -138q-147 0 -158 138z" />
    <glyph glyph-name="uni043A" unicode="&#x43a;" horiz-adv-x="587" 
d="M78 541h79v-273l288 273h113l-299 -282l308 -259h-129l-281 240v-240h-79v541z" />
    <glyph glyph-name="uni043B" unicode="&#x43b;" horiz-adv-x="647" 
d="M54 -1q-24 0 -35 1v73q9 -1 28 -1q59 0 81 47.5t22 138.5v283h419v-541h-79v467h-261v-219q0 -137 -40.5 -193t-134.5 -56z" />
    <glyph glyph-name="uni043C" unicode="&#x43c;" horiz-adv-x="756" 
d="M155 0h-77v548h42l259 -354l257 354h42v-548h-77v376l-207 -281h-33l-206 280v-375z" />
    <glyph glyph-name="uni043D" unicode="&#x43d;" horiz-adv-x="645" 
d="M78 541h79v-256h331v256h79v-541h-79v211h-331v-211h-79v541z" />
    <glyph glyph-name="uni043E" unicode="&#x43e;" horiz-adv-x="679" 
d="M340 -10q-131 0 -213 78t-82 204q0 125 82 202.5t213 77.5t212.5 -77.5t81.5 -202.5q0 -126 -81.5 -204t-212.5 -78zM340 65q92 0 151 57.5t59 149.5q0 91 -59 148t-151 57q-93 0 -152 -57t-59 -148q0 -92 59 -149.5t152 -57.5z" />
    <glyph glyph-name="uni043F" unicode="&#x43f;" horiz-adv-x="642" 
d="M78 0v541h486v-541h-79v467h-328v-467h-79z" />
    <glyph glyph-name="uni0440" unicode="&#x440;" horiz-adv-x="660" 
d="M78 541h79v-60q70 71 192 71q120 0 193 -75.5t73 -203.5q0 -131 -73.5 -207t-197.5 -76q-122 0 -187 74v-239h-79v716zM157 386v-228q28 -47 77.5 -70t102.5 -23q88 0 141.5 56t53.5 152q0 94 -53.5 149t-138.5 55q-51 0 -102 -24t-81 -67z" />
    <glyph glyph-name="uni0441" unicode="&#x441;" horiz-adv-x="603" 
d="M331 -9q-133 0 -209.5 76t-76.5 205q0 127 79.5 203t211.5 76q68 0 127.5 -26.5t95.5 -71.5l-56 -55q-27 35 -72 56.5t-95 21.5q-95 0 -151 -55.5t-56 -148.5q0 -94 55 -150t147 -56q56 0 101.5 22t73.5 57l57 -54q-37 -47 -98 -73.5t-134 -26.5z" />
    <glyph glyph-name="uni0442" unicode="&#x442;" horiz-adv-x="495" 
d="M21 467v74h453v-74h-187v-467h-79v467h-187z" />
    <glyph glyph-name="uni0443" unicode="&#x443;" horiz-adv-x="566" 
d="M-8 541h90l200 -467l189 467h86l-232 -561q-19 -46 -42.5 -79t-44.5 -50.5t-47.5 -27t-45.5 -12t-44 -2.5q-43 0 -80 11v75q57 -12 83 -12q49 0 80 22.5t56 74.5z" />
    <glyph glyph-name="uni0444" unicode="&#x444;" horiz-adv-x="811" 
d="M366 -10q-158 3 -239.5 78.5t-81.5 203.5q0 127 81.5 202t239.5 78v202h79v-202q158 -3 239.5 -78t81.5 -202q0 -128 -81.5 -203.5t-239.5 -78.5v-165h-79v165zM445 477v-412q117 1 177 56.5t60 150.5q0 94 -60 149t-177 56zM129 272q0 -95 60 -150.5t177 -56.5v412
q-117 -1 -177 -56t-60 -149z" />
    <glyph glyph-name="uni0445" unicode="&#x445;" horiz-adv-x="565" 
d="M16 0l210 277l-209 264h100l164 -212l164 212h102l-211 -264l213 -277h-101l-168 219l-164 -219h-100z" />
    <glyph glyph-name="uni0446" unicode="&#x446;" horiz-adv-x="663" 
d="M78 541h79v-467h322v467h79v-467h83v-221h-76v147h-487v541z" />
    <glyph glyph-name="uni0447" unicode="&#x447;" horiz-adv-x="584" 
d="M29 541h79v-154q0 -147 174 -147q81 0 145 20v281h79v-541h-79v191q-65 -20 -150 -20q-112 0 -180 50t-68 159v161z" />
    <glyph glyph-name="uni0448" unicode="&#x448;" horiz-adv-x="927" 
d="M78 541h79v-467h267v467h79v-467h267v467h79v-541h-771v541z" />
    <glyph glyph-name="uni0449" unicode="&#x449;" horiz-adv-x="954" 
d="M78 541h79v-467h267v467h79v-467h267v467h79v-467h83v-221h-76v147h-778v541z" />
    <glyph glyph-name="uni044A" unicode="&#x44a;" horiz-adv-x="683" 
d="M21 467v74h251v-166h176q101 0 155 -47t54 -138q0 -190 -222 -190h-242v467h-172zM272 74h160q141 0 141 115q0 112 -131 112h-170v-227z" />
    <glyph glyph-name="uni044B" unicode="&#x44b;" horiz-adv-x="789" 
d="M78 0v541h79v-166h176q101 0 155 -47t54 -138q0 -190 -222 -190h-242zM327 301h-170v-227h160q141 0 141 115q0 112 -131 112zM629 541h82v-541h-82v541z" />
    <glyph glyph-name="uni044C" unicode="&#x44c;" horiz-adv-x="568" 
d="M320 0h-242v541h79v-166h176q101 0 155 -47t54 -138q0 -190 -222 -190zM327 301h-170v-227h160q141 0 141 115q0 112 -131 112z" />
    <glyph glyph-name="uni044D" unicode="&#x44d;" horiz-adv-x="608" 
d="M278 551q133 0 209 -75.5t76 -203.5q0 -135 -76 -208t-213 -73q-157 0 -234 100l57 54q61 -79 177 -79q89 0 143 44.5t61 125.5h-285v71h285q-7 77 -60 123t-141 46q-52 0 -100.5 -22t-76.5 -56l-56 55q38 45 101 71.5t133 26.5z" />
    <glyph glyph-name="uni044E" unicode="&#x44e;" horiz-adv-x="917" 
d="M75 0v541h79v-256h137q4 120 85 193.5t207 73.5q129 0 210.5 -77.5t81.5 -202.5q0 -126 -81 -204t-211 -78q-112 0 -189.5 60t-96.5 161h-143v-211h-79zM375 272q0 -92 58.5 -149.5t149.5 -57.5t149 57.5t58 149.5q0 91 -58 148t-149 57t-149.5 -57t-58.5 -148z" />
    <glyph glyph-name="uni044F" unicode="&#x44f;" horiz-adv-x="609" 
d="M51 0l131 181q-123 36 -123 174q0 186 222 186h250v-541h-79v170h-185l-120 -170h-96zM143 356q0 -112 131 -112h178v223h-168q-141 0 -141 -111z" />
    <glyph glyph-name="uni0450" unicode="&#x450;" horiz-adv-x="630" 
d="M369 619h-68l-162 147l98 7zM597 268v-22h-469q9 -84 65 -133t141 -49q118 0 185 81l57 -47q-81 -108 -246 -108q-129 0 -207 76.5t-78 205.5q0 127 76 203.5t198 76.5q134 0 206 -77.5t72 -206.5zM320 478q-74 0 -126 -43.5t-64 -119.5h382q-8 75 -56.5 119t-135.5 44z
" />
    <glyph glyph-name="uni0451" unicode="&#x451;" horiz-adv-x="630" 
d="M227 615q-26 0 -44 18t-18 43t18 42.5t44 17.5q25 0 42.5 -17.5t17.5 -42.5t-17.5 -43t-42.5 -18zM419 615q-26 0 -44 18t-18 43t18 42.5t44 17.5q25 0 42.5 -17.5t17.5 -42.5t-17.5 -43t-42.5 -18zM597 268v-22h-469q9 -84 65 -133t141 -49q118 0 185 81l57 -47
q-81 -108 -246 -108q-129 0 -207 76.5t-78 205.5q0 127 76 203.5t198 76.5q134 0 206 -77.5t72 -206.5zM320 478q-74 0 -126 -43.5t-64 -119.5h382q-8 75 -56.5 119t-135.5 44z" />
    <glyph glyph-name="uni0452" unicode="&#x452;" horiz-adv-x="619" 
d="M-35 703h111v51h79v-51h229v-74h-229v-169q85 72 189 72q112 0 172 -78.5t60 -237.5q0 -199 -76 -295t-189 -96v76q78 0 129.5 82.5t51.5 232.5q0 122 -42 182t-119 60q-96 0 -176 -80v-378h-79v629h-111v74z" />
    <glyph glyph-name="uni0453" unicode="&#x453;" horiz-adv-x="494" 
d="M201 585l132 154l98 -7l-162 -147h-68zM474 542v-74h-317v-468h-79v541h61v1h335z" />
    <glyph glyph-name="uni0454" unicode="&#x454;" horiz-adv-x="608" 
d="M511 145l57 -54q-77 -100 -234 -100q-137 0 -213 73t-76 208q0 128 76 203.5t209 75.5q70 0 133 -26.5t101 -71.5l-56 -55q-28 34 -76.5 56t-100.5 22q-88 0 -141 -46t-60 -123h285v-71h-285q7 -81 61 -125.5t143 -44.5q116 0 177 79z" />
    <glyph glyph-name="uni0455" unicode="&#x455;" horiz-adv-x="529" 
d="M272 -11q-125 0 -225 53l31 72q93 -51 196 -51q126 0 126 87q0 36 -33.5 54t-109.5 34q-107 23 -153.5 58.5t-46.5 104.5q0 71 55.5 110.5t147.5 39.5q96 0 198 -42l-28 -71q-78 39 -172 39q-54 0 -85.5 -18t-31.5 -54q0 -37 31 -55.5t110 -36.5q108 -24 156 -58t48 -101
q0 -85 -52 -125t-162 -40z" />
    <glyph glyph-name="uni0456" unicode="&#x456;" horiz-adv-x="238" 
d="M121 615q-26 0 -44 18t-18 43t18 42.5t44 17.5q25 0 42.5 -17.5t17.5 -42.5t-17.5 -43t-42.5 -18zM78 0v541h82v-541h-82z" />
    <glyph glyph-name="uni0457" unicode="&#x457;" horiz-adv-x="238" 
d="M25 615q-26 0 -44 18t-18 43t18 42.5t44 17.5q25 0 42.5 -17.5t17.5 -42.5t-17.5 -43t-42.5 -18zM217 615q-26 0 -44 18t-18 43t18 42.5t44 17.5q25 0 42.5 -17.5t17.5 -42.5t-17.5 -43t-42.5 -18zM78 0v541h82v-541h-82z" />
    <glyph glyph-name="uni0458" unicode="&#x458;" horiz-adv-x="245" 
d="M132 615q-26 0 -44 18t-18 43t18 42.5t44 17.5q25 0 42.5 -17.5t17.5 -42.5t-17.5 -43t-42.5 -18zM16 -187q-45 0 -61 7v70q21 -6 43 -6q57 0 73.5 25.5t16.5 88.5v543h79v-585q0 -143 -151 -143z" />
    <glyph glyph-name="uni0459" unicode="&#x459;" horiz-adv-x="953" 
d="M16 0v73q9 -1 28 -1q59 0 81 47.5t22 138.5v283h406v-166h170q101 0 155 -47t54 -138q0 -190 -222 -190h-236v467h-248v-219q0 -137 -40.5 -193t-134.5 -56q-24 0 -35 1zM553 74h154q141 0 141 115q0 112 -131 112h-164v-227z" />
    <glyph glyph-name="uni045A" unicode="&#x45a;" horiz-adv-x="962" 
d="M75 0v541h79v-236h321v236h79v-174h187q99 0 152 -47t53 -136q0 -184 -218 -184h-253v231h-321v-231h-79zM554 74h171q137 0 137 109q0 110 -127 110h-181v-219z" />
    <glyph glyph-name="uni045B" unicode="&#x45b;" horiz-adv-x="626" 
d="M-35 703h111v51h79v-51h229v-74h-229v-169q85 72 191 72q101 0 158.5 -52.5t57.5 -181.5v-298h-79v291q0 95 -42 131t-110 36q-96 0 -176 -80v-378h-79v629h-111v74z" />
    <glyph glyph-name="uni045C" unicode="&#x45c;" horiz-adv-x="587" 
d="M78 541h79v-273l288 273h113l-299 -282l308 -259h-129l-281 240v-240h-79v541zM328 620h-68l132 154l98 -7z" />
    <glyph glyph-name="uni045D" unicode="&#x45d;" horiz-adv-x="655" 
d="M375 619h-68l-162 147l98 7zM536 549h41v-549h-76v400l-381 -408h-42v549h76v-402z" />
    <glyph glyph-name="uni045E" unicode="&#x45e;" horiz-adv-x="566" 
d="M-8 541h90l200 -467l189 467h86l-232 -561q-19 -46 -42.5 -79t-44.5 -50.5t-47.5 -27t-45.5 -12t-44 -2.5q-43 0 -80 11v75q57 -12 83 -12q49 0 80 22.5t56 74.5zM123 758h62q12 -76 96 -76t95 76h63q-12 -138 -158 -138q-147 0 -158 138z" />
    <glyph glyph-name="uni045F" unicode="&#x45f;" horiz-adv-x="636" 
d="M78 541h79v-467h322v467h79v-541h-202v-147h-76v147h-202v541z" />
    <glyph glyph-name="uni0462" unicode="&#x462;" horiz-adv-x="799" 
d="M22 611h195v94h84v-94h291v-78h-291v-118h236q126 0 184 -51t58 -153q0 -112 -68 -161.5t-201 -49.5h-293v533h-195v78zM301 78h204q93 0 140 30t47 101q0 69 -40.5 98.5t-124.5 29.5h-226v-259z" />
    <glyph glyph-name="uni0463" unicode="&#x463;" horiz-adv-x="663" 
d="M1 541h172v213h79v-213h230v-74h-230v-100h176q100 0 154.5 -47.5t54.5 -133.5q0 -186 -222 -186h-242v467h-172v74zM252 74h160q141 0 141 111q0 50 -34 79t-97 29h-170v-219z" />
    <glyph glyph-name="uni0472" unicode="&#x472;" horiz-adv-x="839" 
d="M419 717q162 0 267.5 -99.5t105.5 -265.5q0 -160 -102.5 -262t-270.5 -102q-162 0 -267 99t-105 265q0 161 102 263t270 102zM419 639q-116 0 -195 -70t-89 -188h569q-10 115 -87 186.5t-198 71.5zM419 66q111 0 190 64t93 173h-565q14 -106 91 -171.5t191 -65.5z" />
    <glyph glyph-name="uni0473" unicode="&#x473;" horiz-adv-x="679" 
d="M340 552q131 0 212.5 -77.5t81.5 -202.5q0 -126 -81.5 -204t-212.5 -78t-213 78t-82 204q0 125 82 202.5t213 77.5zM340 477q-82 0 -139 -46t-69 -122h415q-12 76 -68.5 122t-138.5 46zM340 65q82 0 138.5 46.5t68.5 123.5h-415q12 -77 68.5 -123.5t139.5 -46.5z" />
    <glyph glyph-name="uni0474" unicode="&#x474;" horiz-adv-x="729" 
d="M689 717q24 0 35 -1v-78q-10 1 -35 1q-37 0 -62 -20.5t-45 -71.5l-221 -555h-48l-305 713h94l175 -425l59 -147l53 146l113 301q30 80 74.5 108.5t112.5 28.5z" />
    <glyph glyph-name="uni0475" unicode="&#x475;" horiz-adv-x="621" 
d="M570 543q13 0 35 -2v-78q-10 1 -35 1q-37 0 -63.5 -21t-47.5 -71l-162 -379h-46l-243 548h89l177 -418l111 275q37 91 77 118t108 27z" />
    <glyph glyph-name="uni0490" unicode="&#x490;" horiz-adv-x="571" 
d="M476 873h82v-246h-393v-627h-84v705h395v168z" />
    <glyph glyph-name="uni0491" unicode="&#x491;" horiz-adv-x="494" 
d="M397 689h77v-221h-317v-468h-79v541h61v1h258v147z" />
    <glyph glyph-name="uni0492" unicode="&#x492;" horiz-adv-x="590" 
d="M21 362h79v343h477v-78h-393v-265h216v-78h-216v-284h-84v284h-79v78z" />
    <glyph glyph-name="uni0493" unicode="&#x493;" horiz-adv-x="507" 
d="M91 200h-77v74h77v267h61v1h335v-74h-317v-194h215v-74h-215v-200h-79v200z" />
    <glyph glyph-name="uni049A" unicode="&#x49a;" horiz-adv-x="677" 
d="M81 0v705h84v-346l347 346h118l-352 -351l306 -276h86v-77l1 -1h-1v-165h-80v165h-47l-378 340v-340h-84z" />
    <glyph glyph-name="uni049B" unicode="&#x49b;" horiz-adv-x="594" 
d="M78 541h79v-273l288 273h113l-299 -282l220 -185h107v-221h-76v147h-72l-281 240v-240h-79v541z" />
    <glyph glyph-name="uni04A2" unicode="&#x4a2;" horiz-adv-x="771" 
d="M165 0h-84v705h84v-343h399v343h84v-627h117v-243h-80v165h-121v284h-399v-284z" />
    <glyph glyph-name="uni04A3" unicode="&#x4a3;" horiz-adv-x="672" 
d="M157 0h-79v541h79v-256h331v256h79v-467h83v-221h-76v147h-86v211h-331v-211z" />
    <glyph glyph-name="uni04AE" unicode="&#x4ae;" horiz-adv-x="618" 
d="M266 242l-266 463h100l211 -376l210 376h97l-266 -463v-242h-86v242z" />
    <glyph glyph-name="uni04AF" unicode="&#x4af;" horiz-adv-x="583" 
d="M252 -3l-244 544h89l196 -453l193 453h89l-243 -545v-171h-80v172z" />
    <glyph glyph-name="uni04B0" unicode="&#x4b0;" horiz-adv-x="618" 
d="M237 292l-237 413h100l211 -376l210 376h97l-237 -413h145v-78h-174v-214h-86v214h-172v78h143z" />
    <glyph glyph-name="uni04B1" unicode="&#x4b1;" horiz-adv-x="583" 
d="M8 541h89l196 -453l193 453h89l-208 -467h124v-74h-157l-2 -4v-171h-80v172l-1 3h-159v74h125z" />
    <glyph glyph-name="uni04BA" unicode="&#x4ba;" horiz-adv-x="678" 
d="M81 0v705h84v-251q81 31 195 31q63 0 111 -12.5t87 -40t59.5 -77.5t20.5 -121v-234h-84v222q0 103 -49 144t-148 41q-104 0 -192 -28v-379h-84z" />
    <glyph glyph-name="uni04BB" unicode="&#x4bb;" horiz-adv-x="626" 
d="M76 0v754h79v-275q85 72 191 72q101 0 158.5 -52.5t57.5 -181.5v-317h-79v310q0 95 -42 131t-110 36q-96 0 -176 -80v-397h-79z" />
    <glyph glyph-name="uni04D8" unicode="&#x4d8;" horiz-adv-x="804" 
d="M388 717q160 0 264.5 -99.5t104.5 -265.5q0 -160 -99 -262t-262 -102q-151 0 -250 93.5t-99 257.5q0 33 1 42h621q-9 115 -85.5 186.5t-195.5 71.5q-137 0 -238 -131l-68 49q123 160 306 160zM396 66q107 0 181.5 64t89.5 173h-531q10 -108 81 -172.5t179 -64.5z" />
    <glyph glyph-name="uni04D9" unicode="&#x4d9;" horiz-adv-x="630" 
d="M33 273v22h469q-9 84 -65 133t-141 49q-118 0 -185 -81l-57 47q81 108 246 108q129 0 207 -76.5t78 -205.5q0 -127 -76 -203.5t-198 -76.5q-134 0 -206 77.5t-72 206.5zM310 63q74 0 126 43.5t64 119.5h-382q8 -75 56.5 -119t135.5 -44z" />
    <glyph glyph-name="uni04E8" unicode="&#x4e8;" horiz-adv-x="839" 
d="M419 717q162 0 267.5 -99.5t105.5 -265.5q0 -160 -102.5 -262t-270.5 -102q-162 0 -267 99t-105 265q0 161 102 263t270 102zM419 639q-116 0 -195 -70t-89 -188h569q-10 115 -87 186.5t-198 71.5zM419 66q111 0 190 64t93 173h-565q14 -106 91 -171.5t191 -65.5z" />
    <glyph glyph-name="uni04E9" unicode="&#x4e9;" horiz-adv-x="679" 
d="M340 552q131 0 212.5 -77.5t81.5 -202.5q0 -126 -81.5 -204t-212.5 -78t-213 78t-82 204q0 125 82 202.5t213 77.5zM340 477q-82 0 -139 -46t-69 -122h415q-12 76 -68.5 122t-138.5 46zM340 65q82 0 138.5 46.5t68.5 123.5h-415q12 -77 68.5 -123.5t139.5 -46.5z" />
    <glyph glyph-name="uni1E20" unicode="&#x1e20;" horiz-adv-x="760" 
d="M239 775v65h336v-65h-336zM389 360h332v-269q-104 -103 -288 -103q-180 0 -283 97t-103 267q0 169 100.5 267t268.5 98q170 0 279 -101l-54 -59q-90 82 -225 82q-128 0 -205 -77.5t-77 -209.5q0 -133 80 -209t219 -76q128 0 204 63v152h-248v78z" />
    <glyph glyph-name="uni1E80" unicode="&#x1e80;" horiz-adv-x="1051" 
d="M267 -8l-259 713h92l194 -545l210 549h46l209 -550l192 546h92l-257 -713h-46l-214 548l-213 -548h-46zM493 765l-162 147l98 7l132 -154h-68z" />
    <glyph glyph-name="uni1E81" unicode="&#x1e81;" horiz-adv-x="816" 
d="M8 541h86l136 -402l154 406h48l156 -408l137 404h83l-196 -548h-47l-159 407l-156 -407h-45zM388 619l-162 147l98 7l132 -154h-68z" />
    <glyph glyph-name="uni1E82" unicode="&#x1e82;" horiz-adv-x="1051" 
d="M267 -8l-259 713h92l194 -545l210 549h46l209 -550l192 546h92l-257 -713h-46l-214 548l-213 -548h-46zM490 765l132 154l98 -7l-162 -147h-68z" />
    <glyph glyph-name="uni1E83" unicode="&#x1e83;" horiz-adv-x="816" 
d="M205 -7l-197 548h86l136 -402l154 406h48l156 -408l137 404h83l-196 -548h-47l-159 407l-156 -407h-45zM363 620l132 154l98 -7l-162 -147h-68z" />
    <glyph glyph-name="uni1E84" unicode="&#x1e84;" horiz-adv-x="1051" 
d="M8 705h92l194 -545l210 549h46l209 -550l192 546h92l-257 -713h-46l-214 548l-213 -548h-46zM623 758q-26 0 -44 18t-18 43t18 42.5t44 17.5q25 0 42.5 -17.5t17.5 -42.5t-17.5 -43t-42.5 -18zM431 758q-26 0 -44 18t-18 43t18 42.5t44 17.5q25 0 42.5 -17.5t17.5 -42.5
t-17.5 -43t-42.5 -18z" />
    <glyph glyph-name="uni1E85" unicode="&#x1e85;" horiz-adv-x="816" 
d="M8 541h86l136 -402l154 406h48l156 -408l137 404h83l-196 -548h-47l-159 407l-156 -407h-45zM506 615q-26 0 -44 18t-18 43t18 42.5t44 17.5q25 0 42.5 -17.5t17.5 -42.5t-17.5 -43t-42.5 -18zM314 615q-26 0 -44 18t-18 43t18 42.5t44 17.5q25 0 42.5 -17.5t17.5 -42.5
t-17.5 -43t-42.5 -18z" />
    <glyph glyph-name="uni1E9E" unicode="&#x1e9e;" horiz-adv-x="730" 
d="M450 419q119 0 182.5 -59.5t63.5 -144.5q0 -113 -66 -170t-193 -57q-98 0 -174 26l19 81q74 -29 150 -29q176 0 176 144q0 139 -193 139q-52 0 -105 -19l-33 41l214 256h-326v-627h-84v705h534v-48l-199 -240q12 2 34 2z" />
    <glyph glyph-name="uni1EF2" unicode="&#x1ef2;" horiz-adv-x="618" 
d="M266 242l-266 463h100l211 -376l210 376h97l-266 -463v-242h-86v242zM115 912l98 7l132 -154h-68z" />
    <glyph glyph-name="uni1EF3" unicode="&#x1ef3;" horiz-adv-x="566" 
d="M-8 541h90l200 -467l189 467h86l-232 -561q-19 -46 -42.5 -79t-44.5 -50.5t-47.5 -27t-45.5 -12t-44 -2.5q-43 0 -80 11v75q57 -12 83 -12q49 0 80 22.5t56 74.5zM259 619l-162 147l98 7l132 -154h-68z" />
    <glyph glyph-name="uni2002" unicode="&#x2002;" horiz-adv-x="531" 
 />
    <glyph glyph-name="uni2003" unicode="&#x2003;" horiz-adv-x="900" 
 />
    <glyph glyph-name="uni2009" unicode="&#x2009;" horiz-adv-x="30" 
 />
    <glyph glyph-name="uni2013" unicode="&#x2013;" horiz-adv-x="531" 
d="M48 300v69h435v-69h-435z" />
    <glyph glyph-name="uni2014" unicode="&#x2014;" horiz-adv-x="900" 
d="M48 300v69h804v-69h-804z" />
    <glyph glyph-name="uni2018" unicode="&#x2018;" horiz-adv-x="208" 
d="M180 676q-39 -1 -56 -28t-16 -86q21 -2 36 -18.5t15 -38.5q0 -27 -14.5 -42.5t-40.5 -15.5q-64 0 -64 92q0 178 140 178v-41z" />
    <glyph glyph-name="uni2019" unicode="&#x2019;" horiz-adv-x="203" 
d="M108 717q64 0 64 -92q0 -178 -140 -178v41q39 1 56 28t16 86q-21 2 -36 18.5t-15 38.5q0 27 14.5 42.5t40.5 15.5z" />
    <glyph glyph-name="uni201A" unicode="&#x201a;" horiz-adv-x="204" 
d="M98 110q64 0 64 -92q0 -178 -140 -178v41q39 1 56 28t16 86q-21 2 -36 18.5t-15 38.5q0 27 14.5 42.5t40.5 15.5z" />
    <glyph glyph-name="uni201C" unicode="&#x201c;" horiz-adv-x="385" 
d="M40 539q0 178 140 178v-41q-39 -1 -56 -28t-16 -86q21 -2 36 -18.5t15 -38.5q0 -27 -14.5 -42.5t-40.5 -15.5q-64 0 -64 92zM357 676q-39 -1 -56 -28t-16 -86q21 -2 36 -18.5t15 -38.5q0 -27 -14.5 -42.5t-40.5 -15.5q-64 0 -64 92q0 178 140 178v-41z" />
    <glyph glyph-name="uni201D" unicode="&#x201d;" horiz-adv-x="380" 
d="M108 717q64 0 64 -92q0 -178 -140 -178v41q39 1 56 28t16 86q-21 2 -36 18.5t-15 38.5q0 27 14.5 42.5t40.5 15.5zM285 717q64 0 64 -92q0 -178 -140 -178v41q39 1 56 28t16 86q-21 2 -36 18.5t-15 38.5q0 27 14.5 42.5t40.5 15.5z" />
    <glyph glyph-name="uni201E" unicode="&#x201e;" horiz-adv-x="381" 
d="M98 110q64 0 64 -92q0 -178 -140 -178v41q39 1 56 28t16 86q-21 2 -36 18.5t-15 38.5q0 27 14.5 42.5t40.5 15.5zM275 110q64 0 64 -92q0 -178 -140 -178v41q39 1 56 28t16 86q-21 2 -36 18.5t-15 38.5q0 27 14.5 42.5t40.5 15.5z" />
    <glyph glyph-name="uni2020" unicode="&#x2020;" horiz-adv-x="351" 
d="M123 531l-108 -5v68l108 -5h23l-3 110h67l-4 -110h21l109 5v-68l-109 5h-22v-121l5 -147h-67l5 147l-1 121h-24z" />
    <glyph glyph-name="uni2021" unicode="&#x2021;" horiz-adv-x="351" 
d="M15 594l108 -5h23l-3 110h67l-4 -110h21l109 5v-68l-109 5h-22v-80l3 -100l-4 -103l1 -82h21l110 5v-67l-110 5h-21l4 -109h-66l4 109h-22l-110 -6v68l109 -5h23v82l-3 103l3 100v80h-24l-108 -5v68z" />
    <glyph glyph-name="uni2022" unicode="&#x2022;" horiz-adv-x="373" 
d="M187 220q-47 0 -80 33t-33 80t33 79.5t80 32.5t79.5 -32.5t32.5 -79.5t-32.5 -80t-79.5 -33z" />
    <glyph glyph-name="uni2026" unicode="&#x2026;" horiz-adv-x="626" 
d="M105 -12q-26 0 -44 18t-18 43t18 42.5t44 17.5q25 0 42.5 -17.5t17.5 -42.5t-17.5 -43t-42.5 -18zM312 -12q-26 0 -44 18t-18 43t18 42.5t44 17.5q25 0 42.5 -17.5t17.5 -42.5t-17.5 -43t-42.5 -18zM523 -12q-26 0 -44 18t-18 43t18 42.5t44 17.5q25 0 42.5 -17.5
t17.5 -42.5t-17.5 -43t-42.5 -18z" />
    <glyph glyph-name="uni2030" unicode="&#x2030;" horiz-adv-x="1388" 
d="M204 0l486 705h83l-486 -705h-83zM217 273q-89 0 -141 58.5t-52 159.5q0 102 52 160.5t141 58.5q88 0 140 -58.5t52 -160.5q0 -101 -52 -159.5t-140 -58.5zM217 333q55 0 88 42t33 116t-33 116.5t-88 42.5q-57 0 -90 -42.5t-33 -116.5q0 -73 33.5 -115.5t89.5 -42.5z
M752 -7q-89 0 -141 58.5t-52 159.5q0 102 52 160.5t141 58.5q88 0 140 -58.5t52 -160.5q0 -101 -52 -159.5t-140 -58.5zM752 53q55 0 88 42t33 116t-33 116.5t-88 42.5q-57 0 -90 -42.5t-33 -116.5q0 -73 33.5 -115.5t89.5 -42.5zM1172 -7q-89 0 -141 58.5t-52 159.5
q0 102 52 160.5t141 58.5q88 0 140 -58.5t52 -160.5q0 -101 -52 -159.5t-140 -58.5zM1172 53q55 0 88 42t33 116t-33 116.5t-88 42.5q-57 0 -90 -42.5t-33 -116.5q0 -73 33.5 -115.5t89.5 -42.5z" />
    <glyph glyph-name="uni2039" unicode="&#x2039;" horiz-adv-x="311" 
d="M206 9l-174 257l174 257l57 -42l-150 -215l150 -214z" />
    <glyph glyph-name="uni203A" unicode="&#x203a;" horiz-adv-x="311" 
d="M105 9l-57 43l150 214l-150 215l57 42l174 -257z" />
    <glyph glyph-name="uni2044" unicode="&#x2044;" horiz-adv-x="211" 
d="M-184 0l486 705h83l-486 -705h-83z" />
    <glyph glyph-name="uni2070" unicode="&#x2070;" horiz-adv-x="437" 
d="M219 273q-89 0 -141 58.5t-52 159.5q0 102 52 160.5t141 58.5q88 0 140 -58.5t52 -160.5q0 -101 -52 -159.5t-140 -58.5zM219 333q55 0 88 42t33 116t-33 116.5t-88 42.5q-57 0 -90 -42.5t-33 -116.5q0 -73 33.5 -115.5t89.5 -42.5z" />
    <glyph glyph-name="uni2074" unicode="&#x2074;" horiz-adv-x="395" 
d="M14 361v36l250 309h49v-288h67v-57h-67v-81h-64v81h-235zM99 415h152v192z" />
    <glyph glyph-name="uni2075" unicode="&#x2075;" horiz-adv-x="371" 
d="M199 564q67 0 110.5 -39.5t43.5 -107.5q0 -74 -47.5 -109t-119.5 -35q-73 0 -118.5 36.5t-45.5 94.5v8h63v-5q0 -32 28.5 -53t71.5 -21t71.5 22.5t28.5 64.5q0 46 -28 69t-71 23q-60 0 -92 -33h-56l14 226h280v-60h-223l-7 -106q36 25 97 25z" />
    <glyph glyph-name="uni2076" unicode="&#x2076;" horiz-adv-x="406" 
d="M234 558q69 0 111 -35.5t42 -101.5q0 -70 -45 -109t-123 -39q-89 0 -138 56t-49 155q0 111 47.5 169.5t135.5 58.5q70 0 115 -33t45 -81v-6h-67q-2 30 -27 46t-65 16q-56 0 -86 -40t-30 -108v-14q44 66 134 66zM218 331q47 0 73 25t26 64t-28.5 63t-71.5 24
q-37 0 -68 -20t-43 -57q7 -46 37.5 -72.5t74.5 -26.5z" />
    <glyph glyph-name="uni2077" unicode="&#x2077;" horiz-adv-x="347" 
d="M18 705h316v-33l-201 -392h-78l191 365h-228v60z" />
    <glyph glyph-name="uni2078" unicode="&#x2078;" horiz-adv-x="415" 
d="M301 506q36 -11 59.5 -39.5t23.5 -66.5q0 -61 -47.5 -94t-128.5 -33q-82 0 -129.5 33t-47.5 94q0 37 23 66t60 41q-62 27 -62 94q0 54 43.5 82.5t112.5 28.5t112 -28.5t43 -82.5q0 -31 -17 -56.5t-45 -38.5zM208 655q-40 0 -65.5 -16.5t-25.5 -48.5q0 -28 25 -44.5
t66 -16.5t65.5 16.5t24.5 44.5q0 32 -25 48.5t-65 16.5zM208 333q48 0 76.5 19.5t28.5 53.5q0 36 -28.5 56t-76.5 20t-76.5 -20.5t-28.5 -55.5q0 -34 28.5 -53.5t76.5 -19.5z" />
    <glyph glyph-name="uni2079" unicode="&#x2079;" horiz-adv-x="396" 
d="M189 712q87 0 135 -55.5t48 -155.5q0 -111 -48.5 -169.5t-134.5 -58.5q-73 0 -116.5 32t-43.5 80v9h66q5 -63 93 -63q56 0 85.5 40t29.5 108v12q-45 -64 -133 -64q-70 0 -111.5 35.5t-41.5 101.5q0 70 45.5 109t126.5 39zM190 478q38 0 67.5 20.5t40.5 56.5q-7 47 -37 73
t-73 26q-48 0 -74.5 -24.5t-26.5 -64.5q0 -39 29 -63t74 -24z" />
    <glyph glyph-name="uni2080" unicode="&#x2080;" horiz-adv-x="437" 
d="M219 -107q-89 0 -141 58.5t-52 159.5q0 102 52 160.5t141 58.5q88 0 140 -58.5t52 -160.5q0 -101 -52 -159.5t-140 -58.5zM219 -47q55 0 88 42t33 116t-33 116.5t-88 42.5q-57 0 -90 -42.5t-33 -116.5q0 -73 33.5 -115.5t89.5 -42.5z" />
    <glyph glyph-name="uni2081" unicode="&#x2081;" horiz-adv-x="249" 
d="M123 -100v355l-94 -35l-21 54l136 51h43v-425h-64z" />
    <glyph glyph-name="uni2082" unicode="&#x2082;" horiz-adv-x="369" 
d="M22 -69q2 50 30 80t104 76q65 39 88 60.5t23 55.5q0 32 -23.5 49.5t-60.5 17.5q-43 0 -69 -23.5t-26 -63.5v-13h-66v16q0 66 43.5 105t118.5 39q67 0 111 -31.5t44 -89.5q0 -37 -17 -66t-42 -48t-74 -48q-7 -4 -24 -13.5t-23 -13.5t-18 -11.5t-17.5 -12t-13 -11
t-12 -12.5t-7.5 -13h252v-60h-321v31z" />
    <glyph glyph-name="uni2083" unicode="&#x2083;" horiz-adv-x="371" 
d="M206 165q69 0 105.5 -37.5t36.5 -93.5q0 -68 -45 -103.5t-119 -35.5q-75 0 -119.5 35t-44.5 94v7h66v-4q0 -32 26.5 -52t69.5 -20t69.5 22t26.5 60q0 37 -25 58t-69 21q-30 0 -63 -13l-27 33l135 129h-190v60h294v-34l-136 -126h9z" />
    <glyph glyph-name="uni2084" unicode="&#x2084;" horiz-adv-x="395" 
d="M14 -19v36l250 309h49v-288h67v-57h-67v-81h-64v81h-235zM99 35h152v192z" />
    <glyph glyph-name="uni2085" unicode="&#x2085;" horiz-adv-x="371" 
d="M199 184q67 0 110.5 -39.5t43.5 -107.5q0 -74 -47.5 -109t-119.5 -35q-73 0 -118.5 36.5t-45.5 94.5v8h63v-5q0 -32 28.5 -53t71.5 -21t71.5 22.5t28.5 64.5q0 46 -28 69t-71 23q-60 0 -92 -33h-56l14 226h280v-60h-223l-7 -106q36 25 97 25z" />
    <glyph glyph-name="uni2086" unicode="&#x2086;" horiz-adv-x="406" 
d="M234 178q69 0 111 -35.5t42 -101.5q0 -70 -45 -109t-123 -39q-89 0 -138 56t-49 155q0 111 47.5 169.5t135.5 58.5q70 0 115 -33t45 -81v-6h-67q-2 30 -27 46t-65 16q-56 0 -86 -40t-30 -108v-14q44 66 134 66zM218 -49q47 0 73 25t26 64t-28.5 63t-71.5 24
q-37 0 -68 -20t-43 -57q7 -46 37.5 -72.5t74.5 -26.5z" />
    <glyph glyph-name="uni2087" unicode="&#x2087;" horiz-adv-x="347" 
d="M18 325h316v-33l-201 -392h-78l191 365h-228v60z" />
    <glyph glyph-name="uni2088" unicode="&#x2088;" horiz-adv-x="415" 
d="M301 126q36 -11 59.5 -39.5t23.5 -66.5q0 -61 -47.5 -94t-128.5 -33q-82 0 -129.5 33t-47.5 94q0 37 23 66t60 41q-62 27 -62 94q0 54 43.5 82.5t112.5 28.5t112 -28.5t43 -82.5q0 -31 -17 -56.5t-45 -38.5zM208 275q-40 0 -65.5 -16.5t-25.5 -48.5q0 -28 25 -44.5
t66 -16.5t65.5 16.5t24.5 44.5q0 32 -25 48.5t-65 16.5zM208 -47q48 0 76.5 19.5t28.5 53.5q0 36 -28.5 56t-76.5 20t-76.5 -20.5t-28.5 -55.5q0 -34 28.5 -53.5t76.5 -19.5z" />
    <glyph glyph-name="uni2089" unicode="&#x2089;" horiz-adv-x="396" 
d="M189 332q87 0 135 -55.5t48 -155.5q0 -111 -48.5 -169.5t-134.5 -58.5q-73 0 -116.5 32t-43.5 80v9h66q5 -63 93 -63q56 0 85.5 40t29.5 108v12q-45 -64 -133 -64q-70 0 -111.5 35.5t-41.5 101.5q0 70 45.5 109t126.5 39zM190 98q38 0 67.5 20.5t40.5 56.5q-7 47 -37 73
t-73 26q-48 0 -74.5 -24.5t-26.5 -64.5q0 -39 29 -63t74 -24z" />
    <glyph glyph-name="uni20A4" unicode="&#x20a4;" horiz-adv-x="642" 
d="M52 429h69q1 284 249 284q112 0 177 -62t65 -170v-24h-80v22q0 75 -44.5 116t-108.5 41q-171 0 -174 -207h288v-66h-285q3 -39 9 -78h276v-66h-264q19 -108 19 -145h361v-74h-556v50l111 19q2 37 -18 140q0 1 -1 5t-1 5h-92v66h81q-6 36 -9 78h-72v66z" />
    <glyph glyph-name="uni20AC" unicode="&#x20ac;" horiz-adv-x="704" 
d="M38 314h63q-1 12 -1 38q0 27 1 40h-63v66h73q27 121 112 190t210 69q82 0 150 -36.5t108 -98.5l-63 -52q-80 110 -195 110q-91 0 -152.5 -47.5t-84.5 -134.5h278v-66h-289q-2 -26 -2 -40t2 -38h289v-66h-278q23 -87 84.5 -135t152.5 -48q114 0 192 104l66 -47
q-39 -62 -107.5 -98t-150.5 -36q-125 0 -210.5 69.5t-111.5 190.5h-73v66z" />
    <glyph glyph-name="uni20B4" unicode="&#x20b4;" horiz-adv-x="609" 
d="M16 392v66h417q34 30 34 76q0 53 -41.5 81.5t-115.5 28.5q-120 0 -206 -60l-35 68q99 65 246 65q109 0 173 -49.5t64 -132.5q0 -44 -24 -77h64v-66h-132q-59 -40 -182 -78h314v-66h-431q-26 -26 -26 -70q0 -59 42.5 -88t114.5 -29q73 0 122.5 16t102.5 56l43 -72
q-59 -40 -120.5 -56.5t-151.5 -16.5q-107 0 -173 48t-66 136q0 42 18 76h-51v66h120q81 47 186 78h-306z" />
    <glyph glyph-name="uni20B8" unicode="&#x20b8;" horiz-adv-x="614" 
d="M32 561h550v-78h-232v-483h-86v483h-232v78zM32 639v66h550v-66h-550z" />
    <glyph glyph-name="uni20BD" unicode="&#x20bd;" horiz-adv-x="640" 
d="M51 253v71h88v381h228q121 0 183.5 -56.5t62.5 -166.5q0 -229 -271 -229h-117v-78h255v-66h-255v-109h-86v109h-88v66h88v78h-88zM225 627v-303h113q187 0 187 154q0 149 -168 149h-132z" />
    <glyph glyph-name="uni2117" unicode="&#x2117;" horiz-adv-x="789" 
d="M34 355q0 157 102.5 259.5t259.5 102.5q155 0 256 -102.5t101 -259.5t-101.5 -259.5t-257.5 -102.5t-258 102.5t-102 259.5zM96 354q0 -131 84 -217.5t214 -86.5q129 0 213 86.5t84 218.5q0 131 -84 217.5t-211 86.5q-130 0 -215 -86.5t-85 -218.5zM252 562h174
q72 0 111 -37t39 -106q0 -73 -44.5 -107t-118.5 -34h-88v-124h-73v408zM325 499v-159h79q44 0 67.5 21.5t23.5 57.5q0 37 -22.5 58.5t-63.5 21.5h-84z" />
    <glyph glyph-name="uni2122" unicode="&#x2122;" horiz-adv-x="688" 
d="M327 393v313h36l129 -213l130 213h35v-313h-49v206l-100 -161h-32l-100 161v-206h-49zM8 706h271v-44h-109v-269h-51v269h-111v44z" />
    <glyph glyph-name="uni2126" unicode="&#x2126;" horiz-adv-x="838" 
d="M227 78q-72 41 -123 117.5t-51 179.5q0 162 103.5 252t262.5 90t262.5 -90t103.5 -252q0 -103 -50.5 -179.5t-122.5 -117.5h167v-78h-315v61q232 115 232 316q0 116 -79 188t-198 72t-198 -72t-79 -188q0 -201 232 -316v-61h-311v78h164z" />
    <glyph glyph-name="uni2202" unicode="&#x2202;" horiz-adv-x="653" 
d="M292 716q152 0 234 -95.5t82 -273.5q0 -181 -78 -270t-220 -89q-114 0 -189.5 65.5t-75.5 176.5q0 116 71 174.5t172 58.5q83 0 144.5 -29t92.5 -76q-1 134 -64.5 209t-172.5 75q-46 0 -95 -13t-76 -30l-36 65q84 52 211 52zM310 64q94 0 147.5 55t57.5 137
q-21 53 -77.5 92.5t-143.5 39.5q-72 0 -118.5 -39t-46.5 -119q0 -76 47 -121t134 -45z" />
    <glyph glyph-name="uni2206" unicode="&#x2206;" horiz-adv-x="699" 
d="M374 712l305 -665v-47h-659v47l304 665h50zM348 581l-224 -503h447z" />
    <glyph glyph-name="uni220F" unicode="&#x220f;" horiz-adv-x="728" 
d="M81 705h566v-865h-84v787h-398v-787h-84v865z" />
    <glyph glyph-name="uni2211" unicode="&#x2211;" horiz-adv-x="621" 
d="M144 -81h447v-79h-566v48l248 384l-243 385v48h558v-79h-441l215 -338v-32z" />
    <glyph glyph-name="uni2212" unicode="&#x2212;" horiz-adv-x="520" 
d="M49 298v69h422v-69h-422z" />
    <glyph glyph-name="uni221A" unicode="&#x221a;" horiz-adv-x="643" 
d="M610 915h78l-265 -921h-51l-234 642h-139v69h203l194 -550z" />
    <glyph glyph-name="uni221E" unicode="&#x221e;" horiz-adv-x="825" 
d="M209 143q-76 0 -124.5 50.5t-48.5 139.5q0 92 49 140.5t124 48.5q111 0 198 -125q87 125 198 125q75 0 124 -48.5t49 -140.5q0 -89 -48.5 -139.5t-124.5 -50.5q-111 0 -198 125q-87 -125 -198 -125zM211 212q86 0 153 121q-68 121 -153 121q-46 0 -74 -30t-28 -91t28 -91
t74 -30zM603 212q46 0 74 30t28 91t-28 91t-74 30q-85 0 -153 -121q67 -121 153 -121z" />
    <glyph glyph-name="uni222B" unicode="&#x222b;" horiz-adv-x="369" 
d="M71 -187q-45 0 -61 7v70q21 -6 43 -6q57 0 73.5 25.5t16.5 88.5v645q0 185 160 185q53 0 100 -15v-70q-45 14 -88 14q-51 0 -72 -26.5t-21 -91.5v-683q0 -143 -151 -143z" />
    <glyph glyph-name="uni2248" unicode="&#x2248;" horiz-adv-x="630" 
d="M436 373q-38 0 -106 27q-72 28 -115 28q-67 0 -127 -44l-24 63q23 18 62.5 35.5t83.5 17.5q50 0 118 -28q66 -26 103 -26q57 0 111 52l24 -66q-63 -59 -130 -59zM436 154q-38 0 -107 27q-70 28 -114 28q-68 0 -127 -43l-24 61q68 54 146 54q47 0 117 -28q66 -27 104 -27
q54 0 111 53l24 -65q-60 -60 -130 -60z" />
    <glyph glyph-name="uni2260" unicode="&#x2260;" horiz-adv-x="596" 
d="M149 181h-85v69h134l119 167h-253v69h302l83 117h76l-83 -117h90v-69h-139l-119 -167h258v-69h-307l-85 -119h-76z" />
    <glyph glyph-name="uni2264" unicode="&#x2264;" horiz-adv-x="595" 
d="M66 419l484 237v-78l-373 -180l373 -179v-78l-484 237v41zM64 0v69h486v-69h-486z" />
    <glyph glyph-name="uni2265" unicode="&#x2265;" horiz-adv-x="595" 
d="M45 219l373 179l-373 180v78l484 -237v-41l-484 -237v78zM45 69h486v-69h-486v69z" />
    <glyph glyph-name="uni25CA" unicode="&#x25ca;" horiz-adv-x="474" 
d="M216 -3l-182 354l182 355h41l183 -355l-183 -354h-41zM236 115l112 239l-112 233l-111 -233z" />
    <glyph glyph-name="NULL" 
 />
    <glyph glyph-name="uni00A40301" horiz-adv-x="600" 
d="M416 765l132 154l98 -7l-162 -147h-68zM282 -12q-115 0 -186 65t-75 192h84q4 -93 52 -136t124 -43q167 0 167 216v423h86v-425q0 -151 -62 -221.5t-190 -70.5z" />
    <glyph glyph-name="uni1E9E.calt" horiz-adv-x="730" 
d="M450 419q119 0 182.5 -59.5t63.5 -144.5q0 -113 -66 -170t-193 -57q-98 0 -174 26l19 81q74 -29 150 -29q176 0 176 144q0 139 -193 139q-52 0 -105 -19l-33 41l214 256h-326v-627h-84v705h534v-48l-199 -240q12 2 34 2z" />
    <glyph glyph-name="IJ.dutch" horiz-adv-x="649" 
d="M331 -12q-254 0 -261 237h85q4 -91 49.5 -125t125.5 -34q167 0 167 216v423h86v-425q0 -151 -62 -221.5t-190 -70.5zM70 310v395h86v-395h-86z" />
    <glyph glyph-name="K.ss04" horiz-adv-x="682" 
d="M81 705h84v-346l347 346h118l-352 -351l393 -354h-128l-378 340v-340h-84v705z" />
    <glyph glyph-name="uni0136.ss04" horiz-adv-x="682" 
d="M165 0h-84v705h84v-346l347 346h118l-352 -351l393 -354h-128l-378 340v-340zM260 -240v36q6 -1 18 -1q24 0 40.5 17t18.5 43q-18 2 -30 15t-12 30q0 21 13 33t35 12q25 0 39.5 -16.5t14.5 -45.5q0 -50 -29.5 -87t-90.5 -37q-11 0 -17 1z" />
    <glyph glyph-name="i.loclTRK" horiz-adv-x="238" 
d="M121 615q-26 0 -44 18t-18 43t18 42.5t44 17.5q25 0 42.5 -17.5t17.5 -42.5t-17.5 -43t-42.5 -18zM78 0v541h82v-541h-82z" />
    <glyph glyph-name="uni006A0301" horiz-adv-x="245" 
d="M85 620l132 154l98 -7l-162 -147h-68zM16 -187q-45 0 -61 7v70q21 -6 43 -6q57 0 73.5 25.5t16.5 88.5v543h79v-585q0 -143 -151 -143z" />
    <glyph glyph-name="k.ss04" horiz-adv-x="587" 
d="M78 0v754h79v-486l288 273h113l-299 -282l308 -259h-129l-281 240v-240h-79z" />
    <glyph glyph-name="uni0137.ss04" horiz-adv-x="587" 
d="M157 0h-79v754h79v-486l288 273h113l-299 -282l308 -259h-129l-281 240v-240zM229 -240v36q6 -1 18 -1q24 0 40.5 17t18.5 43q-18 2 -30 15t-12 30q0 21 13 33t35 12q25 0 39.5 -16.5t14.5 -45.5q0 -50 -29.5 -87t-90.5 -37q-11 0 -17 1z" />
    <glyph glyph-name="kgreenlandic.ss04" horiz-adv-x="587" 
d="M78 541h79v-274l288 274h113l-299 -282l308 -259h-129l-281 240v-240h-79v541z" />
    <glyph glyph-name="uni0414.loclBGR" horiz-adv-x="823" 
d="M110 -165h-80v243h68l279 634h50l280 -634h79v-243h-80v165h-596v-165zM190 78h424l-213 500z" />
    <glyph glyph-name="uni041B.loclBGR" horiz-adv-x="704" 
d="M10 0l316 712h50l318 -712h-96l-248 576l-246 -576h-94z" />
    <glyph glyph-name="uni0457.calt1" horiz-adv-x="238" 
d="M35 615q-26 0 -44 18t-18 43t18 42.5t44 17.5q25 0 42.5 -17.5t17.5 -42.5t-17.5 -43t-42.5 -18zM78 0v541h82v-541h-82z" />
    <glyph glyph-name="uni0457.calt2" horiz-adv-x="238" 
d="M1 615q-26 0 -44 18t-18 43t18 42.5t44 17.5q25 0 42.5 -17.5t17.5 -42.5t-17.5 -43t-42.5 -18zM207 615q-26 0 -44 18t-18 43t18 42.5t44 17.5q25 0 42.5 -17.5t17.5 -42.5t-17.5 -43t-42.5 -18zM78 0v541h82v-541h-82z" />
    <glyph glyph-name="uni0432.loclBGR" horiz-adv-x="641" 
d="M462 410q66 -19 100 -72.5t34 -122.5q0 -112 -75.5 -169.5t-186.5 -57.5q-134 0 -209 74.5t-75 208.5v188q0 150 72.5 228.5t194.5 78.5q103 0 174 -52t71 -141q0 -57 -26.5 -101t-73.5 -62zM318 691q-87 0 -137 -61.5t-51 -186.5h178q24 0 39.5 1t43 7t44 17.5t30 36
t13.5 58.5q0 60 -47 94t-113 34zM334 63q76 0 126.5 37.5t50.5 116.5q0 70 -48 112t-149 42h-184v-82q0 -111 52.5 -168.5t151.5 -57.5z" />
    <glyph glyph-name="uni0433.loclBGR" horiz-adv-x="531" 
d="M258 -11q-218 0 -218 146q0 73 46 108t159 69q77 24 110 44t33 55q0 66 -109 66q-99 0 -180 -49l-37 65q100 58 214 58q92 0 145 -35t53 -108q0 -65 -45.5 -98t-157.5 -68q-76 -23 -109.5 -45.5t-33.5 -61.5q0 -31 32.5 -51.5t95.5 -20.5q107 0 189 61l43 -65
q-92 -70 -230 -70z" />
    <glyph glyph-name="uni0434.loclBGR" horiz-adv-x="654" 
d="M45 288q0 118 73.5 191t192.5 73q122 0 192 -71v60h79v-489q0 -127 -64.5 -185t-204.5 -58q-121 0 -224 46v86q54 -29 102 -43t116 -14q96 0 146 38.5t50 127.5v40q-65 -73 -187 -73q-123 0 -197 74.5t-74 196.5zM320 477q-84 0 -138 -52.5t-54 -136.5q0 -88 54 -142
t141 -54q53 0 102.5 23t77.5 70v201q-30 43 -81 67t-102 24z" />
    <glyph glyph-name="uni0436.loclBGR" horiz-adv-x="876" 
d="M10 0l288 257l-278 284h112l267 -272v485h78v-487l271 274h108l-278 -283l288 -258h-121l-268 242v-242h-78v243l-274 -243h-115z" />
    <glyph glyph-name="uni0437.loclBGR" horiz-adv-x="549" 
d="M391 203q68 -17 101 -65.5t33 -116.5q0 -104 -70.5 -158t-202.5 -54t-223 53v86q102 -64 222 -64q90 0 139.5 35.5t49.5 102.5q0 143 -220 143h-81v71h66q44 0 75 3.5t63.5 15t50 36.5t17.5 64q0 65 -40 94t-104 29q-99 0 -194 -58l-35 68q110 65 228 65q101 0 165 -47
t64 -141q0 -58 -27.5 -101t-76.5 -61z" />
    <glyph glyph-name="uni0438.loclBGR" horiz-adv-x="627" 
d="M70 541h79v-310q0 -167 150 -167q96 0 171 86v391h79v-541h-79v68q-78 -78 -187 -78q-99 0 -156 52.5t-57 181.5v317z" />
    <glyph glyph-name="uni0439.loclBGR" horiz-adv-x="627" 
d="M70 224v317h79v-310q0 -167 150 -167q96 0 171 86v391h79v-541h-79v68q-78 -78 -187 -78q-99 0 -156 52.5t-57 181.5zM153 758h62q12 -76 96 -76t95 76h63q-12 -138 -158 -138q-147 0 -158 138z" />
    <glyph glyph-name="uni045D.loclBGR" horiz-adv-x="627" 
d="M70 224v317h79v-310q0 -167 150 -167q96 0 171 86v391h79v-541h-79v68q-78 -78 -187 -78q-99 0 -156 52.5t-57 181.5zM289 619l-162 147l98 7l132 -154h-68z" />
    <glyph glyph-name="uni043A.loclBGR" horiz-adv-x="587" 
d="M78 0v754h79v-487l288 274h113l-299 -282l308 -259h-129l-281 240v-240h-79z" />
    <glyph glyph-name="uni043B.loclBGR" horiz-adv-x="607" 
d="M108 0h-88l260 549h46l261 -549h-90l-126 272l-68 154l-70 -156z" />
    <glyph glyph-name="uni043F.loclBGR" horiz-adv-x="628" 
d="M78 0v541h79v-62q85 72 191 72q101 0 158.5 -52.5t57.5 -181.5v-317h-79v310q0 95 -42 131t-110 36q-96 0 -176 -80v-397h-79z" />
    <glyph glyph-name="uni0442.loclBGR" horiz-adv-x="981" 
d="M78 541h79v-62q82 73 188 73q114 0 157 -76q84 76 206 76q209 0 209 -242v-310h-79v298q0 103 -41.5 141.5t-107.5 38.5q-91 0 -163 -70q9 -41 9 -97v-311h-79v313q0 165 -131 165q-91 0 -168 -79v-399h-79v541z" />
    <glyph glyph-name="uni0446.loclBGR" horiz-adv-x="654" 
d="M65 224v317h79v-310q0 -167 150 -167q96 0 171 86v391h79v-401q0 -39 12.5 -52.5t46.5 -13.5h29v-221h-76v147q-28 0 -54 18.5t-35 50.5q-77 -79 -189 -79q-99 0 -156 52.5t-57 181.5z" />
    <glyph glyph-name="uni0448.loclBGR" horiz-adv-x="978" 
d="M267 -10q-97 0 -147 55.5t-50 178.5v317h79v-310q0 -94 38 -130.5t93 -36.5q56 0 101 28.5t70 67.5q-5 32 -5 64v317h79v-310q0 -167 133 -167q51 0 94.5 25.5t68.5 61.5v390h79v-541h-79v69q-70 -79 -178 -79q-121 0 -169 95q-32 -40 -88 -67.5t-119 -27.5z" />
    <glyph glyph-name="uni0449.loclBGR" horiz-adv-x="1010" 
d="M267 -10q-97 0 -147 55.5t-50 178.5v317h79v-310q0 -94 38 -130.5t93 -36.5q56 0 101 28.5t70 67.5q-5 32 -5 64v317h79v-310q0 -167 133 -167q51 0 94.5 25.5t68.5 61.5v390h79v-401q0 -39 12.5 -52.5t46.5 -13.5h29v-221h-76v147q-28 0 -54 18.5t-35 50.5
q-77 -79 -180 -79q-121 0 -169 95q-32 -40 -88 -67.5t-119 -27.5z" />
    <glyph glyph-name="uni044C.loclBGR" horiz-adv-x="577" 
d="M312 -12q-113 0 -177.5 64t-64.5 189v300h79v-173q68 68 171 68q99 0 163 -61t64 -164t-66 -163t-169 -60zM149 278v-18q0 -197 163 -197q69 0 110 37.5t41 110.5t-39 111.5t-104 38.5q-106 0 -171 -83z" />
    <glyph glyph-name="uni044A.loclBGR" horiz-adv-x="690" 
d="M21 541h241v-173q68 68 171 68q99 0 163 -61t64 -164t-66 -163t-169 -60q-113 0 -177.5 64t-64.5 189v226h-162v74zM262 278v-18q0 -197 163 -197q69 0 110 37.5t41 110.5t-39 111.5t-104 38.5q-106 0 -171 -83z" />
    <glyph glyph-name="uni044E.loclBGR" horiz-adv-x="918" 
d="M76 0v754h79v-469h137q4 120 85 193.5t207 73.5q129 0 210.5 -77.5t81.5 -202.5q0 -126 -81 -204t-211 -78q-112 0 -189.5 60t-96.5 161h-143v-211h-79zM376 272q0 -92 58.5 -149.5t149.5 -57.5t149 57.5t58 149.5q0 91 -58 148t-149 57t-149.5 -57t-58.5 -148z" />
    <glyph glyph-name="uni0431.loclSRB" horiz-adv-x="677" 
d="M390 523q107 -33 174.5 -100.5t67.5 -170.5q0 -115 -81 -188.5t-213 -73.5q-131 0 -212 74.5t-81 192.5q0 101 53.5 165.5t146.5 78.5q-120 38 -120 138q0 115 158 115h91q105 0 204 19l4 -76q-88 -17 -200 -17h-100q-71 0 -71 -50q0 -27 34.5 -50t144.5 -57zM338 65
q93 0 151.5 53.5t58.5 135.5q0 128 -166 189q-28 2 -42 2q-95 0 -153 -49.5t-58 -138.5q0 -84 58.5 -138t150.5 -54z" />
    <glyph glyph-name="Kappa.ss04" horiz-adv-x="682" 
d="M81 705h84v-346l347 346h118l-352 -351l393 -354h-128l-378 340v-340h-84v705z" />
    <glyph glyph-name="kappa.ss04" horiz-adv-x="587" 
d="M78 541h79v-273l288 273h113l-299 -282l308 -259h-129l-281 240v-240h-79v541z" />
    <glyph glyph-name="zero.dnom" horiz-adv-x="437" 
d="M219 -7q-89 0 -141 58.5t-52 159.5q0 102 52 160.5t141 58.5q88 0 140 -58.5t52 -160.5q0 -101 -52 -159.5t-140 -58.5zM219 53q55 0 88 42t33 116t-33 116.5t-88 42.5q-57 0 -90 -42.5t-33 -116.5q0 -73 33.5 -115.5t89.5 -42.5z" />
    <glyph glyph-name="one.dnom" horiz-adv-x="249" 
d="M123 0v355l-94 -35l-21 54l136 51h43v-425h-64z" />
    <glyph glyph-name="two.dnom" horiz-adv-x="369" 
d="M22 31q2 50 30 80t104 76q65 39 88 60.5t23 55.5q0 32 -23.5 49.5t-60.5 17.5q-43 0 -69 -23.5t-26 -63.5v-13h-66v16q0 66 43.5 105t118.5 39q67 0 111 -31.5t44 -89.5q0 -37 -17 -66t-42 -48t-74 -48q-7 -4 -24 -13.5t-23 -13.5t-18 -11.5t-17.5 -12t-13 -11t-12 -12.5
t-7.5 -13h252v-60h-321v31z" />
    <glyph glyph-name="three.dnom" horiz-adv-x="371" 
d="M206 265q69 0 105.5 -37.5t36.5 -93.5q0 -68 -45 -103.5t-119 -35.5q-75 0 -119.5 35t-44.5 94v7h66v-4q0 -32 26.5 -52t69.5 -20t69.5 22t26.5 60q0 37 -25 58t-69 21q-30 0 -63 -13l-27 33l135 129h-190v60h294v-34l-136 -126h9z" />
    <glyph glyph-name="four.dnom" horiz-adv-x="395" 
d="M14 81v36l250 309h49v-288h67v-57h-67v-81h-64v81h-235zM99 135h152v192z" />
    <glyph glyph-name="five.dnom" horiz-adv-x="371" 
d="M199 284q67 0 110.5 -39.5t43.5 -107.5q0 -74 -47.5 -109t-119.5 -35q-73 0 -118.5 36.5t-45.5 94.5v8h63v-5q0 -32 28.5 -53t71.5 -21t71.5 22.5t28.5 64.5q0 46 -28 69t-71 23q-60 0 -92 -33h-56l14 226h280v-60h-223l-7 -106q36 25 97 25z" />
    <glyph glyph-name="six.dnom" horiz-adv-x="406" 
d="M234 278q69 0 111 -35.5t42 -101.5q0 -70 -45 -109t-123 -39q-89 0 -138 56t-49 155q0 111 47.5 169.5t135.5 58.5q70 0 115 -33t45 -81v-6h-67q-2 30 -27 46t-65 16q-56 0 -86 -40t-30 -108v-14q44 66 134 66zM218 51q47 0 73 25t26 64t-28.5 63t-71.5 24q-37 0 -68 -20
t-43 -57q7 -46 37.5 -72.5t74.5 -26.5z" />
    <glyph glyph-name="seven.dnom" horiz-adv-x="347" 
d="M18 425h316v-33l-201 -392h-78l191 365h-228v60z" />
    <glyph glyph-name="eight.dnom" horiz-adv-x="415" 
d="M301 226q36 -11 59.5 -39.5t23.5 -66.5q0 -61 -47.5 -94t-128.5 -33q-82 0 -129.5 33t-47.5 94q0 37 23 66t60 41q-62 27 -62 94q0 54 43.5 82.5t112.5 28.5t112 -28.5t43 -82.5q0 -31 -17 -56.5t-45 -38.5zM208 375q-40 0 -65.5 -16.5t-25.5 -48.5q0 -28 25 -44.5
t66 -16.5t65.5 16.5t24.5 44.5q0 32 -25 48.5t-65 16.5zM208 53q48 0 76.5 19.5t28.5 53.5q0 36 -28.5 56t-76.5 20t-76.5 -20.5t-28.5 -55.5q0 -34 28.5 -53.5t76.5 -19.5z" />
    <glyph glyph-name="nine.dnom" horiz-adv-x="396" 
d="M189 432q87 0 135 -55.5t48 -155.5q0 -111 -48.5 -169.5t-134.5 -58.5q-73 0 -116.5 32t-43.5 80v9h66q5 -63 93 -63q56 0 85.5 40t29.5 108v12q-45 -64 -133 -64q-70 0 -111.5 35.5t-41.5 101.5q0 70 45.5 109t126.5 39zM190 198q38 0 67.5 20.5t40.5 56.5q-7 47 -37 73
t-73 26q-48 0 -74.5 -24.5t-26.5 -64.5q0 -39 29 -63t74 -24z" />
    <glyph glyph-name="zero.numr" horiz-adv-x="437" 
d="M219 273q-89 0 -141 58.5t-52 159.5q0 102 52 160.5t141 58.5q88 0 140 -58.5t52 -160.5q0 -101 -52 -159.5t-140 -58.5zM219 333q55 0 88 42t33 116t-33 116.5t-88 42.5q-57 0 -90 -42.5t-33 -116.5q0 -73 33.5 -115.5t89.5 -42.5z" />
    <glyph glyph-name="one.numr" horiz-adv-x="249" 
d="M123 280v355l-94 -35l-21 54l136 51h43v-425h-64z" />
    <glyph glyph-name="two.numr" horiz-adv-x="369" 
d="M22 311q2 50 30 80t104 76q65 39 88 60.5t23 55.5q0 32 -23.5 49.5t-60.5 17.5q-43 0 -69 -23.5t-26 -63.5v-13h-66v16q0 66 43.5 105t118.5 39q67 0 111 -31.5t44 -89.5q0 -37 -17 -66t-42 -48t-74 -48q-7 -4 -24 -13.5t-23 -13.5t-18 -11.5t-17.5 -12t-13 -11
t-12 -12.5t-7.5 -13h252v-60h-321v31z" />
    <glyph glyph-name="three.numr" horiz-adv-x="371" 
d="M206 545q69 0 105.5 -37.5t36.5 -93.5q0 -68 -45 -103.5t-119 -35.5q-75 0 -119.5 35t-44.5 94v7h66v-4q0 -32 26.5 -52t69.5 -20t69.5 22t26.5 60q0 37 -25 58t-69 21q-30 0 -63 -13l-27 33l135 129h-190v60h294v-34l-136 -126h9z" />
    <glyph glyph-name="four.numr" horiz-adv-x="395" 
d="M14 361v36l250 309h49v-288h67v-57h-67v-81h-64v81h-235zM99 415h152v192z" />
    <glyph glyph-name="five.numr" horiz-adv-x="371" 
d="M199 564q67 0 110.5 -39.5t43.5 -107.5q0 -74 -47.5 -109t-119.5 -35q-73 0 -118.5 36.5t-45.5 94.5v8h63v-5q0 -32 28.5 -53t71.5 -21t71.5 22.5t28.5 64.5q0 46 -28 69t-71 23q-60 0 -92 -33h-56l14 226h280v-60h-223l-7 -106q36 25 97 25z" />
    <glyph glyph-name="six.numr" horiz-adv-x="406" 
d="M234 558q69 0 111 -35.5t42 -101.5q0 -70 -45 -109t-123 -39q-89 0 -138 56t-49 155q0 111 47.5 169.5t135.5 58.5q70 0 115 -33t45 -81v-6h-67q-2 30 -27 46t-65 16q-56 0 -86 -40t-30 -108v-14q44 66 134 66zM218 331q47 0 73 25t26 64t-28.5 63t-71.5 24
q-37 0 -68 -20t-43 -57q7 -46 37.5 -72.5t74.5 -26.5z" />
    <glyph glyph-name="seven.numr" horiz-adv-x="347" 
d="M18 705h316v-33l-201 -392h-78l191 365h-228v60z" />
    <glyph glyph-name="eight.numr" horiz-adv-x="415" 
d="M301 506q36 -11 59.5 -39.5t23.5 -66.5q0 -61 -47.5 -94t-128.5 -33q-82 0 -129.5 33t-47.5 94q0 37 23 66t60 41q-62 27 -62 94q0 54 43.5 82.5t112.5 28.5t112 -28.5t43 -82.5q0 -31 -17 -56.5t-45 -38.5zM208 655q-40 0 -65.5 -16.5t-25.5 -48.5q0 -28 25 -44.5
t66 -16.5t65.5 16.5t24.5 44.5q0 32 -25 48.5t-65 16.5zM208 333q48 0 76.5 19.5t28.5 53.5q0 36 -28.5 56t-76.5 20t-76.5 -20.5t-28.5 -55.5q0 -34 28.5 -53.5t76.5 -19.5z" />
    <glyph glyph-name="nine.numr" horiz-adv-x="396" 
d="M189 712q87 0 135 -55.5t48 -155.5q0 -111 -48.5 -169.5t-134.5 -58.5q-73 0 -116.5 32t-43.5 80v9h66q5 -63 93 -63q56 0 85.5 40t29.5 108v12q-45 -64 -133 -64q-70 0 -111.5 35.5t-41.5 101.5q0 70 45.5 109t126.5 39zM190 478q38 0 67.5 20.5t40.5 56.5q-7 47 -37 73
t-73 26q-48 0 -74.5 -24.5t-26.5 -64.5q0 -39 29 -63t74 -24z" />
    <glyph glyph-name="periodcentered.loclCAT.case" horiz-adv-x="203" 
d="M30 289q-26 0 -44 18t-18 43t18 42.5t44 17.5q25 0 42.5 -17.5t17.5 -42.5t-17.5 -43t-42.5 -18z" />
    <glyph glyph-name="periodcentered.loclCAT" horiz-adv-x="112" 
d="M59 271q-26 0 -44 18t-18 43t18 42.5t44 17.5q25 0 42.5 -17.5t17.5 -42.5t-17.5 -43t-42.5 -18z" />
    <glyph glyph-name="uni0308.case" 
d="M-384 758q-26 0 -44 18t-18 43t18 42.5t44 17.5q25 0 42.5 -17.5t17.5 -42.5t-17.5 -43t-42.5 -18zM-192 758q-26 0 -44 18t-18 43t18 42.5t44 17.5q25 0 42.5 -17.5t17.5 -42.5t-17.5 -43t-42.5 -18z" />
    <glyph glyph-name="uni0307.case" 
d="M-289 764q-26 0 -44 18t-18 43t18 42.5t44 17.5q25 0 42.5 -17.5t17.5 -42.5t-17.5 -43t-42.5 -18z" />
    <glyph glyph-name="gravecomb.case" 
d="M-254 765h-68l-162 147l98 7z" />
    <glyph glyph-name="acutecomb.case" 
d="M-325 765l132 154l98 -7l-162 -147h-68z" />
    <glyph glyph-name="uni030B.case" 
d="M-254 765l88 160l82 -26l-110 -134h-60zM-410 765l88 160l78 -25l-106 -135h-60z" />
    <glyph glyph-name="uni0302.case" 
d="M-458 765l139 143h62l140 -143h-76l-95 79l-95 -79h-75z" />
    <glyph glyph-name="uni030C.case" 
d="M-319 765l-139 143h75l95 -79l95 79h76l-140 -143h-62z" />
    <glyph glyph-name="uni0306.case" 
d="M-290 765q-147 0 -158 138h62q12 -76 96 -76t95 76h63q-12 -138 -158 -138z" />
    <glyph glyph-name="uni030A.case" 
d="M-290 689q-47 0 -77.5 30t-30.5 76t30.5 75.5t77.5 29.5t77.5 -29.5t30.5 -75.5t-30.5 -76t-77.5 -30zM-290 735q26 0 42 16.5t16 44.5q0 26 -16 42.5t-42 16.5t-42 -16.5t-16 -43.5t16 -43.5t42 -16.5z" />
    <glyph glyph-name="tildecomb.case" 
d="M-446 760l-42 11q24 115 108 115q40 0 98.5 -33t82.5 -33q45 0 68 63l42 -12q-26 -114 -105 -114q-35 0 -95 33.5t-81 33.5q-27 0 -44.5 -15t-31.5 -49z" />
    <glyph glyph-name="uni0304.case" 
d="M-458 775v65h336v-65h-336z" />
    <glyph glyph-name="dieresis.short" horiz-adv-x="600" 
d="M225 615q-26 0 -44 18t-18 43t18 42.5t44 17.5q25 0 42.5 -17.5t17.5 -42.5t-17.5 -43t-42.5 -18zM397 615q-26 0 -44 18t-18 43t18 42.5t44 17.5q25 0 42.5 -17.5t17.5 -42.5t-17.5 -43t-42.5 -18z" />
    <glyph glyph-name="tonos.case" horiz-adv-x="413" 
d="M151 531l104 183l97 -7l-135 -176h-66z" />
    <glyph glyph-name="brevecombcy" 
d="M-289 620q-147 0 -158 138h62q12 -76 96 -76t95 76h63q-12 -138 -158 -138z" />
    <glyph glyph-name="brevecombcy.case" 
d="M-290 765q-147 0 -158 138h62q12 -76 96 -76t95 76h63q-12 -138 -158 -138z" />
    <glyph glyph-name="KB" horiz-adv-x="924" 
d="M473 -1q-94 0 -160 36.5t-94 94.5l21 9q71 -94 200 -94q53 0 87.5 25t34.5 76q0 43 -43.5 86t-117.5 71q-14 -51 -19 -74q42 -7 71 -17l-5 -36h-248l-1 34q49 34 98 50l73 382l-65 19l-2 30q47 29 117 29l70 -35l-63 -194l-66 -189l10 -2q35 131 90.5 187.5t130.5 56.5
q56 0 89 -24t33 -74q0 -60 -49 -98t-146 -38q-37 0 -69 4v-9q51 -6 86.5 -13.5t79.5 -24t67.5 -45.5t23.5 -69q0 -67 -62 -110.5t-172 -43.5zM410 330q90 3 131.5 40.5t41.5 83.5q0 21 -11 35.5t-30 14.5q-26 0 -63.5 -42.5t-68.5 -131.5z" />
    <glyph glyph-name="a.1" horiz-adv-x="657" 
d="M45 273q0 128 73 203.5t193 75.5q122 0 192 -71v60h79v-541h-79v64q-65 -74 -187 -74q-124 0 -197.5 76t-73.5 207zM320 477q-85 0 -138.5 -55t-53.5 -149q0 -96 53.5 -152t141.5 -56q53 0 102.5 23t77.5 70v228q-30 43 -81 67t-102 24z" />
    </font>
</defs>
</svg>
