<?xml version="1.0" standalone="no"?>
<!DOCTYPE svg PUBLIC "-//W3C//DTD SVG 1.1//EN" "http://www.w3.org/Graphics/SVG/1.1/DTD/svg11.dtd" >
<svg xmlns="http://www.w3.org/2000/svg" xmlns:xlink="http://www.w3.org/1999/xlink" version="1.1">
<metadata>
Created by FontForge 20170731 at Thu Oct 10 10:25:19 2019
 By Aleksey,,,
Copyright (c) 2019 by Nazar Kotentsov. All rights reserved.
</metadata>
<defs>
<font id="GastreetSans-Bold" horiz-adv-x="0" >
  <font-face 
    font-family="Gastreet Sans"
    font-weight="700"
    font-stretch="normal"
    units-per-em="1000"
    panose-1="2 1 10 3 4 0 2 2 0 4"
    ascent="825"
    descent="-175"
    x-height="546"
    cap-height="709"
    bbox="-517 -258 1387 1031"
    underline-thickness="55"
    underline-position="-215"
    unicode-range="U+000D-25CA"
  />
<missing-glyph horiz-adv-x="500" 
 />
    <glyph glyph-name=".notdef" horiz-adv-x="500" 
 />
    <glyph glyph-name=".null" 
 />
    <glyph glyph-name="uni000D" unicode="&#xd;" horiz-adv-x="278" 
 />
    <glyph glyph-name="uni0020" unicode=" " horiz-adv-x="209" 
 />
    <glyph glyph-name="uni0021" unicode="!" horiz-adv-x="258" 
d="M82 207l-24 502h145l-25 -502h-96zM130 -14q-35 0 -60 25t-25 60t25 60t60 25q34 0 58.5 -25t24.5 -60t-24.5 -60t-58.5 -25z" />
    <glyph glyph-name="uni0022" unicode="&#x22;" horiz-adv-x="440" 
d="M233 446l21 263h154l-99 -263h-76zM32 446l21 263h154l-99 -263h-76z" />
    <glyph glyph-name="uni0023" unicode="#" horiz-adv-x="694" 
d="M26 165v108h128l27 160h-123v108h141l27 168h104l-28 -168h144l27 168h103l-27 -168h114v-108h-132l-27 -160h126v-108h-145l-26 -165h-103l26 165h-144l-26 -165h-103l27 165h-110zM284 433l-27 -160h144l27 160h-144z" />
    <glyph glyph-name="uni0024" unicode="$" horiz-adv-x="619" 
d="M281 -13q-122 6 -247 65l52 120q102 -56 195 -63v186q-120 28 -178.5 77.5t-58.5 138.5q0 90 62 147.5t175 63.5v65h75v-67q115 -8 206 -53l-58 -115q-73 36 -148 45v-183h1q109 -26 170 -73t61 -134q0 -99 -59.5 -156t-172.5 -64v-79h-75v79zM281 600
q-50 -3 -78.5 -23.5t-28.5 -57.5q0 -30 26.5 -49.5t80.5 -36.5v167zM356 277v-168q100 13 100 85q0 30 -24.5 49.5t-75.5 33.5z" />
    <glyph glyph-name="uni0025" unicode="%" horiz-adv-x="979" 
d="M196 0l489 709h104l-488 -709h-105zM217 272q-91 0 -144 59.5t-53 162.5t53 162.5t144 59.5q92 0 144.5 -59.5t52.5 -162.5t-52.5 -162.5t-144.5 -59.5zM217 352q49 0 77.5 37t28.5 104q0 68 -28.5 105.5t-77.5 37.5t-77.5 -38t-28.5 -105q0 -66 28.5 -103.5t77.5 -37.5z
M761 -10q-91 0 -144 59.5t-53 162.5t53 162.5t144 59.5q92 0 144.5 -59.5t52.5 -162.5t-52.5 -162.5t-144.5 -59.5zM761 70q49 0 77.5 37t28.5 104q0 68 -28.5 105.5t-77.5 37.5t-77.5 -38t-28.5 -105q0 -66 28.5 -103.5t77.5 -37.5z" />
    <glyph glyph-name="uni0026" unicode="&#x26;" horiz-adv-x="651" 
d="M659 53l-81 -79l-92 90q-77 -77 -210 -77q-119 0 -184.5 54t-65.5 148q0 135 141 192q-43 46 -60.5 80t-17.5 79q0 88 60 132.5t148 44.5q91 0 147 -50.5t56 -131.5q0 -131 -144 -187l126 -123q34 47 36 112h108q2 -47 -14.5 -98.5t-49.5 -90.5zM297 613q-39 0 -61 -23
t-22 -60q0 -28 15 -50.5t53 -59.5q49 17 74 46.5t25 64.5q0 33 -21.5 57.5t-62.5 24.5zM284 102q74 0 122 42l-163 160q-40 -15 -61.5 -43t-21.5 -62q0 -44 31 -70.5t93 -26.5z" />
    <glyph glyph-name="uni0027" unicode="'" horiz-adv-x="239" 
d="M32 446l21 263h154l-99 -263h-76z" />
    <glyph glyph-name="uni0028" unicode="(" horiz-adv-x="387" 
d="M322 -128q-138 77 -214 194.5t-76 267.5t76.5 268t213.5 194l47 -81q-204 -141 -204 -381q0 -120 53.5 -216.5t150.5 -162.5z" />
    <glyph glyph-name="uni0029" unicode=")" horiz-adv-x="387" 
d="M65 -128l-47 83q97 66 150.5 162.5t53.5 216.5q0 240 -204 381l47 81q137 -76 213.5 -194t76.5 -268t-76 -267.5t-214 -194.5z" />
    <glyph glyph-name="uni002A" unicode="*" horiz-adv-x="421" 
d="M167 359l8 135l-114 -73l-44 77l120 60l-121 61l45 77l114 -73l-8 135h88l-8 -135l113 72l44 -76l-120 -60l121 -61l-45 -78l-111 74l6 -135h-88z" />
    <glyph glyph-name="uni002B" unicode="+" horiz-adv-x="582" 
d="M36 389h196v196h117v-196h196v-118h-196v-195h-117v195h-196v118z" />
    <glyph glyph-name="uni002C" unicode="," horiz-adv-x="234" 
d="M118 155q35 0 59.5 -26t24.5 -87q0 -101 -48 -148t-130 -47v62q81 0 81 83q-30 4 -49.5 25.5t-19.5 54.5q0 40 23.5 61.5t58.5 21.5z" />
    <glyph glyph-name="uni002D" unicode="-" horiz-adv-x="392" 
d="M33 267v125h325v-125h-325z" />
    <glyph glyph-name="uni002E" unicode="." horiz-adv-x="252" 
d="M127 -14q-35 0 -60 25t-25 60t25 60t60 25t59.5 -25t24.5 -60t-24.5 -60t-59.5 -25z" />
    <glyph glyph-name="uni002F" unicode="/" horiz-adv-x="507" 
d="M-34 -129l445 931h126l-446 -931h-125z" />
    <glyph glyph-name="uni0030" unicode="0" horiz-adv-x="739" 
d="M370 -14q-153 0 -240.5 97.5t-87.5 270.5t87.5 271t240.5 98q152 0 239 -98t87 -271t-87 -270.5t-239 -97.5zM370 117q85 0 133.5 62.5t48.5 174.5t-49 175t-133 63q-85 0 -134.5 -63t-49.5 -175t49.5 -174.5t134.5 -62.5z" />
    <glyph glyph-name="uni0031" unicode="1" horiz-adv-x="421" 
d="M196 0v561l-146 -51l-41 112l237 88h91v-710h-141z" />
    <glyph glyph-name="uni0032" unicode="2" horiz-adv-x="619" 
d="M187 129h393v-129h-545v44q4 85 51.5 142.5t161.5 130.5q101 63 140 100t39 88q0 44 -34 68t-86 24q-65 0 -102.5 -34t-37.5 -92v-20h-133v28q0 113 73 178t202 65q117 0 192 -53.5t75 -151.5q0 -40 -11 -73t-27 -58t-48.5 -51.5t-61 -45.5t-78.5 -49q-12 -7 -38 -22
t-36 -21t-27.5 -17t-26 -18t-18.5 -15.5t-17 -17.5z" />
    <glyph glyph-name="uni0033" unicode="3" horiz-adv-x="622" 
d="M354 444q111 -1 173 -65.5t62 -157.5q0 -114 -75.5 -174.5t-204.5 -60.5q-130 0 -205.5 59.5t-75.5 161.5v12h132v-6q0 -48 39 -76t105 -28q68 0 106 31.5t38 86.5q0 56 -39 86t-106 30q-49 0 -97 -21l-50 65l207 198h-300v124h500v-72z" />
    <glyph glyph-name="uni0034" unicode="4" horiz-adv-x="661" 
d="M18 125v74l417 513h101v-466h111v-121h-111v-125h-139v125h-379zM193 239h215v264z" />
    <glyph glyph-name="uni0035" unicode="5" horiz-adv-x="633" 
d="M339 477q121 0 192.5 -67t71.5 -180q0 -119 -74.5 -181.5t-206.5 -62.5q-130 0 -208 60t-78 162v11h133v-4q0 -48 41.5 -76.5t107.5 -28.5q72 0 108.5 32.5t36.5 92.5q0 130 -151 130q-37 0 -74 -14t-55 -34h-120l22 392h472v-124h-353l-9 -141q59 33 144 33z" />
    <glyph glyph-name="uni0036" unicode="6" horiz-adv-x="671" 
d="M379 461q109 0 178.5 -55.5t69.5 -169.5q0 -119 -76.5 -184.5t-201.5 -65.5q-150 0 -229 92t-79 262q0 194 83 288.5t224 94.5q116 0 186.5 -55t70.5 -134v-13h-138q-3 37 -33 60t-84 23q-81 0 -125.5 -59.5t-45.5 -159.5q69 76 200 76zM349 106q66 0 102 35.5t36 91.5
q0 58 -40 89t-100 31q-59 0 -100.5 -29t-56.5 -65q3 -65 45.5 -109t113.5 -44z" />
    <glyph glyph-name="uni0037" unicode="7" horiz-adv-x="575" 
d="M24 709h525v-72l-336 -637h-157l312 580h-344v129z" />
    <glyph glyph-name="uni0038" unicode="8" horiz-adv-x="660" 
d="M490 379q62 -18 99 -66.5t37 -108.5q0 -109 -80 -163.5t-216 -54.5q-137 0 -216.5 54t-79.5 162q0 60 36.5 109t98.5 67q-47 20 -74 60t-27 95q0 94 71.5 142t190.5 48t191 -48t72 -142q0 -55 -28 -94.5t-75 -59.5zM330 607q-132 0 -132 -91q0 -40 35 -66t97 -26t97 26
t35 66q0 91 -132 91zM330 106q71 0 112 26t41 79q0 50 -41.5 79t-111.5 29t-111.5 -29t-41.5 -79q0 -53 41 -79t112 -26z" />
    <glyph glyph-name="uni0039" unicode="9" horiz-adv-x="662" 
d="M315 723q150 0 229 -92t79 -262q0 -193 -84 -288t-224 -95q-123 0 -192 54.5t-69 134.5v14h138q3 -39 33.5 -61.5t88.5 -22.5q79 0 123 59t46 158q-69 -74 -197 -74q-109 0 -179 55t-70 170q0 118 76.5 184t201.5 66zM317 356q60 0 101 28.5t56 65.5q-3 64 -45 108.5
t-113 44.5q-66 0 -102.5 -36t-36.5 -91q0 -59 40 -89.5t100 -30.5z" />
    <glyph glyph-name="uni003A" unicode=":" horiz-adv-x="245" 
d="M124 389q-35 0 -60 25t-25 61q0 35 25 60t60 25q34 0 58.5 -25t24.5 -60q0 -36 -24 -61t-59 -25zM124 -14q-35 0 -60 25t-25 60t25 60t60 25q34 0 58.5 -25t24.5 -60t-24.5 -60t-58.5 -25z" />
    <glyph glyph-name="uni003B" unicode=";" horiz-adv-x="242" 
d="M120 389q-35 0 -60 25t-25 61q0 35 25 60t60 25q34 0 58.5 -25t24.5 -60q0 -36 -24 -61t-59 -25zM118 155q35 0 59.5 -26t24.5 -87q0 -101 -48 -148t-130 -47v62q81 0 81 83q-30 4 -49.5 25.5t-19.5 54.5q0 40 23.5 61.5t58.5 21.5z" />
    <glyph glyph-name="uni003C" unicode="&#x3c;" horiz-adv-x="558" 
d="M24 289v82l493 234v-133l-313 -142l313 -142v-133z" />
    <glyph glyph-name="uni003D" unicode="=" horiz-adv-x="584" 
d="M49 395v118h485v-118h-485zM49 266h485v-118h-485v118z" />
    <glyph glyph-name="uni003E" unicode="&#x3e;" horiz-adv-x="558" 
d="M533 289l-493 -234v133l314 142l-314 142v133l493 -234v-82z" />
    <glyph glyph-name="uni003F" unicode="?" horiz-adv-x="582" 
d="M552 498q0 -93 -65.5 -158t-179.5 -72l-15 -61h-74l-16 146l42 4q80 7 124 43t44 90q0 55 -39.5 85t-92.5 30q-66 0 -105.5 -36t-39.5 -104v-12h-128v19q0 118 77 184.5t201 66.5q117 0 192 -57t75 -168zM256 -14q-35 0 -60 25t-25 60t25 60t60 25t59.5 -25t24.5 -60
t-24.5 -60t-59.5 -25z" />
    <glyph glyph-name="uni0040" unicode="@" horiz-adv-x="927" 
d="M696 511l-41 -278q-16 -107 58 -107q56 0 87.5 47t31.5 127q0 157 -103.5 258.5t-264.5 101.5t-264.5 -107t-103.5 -271t99 -265t264 -101q156 0 247 86l47 -50q-105 -105 -296 -105q-197 0 -316 121t-119 314q0 194 125 320t317 126t316.5 -120.5t124.5 -305.5
q0 -112 -61.5 -181t-156.5 -69q-50 0 -84.5 21.5t-47.5 60.5q-47 -75 -147 -75q-90 0 -146.5 58t-56.5 162q0 113 61.5 185t158.5 72q57 0 97 -26t52 -68l11 69h111zM428 176q49 0 81.5 36t32.5 95q0 51 -28 82t-72 31q-50 0 -81 -38.5t-31 -95.5q0 -49 27.5 -79.5
t70.5 -30.5z" />
    <glyph glyph-name="uni0041" unicode="A" horiz-adv-x="751" 
d="M5 0l324 712h92l325 -712h-154l-62 135h-310l-61 -135h-154zM268 254h215l-53 126l-55 145l-54 -145z" />
    <glyph glyph-name="uni0042" unicode="B" horiz-adv-x="697" 
d="M407 0h-339v709h318q114 0 173.5 -45t59.5 -129q0 -119 -97 -155q69 -15 110 -59.5t41 -112.5q0 -208 -266 -208zM209 123h199q119 0 119 90q0 88 -133 88h-185v-178zM379 587h-170v-173h163q110 0 110 90q0 41 -27 62t-76 21z" />
    <glyph glyph-name="uni0043" unicode="C" horiz-adv-x="746" 
d="M412 -14q-168 0 -269 100t-101 271q0 170 100.5 267.5t269.5 97.5q199 0 310 -136l-110 -93q-68 95 -196 95q-103 0 -165 -62t-62 -169q0 -109 62 -173t165 -64q129 0 196 94l110 -93q-111 -135 -310 -135z" />
    <glyph glyph-name="uni0044" unicode="D" horiz-adv-x="736" 
d="M68 0v709h276q167 0 259 -88t92 -258t-90 -266.5t-258 -96.5h-279zM206 130h143q90 0 144 59t54 174q0 104 -53 159.5t-149 55.5h-139v-448z" />
    <glyph glyph-name="uni0045" unicode="E" horiz-adv-x="634" 
d="M68 709h515v-128h-378v-171h318v-121h-318v-162h394v-127h-531v709z" />
    <glyph glyph-name="uni0046" unicode="F" horiz-adv-x="612" 
d="M68 709h518v-131h-377v-205h321v-128h-321v-245h-141v709z" />
    <glyph glyph-name="uni0047" unicode="G" horiz-adv-x="780" 
d="M395 389h351v-298q-108 -105 -305 -105q-184 0 -291.5 99t-107.5 269q0 169 105 269t279 100q183 0 293 -102l-89 -100q-79 69 -203 69q-108 0 -173 -64t-65 -172q0 -112 69 -175t188 -63q105 0 167 46v103h-218v124z" />
    <glyph glyph-name="uni0048" unicode="H" horiz-adv-x="742" 
d="M68 709h141v-317h325v317h140v-709h-140v261h-325v-261h-141v709z" />
    <glyph glyph-name="uni0049" unicode="I" horiz-adv-x="295" 
d="M75 0v709h145v-709h-145z" />
    <glyph glyph-name="uni004A" unicode="J" horiz-adv-x="618" 
d="M288 -14q-124 0 -198 71.5t-78 200.5h140q4 -73 42 -106t95 -33q127 0 127 164v426h143v-426q0 -155 -66.5 -226t-204.5 -71z" />
    <glyph glyph-name="uni004B" unicode="K" horiz-adv-x="707" 
d="M68 0v709h138v-357l291 357h176l-261 -318l291 -391h-175l-216 288l-106 -119v-169h-138z" />
    <glyph glyph-name="uni004C" unicode="L" horiz-adv-x="600" 
d="M68 0v709h143v-576h371v-133h-514z" />
    <glyph glyph-name="uni004D" unicode="M" horiz-adv-x="876" 
d="M206 0h-138v712h74l297 -403l295 403h75v-712h-139v400l-205 -278h-53l-206 276v-398z" />
    <glyph glyph-name="uni004E" unicode="N" horiz-adv-x="771" 
d="M564 709h140v-713h-73l-423 450v-446h-140v713h71l425 -450v446z" />
    <glyph glyph-name="uni004F" unicode="O" horiz-adv-x="845" 
d="M422 -14q-167 0 -273.5 101.5t-106.5 266.5q0 163 104.5 266t275.5 103q168 0 275 -102t107 -267q0 -162 -105.5 -265t-276.5 -103zM422 119q103 0 168.5 64.5t65.5 170.5q0 104 -64 170t-170 66q-102 0 -167.5 -65t-65.5 -171q0 -104 64.5 -169.5t168.5 -65.5z" />
    <glyph glyph-name="uni0050" unicode="P" horiz-adv-x="656" 
d="M209 0h-141v709h282q141 0 214 -65t73 -190q0 -262 -302 -262h-126v-192zM209 583v-267h121q161 0 161 134q0 133 -150 133h-132z" />
    <glyph glyph-name="uni0051" unicode="Q" horiz-adv-x="845" 
d="M804 354q0 -162 -104 -264l77 -88l-94 -78l-84 98q-80 -36 -177 -36q-167 0 -273.5 101.5t-106.5 266.5q0 163 104.5 266t275.5 103q168 0 275 -102t107 -267zM422 119q47 0 83 13l-79 92l91 77l88 -101q51 62 51 154q0 104 -64 170t-170 66q-102 0 -167.5 -65
t-65.5 -171q0 -104 64.5 -169.5t168.5 -65.5z" />
    <glyph glyph-name="uni0052" unicode="R" horiz-adv-x="683" 
d="M68 0v709h288q139 0 212.5 -65t73.5 -188q0 -170 -141 -227l167 -229h-172l-141 202h-146v-202h-141zM209 583v-260h124q80 0 120.5 34t40.5 92q0 134 -150 134h-135z" />
    <glyph glyph-name="uni0053" unicode="S" horiz-adv-x="627" 
d="M335 -14q-91 0 -158.5 15.5t-144.5 50.5l54 122q129 -62 242 -62q60 0 92.5 21.5t32.5 63.5q0 39 -34.5 58.5t-115.5 34.5q-64 13 -107.5 28t-80.5 39.5t-55 61.5t-18 88q0 99 68 157t198 58q154 0 267 -55l-59 -119q-103 46 -207 46q-58 0 -89.5 -22t-31.5 -56
q0 -39 39 -57.5t134 -39.5q58 -12 97 -26t74 -37.5t52 -60.5t17 -87q0 -110 -67.5 -166t-198.5 -56z" />
    <glyph glyph-name="uni0054" unicode="T" horiz-adv-x="644" 
d="M24 576v133h596v-133h-226v-576h-144v576h-226z" />
    <glyph glyph-name="uni0055" unicode="U" horiz-adv-x="732" 
d="M366 -14q-151 0 -228.5 74t-77.5 220v429h143v-395q0 -102 39 -147.5t124 -45.5t124.5 45.5t39.5 147.5v395h142v-429q0 -294 -306 -294z" />
    <glyph glyph-name="uni0056" unicode="V" horiz-adv-x="715" 
d="M4 709h160l145 -354l48 -133l50 132l146 355h158l-314 -713h-82z" />
    <glyph glyph-name="uni0057" unicode="W" horiz-adv-x="1065" 
d="M4 709h157l154 -445l182 447h74l180 -449l155 447h155l-262 -713h-72l-195 458l-192 -458h-72z" />
    <glyph glyph-name="uni0058" unicode="X" horiz-adv-x="701" 
d="M9 0l242 361l-235 348h168l167 -253l168 253h166l-234 -348l240 -361h-168l-174 259l-171 -259h-169z" />
    <glyph glyph-name="uni0059" unicode="Y" horiz-adv-x="666" 
d="M261 246l-262 463h165l170 -321l171 321h162l-262 -463v-246h-144v246z" />
    <glyph glyph-name="uni005A" unicode="Z" horiz-adv-x="667" 
d="M248 131h380v-131h-595v69l374 509h-350v131h567v-72z" />
    <glyph glyph-name="uni005B" unicode="[" horiz-adv-x="395" 
d="M67 789h299v-107h-184v-697h184v-107h-299v911z" />
    <glyph glyph-name="uni005C" unicode="\" horiz-adv-x="507" 
d="M541 -129h-126l-445 931h126z" />
    <glyph glyph-name="uni005D" unicode="]" horiz-adv-x="395" 
d="M29 -15h184v697h-184v107h299v-911h-299v107z" />
    <glyph glyph-name="uni005E" unicode="^" horiz-adv-x="460" 
d="M25 457l171 257h68l172 -257h-132l-74 138l-76 -138h-129z" />
    <glyph glyph-name="uni005F" unicode="_" horiz-adv-x="595" 
d="M-3 -113v83h601v-83h-601z" />
    <glyph glyph-name="uni0060" unicode="`" horiz-adv-x="482" 
d="M412 620h-98l-181 155l155 12z" />
    <glyph glyph-name="uni0061" unicode="a" horiz-adv-x="625" 
d="M304 556q119 0 189 -62.5t70 -148.5v-345h-134v58q-32 -32 -81.5 -52.5t-101.5 -20.5q-98 0 -154.5 54.5t-54.5 129.5q3 96 71.5 133.5t180.5 37.5h137q0 46 -36 70t-92 24q-100 -2 -144 -57l-89 82q36 50 101.5 73.5t137.5 23.5zM426 216l1 17h-137q-57 0 -85.5 -12.5
t-28.5 -44.5q0 -31 26 -52t73 -21q64 0 107.5 30t43.5 83z" />
    <glyph glyph-name="uni0062" unicode="b" horiz-adv-x="662" 
d="M65 758h135v-259q61 60 168 60q116 0 187 -77.5t71 -207.5q0 -131 -72 -208.5t-192 -77.5q-109 0 -164 65v-53h-133v758zM198 365v-181q41 -72 134 -72q70 0 110.5 43t40.5 119t-40.5 118.5t-107.5 42.5q-41 0 -79 -18.5t-58 -51.5z" />
    <glyph glyph-name="uni0063" unicode="c" horiz-adv-x="597" 
d="M330 -11q-138 0 -216 77t-78 208q0 126 79 204.5t214 78.5q77 0 139 -29t99 -80l-96 -86q-21 31 -57 50t-78 19q-72 0 -115.5 -42.5t-43.5 -113.5q0 -73 43 -116.5t115 -43.5q45 0 82 19.5t59 49.5l94 -86q-81 -109 -240 -109z" />
    <glyph glyph-name="uni0064" unicode="d" horiz-adv-x="660" 
d="M36 274q0 130 71 207.5t187 77.5q107 0 168 -60v259h136v-758h-134v53q-54 -65 -164 -65q-120 0 -192 77.5t-72 208.5zM327 435q-67 0 -108 -42.5t-41 -118.5q0 -75 41 -118.5t111 -43.5q94 0 134 72v181q-20 33 -58 51.5t-79 18.5z" />
    <glyph glyph-name="uni0065" unicode="e" horiz-adv-x="625" 
d="M601 273q0 -30 -1 -41h-424q11 -61 52.5 -94t108.5 -33q102 0 158 70l87 -74q-81 -112 -255 -112q-136 0 -213.5 77t-77.5 209q0 129 79 207.5t205 78.5q137 0 209 -78.5t72 -209.5zM320 446q-55 0 -93 -28.5t-50 -85.5h289q-7 49 -43 81.5t-103 32.5z" />
    <glyph glyph-name="uni0066" unicode="f" horiz-adv-x="380" 
d="M15 423v123h76v44q0 90 45.5 136t128.5 46q67 0 113 -20v-107q-37 12 -73 12q-41 0 -59.5 -19.5t-18.5 -66.5v-25h146v-123h-144v-423h-138v423h-76z" />
    <glyph glyph-name="uni0067" unicode="g" horiz-adv-x="656" 
d="M300 22q-119 0 -191.5 75t-72.5 194t71.5 193.5t186.5 74.5q107 0 168 -60v47h136v-450q0 -140 -66 -214t-218 -74q-136 0 -224 36v127q102 -46 202 -46q85 0 128.5 29t43.5 97v35q-54 -64 -164 -64zM178 292q0 -65 41.5 -106t110.5 -41q94 0 134 72v148q-20 33 -58 52
t-79 19q-66 0 -107.5 -40t-41.5 -104z" />
    <glyph glyph-name="uni0068" unicode="h" horiz-adv-x="635" 
d="M63 0v758h137v-262q74 62 171 62q105 0 156.5 -53.5t51.5 -178.5v-326h-137v292q0 78 -29.5 110t-85.5 32q-71 0 -126 -57v-377h-138z" />
    <glyph glyph-name="uni0069" unicode="i" horiz-adv-x="272" 
d="M137 613q-35 0 -60 25t-25 60t25 60t60 25t59.5 -25t24.5 -60t-24.5 -60t-59.5 -25zM66 0v546h140v-546h-140z" />
    <glyph glyph-name="uni006A" unicode="j" horiz-adv-x="279" 
d="M146 613q-35 0 -60 25t-25 60t25 60t60 25t59.5 -25t24.5 -60t-24.5 -60t-59.5 -25zM49 -190q-55 0 -82 9v114q21 -6 40 -6q43 0 55 25t12 88v506h139v-579q0 -81 -45 -119t-119 -38z" />
    <glyph glyph-name="uni006B" unicode="k" horiz-adv-x="622" 
d="M65 0v758h137v-464l232 252h170l-195 -214l201 -332h-157l-144 236l-107 -106v-130h-137z" />
    <glyph glyph-name="uni006C" unicode="l" horiz-adv-x="270" 
d="M66 0v758h138v-758h-138z" />
    <glyph glyph-name="uni006D" unicode="m" horiz-adv-x="986" 
d="M66 546h133v-50q78 63 179 63q109 0 153 -71q83 71 198 71q99 0 150 -55t51 -181v-323h-137v296q0 76 -28.5 107t-81.5 31q-72 0 -121 -52q3 -27 3 -59v-323h-135v304q0 130 -103 130q-70 0 -123 -56v-378h-138v546z" />
    <glyph glyph-name="uni006E" unicode="n" horiz-adv-x="638" 
d="M66 0v546h133v-50q76 62 175 62q105 0 156.5 -53.5t51.5 -178.5v-326h-137v292q0 78 -29.5 110t-85.5 32q-71 0 -126 -57v-377h-138z" />
    <glyph glyph-name="uni006F" unicode="o" horiz-adv-x="673" 
d="M337 -12q-136 0 -218.5 77.5t-82.5 208.5q0 129 83 206.5t218 77.5t217 -77.5t82 -206.5q0 -131 -82 -208.5t-217 -77.5zM337 114q70 0 113.5 44t43.5 116q0 71 -43.5 114.5t-113.5 43.5q-71 0 -114.5 -43.5t-43.5 -114.5q0 -72 43.5 -116t114.5 -44z" />
    <glyph glyph-name="uni0070" unicode="p" horiz-adv-x="664" 
d="M66 -176v722h136v-47q61 60 168 60q116 0 186.5 -77.5t70.5 -207.5q0 -131 -71.5 -208.5t-191.5 -77.5q-108 0 -162 65v-229h-136zM202 368l-1 -1q-1 -1 -1 -2v-181l1 -1q1 -1 1 -2q41 -69 132 -69q69 0 110 43.5t41 118.5q0 76 -40.5 118.5t-107.5 42.5q-40 0 -77 -17.5
t-58 -49.5z" />
    <glyph glyph-name="uni0071" unicode="q" horiz-adv-x="656" 
d="M300 -12q-120 0 -192 77.5t-72 208.5q0 130 71 207.5t187 77.5q107 0 168 -60v47h136v-722h-136v229q-54 -65 -162 -65zM327 435q-67 0 -108 -42.5t-41 -118.5q0 -75 41 -118.5t111 -43.5q91 0 132 68l2 4v181q0 1 -1 1l-1 2q-21 32 -58 49.5t-77 17.5z" />
    <glyph glyph-name="uni0072" unicode="r" horiz-adv-x="430" 
d="M66 0v546h133v-71q63 83 170 83q25 0 38 -5v-149q-38 10 -66 10q-61 0 -99 -40t-38 -116v-258h-138z" />
    <glyph glyph-name="uni0073" unicode="s" horiz-adv-x="529" 
d="M264 -14q-129 0 -231 48l44 109q81 -49 183 -49q95 0 95 58q0 24 -25 37t-96 29q-99 22 -146.5 60t-47.5 111q0 82 58.5 125t159.5 43q104 0 214 -43l-45 -110q-79 42 -170 42q-80 0 -80 -47q0 -25 23.5 -38t94.5 -30q103 -25 151.5 -61.5t48.5 -104.5q0 -179 -231 -179z
" />
    <glyph glyph-name="uni0074" unicode="t" horiz-adv-x="418" 
d="M9 546h78v212h136v-212h161v-123h-161v-231q0 -47 15.5 -67t56.5 -20q47 0 88 18v-121q-50 -15 -125 -15q-90 0 -130.5 44t-40.5 138v254h-78v123z" />
    <glyph glyph-name="uni0075" unicode="u" horiz-adv-x="624" 
d="M53 546h138v-292q0 -142 110 -142q75 0 127 63v371h138v-546h-131v56q-70 -68 -175 -68q-207 0 -207 231v327z" />
    <glyph glyph-name="uni0076" unicode="v" horiz-adv-x="603" 
d="M4 546h157l94 -225l48 -126l48 124l96 227h152l-257 -549h-80z" />
    <glyph glyph-name="uni0077" unicode="w" horiz-adv-x="821" 
d="M4 546h144l98 -321l129 323h70l131 -325l100 323h141l-191 -549h-77l-140 330l-137 -330h-77z" />
    <glyph glyph-name="uni0078" unicode="x" horiz-adv-x="594" 
d="M8 0l200 280l-197 266h162l123 -172l125 172h162l-196 -264l199 -282h-160l-130 179l-130 -179h-158z" />
    <glyph glyph-name="uni0079" unicode="y" horiz-adv-x="598" 
d="M235 -1l-245 547h154l155 -381l147 381h147l-224 -552q-24 -61 -54 -100t-64 -56.5t-62.5 -23.5t-66.5 -6q-53 0 -89 12v119q44 -14 79 -14q85 0 123 74z" />
    <glyph glyph-name="uni007A" unicode="z" horiz-adv-x="540" 
d="M224 114h297v-114h-496v70l289 362h-273v114h478v-69z" />
    <glyph glyph-name="uni007B" unicode="{" horiz-adv-x="443" 
d="M19 389q30 0 51 1.5t38 7t27.5 9.5t18 17.5t11.5 22t5.5 31t2 37t0.5 47.5v64q0 92 54.5 127.5t198.5 35.5v-92q-46 0 -74.5 -7.5t-42 -25.5t-18 -38.5t-4.5 -55.5v-82q0 -66 -17.5 -102t-65.5 -50q49 -14 66 -50t17 -101v-88q0 -69 26 -97.5t113 -28.5v-93
q-143 0 -198 35.5t-55 129.5v68q0 112 -22.5 141.5t-131.5 29.5v107z" />
    <glyph glyph-name="uni007C" unicode="|" horiz-adv-x="319" 
d="M103 -129v931h113v-931h-113z" />
    <glyph glyph-name="uni007D" unicode="}" horiz-adv-x="443" 
d="M17 697v92q144 0 199 -35.5t55 -127.5v-64q0 -33 0.5 -47.5t2 -37t5.5 -31t11.5 -22t18 -17.5t27.5 -9.5t38 -7t51 -1.5v-107q-109 0 -131.5 -29.5t-22.5 -141.5v-68q0 -93 -55.5 -129t-198.5 -36v93q87 0 113 28.5t26 97.5v88q0 65 17 101t66 50q-48 14 -65.5 50
t-17.5 102v82q0 35 -4.5 55.5t-18 38.5t-42 25.5t-74.5 7.5z" />
    <glyph glyph-name="uni007E" unicode="~" horiz-adv-x="636" 
d="M447 235q-49 0 -157 36q-75 23 -101 23q-53 0 -81 -57l-79 19q30 167 158 167q57 0 169 -36q60 -20 95 -20q49 0 75 57l81 -23q-15 -84 -57 -125t-103 -41z" />
    <glyph glyph-name="uni00A1" unicode="&#xa1;" horiz-adv-x="258" 
d="M130 723q35 0 59 -25t24 -61q0 -35 -24.5 -60t-58.5 -25q-35 0 -60 25t-25 60q0 36 25 61t60 25zM82 502h96l25 -502h-145z" />
    <glyph glyph-name="uni00A2" unicode="&#xa2;" horiz-adv-x="583" 
d="M29 327q0 117 66 192.5t184 88.5v128h75v-127q137 -12 205 -106l-82 -79q-44 64 -123 76v-346q81 11 128 76l81 -78q-72 -96 -209 -108v-113h-75v114q-118 12 -184 87.5t-66 194.5zM153 328q0 -68 33.5 -113t92.5 -58v340q-59 -14 -92.5 -58t-33.5 -111z" />
    <glyph glyph-name="uni00A3" unicode="&#xa3;" horiz-adv-x="653" 
d="M47 370h74q-2 36 -2 54q0 154 67.5 225t184.5 71q110 0 179.5 -63t69.5 -174v-23h-124v11q0 55 -33 86.5t-82 31.5q-124 0 -124 -157q0 -29 3 -62h245v-96h-232q0 -1 0.5 -2.5t0.5 -2.5q16 -114 16 -143h332v-126h-574v98l104 20q1 29 -14 123q-4 22 -5 33h-86v96z" />
    <glyph glyph-name="uni00A4" unicode="&#xa4;" horiz-adv-x="582" 
d="M101 75l-63 65l79 79q-34 49 -34 111q0 58 34 110l-78 78l62 65l80 -80q53 34 112 34q58 0 111 -32l77 77l63 -63l-76 -76q37 -53 37 -115q0 -61 -36 -113l75 -75l-63 -64l-78 78q-50 -31 -110 -31t-112 33zM192 327q0 -43 29 -72.5t73 -29.5t73 30.5t29 74.5t-30 74
t-72 30q-22 0 -37 -7q-30 -11 -47.5 -39t-17.5 -61z" />
    <glyph glyph-name="uni00A5" unicode="&#xa5;" horiz-adv-x="642" 
d="M209 321l-212 388h165l159 -322l161 322h164l-213 -388h142v-76h-183v-64h183v-75h-183v-106h-141v106h-181v75h181v62l-1 2h-180v76h139z" />
    <glyph glyph-name="uni00A6" unicode="&#xa6;" horiz-adv-x="319" 
d="M103 258h113v-386h-113v386zM103 417v385h113v-385h-113z" />
    <glyph glyph-name="uni00A7" unicode="&#xa7;" horiz-adv-x="535" 
d="M267 -11q-140 0 -247 52l45 97q93 -49 199 -49q101 0 101 46q0 26 -27.5 39t-103.5 29q-110 23 -156 53.5t-46 90.5q0 75 74 111q-65 35 -65 107q0 77 58.5 117t159.5 40q122 0 233 -43l-46 -100q-90 41 -185 41q-86 0 -86 -45q0 -21 25 -32.5t103 -28.5
q105 -23 154.5 -56t49.5 -92q0 -72 -73 -107q69 -35 69 -112q0 -158 -236 -158zM316 293q67 8 67 52q0 25 -23.5 39t-71.5 24l-71 14q-28 -4 -46 -18t-18 -36q0 -25 23 -38.5t79 -25.5q45 -10 61 -11z" />
    <glyph glyph-name="uni00A8" unicode="&#xa8;" horiz-adv-x="502" 
d="M140 614q-35 0 -59.5 24.5t-24.5 59.5t24.5 59.5t59.5 24.5q34 0 58 -24.5t24 -59.5t-24 -59.5t-58 -24.5zM364 614q-35 0 -59.5 24.5t-24.5 59.5t24.5 59.5t59.5 24.5q34 0 58 -24.5t24 -59.5t-24 -59.5t-58 -24.5z" />
    <glyph glyph-name="uni00A9" unicode="&#xa9;" horiz-adv-x="774" 
d="M386 -9q-157 0 -259.5 103.5t-102.5 262.5q0 158 103 261t261 103q157 0 259 -103t102 -261q0 -160 -102.5 -263t-260.5 -103zM386 60q126 0 208 84.5t82 212.5q0 127 -82 211t-206 84q-126 0 -209 -84.5t-83 -212.5q0 -127 82 -211t208 -84zM392 145q-94 0 -152 58
t-58 152q0 93 58.5 151t151.5 58q99 0 163 -77l-77 -65q-34 48 -87 48q-47 0 -76.5 -31.5t-29.5 -83.5t29.5 -83.5t76.5 -31.5q25 0 49 13t38 34l77 -64q-63 -78 -163 -78z" />
    <glyph glyph-name="uni00AA" unicode="&#xaa;" horiz-adv-x="463" 
d="M21 517q0 90 51.5 145.5t132.5 55.5t125 -47v38h85v-386h-84v39q-40 -48 -122 -48q-85 0 -136.5 56t-51.5 147zM226 639q-51 0 -82.5 -32t-31.5 -89q0 -58 31.5 -91.5t85.5 -33.5q71 0 102 53v141q-15 24 -44 38t-61 14z" />
    <glyph glyph-name="uni00AB" unicode="&#xab;" horiz-adv-x="577" 
d="M203 7l-176 261l176 259l91 -68l-140 -191l140 -191zM450 7l-176 261l176 259l91 -68l-140 -191l140 -191z" />
    <glyph glyph-name="uni00AC" unicode="&#xac;" horiz-adv-x="646" 
d="M467 64v209h-431v118h560v-327h-129z" />
    <glyph glyph-name="uni00AD" unicode="&#xad;" horiz-adv-x="392" 
d="M33 267v125h325v-125h-325z" />
    <glyph glyph-name="uni00AE" unicode="&#xae;" horiz-adv-x="519" 
d="M13 473q0 108 70 178t177 70q106 0 175 -70.5t69 -177.5t-69.5 -177.5t-175.5 -70.5t-176 70.5t-70 177.5zM66 472q0 -84 54.5 -140.5t138.5 -56.5q83 0 137.5 56.5t54.5 141.5t-54.5 141.5t-136.5 56.5q-84 0 -139 -57t-55 -142zM156 613h106q54 0 83.5 -25.5
t29.5 -71.5q0 -61 -51 -82l54 -87h-73l-42 73h-45v-73h-62v266zM218 561v-89h39q53 0 53 42q0 47 -50 47h-42z" />
    <glyph glyph-name="uni00AF" unicode="&#xaf;" horiz-adv-x="502" 
d="M72 644v97h358v-97h-358z" />
    <glyph glyph-name="uni00B0" unicode="&#xb0;" horiz-adv-x="417" 
d="M208 359q-80 0 -132 51.5t-52 129.5q0 79 52 130.5t132 51.5q81 0 133 -51.5t52 -131.5q0 -78 -52 -129t-133 -51zM208 450q39 0 64.5 25.5t25.5 64.5t-25.5 64.5t-64.5 25.5t-64.5 -26t-25.5 -65t25.5 -64t64.5 -25z" />
    <glyph glyph-name="uni00B1" unicode="&#xb1;" horiz-adv-x="607" 
d="M49 489h196v196h117v-196h196v-118h-196v-195h-117v195h-196v118zM48 0v116h509v-116h-509z" />
    <glyph glyph-name="uni00B2" unicode="&#xb2;" horiz-adv-x="373" 
d="M118 361h232v-79h-328v31q1 49 28.5 82.5t97.5 79.5q59 37 82 58t23 51q0 25 -19.5 38.5t-48.5 13.5q-36 0 -58 -19t-22 -52v-13h-84v18q0 68 44 106.5t121 38.5q71 0 116.5 -32t45.5 -91q0 -39 -18 -69.5t-42.5 -49t-74.5 -48.5q-79 -47 -95 -64z" />
    <glyph glyph-name="uni00B3" unicode="&#xb3;" horiz-adv-x="376" 
d="M219 551q65 -2 101 -41t36 -94q0 -68 -46 -104.5t-123 -36.5q-78 0 -124 35.5t-46 97.5v7h85v-3q0 -27 22.5 -43t59.5 -16q38 0 59.5 18.5t21.5 48.5q0 32 -22.5 50t-60.5 18q-27 0 -57 -12l-32 41l118 113h-172v79h301v-45z" />
    <glyph glyph-name="uni00B4" unicode="&#xb4;" horiz-adv-x="502" 
d="M119 621l124 167l155 -13l-182 -154h-97z" />
    <glyph glyph-name="uni00B5" unicode="&#xb5;" horiz-adv-x="641" 
d="M64 546h137v-292q0 -142 110 -142q74 0 128 63v371h137v-546h-131v56q-58 -68 -145 -68q-62 0 -99 37v-201h-137v722z" />
    <glyph glyph-name="uni00B6" unicode="&#xb6;" horiz-adv-x="602" 
d="M34 509q0 93 65.5 146.5t180.5 53.5h272v-709h-96v610h-62v-610h-96v300h-15q-116 0 -182.5 55.5t-66.5 153.5zM150 504q0 -50 30.5 -78t84.5 -28h34v210h-24q-58 0 -91.5 -27.5t-33.5 -76.5z" />
    <glyph glyph-name="uni00B7" unicode="&#xb7;" horiz-adv-x="247" 
d="M125 243q-35 0 -60 25t-25 60t25 60t60 25q34 0 58.5 -25t24.5 -60t-24.5 -60t-58.5 -25z" />
    <glyph glyph-name="uni00B8" unicode="&#xb8;" horiz-adv-x="431" 
d="M335 -39q61 -13 61 -60q0 -44 -36 -67t-102 -23q-44 0 -72 6v56q21 -4 49 -4q58 0 58 37q0 25 -53 30v23l40 45l75 3z" />
    <glyph glyph-name="uni00B9" unicode="&#xb9;" horiz-adv-x="259" 
d="M119 282v333l-87 -30l-26 71l144 53h56v-427h-87z" />
    <glyph glyph-name="uni00BA" unicode="&#xba;" horiz-adv-x="467" 
d="M233 314q-94 0 -153 56t-59 147q0 89 59 144.5t153 55.5t153 -55t59 -145q0 -91 -59 -147t-153 -56zM233 394q53 0 87 34t34 89q0 53 -34 86.5t-87 33.5q-52 0 -86.5 -33.5t-34.5 -86.5q0 -55 34 -89t87 -34z" />
    <glyph glyph-name="uni00BB" unicode="&#xbb;" horiz-adv-x="577" 
d="M127 7l-91 70l140 191l-140 191l91 68l176 -259zM375 7l-91 70l140 191l-140 191l91 68l176 -259z" />
    <glyph glyph-name="uni00BC" unicode="&#xbc;" horiz-adv-x="782" 
d="M392 73v46l251 310h63v-281h66v-75h-66v-73h-87v73h-227zM80 0l488 709h105l-488 -709h-105zM6 656l144 53h56v-427h-87v333l-87 -30zM627 308l-132 -166h132v166z" />
    <glyph glyph-name="uni00BD" unicode="&#xbd;" horiz-adv-x="857" 
d="M505 288q0 68 44 106.5t121 38.5q71 0 116.5 -32t45.5 -91q0 -39 -18 -69.5t-42.5 -49t-74.5 -48.5q-79 -47 -95 -64h232v-79h-328v31q1 49 28.5 82.5t97.5 79.5q59 37 82 58t23 51q0 25 -19.5 38.5t-48.5 13.5q-36 0 -58 -19t-22 -52v-13h-84v18zM185 0h-105l488 709
h105zM32 585l-26 71l144 53h56v-427h-87v333z" />
    <glyph glyph-name="uni00BE" unicode="&#xbe;" horiz-adv-x="884" 
d="M187 275q-78 0 -124 35.5t-46 97.5v7h85v-3q0 -27 22.5 -43t59.5 -16q38 0 59.5 18.5t21.5 48.5q0 32 -22.5 50t-60.5 18q-27 0 -57 -12l-32 41l118 113h-172v79h301v-45l-121 -113q65 -2 101 -41t36 -94q0 -68 -46 -104.5t-123 -36.5zM494 73v46l251 310h63v-281h66v-75
h-66v-73h-87v73h-227zM287 0h-105l488 709h105zM597 142h132v166z" />
    <glyph glyph-name="uni00BF" unicode="&#xbf;" horiz-adv-x="582" 
d="M326 723q35 0 60 -25t25 -61q0 -35 -25 -60t-60 -25q-34 0 -58.5 25t-24.5 60q0 36 24 61t59 25zM30 210q0 93 65.5 158.5t179.5 72.5l16 61h74l15 -146l-42 -4q-80 -7 -124 -43t-44 -91t39.5 -84.5t93.5 -29.5q66 0 105 36t39 104v12h129v-19q0 -119 -77 -185t-202 -66
q-117 0 -192 57t-75 167z" />
    <glyph glyph-name="uni00C0" unicode="&#xc0;" horiz-adv-x="751" 
d="M159 0h-154l324 712h92l325 -712h-154l-62 135h-310zM268 254h215l-53 126l-55 145l-54 -145zM154 919l154 12l124 -167h-97z" />
    <glyph glyph-name="uni00C1" unicode="&#xc1;" horiz-adv-x="751" 
d="M5 0l324 712h92l325 -712h-154l-62 135h-310l-61 -135h-154zM321 380l-53 -126h215l-53 126l-55 145zM415 764h-97l124 167l155 -12z" />
    <glyph glyph-name="uni00C2" unicode="&#xc2;" horiz-adv-x="751" 
d="M159 0h-154l324 712h92l325 -712h-154l-62 135h-310zM187 764l144 164h91l144 -164h-103l-87 70l-87 -70h-102zM268 254h215l-53 126l-55 145l-54 -145z" />
    <glyph glyph-name="uni00C3" unicode="&#xc3;" horiz-adv-x="751" 
d="M159 0h-154l324 712h92l325 -712h-154l-62 135h-310zM228 758l-63 14q10 68 40.5 105.5t77.5 37.5q39 0 98 -30t77 -30q42 0 65 56l63 -15q-10 -68 -40.5 -105t-76.5 -37q-36 0 -96 30t-77 30q-42 0 -68 -56zM321 380l-53 -126h215l-53 126l-55 145z" />
    <glyph glyph-name="uni00C4" unicode="&#xc4;" horiz-adv-x="751" 
d="M159 0h-154l324 712h92l325 -712h-154l-62 135h-310zM321 380l-53 -126h215l-53 126l-55 145zM264 759q-35 0 -59.5 24.5t-24.5 59.5t24.5 59.5t59.5 24.5t59 -24.5t24 -59.5t-24 -59.5t-59 -24.5zM488 759q-35 0 -59 24.5t-24 59.5t24 59.5t59 24.5t59 -24.5t24 -59.5
t-24 -59.5t-59 -24.5z" />
    <glyph glyph-name="uni00C5" unicode="&#xc5;" horiz-adv-x="751" 
d="M5 0l315 693q-63 30 -63 104q0 50 33.5 82.5t84.5 32.5t84.5 -32.5t33.5 -82.5q0 -74 -63 -104l316 -693h-154l-62 135h-310l-61 -135h-154zM321 380l-53 -126h215l-53 126l-55 145zM375 856q-24 0 -40 -16.5t-16 -42.5q0 -25 16 -41t40 -16q25 0 41 16.5t16 42.5
q0 25 -16 41t-41 16z" />
    <glyph glyph-name="uni00C6" unicode="&#xc6;" horiz-adv-x="1023" 
d="M3 0l357 709h612v-128h-377v-171h318v-121h-318v-162h393v-127h-531v135h-229l-68 -135h-157zM437 576l-158 -322h178v322h-20z" />
    <glyph glyph-name="uni00C7" unicode="&#xc7;" horiz-adv-x="746" 
d="M416 120q129 0 196 94l110 -93q-99 -121 -273 -134l-11 -26q61 -13 61 -60q0 -44 -36 -67t-102 -23q-43 0 -72 6v56q21 -4 49 -4q58 0 58 37q0 25 -53 30v23l26 29q-150 13 -238.5 111.5t-88.5 257.5q0 170 100.5 267.5t269.5 97.5q199 0 310 -136l-110 -93
q-68 95 -196 95q-103 0 -165 -62t-62 -169q0 -109 62 -173t165 -64z" />
    <glyph glyph-name="uni00C8" unicode="&#xc8;" horiz-adv-x="634" 
d="M68 709h515v-128h-378v-171h318v-121h-318v-162h394v-127h-531v709zM97 919l154 12l124 -167h-97z" />
    <glyph glyph-name="uni00C9" unicode="&#xc9;" horiz-adv-x="634" 
d="M68 709h515v-128h-378v-171h318v-121h-318v-162h394v-127h-531v709zM358 764h-97l124 167l155 -12z" />
    <glyph glyph-name="uni00CA" unicode="&#xca;" horiz-adv-x="634" 
d="M68 709h515v-128h-378v-171h318v-121h-318v-162h394v-127h-531v709zM130 764l144 164h91l144 -164h-103l-87 70l-87 -70h-102z" />
    <glyph glyph-name="uni00CB" unicode="&#xcb;" horiz-adv-x="634" 
d="M68 0v709h515v-128h-378v-171h318v-121h-318v-162h394v-127h-531zM207 759q-35 0 -59.5 24.5t-24.5 59.5t24.5 59.5t59.5 24.5t59 -24.5t24 -59.5t-24 -59.5t-59 -24.5zM348 843q0 35 24 59.5t59 24.5t59 -24.5t24 -59.5t-24 -59.5t-59 -24.5t-59 24.5t-24 59.5z" />
    <glyph glyph-name="uni00CC" unicode="&#xcc;" horiz-adv-x="295" 
d="M206 764h-97l-181 155l154 12zM75 0v709h145v-709h-145z" />
    <glyph glyph-name="uni00CD" unicode="&#xcd;" horiz-adv-x="295" 
d="M92 764l124 167l155 -12l-182 -155h-97zM75 0v709h145v-709h-145z" />
    <glyph glyph-name="uni00CE" unicode="&#xce;" horiz-adv-x="295" 
d="M220 0h-145v709h145v-709zM-39 764l144 164h91l144 -164h-103l-87 70l-87 -70h-102z" />
    <glyph glyph-name="uni00CF" unicode="&#xcf;" horiz-adv-x="295" 
d="M38 759q-35 0 -59.5 24.5t-24.5 59.5t24.5 59.5t59.5 24.5t59 -24.5t24 -59.5t-24 -59.5t-59 -24.5zM262 759q-35 0 -59 24.5t-24 59.5t24 59.5t59 24.5t59 -24.5t24 -59.5t-24 -59.5t-59 -24.5zM75 0v709h145v-709h-145z" />
    <glyph glyph-name="uni00D0" unicode="&#xd0;" horiz-adv-x="757" 
d="M89 298h-75v111h75v300h275q167 0 259 -87.5t92 -258.5q0 -170 -90 -266.5t-258 -96.5h-278v298zM226 578v-169h168v-111h-168v-168h144q90 0 144 59t54 174q0 104 -53 159.5t-149 55.5h-140z" />
    <glyph glyph-name="uni00D1" unicode="&#xd1;" horiz-adv-x="771" 
d="M239 758l-63 14q10 68 40.5 105.5t77.5 37.5q39 0 97.5 -30t77.5 -30q42 0 65 56l63 -15q-10 -68 -40.5 -105t-76.5 -37q-36 0 -96 30t-77 30q-42 0 -68 -56zM564 709h140v-713h-73l-423 450v-446h-140v713h71l425 -450v446z" />
    <glyph glyph-name="uni00D2" unicode="&#xd2;" horiz-adv-x="845" 
d="M481 764h-97l-181 155l154 12zM422 -14q-167 0 -273.5 101.5t-106.5 266.5q0 163 104.5 266t275.5 103q168 0 275 -102t107 -267q0 -162 -105.5 -265t-276.5 -103zM422 119q103 0 168.5 64.5t65.5 170.5q0 104 -64 170t-170 66q-102 0 -167.5 -65t-65.5 -171
q0 -104 64.5 -169.5t168.5 -65.5z" />
    <glyph glyph-name="uni00D3" unicode="&#xd3;" horiz-adv-x="845" 
d="M367 764l124 167l155 -12l-182 -155h-97zM422 -14q-167 0 -273.5 101.5t-106.5 266.5q0 163 104.5 266t275.5 103q168 0 275 -102t107 -267q0 -162 -105.5 -265t-276.5 -103zM422 119q103 0 168.5 64.5t65.5 170.5q0 104 -64 170t-170 66q-102 0 -167.5 -65t-65.5 -171
q0 -104 64.5 -169.5t168.5 -65.5z" />
    <glyph glyph-name="uni00D4" unicode="&#xd4;" horiz-adv-x="845" 
d="M42 354q0 163 104.5 266t275.5 103q168 0 275 -102t107 -267q0 -162 -105.5 -265t-276.5 -103q-167 0 -273.5 101.5t-106.5 266.5zM422 590q-102 0 -167.5 -65t-65.5 -171q0 -104 64.5 -169.5t168.5 -65.5q103 0 168.5 64.5t65.5 170.5q0 104 -64 170t-170 66zM338 764
h-102l144 164h91l144 -164h-103l-87 70z" />
    <glyph glyph-name="uni00D5" unicode="&#xd5;" horiz-adv-x="845" 
d="M277 758l-63 14q10 68 40.5 105.5t77.5 37.5q40 0 98 -30t77 -30q42 0 65 56l63 -15q-10 -68 -40.5 -105t-76.5 -37q-36 0 -96 30t-77 30q-42 0 -68 -56zM422 -14q-167 0 -273.5 101.5t-106.5 266.5q0 163 104.5 266t275.5 103q168 0 275 -102t107 -267
q0 -162 -105.5 -265t-276.5 -103zM422 119q103 0 168.5 64.5t65.5 170.5q0 104 -64 170t-170 66q-102 0 -167.5 -65t-65.5 -171q0 -104 64.5 -169.5t168.5 -65.5z" />
    <glyph glyph-name="uni00D6" unicode="&#xd6;" horiz-adv-x="845" 
d="M313 759q-35 0 -59.5 24.5t-24.5 59.5t24.5 59.5t59.5 24.5t59 -24.5t24 -59.5t-24 -59.5t-59 -24.5zM537 759q-35 0 -59 24.5t-24 59.5t24 59.5t59 24.5t59 -24.5t24 -59.5t-24 -59.5t-59 -24.5zM422 -14q-167 0 -273.5 101.5t-106.5 266.5q0 163 104.5 266t275.5 103
q168 0 275 -102t107 -267q0 -162 -105.5 -265t-276.5 -103zM422 119q103 0 168.5 64.5t65.5 170.5q0 104 -64 170t-170 66q-102 0 -167.5 -65t-65.5 -171q0 -104 64.5 -169.5t168.5 -65.5z" />
    <glyph glyph-name="uni00D7" unicode="&#xd7;" horiz-adv-x="582" 
d="M116 72l-83 83l176 175l-176 175l82 84l176 -176l177 176l81 -84l-176 -175l175 -175l-80 -84l-177 175z" />
    <glyph glyph-name="uni00D8" unicode="&#xd8;" horiz-adv-x="845" 
d="M711 606q93 -99 93 -252q0 -162 -105.5 -265t-276.5 -103q-117 0 -207 52l-33 -38h-131l86 99q-95 100 -95 255q0 163 104.5 266t275.5 103q119 0 212 -54l34 40h133zM189 354q0 -84 44 -145l308 353q-53 28 -119 28q-102 0 -167.5 -65t-65.5 -171zM422 119
q103 0 168.5 64.5t65.5 170.5q0 80 -41 142l-306 -351q49 -26 113 -26z" />
    <glyph glyph-name="uni00D9" unicode="&#xd9;" horiz-adv-x="732" 
d="M60 280v429h143v-395q0 -102 39 -147.5t124 -45.5t124.5 45.5t39.5 147.5v395h142v-429q0 -294 -306 -294q-151 0 -228.5 74t-77.5 220zM327 764l-181 155l154 12l124 -167h-97z" />
    <glyph glyph-name="uni00DA" unicode="&#xda;" horiz-adv-x="732" 
d="M366 -14q-151 0 -228.5 74t-77.5 220v429h143v-395q0 -102 39 -147.5t124 -45.5t124.5 45.5t39.5 147.5v395h142v-429q0 -294 -306 -294zM310 764l124 167l155 -12l-182 -155h-97z" />
    <glyph glyph-name="uni00DB" unicode="&#xdb;" horiz-adv-x="732" 
d="M366 -14q-151 0 -228.5 74t-77.5 220v429h143v-395q0 -102 39 -147.5t124 -45.5t124.5 45.5t39.5 147.5v395h142v-429q0 -294 -306 -294zM179 764l144 164h91l144 -164h-103l-87 70l-87 -70h-102z" />
    <glyph glyph-name="uni00DC" unicode="&#xdc;" horiz-adv-x="732" 
d="M60 280v429h143v-395q0 -102 39 -147.5t124 -45.5t124.5 45.5t39.5 147.5v395h142v-429q0 -294 -306 -294q-151 0 -228.5 74t-77.5 220zM172 843q0 35 24.5 59.5t59.5 24.5t59 -24.5t24 -59.5t-24 -59.5t-59 -24.5t-59.5 24.5t-24.5 59.5zM480 759q-35 0 -59 24.5
t-24 59.5t24 59.5t59 24.5t59 -24.5t24 -59.5t-24 -59.5t-59 -24.5z" />
    <glyph glyph-name="uni00DD" unicode="&#xdd;" horiz-adv-x="666" 
d="M261 246l-262 463h165l170 -321l171 321h162l-262 -463v-246h-144v246zM373 764h-97l124 167l155 -12z" />
    <glyph glyph-name="uni00DE" unicode="&#xde;" horiz-adv-x="656" 
d="M68 709h141v-95h141q141 0 214 -64.5t73 -189.5q0 -262 -306 -262h-122v-98h-141v709zM209 222h121q161 0 161 134q0 133 -150 133h-132v-267z" />
    <glyph glyph-name="uni00DF" unicode="&#xdf;" horiz-adv-x="638" 
d="M467 426q62 -15 100.5 -71.5t38.5 -123.5q0 -121 -68 -181.5t-191 -60.5q-35 0 -86 7v124q36 -6 69 -6q134 0 134 121q0 57 -38 86t-107 29h-35v112h28q45 0 71 29t26 70q0 44 -29 69.5t-73 25.5q-57 0 -88.5 -34t-31.5 -95v-703h-138v692q0 130 71.5 193t184.5 63
q110 0 174 -53t64 -154q0 -43 -21 -80.5t-55 -58.5z" />
    <glyph glyph-name="uni00E0" unicode="&#xe0;" horiz-adv-x="640" 
d="M380 620h-98l-181 155l155 12zM320 557q119 0 189 -62.5t70 -148.5v-345h-134v58q-32 -32 -81.5 -52.5t-101.5 -20.5q-98 0 -154.5 54.5t-54.5 129.5q3 96 71.5 133.5t180.5 37.5h137q0 46 -36 70t-92 24q-100 -2 -144 -57l-89 82q36 50 101.5 73.5t137.5 23.5zM442 217
l1 17h-137q-57 0 -85.5 -12.5t-28.5 -44.5q0 -31 26 -52t73 -21q64 0 107.5 30t43.5 83z" />
    <glyph glyph-name="uni00E1" unicode="&#xe1;" horiz-adv-x="640" 
d="M252 621l124 167l155 -13l-181 -154h-98zM321 557q119 0 189 -62.5t70 -148.5v-345h-134v58q-32 -32 -81.5 -52.5t-101.5 -20.5q-98 0 -154.5 54.5t-54.5 129.5q3 96 71.5 133.5t180.5 37.5h137q0 46 -36 70t-92 24q-100 -2 -144 -57l-89 82q36 50 101.5 73.5t137.5 23.5
zM443 217l1 17h-137q-57 0 -85.5 -12.5t-28.5 -44.5q0 -31 26 -52t73 -21q64 0 107.5 30t43.5 83z" />
    <glyph glyph-name="uni00E2" unicode="&#xe2;" horiz-adv-x="640" 
d="M262 -14q-98 0 -154.5 54.5t-54.5 129.5q3 96 71.5 133.5t180.5 37.5h137q0 46 -36 70t-92 24q-100 -2 -144 -57l-89 82q36 50 101.5 73.5t137.5 23.5q119 0 189 -62.5t70 -148.5v-345h-134v58q-32 -32 -81.5 -52.5t-101.5 -20.5zM227 620h-102l144 164h91l144 -164h-103
l-87 69zM192 177q0 -31 26 -52t73 -21q64 0 107.5 30t43.5 83l1 17h-137q-57 0 -85.5 -12.5t-28.5 -44.5z" />
    <glyph glyph-name="uni00E3" unicode="&#xe3;" horiz-adv-x="640" 
d="M168 618l-63 15q10 68 40.5 105t77.5 37q39 0 98 -29.5t77 -29.5q42 0 65 56l63 -15q-10 -68 -40.5 -105t-76.5 -37q-36 0 -96 29.5t-77 29.5q-43 0 -68 -56zM320 557q119 0 189 -62.5t70 -148.5v-345h-134v58q-32 -32 -81.5 -52.5t-101.5 -20.5q-98 0 -154.5 54.5
t-54.5 129.5q3 96 71.5 133.5t180.5 37.5h137q0 46 -36 70t-92 24q-100 -2 -144 -57l-89 82q36 50 101.5 73.5t137.5 23.5zM442 217l1 17h-137q-57 0 -85.5 -12.5t-28.5 -44.5q0 -31 26 -52t73 -21q64 0 107.5 30t43.5 83z" />
    <glyph glyph-name="uni00E4" unicode="&#xe4;" horiz-adv-x="640" 
d="M203 614q-35 0 -59.5 24.5t-24.5 59.5t24.5 59.5t59.5 24.5q34 0 58 -24.5t24 -59.5t-24 -59.5t-58 -24.5zM427 614q-35 0 -59.5 24.5t-24.5 59.5t24.5 59.5t59.5 24.5q34 0 58 -24.5t24 -59.5t-24 -59.5t-58 -24.5zM320 557q119 0 189 -62.5t70 -148.5v-345h-134v58
q-32 -32 -81.5 -52.5t-101.5 -20.5q-98 0 -154.5 54.5t-54.5 129.5q3 96 71.5 133.5t180.5 37.5h137q0 46 -36 70t-92 24q-100 -2 -144 -57l-89 82q36 50 101.5 73.5t137.5 23.5zM442 217l1 17h-137q-57 0 -85.5 -12.5t-28.5 -44.5q0 -31 26 -52t73 -21q64 0 107.5 30
t43.5 83z" />
    <glyph glyph-name="uni00E5" unicode="&#xe5;" horiz-adv-x="640" 
d="M315 613q-51 0 -84.5 32.5t-33.5 83.5q0 50 33.5 82.5t84.5 32.5t84.5 -32.5t33.5 -82.5q0 -51 -33.5 -83.5t-84.5 -32.5zM315 672q25 0 41 16.5t16 41.5t-16 41t-41 16q-24 0 -40 -16.5t-16 -41.5t16 -41t40 -16zM320 557q119 0 189 -62.5t70 -148.5v-345h-134v58
q-32 -32 -81.5 -52.5t-101.5 -20.5q-98 0 -154.5 54.5t-54.5 129.5q3 96 71.5 133.5t180.5 37.5h137q0 46 -36 70t-92 24q-100 -2 -144 -57l-89 82q36 50 101.5 73.5t137.5 23.5zM442 217l1 17h-137q-57 0 -85.5 -12.5t-28.5 -44.5q0 -31 26 -52t73 -21q64 0 107.5 30
t43.5 83z" />
    <glyph glyph-name="uni00E6" unicode="&#xe6;" horiz-adv-x="1044" 
d="M293 -12q-117 0 -187 77.5t-70 209.5q0 130 69.5 208t182.5 78q103 0 162 -60v47h137v-42q62 55 159 55q130 0 202 -79t72 -209l-1 -41h-425q11 -62 53 -95t111 -33q103 0 159 71l88 -75q-80 -110 -244 -110q-108 0 -174 55v-45h-135v53q-54 -65 -159 -65zM174 276
q0 -77 39.5 -121t107.5 -44q92 0 131 74v182q-20 33 -57 52t-77 19q-65 0 -104.5 -43t-39.5 -119zM595 332h290q-7 49 -43 81.5t-103 32.5q-55 0 -93.5 -28.5t-50.5 -85.5z" />
    <glyph glyph-name="uni00E7" unicode="&#xe7;" horiz-adv-x="597" 
d="M570 98q-72 -96 -208 -108l-13 -29q61 -13 61 -60q0 -44 -36 -67t-102 -23q-44 0 -72 6v56q21 -4 49 -4q58 0 58 37q0 25 -53 30v23l29 33q-117 13 -182 88t-65 194q0 126 79 204.5t214 78.5q77 0 139 -29t99 -80l-96 -86q-21 31 -57 50t-78 19q-72 0 -115.5 -42.5
t-43.5 -113.5q0 -73 43 -116.5t115 -43.5q45 0 82 19.5t59 49.5z" />
    <glyph glyph-name="uni00E8" unicode="&#xe8;" horiz-adv-x="625" 
d="M376 622h-98l-181 155l155 12zM601 273q0 -30 -1 -41h-424q11 -61 52.5 -94t108.5 -33q102 0 158 70l87 -74q-81 -112 -255 -112q-136 0 -213.5 77t-77.5 209q0 129 79 207.5t205 78.5q137 0 209 -78.5t72 -209.5zM320 446q-55 0 -93 -28.5t-50 -85.5h289q-7 49 -43 81.5
t-103 32.5z" />
    <glyph glyph-name="uni00E9" unicode="&#xe9;" horiz-adv-x="625" 
d="M247 623l124 167l155 -13l-181 -154h-98zM601 273q0 -30 -1 -41h-424q11 -61 52.5 -94t108.5 -33q102 0 158 70l87 -74q-81 -112 -255 -112q-136 0 -213.5 77t-77.5 209q0 129 79 207.5t205 78.5q137 0 209 -78.5t72 -209.5zM320 446q-55 0 -93 -28.5t-50 -85.5h289
q-7 49 -43 81.5t-103 32.5z" />
    <glyph glyph-name="uni00EA" unicode="&#xea;" horiz-adv-x="625" 
d="M327 -11q-136 0 -213.5 77t-77.5 209q0 129 79 207.5t205 78.5q137 0 209 -78.5t72 -209.5q0 -30 -1 -41h-424q11 -61 52.5 -94t108.5 -33q102 0 158 70l87 -74q-81 -112 -255 -112zM122 622l144 164h91l144 -164h-103l-87 69l-87 -69h-102zM177 332h289q-7 49 -43 81.5
t-103 32.5q-55 0 -93 -28.5t-50 -85.5z" />
    <glyph glyph-name="uni00EB" unicode="&#xeb;" horiz-adv-x="625" 
d="M199 616q-35 0 -59.5 24.5t-24.5 59.5t24.5 59.5t59.5 24.5q34 0 58 -24.5t24 -59.5t-24 -59.5t-58 -24.5zM423 616q-35 0 -59.5 24.5t-24.5 59.5t24.5 59.5t59.5 24.5q34 0 58 -24.5t24 -59.5t-24 -59.5t-58 -24.5zM601 273q0 -30 -1 -41h-424q11 -61 52.5 -94
t108.5 -33q102 0 158 70l87 -74q-81 -112 -255 -112q-136 0 -213.5 77t-77.5 209q0 129 79 207.5t205 78.5q137 0 209 -78.5t72 -209.5zM320 446q-55 0 -93 -28.5t-50 -85.5h289q-7 49 -43 81.5t-103 32.5z" />
    <glyph glyph-name="uni00EC" unicode="&#xec;" horiz-adv-x="272" 
d="M203 620h-98l-181 155l155 12zM66 0v546h140v-546h-140z" />
    <glyph glyph-name="uni00ED" unicode="&#xed;" horiz-adv-x="272" 
d="M74 621l124 167l155 -13l-181 -154h-98zM66 0v546h140v-546h-140z" />
    <glyph glyph-name="uni00EE" unicode="&#xee;" horiz-adv-x="272" 
d="M206 0h-140v546h140v-546zM-51 620l144 164h91l144 -164h-103l-87 69l-87 -69h-102z" />
    <glyph glyph-name="uni00EF" unicode="&#xef;" horiz-adv-x="272" 
d="M26 614q-35 0 -59.5 24.5t-24.5 59.5t24.5 59.5t59.5 24.5q34 0 58 -24.5t24 -59.5t-24 -59.5t-58 -24.5zM250 614q-35 0 -59.5 24.5t-24.5 59.5t24.5 59.5t59.5 24.5q34 0 58 -24.5t24 -59.5t-24 -59.5t-58 -24.5zM66 0v546h140v-546h-140z" />
    <glyph glyph-name="uni00F0" unicode="&#xf0;" horiz-adv-x="674" 
d="M525 639q112 -117 112 -302q0 -169 -79.5 -259t-223.5 -90q-134 0 -216 76t-82 201q0 114 70.5 184t191.5 70q127 0 199 -82q-20 99 -108 157l-143 -61v75l57 24q-54 16 -127 19v121q144 -6 247 -58l167 67v-115zM333 114q73 0 115.5 50t44.5 132q-25 58 -70 85.5
t-97 27.5q-66 0 -106.5 -41t-40.5 -103q0 -66 43.5 -108.5t110.5 -42.5z" />
    <glyph glyph-name="uni00F1" unicode="&#xf1;" horiz-adv-x="638" 
d="M66 546h133v-50q76 62 175 62q105 0 156.5 -53.5t51.5 -178.5v-326h-137v292q0 78 -29.5 110t-85.5 32q-71 0 -126 -57v-377h-138v546zM176 618l-63 15q10 68 40.5 105t77.5 37q39 0 98 -29.5t77 -29.5q42 0 65 56l63 -15q-10 -68 -40.5 -105t-76.5 -37q-36 0 -96 29.5
t-77 29.5q-43 0 -68 -56z" />
    <glyph glyph-name="uni00F2" unicode="&#xf2;" horiz-adv-x="673" 
d="M404 620h-98l-181 155l155 12zM337 -12q-136 0 -218.5 77.5t-82.5 208.5q0 129 83 206.5t218 77.5t217 -77.5t82 -206.5q0 -131 -82 -208.5t-217 -77.5zM337 114q70 0 113.5 44t43.5 116q0 71 -43.5 114.5t-113.5 43.5q-71 0 -114.5 -43.5t-43.5 -114.5q0 -72 43.5 -116
t114.5 -44z" />
    <glyph glyph-name="uni00F3" unicode="&#xf3;" horiz-adv-x="673" 
d="M275 621l124 167l155 -13l-181 -154h-98zM337 -12q-136 0 -218.5 77.5t-82.5 208.5q0 129 83 206.5t218 77.5t217 -77.5t82 -206.5q0 -131 -82 -208.5t-217 -77.5zM337 114q70 0 113.5 44t43.5 116q0 71 -43.5 114.5t-113.5 43.5q-71 0 -114.5 -43.5t-43.5 -114.5
q0 -72 43.5 -116t114.5 -44z" />
    <glyph glyph-name="uni00F4" unicode="&#xf4;" horiz-adv-x="673" 
d="M337 -12q-136 0 -218.5 77.5t-82.5 208.5q0 129 83 206.5t218 77.5t217 -77.5t82 -206.5q0 -131 -82 -208.5t-217 -77.5zM337 432q-71 0 -114.5 -43.5t-43.5 -114.5q0 -72 43.5 -116t114.5 -44q70 0 113.5 44t43.5 116q0 71 -43.5 114.5t-113.5 43.5zM252 620h-102
l144 164h91l144 -164h-103l-87 69z" />
    <glyph glyph-name="uni00F5" unicode="&#xf5;" horiz-adv-x="673" 
d="M192 618l-63 15q10 68 40.5 105t77.5 37q39 0 98 -29.5t77 -29.5q42 0 65 56l63 -15q-10 -68 -40.5 -105t-76.5 -37q-36 0 -96 29.5t-77 29.5q-43 0 -68 -56zM337 -12q-136 0 -218.5 77.5t-82.5 208.5q0 129 83 206.5t218 77.5t217 -77.5t82 -206.5q0 -131 -82 -208.5
t-217 -77.5zM337 114q70 0 113.5 44t43.5 116q0 71 -43.5 114.5t-113.5 43.5q-71 0 -114.5 -43.5t-43.5 -114.5q0 -72 43.5 -116t114.5 -44z" />
    <glyph glyph-name="uni00F6" unicode="&#xf6;" horiz-adv-x="673" 
d="M227 614q-35 0 -59.5 24.5t-24.5 59.5t24.5 59.5t59.5 24.5q34 0 58 -24.5t24 -59.5t-24 -59.5t-58 -24.5zM451 614q-35 0 -59.5 24.5t-24.5 59.5t24.5 59.5t59.5 24.5q34 0 58 -24.5t24 -59.5t-24 -59.5t-58 -24.5zM337 -12q-136 0 -218.5 77.5t-82.5 208.5
q0 129 83 206.5t218 77.5t217 -77.5t82 -206.5q0 -131 -82 -208.5t-217 -77.5zM337 114q70 0 113.5 44t43.5 116q0 71 -43.5 114.5t-113.5 43.5q-71 0 -114.5 -43.5t-43.5 -114.5q0 -72 43.5 -116t114.5 -44z" />
    <glyph glyph-name="uni00F7" unicode="&#xf7;" horiz-adv-x="510" 
d="M254 450q-33 0 -57 23.5t-24 57.5t24 57.5t57 23.5t56.5 -23.5t23.5 -57.5t-23.5 -57.5t-56.5 -23.5zM36 271v118h438v-118h-438zM254 55q-33 0 -57 23.5t-24 57.5t24 57.5t57 23.5t56.5 -23.5t23.5 -57.5t-23.5 -57.5t-56.5 -23.5z" />
    <glyph glyph-name="uni00F8" unicode="&#xf8;" horiz-adv-x="673" 
d="M636 545l-69 -78q69 -77 69 -193q0 -131 -82 -208.5t-218 -77.5q-90 0 -160 36l-22 -25h-119l70 80q-69 77 -69 195q0 129 82.5 206.5t217.5 77.5q92 0 161 -37l20 24h119zM169 274q0 -53 24 -96l220 249q-32 16 -77 16q-75 0 -121 -46.5t-46 -122.5zM503 274
q0 54 -24 93l-220 -249q37 -16 77 -16q75 0 121 47t46 125z" />
    <glyph glyph-name="uni00F9" unicode="&#xf9;" horiz-adv-x="624" 
d="M53 219v327h138v-292q0 -142 110 -142q75 0 127 63v371h138v-546h-131v56q-70 -68 -175 -68q-207 0 -207 231zM280 620l-181 155l155 12l124 -167h-98z" />
    <glyph glyph-name="uni00FA" unicode="&#xfa;" horiz-adv-x="624" 
d="M53 546h138v-292q0 -142 110 -142q75 0 127 63v371h138v-546h-131v56q-70 -68 -175 -68q-207 0 -207 231v327zM347 621h-98l124 167l155 -13z" />
    <glyph glyph-name="uni00FB" unicode="&#xfb;" horiz-adv-x="624" 
d="M53 546h138v-292q0 -142 110 -142q75 0 127 63v371h138v-546h-131v56q-70 -68 -175 -68q-207 0 -207 231v327zM226 620h-102l144 164h91l144 -164h-103l-87 69z" />
    <glyph glyph-name="uni00FC" unicode="&#xfc;" horiz-adv-x="624" 
d="M53 546h138v-292q0 -142 110 -142q75 0 127 63v371h138v-546h-131v56q-70 -68 -175 -68q-207 0 -207 231v327zM117 698q0 35 24.5 59.5t59.5 24.5q34 0 58 -24.5t24 -59.5t-24 -59.5t-58 -24.5q-35 0 -59.5 24.5t-24.5 59.5zM425 614q-35 0 -59.5 24.5t-24.5 59.5
t24.5 59.5t59.5 24.5q34 0 58 -24.5t24 -59.5t-24 -59.5t-58 -24.5z" />
    <glyph glyph-name="uni00FD" unicode="&#xfd;" horiz-adv-x="598" 
d="M235 -1l-245 547h154l155 -381l147 381h147l-224 -552q-24 -61 -54 -100t-64 -56.5t-62.5 -23.5t-66.5 -6q-53 0 -89 12v119q44 -14 79 -14q85 0 123 74zM234 621l124 167l155 -13l-181 -154h-98z" />
    <glyph glyph-name="uni00FE" unicode="&#xfe;" horiz-adv-x="661" 
d="M63 -176v934h136v-259q61 60 168 60q116 0 187 -77.5t71 -207.5q0 -131 -72 -208.5t-192 -77.5q-108 0 -162 65v-229h-136zM199 368q-1 0 -1 -1t-1 -2v-181q1 0 1 -1t1 -2q41 -69 132 -69q69 0 110 43.5t41 118.5q0 76 -40.5 118.5t-107.5 42.5q-40 0 -77 -17.5
t-58 -49.5z" />
    <glyph glyph-name="uni00FF" unicode="&#xff;" horiz-adv-x="598" 
d="M-10 546h154l155 -381l147 381h147l-224 -552q-24 -61 -54 -100t-64 -56.5t-62.5 -23.5t-66.5 -6q-53 0 -89 12v119q44 -14 79 -14q85 0 123 74zM186 614q-35 0 -59.5 24.5t-24.5 59.5t24.5 59.5t59.5 24.5q34 0 58 -24.5t24 -59.5t-24 -59.5t-58 -24.5zM326 698
q0 35 24.5 59.5t59.5 24.5q34 0 58 -24.5t24 -59.5t-24 -59.5t-58 -24.5q-35 0 -59.5 24.5t-24.5 59.5z" />
    <glyph glyph-name="uni0100" unicode="&#x100;" horiz-adv-x="751" 
d="M159 0h-154l324 712h92l325 -712h-154l-62 135h-310zM553 768h-357v97h357v-97zM268 254h215l-53 126l-55 145l-54 -145z" />
    <glyph glyph-name="uni0101" unicode="&#x101;" horiz-adv-x="640" 
d="M135 644v97h357v-97h-357zM320 557q119 0 189 -62.5t70 -148.5v-345h-134v58q-32 -32 -81.5 -52.5t-101.5 -20.5q-98 0 -154.5 54.5t-54.5 129.5q3 96 71.5 133.5t180.5 37.5h137q0 46 -36 70t-92 24q-100 -2 -144 -57l-89 82q36 50 101.5 73.5t137.5 23.5zM442 217l1 17
h-137q-57 0 -85.5 -12.5t-28.5 -44.5q0 -31 26 -52t73 -21q64 0 107.5 30t43.5 83z" />
    <glyph glyph-name="uni0102" unicode="&#x102;" horiz-adv-x="751" 
d="M159 0h-154l324 712h92l325 -712h-154l-62 135h-310zM196 925h88q16 -64 91 -64t90 64h90q-3 -79 -51.5 -120t-128.5 -41t-128.5 41.5t-50.5 119.5zM321 380l-53 -126h215l-53 126l-55 145z" />
    <glyph glyph-name="uni0103" unicode="&#x103;" horiz-adv-x="640" 
d="M262 -14q-98 0 -154.5 54.5t-54.5 129.5q3 96 71.5 133.5t180.5 37.5h137q0 46 -36 70t-92 24q-100 -2 -144 -57l-89 82q36 50 101.5 73.5t137.5 23.5q119 0 189 -62.5t70 -148.5v-345h-134v58q-32 -32 -81.5 -52.5t-101.5 -20.5zM135 781h88q18 -64 92 -64t90 64h89
q-3 -79 -51 -119.5t-128 -40.5t-128.5 41t-51.5 119zM306 234q-57 0 -85.5 -12.5t-28.5 -44.5q0 -31 26 -52t73 -21q64 0 107.5 30t43.5 83l1 17h-137z" />
    <glyph glyph-name="uni0104" unicode="&#x104;" horiz-adv-x="751" 
d="M5 0l324 712h92l325 -712h1q-66 -34 -66 -72q0 -34 48 -34q11 0 19 1l1 -71q-30 -8 -65 -8q-52 0 -81.5 21.5t-29.5 58.5q0 28 19 55.5t54 48.5h-54l-62 135h-310l-61 -135h-154zM268 254h215l-53 126l-55 145l-54 -145z" />
    <glyph glyph-name="uni0105" unicode="&#x105;" horiz-adv-x="660" 
d="M300 -12q-120 0 -192 77.5t-72 208.5q0 130 71 207.5t187 77.5q107 0 168 -60v47h136v-546q-66 -34 -66 -72q0 -34 48 -34q11 0 19 1l1 -71q-30 -8 -65 -8q-52 0 -81.5 21.5t-29.5 58.5q0 28 19 55.5t54 48.5h-33v53q-54 -65 -164 -65zM178 274q0 -75 41 -118.5
t111 -43.5q94 0 134 72v181q-20 33 -58 51.5t-79 18.5q-67 0 -108 -42.5t-41 -118.5z" />
    <glyph glyph-name="uni0106" unicode="&#x106;" horiz-adv-x="746" 
d="M338 764l124 167l155 -12l-182 -155h-97zM412 -14q-168 0 -269 100t-101 271q0 170 100.5 267.5t269.5 97.5q199 0 310 -136l-110 -93q-68 95 -196 95q-103 0 -165 -62t-62 -169q0 -109 62 -173t165 -64q129 0 196 94l110 -93q-111 -135 -310 -135z" />
    <glyph glyph-name="uni0107" unicode="&#x107;" horiz-adv-x="597" 
d="M259 621l124 167l155 -13l-181 -154h-98zM330 -11q-138 0 -216 77t-78 208q0 126 79 204.5t214 78.5q77 0 139 -29t99 -80l-96 -86q-21 31 -57 50t-78 19q-72 0 -115.5 -42.5t-43.5 -113.5q0 -73 43 -116.5t115 -43.5q45 0 82 19.5t59 49.5l94 -86q-81 -109 -240 -109z
" />
    <glyph glyph-name="uni0108" unicode="&#x108;" horiz-adv-x="746" 
d="M42 357q0 170 100.5 267.5t269.5 97.5q199 0 310 -136l-110 -93q-68 95 -196 95q-103 0 -165 -62t-62 -169q0 -109 62 -173t165 -64q129 0 196 94l110 -93q-111 -135 -310 -135q-168 0 -269 100t-101 271zM207 764l144 164h91l144 -164h-103l-87 70l-87 -70h-102z" />
    <glyph glyph-name="uni0109" unicode="&#x109;" horiz-adv-x="597" 
d="M36 274q0 126 79 204.5t214 78.5q77 0 139 -29t99 -80l-96 -86q-21 31 -57 50t-78 19q-72 0 -115.5 -42.5t-43.5 -113.5q0 -73 43 -116.5t115 -43.5q45 0 82 19.5t59 49.5l94 -86q-81 -109 -240 -109q-138 0 -216 77t-78 208zM236 620h-102l144 164h91l144 -164h-103
l-87 69z" />
    <glyph glyph-name="uni010A" unicode="&#x10a;" horiz-adv-x="746" 
d="M395 764q-35 0 -60 25t-25 60t25 60t60 25t59.5 -25t24.5 -60t-24.5 -60t-59.5 -25zM412 -14q-168 0 -269 100t-101 271q0 170 100.5 267.5t269.5 97.5q199 0 310 -136l-110 -93q-68 95 -196 95q-103 0 -165 -62t-62 -169q0 -109 62 -173t165 -64q129 0 196 94l110 -93
q-111 -135 -310 -135z" />
    <glyph glyph-name="uni010B" unicode="&#x10b;" horiz-adv-x="597" 
d="M322 613q-35 0 -60 25t-25 60t25 60t60 25t59.5 -25t24.5 -60t-24.5 -60t-59.5 -25zM330 -11q-138 0 -216 77t-78 208q0 126 79 204.5t214 78.5q77 0 139 -29t99 -80l-96 -86q-21 31 -57 50t-78 19q-72 0 -115.5 -42.5t-43.5 -113.5q0 -73 43 -116.5t115 -43.5
q45 0 82 19.5t59 49.5l94 -86q-81 -109 -240 -109z" />
    <glyph glyph-name="uni010C" unicode="&#x10c;" horiz-adv-x="746" 
d="M42 357q0 170 100.5 267.5t269.5 97.5q199 0 310 -136l-110 -93q-68 95 -196 95q-103 0 -165 -62t-62 -169q0 -109 62 -173t165 -64q129 0 196 94l110 -93q-111 -135 -310 -135q-168 0 -269 100t-101 271zM352 764l-144 164h102l87 -69l87 69h103l-144 -164h-91z" />
    <glyph glyph-name="uni010D" unicode="&#x10d;" horiz-adv-x="597" 
d="M330 -11q-138 0 -216 77t-78 208q0 126 79 204.5t214 78.5q77 0 139 -29t99 -80l-96 -86q-21 31 -57 50t-78 19q-72 0 -115.5 -42.5t-43.5 -113.5q0 -73 43 -116.5t115 -43.5q45 0 82 19.5t59 49.5l94 -86q-81 -109 -240 -109zM278 621l-144 163h102l87 -69l87 69h103
l-144 -163h-91z" />
    <glyph glyph-name="uni010E" unicode="&#x10e;" horiz-adv-x="736" 
d="M68 709h276q167 0 259 -88t92 -258t-90 -266.5t-258 -96.5h-279v709zM206 578v-448h143q90 0 144 59t54 174q0 104 -53 159.5t-149 55.5h-139zM151 928h102l87 -69l87 69h103l-144 -164h-91z" />
    <glyph glyph-name="uni010F" unicode="&#x10f;" horiz-adv-x="700" 
d="M36 274q0 130 71 207.5t187 77.5q107 0 168 -60v259h136v-758h-134v53q-54 -65 -164 -65q-120 0 -192 77.5t-72 208.5zM327 435q-67 0 -108 -42.5t-41 -118.5q0 -75 41 -118.5t111 -43.5q94 0 134 72v181q-20 33 -58 51.5t-79 18.5zM725 668q-26 3 -46.5 22t-20.5 53
q0 32 20 52.5t53 20.5q36 0 58 -24t22 -72q0 -71 -39 -119t-111 -48v50q49 0 64 65z" />
    <glyph glyph-name="uni0110" unicode="&#x110;" horiz-adv-x="757" 
d="M89 298h-75v111h75v300h275q167 0 259 -87.5t92 -258.5q0 -170 -90 -266.5t-258 -96.5h-278v298zM226 578v-169h168v-111h-168v-168h144q90 0 144 59t54 174q0 104 -53 159.5t-149 55.5h-140z" />
    <glyph glyph-name="uni0111" unicode="&#x111;" horiz-adv-x="660" 
d="M296 -12q-119 0 -189.5 74.5t-70.5 196.5t69.5 196t184.5 74q112 0 172 -59v131h-180v104h180v53h136v-53h77v-104h-77v-601h-134v53q-54 -65 -168 -65zM325 406q-66 0 -106.5 -39.5t-40.5 -106.5t40.5 -107.5t109.5 -40.5q96 0 136 72v152q-20 32 -59 51t-80 19z" />
    <glyph glyph-name="uni0112" unicode="&#x112;" horiz-adv-x="634" 
d="M68 0v709h515v-128h-378v-171h318v-121h-318v-162h394v-127h-531zM496 768h-357v97h357v-97z" />
    <glyph glyph-name="uni0113" unicode="&#x113;" horiz-adv-x="625" 
d="M131 646v97h357v-97h-357zM601 273q0 -30 -1 -41h-424q11 -61 52.5 -94t108.5 -33q102 0 158 70l87 -74q-81 -112 -255 -112q-136 0 -213.5 77t-77.5 209q0 129 79 207.5t205 78.5q137 0 209 -78.5t72 -209.5zM320 446q-55 0 -93 -28.5t-50 -85.5h289q-7 49 -43 81.5
t-103 32.5z" />
    <glyph glyph-name="uni0114" unicode="&#x114;" horiz-adv-x="634" 
d="M68 0v709h515v-128h-378v-171h318v-121h-318v-162h394v-127h-531zM318 764q-80 0 -128.5 41.5t-50.5 119.5h88q16 -64 91 -64t90 64h90q-3 -79 -51.5 -120t-128.5 -41z" />
    <glyph glyph-name="uni0115" unicode="&#x115;" horiz-adv-x="625" 
d="M327 -11q-136 0 -213.5 77t-77.5 209q0 129 79 207.5t205 78.5q137 0 209 -78.5t72 -209.5q0 -30 -1 -41h-424q11 -61 52.5 -94t108.5 -33q102 0 158 70l87 -74q-81 -112 -255 -112zM311 623q-80 0 -128.5 41t-51.5 119h88q18 -64 92 -64t90 64h89q-3 -79 -51 -119.5
t-128 -40.5zM320 446q-55 0 -93 -28.5t-50 -85.5h289q-7 49 -43 81.5t-103 32.5z" />
    <glyph glyph-name="uni0116" unicode="&#x116;" horiz-adv-x="634" 
d="M68 709h515v-128h-378v-171h318v-121h-318v-162h394v-127h-531v709zM233 849q0 35 25 60t60 25t59.5 -25t24.5 -60t-24.5 -60t-59.5 -25t-60 25t-25 60z" />
    <glyph glyph-name="uni0117" unicode="&#x117;" horiz-adv-x="625" 
d="M310 615q-35 0 -60 25t-25 60t25 60t60 25t59.5 -25t24.5 -60t-24.5 -60t-59.5 -25zM601 273q0 -30 -1 -41h-424q11 -61 52.5 -94t108.5 -33q102 0 158 70l87 -74q-81 -112 -255 -112q-136 0 -213.5 77t-77.5 209q0 129 79 207.5t205 78.5q137 0 209 -78.5t72 -209.5z
M320 446q-55 0 -93 -28.5t-50 -85.5h289q-7 49 -43 81.5t-103 32.5z" />
    <glyph glyph-name="uni0118" unicode="&#x118;" horiz-adv-x="634" 
d="M68 0v709h515v-128h-378v-171h318v-121h-318v-162h394v-127h1q-66 -34 -66 -72q0 -34 48 -34q11 0 19 1l1 -71q-30 -8 -65 -8q-52 0 -81.5 21.5t-29.5 58.5q0 28 19 55.5t54 48.5h-431z" />
    <glyph glyph-name="uni0119" unicode="&#x119;" horiz-adv-x="625" 
d="M601 273q0 -30 -1 -41h-424q11 -61 52.5 -94t108.5 -33q102 0 158 70l87 -74q-69 -96 -206 -110q-51 -31 -51 -63q0 -34 48 -34q11 0 19 1l1 -71q-30 -8 -65 -8q-52 0 -81.5 21.5t-29.5 58.5q0 54 60 96q-114 14 -177.5 89t-63.5 194q0 129 79 207.5t205 78.5
q137 0 209 -78.5t72 -209.5zM177 332h289q-7 49 -43 81.5t-103 32.5q-55 0 -93 -28.5t-50 -85.5z" />
    <glyph glyph-name="uni011A" unicode="&#x11a;" horiz-adv-x="634" 
d="M68 709h515v-128h-378v-171h318v-121h-318v-162h394v-127h-531v709zM131 928h102l87 -69l87 69h103l-144 -164h-91z" />
    <glyph glyph-name="uni011B" unicode="&#x11b;" horiz-adv-x="625" 
d="M327 -11q-136 0 -213.5 77t-77.5 209q0 129 79 207.5t205 78.5q137 0 209 -78.5t72 -209.5q0 -30 -1 -41h-424q11 -61 52.5 -94t108.5 -33q102 0 158 70l87 -74q-81 -112 -255 -112zM266 623l-144 163h102l87 -69l87 69h103l-144 -163h-91zM177 332h289q-7 49 -43 81.5
t-103 32.5q-55 0 -93 -28.5t-50 -85.5z" />
    <glyph glyph-name="uni011C" unicode="&#x11c;" horiz-adv-x="780" 
d="M441 -14q-184 0 -291.5 99t-107.5 269q0 169 105 269t279 100q183 0 293 -102l-89 -100q-79 69 -203 69q-108 0 -173 -64t-65 -172q0 -112 69 -175t188 -63q105 0 167 46v103h-218v124h351v-298q-108 -105 -305 -105zM232 764l144 164h91l144 -164h-103l-87 70l-87 -70
h-102z" />
    <glyph glyph-name="uni011D" unicode="&#x11d;" horiz-adv-x="656" 
d="M36 291q0 119 71.5 193.5t186.5 74.5q107 0 168 -60v47h136v-450q0 -140 -66 -214t-218 -74q-136 0 -224 36v127q102 -46 202 -46q85 0 128.5 29t43.5 97v35q-54 -64 -164 -64q-119 0 -191.5 75t-72.5 194zM178 292q0 -65 41.5 -106t110.5 -41q94 0 134 72v148
q-20 33 -58 52t-79 19q-66 0 -107.5 -40t-41.5 -104zM247 620h-102l144 164h91l144 -164h-103l-87 69z" />
    <glyph glyph-name="uni011E" unicode="&#x11e;" horiz-adv-x="780" 
d="M42 354q0 169 105 269t279 100q183 0 293 -102l-89 -100q-79 69 -203 69q-108 0 -173 -64t-65 -172q0 -112 69 -175t188 -63q105 0 167 46v103h-218v124h351v-298q-108 -105 -305 -105q-184 0 -291.5 99t-107.5 269zM241 925h88q16 -64 91 -64t90 64h90
q-3 -79 -51.5 -120t-128.5 -41t-128.5 41.5t-50.5 119.5z" />
    <glyph glyph-name="uni011F" unicode="&#x11f;" horiz-adv-x="656" 
d="M300 22q-119 0 -191.5 75t-72.5 194t71.5 193.5t186.5 74.5q107 0 168 -60v47h136v-450q0 -140 -66 -214t-218 -74q-136 0 -224 36v127q102 -46 202 -46q85 0 128.5 29t43.5 97v35q-54 -64 -164 -64zM178 292q0 -65 41.5 -106t110.5 -41q94 0 134 72v148q-20 33 -58 52
t-79 19q-66 0 -107.5 -40t-41.5 -104zM334 621q-80 0 -128.5 41t-51.5 119h88q18 -64 92 -64t90 64h89q-3 -79 -51 -119.5t-128 -40.5z" />
    <glyph glyph-name="uni0120" unicode="&#x120;" horiz-adv-x="780" 
d="M420 764q-35 0 -60 25t-25 60t25 60t60 25t59.5 -25t24.5 -60t-24.5 -60t-59.5 -25zM395 389h351v-298q-108 -105 -305 -105q-184 0 -291.5 99t-107.5 269q0 169 105 269t279 100q183 0 293 -102l-89 -100q-79 69 -203 69q-108 0 -173 -64t-65 -172q0 -112 69 -175
t188 -63q105 0 167 46v103h-218v124z" />
    <glyph glyph-name="uni0121" unicode="&#x121;" horiz-adv-x="656" 
d="M36 291q0 119 71.5 193.5t186.5 74.5q107 0 168 -60v47h136v-450q0 -140 -66 -214t-218 -74q-136 0 -224 36v127q102 -46 202 -46q85 0 128.5 29t43.5 97v35q-54 -64 -164 -64q-119 0 -191.5 75t-72.5 194zM178 292q0 -65 41.5 -106t110.5 -41q94 0 134 72v148
q-20 33 -58 52t-79 19q-66 0 -107.5 -40t-41.5 -104zM333 613q-35 0 -60 25t-25 60t25 60t60 25t59.5 -25t24.5 -60t-24.5 -60t-59.5 -25z" />
    <glyph glyph-name="uni0122" unicode="&#x122;" horiz-adv-x="780" 
d="M395 389h351v-298q-108 -105 -305 -105q-184 0 -291.5 99t-107.5 269q0 169 105 269t279 100q183 0 293 -102l-89 -100q-79 69 -203 69q-108 0 -173 -64t-65 -172q0 -112 69 -175t188 -63q105 0 167 46v103h-218v124zM425 -43q36 0 57.5 -21.5t21.5 -57.5q0 -21 -6.5 -42
t-21.5 -43t-45.5 -36t-73.5 -14h-19v50q4 -1 13 -1q47 0 61 43q-28 4 -43.5 20t-15.5 39q0 28 19.5 45.5t52.5 17.5z" />
    <glyph glyph-name="uni0123" unicode="&#x123;" horiz-adv-x="656" 
d="M36 291q0 119 71.5 193.5t186.5 74.5q107 0 168 -60v47h136v-450q0 -140 -66 -214t-218 -74q-136 0 -224 36v127q102 -46 202 -46q85 0 128.5 29t43.5 97v35q-54 -64 -164 -64q-119 0 -191.5 75t-72.5 194zM327 436q-66 0 -107.5 -40t-41.5 -104q0 -65 41.5 -106
t110.5 -41q94 0 134 72v148q-20 33 -58 52t-79 19zM250 706q0 23 6.5 46t21.5 47.5t45.5 40t73.5 15.5h19v-55h-13q-47 0 -60 -46q58 -11 58 -66q0 -31 -19.5 -50.5t-52.5 -19.5q-36 0 -57.5 24t-21.5 64z" />
    <glyph glyph-name="uni0124" unicode="&#x124;" horiz-adv-x="742" 
d="M68 709h141v-317h325v317h140v-709h-140v261h-325v-261h-141v709zM184 764l144 164h91l144 -164h-103l-87 70l-87 -70h-102z" />
    <glyph glyph-name="uni0125" unicode="&#x125;" horiz-adv-x="635" 
d="M63 758h137v-262q74 62 171 62q105 0 156.5 -53.5t51.5 -178.5v-326h-137v292q0 78 -29.5 110t-85.5 32q-71 0 -126 -57v-377h-138v758zM140 764l144 164h91l144 -164h-103l-87 70l-87 -70h-102z" />
    <glyph glyph-name="uni0126" unicode="&#x126;" horiz-adv-x="742" 
d="M18 630h50v79h141v-79h325v79h140v-79h52v-110h-52v-520h-140v261h-325v-261h-141v520h-50v110zM534 520h-325v-128h325v128z" />
    <glyph glyph-name="uni0127" unicode="&#x127;" horiz-adv-x="635" 
d="M63 601h-72v104h72v53h137v-53h181v-104h-181v-134q74 62 171 62q109 0 158.5 -54.5t49.5 -176.5v-298h-137v263q0 78 -29.5 110t-85.5 32q-71 0 -126 -57v-348h-138v601z" />
    <glyph glyph-name="uni0128" unicode="&#x128;" horiz-adv-x="295" 
d="M2 758l-63 14q10 68 40.5 105.5t77.5 37.5q39 0 98 -30t77 -30q42 0 65 56l63 -15q-10 -68 -40.5 -105t-76.5 -37q-36 0 -96 30t-77 30q-42 0 -68 -56zM75 0v709h145v-709h-145z" />
    <glyph glyph-name="uni0129" unicode="&#x129;" horiz-adv-x="272" 
d="M-9 618l-63 15q10 68 40.5 105t77.5 37q40 0 98 -29.5t77 -29.5q42 0 65 56l63 -15q-10 -68 -40.5 -105t-76.5 -37q-36 0 -96 29.5t-77 29.5q-43 0 -68 -56zM66 0v546h140v-546h-140z" />
    <glyph glyph-name="uni012A" unicode="&#x12a;" horiz-adv-x="295" 
d="M-30 768v97h357v-97h-357zM75 0v709h145v-709h-145z" />
    <glyph glyph-name="uni012B" unicode="&#x12b;" horiz-adv-x="272" 
d="M-42 644v97h357v-97h-357zM66 0v546h140v-546h-140z" />
    <glyph glyph-name="uni012C" unicode="&#x12c;" horiz-adv-x="295" 
d="M220 0h-145v709h145v-709zM149 764q-80 0 -128.5 41.5t-50.5 119.5h88q16 -64 91 -64t90 64h90q-3 -79 -51.5 -120t-128.5 -41z" />
    <glyph glyph-name="uni012D" unicode="&#x12d;" horiz-adv-x="272" 
d="M206 0h-140v546h140v-546zM138 621q-80 0 -128.5 41t-51.5 119h88q18 -64 92 -64t90 64h89q-3 -79 -51 -119.5t-128 -40.5z" />
    <glyph glyph-name="uni012E" unicode="&#x12e;" horiz-adv-x="295" 
d="M221 -105l1 -71q-30 -8 -65 -8q-52 0 -81.5 21.5t-29.5 58.5q0 28 19 55.5t54 48.5h-44v709h145v-709q-66 -34 -66 -72q0 -34 48 -34q11 0 19 1z" />
    <glyph glyph-name="uni012F" unicode="&#x12f;" horiz-adv-x="272" 
d="M137 613q-35 0 -60 25t-25 60t25 60t60 25t59.5 -25t24.5 -60t-24.5 -60t-59.5 -25zM188 -106q11 0 19 1l1 -71q-30 -8 -65 -8q-52 0 -81.5 21.5t-29.5 58.5q0 28 19 55.5t54 48.5h-39v546h140v-546q-66 -34 -66 -72q0 -34 48 -34z" />
    <glyph glyph-name="uni0130" unicode="&#x130;" horiz-adv-x="295" 
d="M149 764q-35 0 -60 25t-25 60t25 60t60 25t59.5 -25t24.5 -60t-24.5 -60t-59.5 -25zM75 0v709h145v-709h-145z" />
    <glyph glyph-name="uni0131" unicode="&#x131;" horiz-adv-x="272" 
d="M66 0v546h140v-546h-140z" />
    <glyph glyph-name="uni0132" unicode="&#x132;" horiz-adv-x="913" 
d="M583 -14q-124 0 -198 71.5t-78 200.5h140q4 -73 42 -106t95 -33q127 0 127 164v426h143v-426q0 -155 -66.5 -226t-204.5 -71zM75 0v709h145v-709h-145z" />
    <glyph glyph-name="uni0133" unicode="&#x133;" horiz-adv-x="551" 
d="M321 -190q-55 0 -82 9v114q21 -6 40 -6q43 0 55 25t12 88v506h139v-579q0 -81 -45 -119t-119 -38zM66 546h140v-546h-140v546zM52 698q0 35 25 60t60 25t59.5 -25t24.5 -60t-24.5 -60t-59.5 -25t-60 25t-25 60zM333 698q0 35 25 60t60 25q34 0 58.5 -25t24.5 -60
t-24.5 -60t-58.5 -25q-35 0 -60 25t-25 60z" />
    <glyph glyph-name="uni0134" unicode="&#x134;" horiz-adv-x="618" 
d="M12 258h140q4 -73 42 -106t95 -33q127 0 127 164v426h143v-426q0 -155 -66.5 -226t-204.5 -71q-124 0 -198 71.5t-78 200.5zM265 764l144 164h91l144 -164h-103l-87 70l-87 -70h-102z" />
    <glyph glyph-name="uni0135" unicode="&#x135;" horiz-adv-x="279" 
d="M-33 -181v114q21 -6 40 -6q43 0 55 25t12 88v506h139v-579q0 -81 -45 -119t-119 -38q-55 0 -82 9zM-43 620l144 164h91l144 -164h-103l-87 69l-87 -69h-102z" />
    <glyph glyph-name="uni0136" unicode="&#x136;" horiz-adv-x="707" 
d="M68 0v709h138v-357l291 357h176l-261 -318l291 -391h-175l-216 288l-106 -119v-169h-138zM274 -257v50q4 -1 13 -1q47 0 61 43q-28 4 -43.5 20t-15.5 39q0 28 19.5 45.5t52.5 17.5q36 0 57.5 -21.5t21.5 -57.5q0 -21 -6.5 -42t-21.5 -43t-45.5 -36t-73.5 -14h-19z" />
    <glyph glyph-name="uni0137" unicode="&#x137;" horiz-adv-x="622" 
d="M65 758h137v-464l232 252h170l-195 -214l201 -332h-157l-144 236l-107 -106v-130h-137v758zM234 -257v50q4 -1 13 -1q47 0 61 43q-28 4 -43.5 20t-15.5 39q0 28 19.5 45.5t52.5 17.5q36 0 57.5 -21.5t21.5 -57.5q0 -21 -6.5 -42t-21.5 -43t-45.5 -36t-73.5 -14h-19z" />
    <glyph glyph-name="uni0138" unicode="&#x138;" horiz-adv-x="624" 
d="M66 0v546h138v-251l232 251h170l-195 -214l201 -332h-157l-144 236l-107 -105v-131h-138z" />
    <glyph glyph-name="uni0139" unicode="&#x139;" horiz-adv-x="600" 
d="M76 764l124 167l155 -12l-182 -155h-97zM68 0v709h143v-576h371v-133h-514z" />
    <glyph glyph-name="uni013A" unicode="&#x13a;" horiz-adv-x="270" 
d="M79 812l124 167l155 -12l-182 -155h-97zM66 0v758h138v-758h-138z" />
    <glyph glyph-name="uni013B" unicode="&#x13b;" horiz-adv-x="600" 
d="M211 133h371v-133h-514v709h143v-576zM328 -43q36 0 57.5 -21.5t21.5 -57.5q0 -21 -6.5 -42t-21.5 -43t-45.5 -36t-73.5 -14h-19v50q4 -1 13 -1q47 0 61 43q-28 4 -43.5 20t-15.5 39q0 28 19.5 45.5t52.5 17.5z" />
    <glyph glyph-name="uni013C" unicode="&#x13c;" horiz-adv-x="270" 
d="M204 758v-758h-138v758h138zM131 -43q36 0 57.5 -21.5t21.5 -57.5q0 -21 -6.5 -42t-21.5 -43t-45.5 -36t-73.5 -14h-19v50q4 -1 13 -1q47 0 61 43q-28 4 -43.5 20t-15.5 39q0 28 19.5 45.5t52.5 17.5z" />
    <glyph glyph-name="uni013D" unicode="&#x13d;" horiz-adv-x="600" 
d="M410 604q-26 3 -46.5 22t-20.5 53q0 32 20 52.5t53 20.5q36 0 58 -24t22 -72q0 -71 -39 -119t-111 -48v50q49 0 64 65zM211 133h371v-133h-514v709h143v-576z" />
    <glyph glyph-name="uni013E" unicode="&#x13e;" horiz-adv-x="310" 
d="M340 816q36 0 58 -24t22 -72q0 -71 -39 -119t-111 -48v50q49 0 64 65q-26 3 -46.5 22t-20.5 53q0 32 20 52.5t53 20.5zM66 0v758h138v-758h-138z" />
    <glyph glyph-name="uni013F" unicode="&#x13f;" horiz-adv-x="600" 
d="M68 0v709h143v-576h371v-133h-514zM437 290q-35 0 -60 25t-25 60t25 60t60 25q34 0 58.5 -25t24.5 -60t-24.5 -60t-58.5 -25z" />
    <glyph glyph-name="uni0140" unicode="&#x140;" horiz-adv-x="408" 
d="M66 0v758h138v-758h-138zM342 244q-35 0 -60 25t-25 61q0 35 25 60t60 25q34 0 58.5 -25t24.5 -60q0 -36 -24 -61t-59 -25z" />
    <glyph glyph-name="uni0141" unicode="&#x141;" horiz-adv-x="625" 
d="M14 255v113l80 24v317h143v-275l205 60v-113l-205 -60v-188h371v-133h-514v279z" />
    <glyph glyph-name="uni0142" unicode="&#x142;" horiz-adv-x="363" 
d="M11 347l103 37v374h139v-324l108 39v-112l-108 -39v-322h-139v272l-103 -37v112z" />
    <glyph glyph-name="uni0143" unicode="&#x143;" horiz-adv-x="771" 
d="M329 764l124 167l155 -12l-182 -155h-97zM564 709h140v-713h-73l-423 450v-446h-140v713h71l425 -450v446z" />
    <glyph glyph-name="uni0144" unicode="&#x144;" horiz-adv-x="638" 
d="M66 546h133v-50q76 62 175 62q105 0 156.5 -53.5t51.5 -178.5v-326h-137v292q0 78 -29.5 110t-85.5 32q-71 0 -126 -57v-377h-138v546zM357 621h-98l124 167l155 -13z" />
    <glyph glyph-name="uni0145" unicode="&#x145;" horiz-adv-x="771" 
d="M564 709h140v-713h-73l-423 450v-446h-140v713h71l425 -450v446zM398 -43q36 0 57.5 -21.5t21.5 -57.5q0 -21 -6.5 -42t-21.5 -43t-45.5 -36t-73.5 -14h-19v50q4 -1 13 -1q47 0 61 43q-28 4 -43.5 20t-15.5 39q0 28 19.5 45.5t52.5 17.5z" />
    <glyph glyph-name="uni0146" unicode="&#x146;" horiz-adv-x="638" 
d="M204 0h-138v546h133v-50q76 62 175 62q105 0 156.5 -53.5t51.5 -178.5v-326h-137v292q0 78 -29.5 110t-85.5 32q-71 0 -126 -57v-377zM230 -257v50q4 -1 13 -1q47 0 61 43q-28 4 -43.5 20t-15.5 39q0 28 19.5 45.5t52.5 17.5q36 0 57.5 -21.5t21.5 -57.5q0 -21 -6.5 -42
t-21.5 -43t-45.5 -36t-73.5 -14h-19z" />
    <glyph glyph-name="uni0147" unicode="&#x147;" horiz-adv-x="771" 
d="M68 0v713h71l425 -450v446h140v-713h-73l-423 450v-446h-140zM199 928h102l87 -69l87 69h103l-144 -164h-91z" />
    <glyph glyph-name="uni0148" unicode="&#x148;" horiz-adv-x="638" 
d="M66 546h133v-50q76 62 175 62q105 0 156.5 -53.5t51.5 -178.5v-326h-137v292q0 78 -29.5 110t-85.5 32q-71 0 -126 -57v-377h-138v546zM133 784h102l87 -69l87 69h103l-144 -163h-91z" />
    <glyph glyph-name="uni0149" unicode="&#x149;" horiz-adv-x="638" 
d="M66 0v546h133v-50q76 62 175 62q105 0 156.5 -53.5t51.5 -178.5v-326h-137v292q0 78 -29.5 110t-85.5 32q-71 0 -126 -57v-377h-138zM74 662h13q47 0 60 47q-27 5 -42 23.5t-15 44.5q0 31 19.5 51.5t52.5 20.5q36 0 57.5 -24.5t21.5 -66.5q0 -18 -3.5 -36.5t-14 -40
t-26 -37.5t-42.5 -27t-62 -11h-19v56z" />
    <glyph glyph-name="uni014A" unicode="&#x14a;" horiz-adv-x="771" 
d="M564 709h140v-619q0 -151 -63 -215.5t-226 -64.5v123q84 0 115 29.5t32 105.5l-354 378v-446h-140v713h71l425 -452v448z" />
    <glyph glyph-name="uni014B" unicode="&#x14b;" horiz-adv-x="638" 
d="M420 -190q-55 0 -82 9v114q21 -6 39 -6q44 0 56 25t12 88v252q0 78 -29.5 110t-85.5 32q-71 0 -126 -57v-377h-138v546h133v-50q76 62 175 62q105 0 156.5 -53.5t51.5 -178.5v-359q0 -81 -44 -119t-118 -38z" />
    <glyph glyph-name="uni014C" unicode="&#x14c;" horiz-adv-x="845" 
d="M245 768v97h357v-97h-357zM422 -14q-167 0 -273.5 101.5t-106.5 266.5q0 163 104.5 266t275.5 103q168 0 275 -102t107 -267q0 -162 -105.5 -265t-276.5 -103zM422 119q103 0 168.5 64.5t65.5 170.5q0 104 -64 170t-170 66q-102 0 -167.5 -65t-65.5 -171
q0 -104 64.5 -169.5t168.5 -65.5z" />
    <glyph glyph-name="uni014D" unicode="&#x14d;" horiz-adv-x="673" 
d="M159 644v97h357v-97h-357zM337 -12q-136 0 -218.5 77.5t-82.5 208.5q0 129 83 206.5t218 77.5t217 -77.5t82 -206.5q0 -131 -82 -208.5t-217 -77.5zM337 114q70 0 113.5 44t43.5 116q0 71 -43.5 114.5t-113.5 43.5q-71 0 -114.5 -43.5t-43.5 -114.5q0 -72 43.5 -116
t114.5 -44z" />
    <glyph glyph-name="uni014E" unicode="&#x14e;" horiz-adv-x="845" 
d="M42 354q0 163 104.5 266t275.5 103q168 0 275 -102t107 -267q0 -162 -105.5 -265t-276.5 -103q-167 0 -273.5 101.5t-106.5 266.5zM189 354q0 -104 64.5 -169.5t168.5 -65.5q103 0 168.5 64.5t65.5 170.5q0 104 -64 170t-170 66q-102 0 -167.5 -65t-65.5 -171zM245 925
h88q16 -64 91 -64t90 64h90q-3 -79 -51.5 -120t-128.5 -41t-128.5 41.5t-50.5 119.5z" />
    <glyph glyph-name="uni014F" unicode="&#x14f;" horiz-adv-x="673" 
d="M337 -12q-136 0 -218.5 77.5t-82.5 208.5q0 129 83 206.5t218 77.5t217 -77.5t82 -206.5q0 -131 -82 -208.5t-217 -77.5zM337 432q-71 0 -114.5 -43.5t-43.5 -114.5q0 -72 43.5 -116t114.5 -44q70 0 113.5 44t43.5 116q0 71 -43.5 114.5t-113.5 43.5zM339 621
q-80 0 -128.5 41t-51.5 119h88q18 -64 92 -64t90 64h89q-3 -79 -51 -119.5t-128 -40.5z" />
    <glyph glyph-name="uni0150" unicode="&#x150;" horiz-adv-x="845" 
d="M42 354q0 163 104.5 266t275.5 103q168 0 275 -102t107 -267q0 -162 -105.5 -265t-276.5 -103q-167 0 -273.5 101.5t-106.5 266.5zM189 354q0 -104 64.5 -169.5t168.5 -65.5q103 0 168.5 64.5t65.5 170.5q0 104 -64 170t-170 66q-102 0 -167.5 -65t-65.5 -171zM535 764
h-80l89 175l127 -44zM367 764h-84l88 175l117 -42z" />
    <glyph glyph-name="uni0151" unicode="&#x151;" horiz-adv-x="673" 
d="M36 274q0 129 83 206.5t218 77.5t217 -77.5t82 -206.5q0 -131 -82 -208.5t-217 -77.5q-136 0 -218.5 77.5t-82.5 208.5zM179 274q0 -72 43.5 -116t114.5 -44q70 0 113.5 44t43.5 116q0 71 -43.5 114.5t-113.5 43.5q-71 0 -114.5 -43.5t-43.5 -114.5zM449 620h-80l89 174
l127 -44zM281 620h-84l88 174l117 -42z" />
    <glyph glyph-name="uni0152" unicode="&#x152;" horiz-adv-x="1035" 
d="M42 354q0 164 99 259.5t281 95.5h562v-128h-377v-171h318v-121h-318v-162h394v-127h-588q-178 0 -274.5 95t-96.5 259zM415 581q-108 0 -166.5 -61t-58.5 -166q0 -106 60 -166t176 -60h43v453h-54z" />
    <glyph glyph-name="uni0153" unicode="&#x153;" horiz-adv-x="1075" 
d="M1051 273q0 -38 -1 -41h-426q11 -61 53.5 -94t111.5 -33q105 0 159 71l88 -76q-80 -112 -254 -112q-156 0 -228 99q-74 -99 -223 -99q-127 0 -211 78.5t-84 207.5t83.5 208t209.5 79q150 0 226 -103q75 103 218 103q133 0 205.5 -79t72.5 -209zM771 446q-56 0 -95 -28.5
t-51 -86.5h291q-7 49 -43 82t-102 33zM333 113q69 0 113 44.5t44 116.5t-44 116t-113 44q-70 0 -114 -43.5t-44 -116.5t44 -117t114 -44z" />
    <glyph glyph-name="uni0154" unicode="&#x154;" horiz-adv-x="683" 
d="M68 0v709h288q139 0 212.5 -65t73.5 -188q0 -170 -141 -227l167 -229h-172l-141 202h-146v-202h-141zM209 323h124q80 0 120.5 34t40.5 92q0 134 -150 134h-135v-260zM276 764l124 167l155 -12l-182 -155h-97z" />
    <glyph glyph-name="uni0155" unicode="&#x155;" horiz-adv-x="430" 
d="M114 621l124 167l155 -13l-181 -154h-98zM66 0v546h133v-71q63 83 170 83q25 0 38 -5v-149q-38 10 -66 10q-61 0 -99 -40t-38 -116v-258h-138z" />
    <glyph glyph-name="uni0156" unicode="&#x156;" horiz-adv-x="683" 
d="M68 0v709h288q139 0 212.5 -65t73.5 -188q0 -170 -141 -227l167 -229h-172l-141 202h-146v-202h-141zM209 583v-260h124q80 0 120.5 34t40.5 92q0 134 -150 134h-135zM263 -257v50q4 -1 13 -1q47 0 61 43q-28 4 -43.5 20t-15.5 39q0 28 19.5 45.5t52.5 17.5
q36 0 57.5 -21.5t21.5 -57.5q0 -21 -6.5 -42t-21.5 -43t-45.5 -36t-73.5 -14h-19z" />
    <glyph glyph-name="uni0157" unicode="&#x157;" horiz-adv-x="430" 
d="M369 558q25 0 38 -5v-149q-38 10 -66 10q-61 0 -99 -40t-38 -116v-258h-138v546h133v-71q63 83 170 83zM132 -43q36 0 57.5 -21.5t21.5 -57.5q0 -21 -6.5 -42t-21.5 -43t-45.5 -36t-73.5 -14h-19v50q4 -1 13 -1q47 0 61 43q-28 4 -43.5 20t-15.5 39q0 28 19.5 45.5
t52.5 17.5z" />
    <glyph glyph-name="uni0158" unicode="&#x158;" horiz-adv-x="683" 
d="M209 0h-141v709h288q139 0 212.5 -65t73.5 -188q0 -170 -141 -227l167 -229h-172l-141 202h-146v-202zM209 323h124q80 0 120.5 34t40.5 92q0 134 -150 134h-135v-260zM290 764l-144 164h102l87 -69l87 69h103l-144 -164h-91z" />
    <glyph glyph-name="uni0159" unicode="&#x159;" horiz-adv-x="430" 
d="M204 0h-138v546h133v-71q63 83 170 83q25 0 38 -5v-149q-38 10 -66 10q-61 0 -99 -40t-38 -116v-258zM198 621l-144 163h102l87 -69l88 69h102l-144 -163h-91z" />
    <glyph glyph-name="uni015A" unicode="&#x15a;" horiz-adv-x="627" 
d="M250 764l124 167l155 -12l-182 -155h-97zM335 -14q-91 0 -158.5 15.5t-144.5 50.5l54 122q129 -62 242 -62q60 0 92.5 21.5t32.5 63.5q0 39 -34.5 58.5t-115.5 34.5q-64 13 -107.5 28t-80.5 39.5t-55 61.5t-18 88q0 99 68 157t198 58q154 0 267 -55l-59 -119
q-103 46 -207 46q-58 0 -89.5 -22t-31.5 -56q0 -39 39 -57.5t134 -39.5q58 -12 97 -26t74 -37.5t52 -60.5t17 -87q0 -110 -67.5 -166t-198.5 -56z" />
    <glyph glyph-name="uni015B" unicode="&#x15b;" horiz-adv-x="529" 
d="M192 620l124 167l155 -13l-181 -154h-98zM264 -14q-129 0 -231 48l44 109q81 -49 183 -49q95 0 95 58q0 24 -25 37t-96 29q-99 22 -146.5 60t-47.5 111q0 82 58.5 125t159.5 43q104 0 214 -43l-45 -110q-79 42 -170 42q-80 0 -80 -47q0 -25 23.5 -38t94.5 -30
q103 -25 151.5 -61.5t48.5 -104.5q0 -179 -231 -179z" />
    <glyph glyph-name="uni015C" unicode="&#x15c;" horiz-adv-x="627" 
d="M335 -14q-91 0 -158.5 15.5t-144.5 50.5l54 122q129 -62 242 -62q60 0 92.5 21.5t32.5 63.5q0 39 -34.5 58.5t-115.5 34.5q-64 13 -107.5 28t-80.5 39.5t-55 61.5t-18 88q0 99 68 157t198 58q154 0 267 -55l-59 -119q-103 46 -207 46q-58 0 -89.5 -22t-31.5 -56
q0 -39 39 -57.5t134 -39.5q58 -12 97 -26t74 -37.5t52 -60.5t17 -87q0 -110 -67.5 -166t-198.5 -56zM119 764l144 164h91l144 -164h-103l-87 70l-87 -70h-102z" />
    <glyph glyph-name="uni015D" unicode="&#x15d;" horiz-adv-x="529" 
d="M264 -14q-129 0 -231 48l44 109q81 -49 183 -49q95 0 95 58q0 24 -25 37t-96 29q-99 22 -146.5 60t-47.5 111q0 82 58.5 125t159.5 43q104 0 214 -43l-45 -110q-79 42 -170 42q-80 0 -80 -47q0 -25 23.5 -38t94.5 -30q103 -25 151.5 -61.5t48.5 -104.5q0 -179 -231 -179z
M168 619h-102l144 164h91l144 -164h-103l-87 69z" />
    <glyph glyph-name="uni015E" unicode="&#x15e;" horiz-adv-x="627" 
d="M601 208q0 -209 -237 -221l-11 -26q61 -13 61 -60q0 -44 -36 -67t-102 -23q-44 0 -72 6v56q21 -4 49 -4q58 0 58 37q0 25 -53 30v23l25 28q-124 8 -251 65l54 122q129 -62 242 -62q60 0 92.5 21.5t32.5 63.5q0 39 -34.5 58.5t-115.5 34.5q-64 13 -107.5 28t-80.5 39.5
t-55 61.5t-18 88q0 99 68 157t198 58q154 0 267 -55l-59 -119q-103 46 -207 46q-58 0 -89.5 -22t-31.5 -56q0 -39 39 -57.5t134 -39.5q58 -12 97 -26t74 -37.5t52 -60.5t17 -87z" />
    <glyph glyph-name="uni015F" unicode="&#x15f;" horiz-adv-x="529" 
d="M495 165q0 -163 -189 -177l-12 -28q61 -13 61 -60q0 -44 -36 -67t-102 -23q-43 0 -72 6v56q21 -4 49 -4q58 0 58 37q0 25 -53 30v23l26 29q-103 6 -192 47l44 109q81 -49 183 -49q95 0 95 58q0 24 -25 37t-96 29q-99 22 -146.5 60t-47.5 111q0 82 58.5 125t159.5 43
q104 0 214 -43l-45 -110q-79 42 -170 42q-80 0 -80 -47q0 -25 23.5 -38t94.5 -30q103 -25 151.5 -61.5t48.5 -104.5z" />
    <glyph glyph-name="uni0160" unicode="&#x160;" horiz-adv-x="627" 
d="M335 -14q-91 0 -158.5 15.5t-144.5 50.5l54 122q129 -62 242 -62q60 0 92.5 21.5t32.5 63.5q0 39 -34.5 58.5t-115.5 34.5q-64 13 -107.5 28t-80.5 39.5t-55 61.5t-18 88q0 99 68 157t198 58q154 0 267 -55l-59 -119q-103 46 -207 46q-58 0 -89.5 -22t-31.5 -56
q0 -39 39 -57.5t134 -39.5q58 -12 97 -26t74 -37.5t52 -60.5t17 -87q0 -110 -67.5 -166t-198.5 -56zM120 928h102l87 -69l87 69h103l-144 -164h-91z" />
    <glyph glyph-name="uni0161" unicode="&#x161;" horiz-adv-x="529" 
d="M264 -14q-129 0 -231 48l44 109q81 -49 183 -49q95 0 95 58q0 24 -25 37t-96 29q-99 22 -146.5 60t-47.5 111q0 82 58.5 125t159.5 43q104 0 214 -43l-45 -110q-79 42 -170 42q-80 0 -80 -47q0 -25 23.5 -38t94.5 -30q103 -25 151.5 -61.5t48.5 -104.5q0 -179 -231 -179z
M66 783h102l87 -69l87 69h103l-144 -163h-91z" />
    <glyph glyph-name="uni0162" unicode="&#x162;" horiz-adv-x="644" 
d="M24 709h596v-133h-226v-576h-25l-17 -39q61 -13 61 -60q0 -44 -36 -67t-102 -23q-43 0 -72 6v56q21 -4 49 -4q58 0 58 37q0 25 -53 30v23l36 41h-43v576h-226v133z" />
    <glyph glyph-name="uni0163" unicode="&#x163;" horiz-adv-x="404" 
d="M87 423h-78v123h78v212h136v-212h161v-123h-161v-231q0 -47 15.5 -67t56.5 -20q47 0 88 18v-121q-44 -13 -94 -14l-11 -27q61 -13 61 -60q0 -44 -36 -67t-102 -23q-43 0 -72 6v56q21 -4 49 -4q58 0 58 37q0 25 -53 30v23l28 31q-64 11 -94 54.5t-30 124.5v254z" />
    <glyph glyph-name="uni0164" unicode="&#x164;" horiz-adv-x="644" 
d="M24 709h596v-133h-226v-576h-144v576h-226v133zM278 764l-144 164h102l87 -69l87 69h103l-144 -164h-91z" />
    <glyph glyph-name="uni0165" unicode="&#x165;" horiz-adv-x="444" 
d="M9 423v123h78v212h136v-212h161v-123h-161v-231q0 -47 15.5 -67t56.5 -20q47 0 88 18v-121q-50 -15 -125 -15q-90 0 -130.5 44t-40.5 138v254h-78zM295 778q0 32 20 52.5t53 20.5q36 0 58 -24t22 -72q0 -71 -39 -119t-111 -48v50q49 0 64 65q-26 3 -46.5 22t-20.5 53z
" />
    <glyph glyph-name="uni0166" unicode="&#x166;" horiz-adv-x="644" 
d="M24 709h596v-133h-226v-188h117v-112h-117v-276h-144v276h-120v112h120v188h-226v133z" />
    <glyph glyph-name="uni0167" unicode="&#x167;" horiz-adv-x="404" 
d="M9 546h78v212h136v-212h161v-123h-161v-77h132v-106h-132v-48q0 -47 15.5 -67t56.5 -20q47 0 88 18v-121q-50 -15 -125 -15q-90 0 -130.5 44t-40.5 138v71h-61v106h61v77h-78v123z" />
    <glyph glyph-name="uni0168" unicode="&#x168;" horiz-adv-x="732" 
d="M366 -14q-151 0 -228.5 74t-77.5 220v429h143v-395q0 -102 39 -147.5t124 -45.5t124.5 45.5t39.5 147.5v395h142v-429q0 -294 -306 -294zM220 758l-63 14q10 68 40.5 105.5t77.5 37.5q39 0 98 -30t77 -30q42 0 65 56l63 -15q-10 -68 -40.5 -105t-76.5 -37q-36 0 -96 30
t-77 30q-42 0 -68 -56z" />
    <glyph glyph-name="uni0169" unicode="&#x169;" horiz-adv-x="624" 
d="M53 219v327h138v-292q0 -142 110 -142q75 0 127 63v371h138v-546h-131v56q-70 -68 -175 -68q-207 0 -207 231zM166 618l-63 15q10 68 40.5 105t77.5 37q39 0 98 -29.5t77 -29.5q42 0 65 56l63 -15q-10 -68 -40.5 -105t-76.5 -37q-36 0 -96 29.5t-77 29.5q-43 0 -68 -56z
" />
    <glyph glyph-name="uni016A" unicode="&#x16a;" horiz-adv-x="732" 
d="M366 -14q-151 0 -228.5 74t-77.5 220v429h143v-395q0 -102 39 -147.5t124 -45.5t124.5 45.5t39.5 147.5v395h142v-429q0 -294 -306 -294zM188 865h357v-97h-357v97z" />
    <glyph glyph-name="uni016B" unicode="&#x16b;" horiz-adv-x="624" 
d="M260 -12q-207 0 -207 231v327h138v-292q0 -142 110 -142q75 0 127 63v371h138v-546h-131v56q-70 -68 -175 -68zM133 741h357v-97h-357v97z" />
    <glyph glyph-name="uni016C" unicode="&#x16c;" horiz-adv-x="732" 
d="M366 -14q-151 0 -228.5 74t-77.5 220v429h143v-395q0 -102 39 -147.5t124 -45.5t124.5 45.5t39.5 147.5v395h142v-429q0 -294 -306 -294zM367 764q-80 0 -128.5 41.5t-50.5 119.5h88q16 -64 91 -64t90 64h90q-3 -79 -51.5 -120t-128.5 -41z" />
    <glyph glyph-name="uni016D" unicode="&#x16d;" horiz-adv-x="624" 
d="M53 219v327h138v-292q0 -142 110 -142q75 0 127 63v371h138v-546h-131v56q-70 -68 -175 -68q-207 0 -207 231zM133 781h88q18 -64 92 -64t90 64h89q-3 -79 -51 -119.5t-128 -40.5t-128.5 41t-51.5 119z" />
    <glyph glyph-name="uni016E" unicode="&#x16e;" horiz-adv-x="732" 
d="M60 280v429h143v-395q0 -102 39 -147.5t124 -45.5t124.5 45.5t39.5 147.5v395h142v-429q0 -294 -306 -294q-151 0 -228.5 74t-77.5 220zM249 797q0 50 33.5 82.5t84.5 32.5t84.5 -32.5t33.5 -82.5q0 -51 -33.5 -83.5t-84.5 -32.5t-84.5 32.5t-33.5 83.5zM367 856
q-24 0 -40 -16.5t-16 -42.5q0 -25 16 -41t40 -16q25 0 41 16.5t16 42.5q0 25 -16 41t-41 16z" />
    <glyph glyph-name="uni016F" unicode="&#x16f;" horiz-adv-x="624" 
d="M260 -12q-207 0 -207 231v327h138v-292q0 -142 110 -142q75 0 127 63v371h138v-546h-131v56q-70 -68 -175 -68zM313 613q-51 0 -84.5 32.5t-33.5 83.5q0 50 33.5 82.5t84.5 32.5t84.5 -32.5t33.5 -82.5q0 -51 -33.5 -83.5t-84.5 -32.5zM257 729q0 -25 16 -41t40 -16
q25 0 41 16.5t16 41.5t-16 41t-41 16q-24 0 -40 -16.5t-16 -41.5z" />
    <glyph glyph-name="uni0170" unicode="&#x170;" horiz-adv-x="732" 
d="M60 280v429h143v-395q0 -102 39 -147.5t124 -45.5t124.5 45.5t39.5 147.5v395h142v-429q0 -294 -306 -294q-151 0 -228.5 74t-77.5 220zM478 764h-80l89 175l127 -44zM226 764l88 175l117 -42l-121 -133h-84z" />
    <glyph glyph-name="uni0171" unicode="&#x171;" horiz-adv-x="624" 
d="M260 -12q-207 0 -207 231v327h138v-292q0 -142 110 -142q75 0 127 63v371h138v-546h-131v56q-70 -68 -175 -68zM343 620l89 174l127 -44l-136 -130h-80zM255 620h-84l88 174l117 -42z" />
    <glyph glyph-name="uni0172" unicode="&#x172;" horiz-adv-x="732" 
d="M60 709h143v-395q0 -102 39 -147.5t124 -45.5t124.5 45.5t39.5 147.5v395h142v-429q0 -240 -206 -284q-58 -33 -58 -68q0 -34 48 -34q11 0 19 1l1 -71q-30 -8 -65 -8q-52 0 -81.5 21.5t-29.5 58.5q0 50 52 90q-292 8 -292 294v429z" />
    <glyph glyph-name="uni0173" unicode="&#x173;" horiz-adv-x="624" 
d="M53 546h138v-292q0 -142 110 -142q75 0 127 63v371h138v-546q-66 -34 -66 -72q0 -34 48 -34q11 0 19 1l1 -71q-30 -8 -65 -8q-52 0 -81.5 21.5t-29.5 58.5q0 28 19 55.5t54 48.5h-30v56q-70 -68 -175 -68q-207 0 -207 231v327z" />
    <glyph glyph-name="uni0174" unicode="&#x174;" horiz-adv-x="1065" 
d="M268 -4l-264 713h157l154 -445l182 447h74l180 -449l155 447h155l-262 -713h-72l-195 458l-192 -458h-72zM447 764h-102l144 164h91l144 -164h-103l-87 70z" />
    <glyph glyph-name="uni0175" unicode="&#x175;" horiz-adv-x="821" 
d="M195 -3l-191 549h144l98 -321l129 323h70l131 -325l100 323h141l-191 -549h-77l-140 330l-137 -330h-77zM325 620h-102l144 164h91l144 -164h-103l-87 69z" />
    <glyph glyph-name="uni0176" unicode="&#x176;" horiz-adv-x="666" 
d="M-1 709h165l170 -321l171 321h162l-262 -463v-246h-144v246zM145 764l144 164h91l144 -164h-103l-87 70l-87 -70h-102z" />
    <glyph glyph-name="uni0177" unicode="&#x177;" horiz-adv-x="598" 
d="M235 -1l-245 547h154l155 -381l147 381h147l-224 -552q-24 -61 -54 -100t-64 -56.5t-62.5 -23.5t-66.5 -6q-53 0 -89 12v119q44 -14 79 -14q85 0 123 74zM109 620l144 164h91l144 -164h-103l-87 69l-87 -69h-102z" />
    <glyph glyph-name="uni0178" unicode="&#x178;" horiz-adv-x="666" 
d="M-1 709h165l170 -321l171 321h162l-262 -463v-246h-144v246zM222 759q-35 0 -59.5 24.5t-24.5 59.5t24.5 59.5t59.5 24.5t59 -24.5t24 -59.5t-24 -59.5t-59 -24.5zM363 843q0 35 24 59.5t59 24.5t59 -24.5t24 -59.5t-24 -59.5t-59 -24.5t-59 24.5t-24 59.5z" />
    <glyph glyph-name="uni0179" unicode="&#x179;" horiz-adv-x="667" 
d="M290 764l124 167l155 -12l-182 -155h-97zM248 131h380v-131h-595v69l374 509h-350v131h567v-72z" />
    <glyph glyph-name="uni017A" unicode="&#x17a;" horiz-adv-x="540" 
d="M207 621l124 167l155 -13l-181 -154h-98zM224 114h297v-114h-496v70l289 362h-273v114h478v-69z" />
    <glyph glyph-name="uni017B" unicode="&#x17b;" horiz-adv-x="667" 
d="M347 764q-35 0 -60 25t-25 60t25 60t60 25t59.5 -25t24.5 -60t-24.5 -60t-59.5 -25zM248 131h380v-131h-595v69l374 509h-350v131h567v-72z" />
    <glyph glyph-name="uni017C" unicode="&#x17c;" horiz-adv-x="540" 
d="M270 613q-35 0 -60 25t-25 60t25 60t60 25t59.5 -25t24.5 -60t-24.5 -60t-59.5 -25zM224 114h297v-114h-496v70l289 362h-273v114h478v-69z" />
    <glyph glyph-name="uni017D" unicode="&#x17d;" horiz-adv-x="667" 
d="M628 0h-595v69l374 509h-350v131h567v-72l-376 -506h380v-131zM160 928h102l87 -69l87 69h103l-144 -164h-91z" />
    <glyph glyph-name="uni017E" unicode="&#x17e;" horiz-adv-x="540" 
d="M521 0h-496v70l289 362h-273v114h478v-69l-295 -363h297v-114zM81 784h102l87 -69l87 69h103l-144 -163h-91z" />
    <glyph glyph-name="uni018F" unicode="&#x18f;" horiz-adv-x="809" 
d="M390 722q166 0 272 -101t106 -267q0 -162 -102 -265t-264 -103q-160 0 -260 94.5t-100 258.5q0 30 2 54h576q-12 91 -73.5 143.5t-156.5 52.5q-119 0 -205 -111l-112 84q121 160 317 160zM401 114q78 0 135 42.5t77 119.5h-422q14 -77 68.5 -119.5t141.5 -42.5z" />
    <glyph glyph-name="uni0192" unicode="&#x192;" horiz-adv-x="479" 
d="M13 18q21 -6 43 -6q43 0 57 25.5t18 87.5l17 232h-71v97h78l6 81q7 91 56 139t131 48q63 0 109 -20v-107q-37 12 -77 12q-77 0 -83 -92l-5 -61h143v-97h-150l-22 -299q-12 -162 -173 -162q-52 0 -77 9v113z" />
    <glyph glyph-name="uni01E6" unicode="&#x1e6;" horiz-adv-x="780" 
d="M42 354q0 169 105 269t279 100q183 0 293 -102l-89 -100q-79 69 -203 69q-108 0 -173 -64t-65 -172q0 -112 69 -175t188 -63q105 0 167 46v103h-218v124h351v-298q-108 -105 -305 -105q-184 0 -291.5 99t-107.5 269zM233 928h102l87 -69l87 69h103l-144 -164h-91z" />
    <glyph glyph-name="uni01E7" unicode="&#x1e7;" horiz-adv-x="656" 
d="M36 291q0 119 71.5 193.5t186.5 74.5q107 0 168 -60v47h136v-450q0 -140 -66 -214t-218 -74q-136 0 -224 36v127q102 -46 202 -46q85 0 128.5 29t43.5 97v35q-54 -64 -164 -64q-119 0 -191.5 75t-72.5 194zM327 436q-66 0 -107.5 -40t-41.5 -104q0 -65 41.5 -106
t110.5 -41q94 0 134 72v148q-20 33 -58 52t-79 19zM289 621l-144 163h102l87 -69l87 69h103l-144 -163h-91z" />
    <glyph glyph-name="uni01EA" unicode="&#x1ea;" horiz-adv-x="845" 
d="M482 -10q-48 -32 -48 -62q0 -34 48 -34q11 0 19 1l1 -71q-30 -8 -65 -8q-52 0 -81.5 21.5t-29.5 58.5q0 50 54 92q-151 13 -244.5 112.5t-93.5 253.5q0 163 104.5 266t275.5 103q168 0 275 -102t107 -267q0 -147 -87.5 -246.5t-234.5 -117.5zM189 354q0 -104 64.5 -169.5
t168.5 -65.5q103 0 168.5 64.5t65.5 170.5q0 104 -64 170t-170 66q-102 0 -167.5 -65t-65.5 -171z" />
    <glyph glyph-name="uni01EB" unicode="&#x1eb;" horiz-adv-x="673" 
d="M417 -4q-59 -33 -59 -68q0 -34 48 -34q11 0 19 1l1 -71q-30 -8 -65 -8q-52 0 -81.5 21.5t-29.5 58.5q0 51 56 93q-123 9 -196.5 85.5t-73.5 199.5q0 129 83 206.5t218 77.5t217 -77.5t82 -206.5q0 -110 -58.5 -183.5t-160.5 -94.5zM179 274q0 -72 43.5 -116t114.5 -44
q70 0 113.5 44t43.5 116q0 71 -43.5 114.5t-113.5 43.5q-71 0 -114.5 -43.5t-43.5 -114.5z" />
    <glyph glyph-name="uni01FA" unicode="&#x1fa;" horiz-adv-x="751" 
d="M5 0l315 693q-63 30 -63 104q0 40 22.5 69.5t59.5 40.5l92 124l155 -12l-146 -124q53 -33 53 -98q0 -74 -63 -104l316 -693h-154l-62 135h-310l-61 -135h-154zM321 380l-53 -126h215l-53 126l-55 145zM375 856q-24 0 -40 -16.5t-16 -42.5q0 -25 16 -41t40 -16
q25 0 41 16.5t16 42.5q0 25 -16 41t-41 16z" />
    <glyph glyph-name="uni01FB" unicode="&#x1fb;" horiz-adv-x="640" 
d="M315 613q-51 0 -84.5 32.5t-33.5 83.5q0 42 24.5 72.5t64.5 39.5l100 134l155 -13l-160 -136q52 -32 52 -97q0 -51 -33.5 -83.5t-84.5 -32.5zM315 787q-24 0 -40 -16.5t-16 -41.5t16 -41t40 -16q25 0 41 16.5t16 41.5t-16 41t-41 16zM320 557q119 0 189 -62.5t70 -148.5
v-345h-134v58q-32 -32 -81.5 -52.5t-101.5 -20.5q-98 0 -154.5 54.5t-54.5 129.5q3 96 71.5 133.5t180.5 37.5h137q0 46 -36 70t-92 24q-100 -2 -144 -57l-89 82q36 50 101.5 73.5t137.5 23.5zM442 217l1 17h-137q-57 0 -85.5 -12.5t-28.5 -44.5q0 -31 26 -52t73 -21
q64 0 107.5 30t43.5 83z" />
    <glyph glyph-name="uni01FC" unicode="&#x1fc;" horiz-adv-x="1023" 
d="M3 0l357 709h612v-128h-377v-171h318v-121h-318v-162h393v-127h-531v135h-229l-68 -135h-157zM437 576l-158 -322h178v322h-20zM566 764h-97l124 167l155 -12z" />
    <glyph glyph-name="uni01FD" unicode="&#x1fd;" horiz-adv-x="1044" 
d="M293 -12q-117 0 -187 77.5t-70 209.5q0 130 69.5 208t182.5 78q103 0 162 -60v47h137v-42q62 55 159 55q130 0 202 -79t72 -209l-1 -41h-425q11 -62 53 -95t111 -33q103 0 159 71l88 -75q-80 -110 -244 -110q-108 0 -174 55v-45h-135v53q-54 -65 -159 -65zM318 438
q-65 0 -104.5 -43t-39.5 -119q0 -77 39.5 -121t107.5 -44q92 0 131 74v182q-20 33 -57 52t-77 19zM595 332h290q-7 49 -43 81.5t-103 32.5q-55 0 -93.5 -28.5t-50.5 -85.5zM457 623l124 167l155 -13l-181 -154h-98z" />
    <glyph glyph-name="uni01FE" unicode="&#x1fe;" horiz-adv-x="845" 
d="M367 764l124 167l155 -12l-182 -155h-97zM711 606q93 -99 93 -252q0 -162 -105.5 -265t-276.5 -103q-117 0 -207 52l-33 -38h-131l86 99q-95 100 -95 255q0 163 104.5 266t275.5 103q119 0 212 -54l34 40h133zM189 354q0 -84 44 -145l308 353q-53 28 -119 28
q-102 0 -167.5 -65t-65.5 -171zM422 119q103 0 168.5 64.5t65.5 170.5q0 80 -41 142l-306 -351q49 -26 113 -26z" />
    <glyph glyph-name="uni01FF" unicode="&#x1ff;" horiz-adv-x="673" 
d="M275 621l124 167l155 -13l-181 -154h-98zM636 545l-69 -78q69 -77 69 -193q0 -131 -82 -208.5t-218 -77.5q-90 0 -160 36l-22 -25h-119l70 80q-69 77 -69 195q0 129 82.5 206.5t217.5 77.5q92 0 161 -37l20 24h119zM169 274q0 -53 24 -96l220 249q-32 16 -77 16
q-75 0 -121 -46.5t-46 -122.5zM503 274q0 54 -24 93l-220 -249q37 -16 77 -16q75 0 121 47t46 125z" />
    <glyph glyph-name="uni0218" unicode="&#x218;" horiz-adv-x="627" 
d="M361 419q58 -12 97 -26t74 -37.5t52 -60.5t17 -87q0 -110 -67.5 -166t-198.5 -56q-91 0 -158.5 15.5t-144.5 50.5l54 122q129 -62 242 -62q60 0 92.5 21.5t32.5 63.5q0 39 -34.5 58.5t-115.5 34.5q-64 13 -107.5 28t-80.5 39.5t-55 61.5t-18 88q0 99 68 157t198 58
q154 0 267 -55l-59 -119q-103 46 -207 46q-58 0 -89.5 -22t-31.5 -56q0 -39 39 -57.5t134 -39.5zM317 -43q36 0 57.5 -21.5t21.5 -57.5q0 -21 -6.5 -42t-21.5 -43t-45.5 -36t-73.5 -14h-19v50q4 -1 13 -1q47 0 61 43q-28 4 -43.5 20t-15.5 39q0 28 19.5 45.5t52.5 17.5z" />
    <glyph glyph-name="uni0219" unicode="&#x219;" horiz-adv-x="529" 
d="M295 331q103 -25 151.5 -61.5t48.5 -104.5q0 -179 -231 -179q-129 0 -231 48l44 109q81 -49 183 -49q95 0 95 58q0 24 -25 37t-96 29q-99 22 -146.5 60t-47.5 111q0 82 58.5 125t159.5 43q104 0 214 -43l-45 -110q-79 42 -170 42q-80 0 -80 -47q0 -25 23.5 -38t94.5 -30z
M258 -44q36 0 57.5 -21.5t21.5 -57.5q0 -21 -6.5 -42t-21.5 -43t-45.5 -36t-73.5 -14h-19v50q4 -1 13 -1q47 0 61 43q-28 4 -43.5 20t-15.5 39q0 28 19.5 45.5t52.5 17.5z" />
    <glyph glyph-name="uni021A" unicode="&#x21a;" horiz-adv-x="644" 
d="M24 576v133h596v-133h-226v-576h-144v576h-226zM229 -207q4 -1 13 -1q47 0 61 43q-28 4 -43.5 20t-15.5 39q0 28 19.5 45.5t52.5 17.5q36 0 57.5 -21.5t21.5 -57.5q0 -21 -6.5 -42t-21.5 -43t-45.5 -36t-73.5 -14h-19v50z" />
    <glyph glyph-name="uni021B" unicode="&#x21b;" horiz-adv-x="404" 
d="M9 423v123h78v212h136v-212h161v-123h-161v-231q0 -47 15.5 -67t56.5 -20q47 0 88 18v-121q-50 -15 -125 -15q-90 0 -130.5 44t-40.5 138v254h-78zM154 -257v50q4 -1 13 -1q47 0 61 43q-28 4 -43.5 20t-15.5 39q0 28 19.5 45.5t52.5 17.5q36 0 57.5 -21.5t21.5 -57.5
q0 -21 -6.5 -42t-21.5 -43t-45.5 -36t-73.5 -14h-19z" />
    <glyph glyph-name="uni0232" unicode="&#x232;" horiz-adv-x="666" 
d="M-1 709h165l170 -321l171 321h162l-262 -463v-246h-144v246zM154 768v97h357v-97h-357z" />
    <glyph glyph-name="uni0233" unicode="&#x233;" horiz-adv-x="598" 
d="M235 -1l-245 547h154l155 -381l147 381h147l-224 -552q-24 -61 -54 -100t-64 -56.5t-62.5 -23.5t-66.5 -6q-53 0 -89 12v119q44 -14 79 -14q85 0 123 74zM118 644v97h357v-97h-357z" />
    <glyph glyph-name="uni0237" unicode="&#x237;" horiz-adv-x="279" 
d="M49 -190q-55 0 -82 9v114q21 -6 40 -6q43 0 55 25t12 88v506h139v-579q0 -81 -45 -119t-119 -38z" />
    <glyph glyph-name="uni0259" unicode="&#x259;" horiz-adv-x="625" 
d="M24 273q0 30 1 41h424q-11 61 -52.5 94t-108.5 33q-102 0 -158 -70l-87 74q81 112 255 112q136 0 213.5 -77t77.5 -209q0 -129 -79 -207.5t-205 -78.5q-137 0 -209 78.5t-72 209.5zM305 100q55 0 93 28.5t50 85.5h-289q7 -49 43 -81.5t103 -32.5z" />
    <glyph glyph-name="uni02C6" unicode="&#x2c6;" horiz-adv-x="502" 
d="M62 620l144 164h90l145 -164h-103l-88 69l-86 -69h-102z" />
    <glyph glyph-name="uni02C7" unicode="&#x2c7;" horiz-adv-x="502" 
d="M208 621l-144 163h102l87 -69l88 69h102l-144 -163h-91z" />
    <glyph glyph-name="uni02D8" unicode="&#x2d8;" horiz-adv-x="502" 
d="M251 621q-79 0 -127.5 41t-51.5 119h88q18 -64 91 -64q75 0 91 64h89q-3 -79 -51 -119.5t-129 -40.5z" />
    <glyph glyph-name="uni02D9" unicode="&#x2d9;" horiz-adv-x="381" 
d="M190 613q-35 0 -60 25t-25 60t25 60t60 25t59.5 -25t24.5 -60t-24.5 -60t-59.5 -25z" />
    <glyph glyph-name="uni02DA" unicode="&#x2da;" horiz-adv-x="502" 
d="M252 613q-51 0 -84.5 32.5t-33.5 83.5q0 50 33.5 82.5t84.5 32.5t84.5 -32.5t33.5 -82.5q0 -51 -33.5 -83.5t-84.5 -32.5zM252 672q25 0 41 16.5t16 41.5t-16 41t-41 16t-41 -16.5t-16 -41.5t16 -41t41 -16z" />
    <glyph glyph-name="uni02DB" unicode="&#x2db;" horiz-adv-x="502" 
d="M228 -184q-52 0 -81.5 21.5t-29.5 58.5q0 33 27 65.5t75 52.5l72 -14q-66 -34 -66 -72q0 -34 48 -34q12 0 19 1l2 -71q-30 -8 -66 -8z" />
    <glyph glyph-name="uni02DC" unicode="&#x2dc;" horiz-adv-x="502" 
d="M103 618l-63 15q10 68 40.5 105t77.5 37q40 0 98 -29.5t77 -29.5q40 0 65 56l63 -15q-11 -69 -41 -105.5t-76 -36.5q-36 0 -96 29.5t-77 29.5q-43 0 -68 -56z" />
    <glyph glyph-name="uni02DD" unicode="&#x2dd;" horiz-adv-x="502" 
d="M233 620l89 174l127 -44l-137 -130h-79zM61 620l88 174l117 -42l-121 -132h-84z" />
    <glyph glyph-name="uni0300" unicode="&#x300;" 
d="M-224 620h-98l-181 155l155 12z" />
    <glyph glyph-name="uni0301" unicode="&#x301;" 
d="M-359 621l124 167l155 -13l-181 -154h-98z" />
    <glyph glyph-name="uni0302" unicode="&#x302;" 
d="M-483 620l144 164h91l144 -164h-103l-87 69l-87 -69h-102z" />
    <glyph glyph-name="uni0303" unicode="&#x303;" 
d="M-442 618l-63 15q10 68 40.5 105t77.5 37q39 0 98 -29.5t77 -29.5q42 0 65 56l63 -15q-10 -68 -40.5 -105t-76.5 -37q-36 0 -96 29.5t-77 29.5q-43 0 -68 -56z" />
    <glyph glyph-name="uni0304" unicode="&#x304;" 
d="M-475 644v97h357v-97h-357z" />
    <glyph glyph-name="uni0306" unicode="&#x306;" 
d="M-295 621q-80 0 -128.5 41t-51.5 119h88q18 -64 92 -64t90 64h89q-3 -79 -51 -119.5t-128 -40.5z" />
    <glyph glyph-name="uni0307" unicode="&#x307;" 
d="M-296 613q-35 0 -60 25t-25 60t25 60t60 25t59.5 -25t24.5 -60t-24.5 -60t-59.5 -25z" />
    <glyph glyph-name="uni0308" unicode="&#x308;" 
d="M-407 614q-35 0 -59.5 24.5t-24.5 59.5t24.5 59.5t59.5 24.5q34 0 58 -24.5t24 -59.5t-24 -59.5t-58 -24.5zM-183 614q-35 0 -59.5 24.5t-24.5 59.5t24.5 59.5t59.5 24.5q34 0 58 -24.5t24 -59.5t-24 -59.5t-58 -24.5z" />
    <glyph glyph-name="uni030A" unicode="&#x30a;" 
d="M-295 613q-51 0 -84.5 32.5t-33.5 83.5q0 50 33.5 82.5t84.5 32.5t84.5 -32.5t33.5 -82.5q0 -51 -33.5 -83.5t-84.5 -32.5zM-295 672q25 0 41 16.5t16 41.5t-16 41t-41 16q-24 0 -40 -16.5t-16 -41.5t16 -41t40 -16z" />
    <glyph glyph-name="uni030B" unicode="&#x30b;" 
d="M-265 620l89 174l127 -44l-136 -130h-80zM-437 620l88 174l117 -42l-121 -132h-84z" />
    <glyph glyph-name="uni030C" unicode="&#x30c;" 
d="M-339 621l-144 163h102l87 -69l87 69h103l-144 -163h-91z" />
    <glyph glyph-name="uni0312" unicode="&#x312;" 
d="M-228 825h19v-50q-4 1 -13 1q-47 0 -60 -42q27 -4 42.5 -20.5t15.5 -39.5q0 -28 -19.5 -45.5t-52.5 -17.5q-35 0 -57 21.5t-22 57.5q0 21 6.5 42t21.5 43.5t45.5 36t73.5 13.5z" />
    <glyph glyph-name="uni0326" unicode="&#x326;" 
d="M-311 -43q36 0 57.5 -21.5t21.5 -57.5q0 -21 -6.5 -42t-21.5 -43t-45.5 -36t-73.5 -14h-19v50q4 -1 13 -1q47 0 61 43q-28 4 -43.5 20t-15.5 39q0 28 19.5 45.5t52.5 17.5z" />
    <glyph glyph-name="uni0327" unicode="&#x327;" 
d="M-268 -39q61 -13 61 -60q0 -44 -36 -67t-102 -23q-43 0 -72 6v56q21 -4 49 -4q58 0 58 37q0 25 -53 30v23l40 45l75 3z" />
    <glyph glyph-name="uni0328" unicode="&#x328;" 
d="M-343 -184q-52 0 -81.5 21.5t-29.5 58.5q0 33 27 65.5t74 52.5l73 -14q-66 -34 -66 -72q0 -34 48 -34q11 0 19 1l1 -71q-30 -8 -65 -8z" />
    <glyph glyph-name="uni037E" unicode="&#x37e;" horiz-adv-x="242" 
d="M120 389q-35 0 -60 25t-25 61q0 35 25 60t60 25q34 0 58.5 -25t24.5 -60q0 -36 -24 -61t-59 -25zM118 155q35 0 59.5 -26t24.5 -87q0 -101 -48 -148t-130 -47v62q81 0 81 83q-30 4 -49.5 25.5t-19.5 54.5q0 40 23.5 61.5t58.5 21.5z" />
    <glyph glyph-name="uni0384" unicode="&#x384;" horiz-adv-x="415" 
d="M165 621l90 167l155 -12l-153 -155h-92z" />
    <glyph glyph-name="uni0385" unicode="&#x385;" horiz-adv-x="573" 
d="M222 623l20 196l131 -21l-91 -175h-60zM112 614q-35 0 -59.5 24.5t-24.5 59.5t24.5 59.5t59.5 24.5q34 0 58 -24.5t24 -59.5t-24 -59.5t-58 -24.5zM452 614q-35 0 -59.5 24.5t-24.5 59.5t24.5 59.5t59.5 24.5q34 0 58 -24.5t24 -59.5t-24 -59.5t-58 -24.5z" />
    <glyph glyph-name="uni0386" unicode="&#x386;" horiz-adv-x="751" 
d="M159 0h-154l324 712h92l325 -712h-154l-62 135h-310zM321 380l-53 -126h215l-53 126l-55 145zM90 526h-96l85 197l145 -12z" />
    <glyph glyph-name="uni0387" unicode="&#x387;" horiz-adv-x="246" 
d="M124 389q-35 0 -60 25t-25 61q0 35 25 60t60 25q34 0 58.5 -25t24.5 -60q0 -36 -24 -61t-59 -25z" />
    <glyph glyph-name="uni0388" unicode="&#x388;" horiz-adv-x="634" 
d="M68 709h515v-128h-378v-171h318v-121h-318v-162h394v-127h-531v709zM-121 526h-96l85 197l145 -12z" />
    <glyph glyph-name="uni0389" unicode="&#x389;" horiz-adv-x="742" 
d="M68 709h141v-317h325v317h140v-709h-140v261h-325v-261h-141v709zM-122 526h-96l85 197l145 -12z" />
    <glyph glyph-name="uni038A" unicode="&#x38a;" horiz-adv-x="295" 
d="M-213 526l85 197l145 -12l-134 -185h-96zM75 0v709h145v-709h-145z" />
    <glyph glyph-name="uni038C" unicode="&#x38c;" horiz-adv-x="845" 
d="M-119 526l85 197l145 -12l-134 -185h-96zM422 -14q-167 0 -273.5 101.5t-106.5 266.5q0 163 104.5 266t275.5 103q168 0 275 -102t107 -267q0 -162 -105.5 -265t-276.5 -103zM422 119q103 0 168.5 64.5t65.5 170.5q0 104 -64 170t-170 66q-102 0 -167.5 -65t-65.5 -171
q0 -104 64.5 -169.5t168.5 -65.5z" />
    <glyph glyph-name="uni038E" unicode="&#x38e;" horiz-adv-x="666" 
d="M-1 709h165l170 -321l171 321h162l-262 -463v-246h-144v246zM-164 526h-96l85 197l145 -12z" />
    <glyph glyph-name="uni038F" unicode="&#x38f;" horiz-adv-x="829" 
d="M41 387q0 160 105.5 247.5t268.5 87.5q106 0 189 -37t133.5 -114t50.5 -184q0 -81 -38 -148.5t-94 -107.5h125v-131h-327v96q81 51 133.5 120t52.5 152q0 103 -64 161t-161 58q-99 0 -162 -57.5t-63 -161.5q0 -83 52 -152t133 -120v-96h-325v131h124q-56 40 -94.5 107.5
t-38.5 148.5zM-127 526l85 197l145 -12l-134 -185h-96z" />
    <glyph glyph-name="uni0390" unicode="&#x390;" horiz-adv-x="272" 
d="M89 623l20 196l131 -21l-91 -175h-60zM-21 614q-35 0 -59.5 24.5t-24.5 59.5t24.5 59.5t59.5 24.5q34 0 58 -24.5t24 -59.5t-24 -59.5t-58 -24.5zM319 614q-35 0 -59.5 24.5t-24.5 59.5t24.5 59.5t59.5 24.5q34 0 58 -24.5t24 -59.5t-24 -59.5t-58 -24.5zM66 0v546h140
v-546h-140z" />
    <glyph glyph-name="uni0391" unicode="&#x391;" horiz-adv-x="751" 
d="M5 0l324 712h92l325 -712h-154l-62 135h-310l-61 -135h-154zM268 254h215l-53 126l-55 145l-54 -145z" />
    <glyph glyph-name="uni0392" unicode="&#x392;" horiz-adv-x="697" 
d="M407 0h-339v709h318q114 0 173.5 -45t59.5 -129q0 -119 -97 -155q69 -15 110 -59.5t41 -112.5q0 -208 -266 -208zM209 123h199q119 0 119 90q0 88 -133 88h-185v-178zM379 587h-170v-173h163q110 0 110 90q0 41 -27 62t-76 21z" />
    <glyph glyph-name="uni0393" unicode="&#x393;" horiz-adv-x="593" 
d="M68 0v709h509v-133h-366v-576h-143z" />
    <glyph glyph-name="uni0394" unicode="&#x394;" horiz-adv-x="721" 
d="M405 712l301 -643v-69h-691v69l299 643h91zM358 517l-168 -389h336z" />
    <glyph glyph-name="uni0395" unicode="&#x395;" horiz-adv-x="634" 
d="M68 709h515v-128h-378v-171h318v-121h-318v-162h394v-127h-531v709z" />
    <glyph glyph-name="uni0396" unicode="&#x396;" horiz-adv-x="667" 
d="M248 131h380v-131h-595v69l374 509h-350v131h567v-72z" />
    <glyph glyph-name="uni0397" unicode="&#x397;" horiz-adv-x="742" 
d="M68 709h141v-317h325v317h140v-709h-140v261h-325v-261h-141v709z" />
    <glyph glyph-name="uni0398" unicode="&#x398;" horiz-adv-x="845" 
d="M422 -14q-167 0 -273.5 101.5t-106.5 266.5q0 163 104.5 266t275.5 103q168 0 275 -102t107 -267q0 -162 -105.5 -265t-276.5 -103zM422 117q103 0 168.5 65t65.5 173q0 106 -64 172.5t-170 66.5q-102 0 -167.5 -65.5t-65.5 -173.5q0 -105 64.5 -171.5t168.5 -66.5z
M272 288v117h303v-117h-303z" />
    <glyph glyph-name="uni0399" unicode="&#x399;" horiz-adv-x="295" 
d="M75 0v709h145v-709h-145z" />
    <glyph glyph-name="uni039A" unicode="&#x39a;" horiz-adv-x="707" 
d="M68 0v709h138v-357l291 357h176l-261 -318l291 -391h-175l-216 288l-106 -119v-169h-138z" />
    <glyph glyph-name="uni039B" unicode="&#x39b;" horiz-adv-x="737" 
d="M5 0l318 712h91l317 -712h-159l-207 489l-204 -489h-156z" />
    <glyph glyph-name="uni039C" unicode="&#x39c;" horiz-adv-x="876" 
d="M206 0h-138v712h74l297 -403l295 403h75v-712h-139v400l-205 -278h-53l-206 276v-398z" />
    <glyph glyph-name="uni039D" unicode="&#x39d;" horiz-adv-x="771" 
d="M564 709h140v-713h-73l-423 450v-446h-140v713h71l425 -450v446z" />
    <glyph glyph-name="uni039E" unicode="&#x39e;" horiz-adv-x="659" 
d="M41 574v135h577v-135h-577zM101 286v128h457v-128h-457zM34 0v135h591v-135h-591z" />
    <glyph glyph-name="uni039F" unicode="&#x39f;" horiz-adv-x="845" 
d="M422 -14q-167 0 -273.5 101.5t-106.5 266.5q0 163 104.5 266t275.5 103q168 0 275 -102t107 -267q0 -162 -105.5 -265t-276.5 -103zM422 119q103 0 168.5 64.5t65.5 170.5q0 104 -64 170t-170 66q-102 0 -167.5 -65t-65.5 -171q0 -104 64.5 -169.5t168.5 -65.5z" />
    <glyph glyph-name="uni03A0" unicode="&#x3a0;" horiz-adv-x="741" 
d="M68 709h605v-709h-140v578h-324v-578h-141v709z" />
    <glyph glyph-name="uni03A1" unicode="&#x3a1;" horiz-adv-x="656" 
d="M209 0h-141v709h282q141 0 214 -65t73 -190q0 -262 -302 -262h-126v-192zM209 583v-267h121q161 0 161 134q0 133 -150 133h-132z" />
    <glyph glyph-name="uni03A3" unicode="&#x3a3;" horiz-adv-x="653" 
d="M241 131h378v-131h-591v71l227 279l-217 288v71h574v-131h-363l163 -208v-39z" />
    <glyph glyph-name="uni03A4" unicode="&#x3a4;" horiz-adv-x="644" 
d="M24 576v133h596v-133h-226v-576h-144v576h-226z" />
    <glyph glyph-name="uni03A5" unicode="&#x3a5;" horiz-adv-x="666" 
d="M261 246l-262 463h165l170 -321l171 321h162l-262 -463v-246h-144v246z" />
    <glyph glyph-name="uni03A6" unicode="&#x3a6;" horiz-adv-x="884" 
d="M33 360q0 139 88 223t243 84h10v65h136v-65h10q149 0 240 -83.5t91 -223.5q0 -137 -90.5 -222t-245.5 -85h-5v-70h-136v70h-5q-153 0 -244.5 82t-91.5 225zM510 172h12q83 0 134 53t51 135q0 86 -51.5 137.5t-135.5 51.5h-10v-377zM364 549q-84 0 -135 -51t-51 -138
q0 -83 51 -135.5t134 -52.5h11v377h-10z" />
    <glyph glyph-name="uni03A7" unicode="&#x3a7;" horiz-adv-x="701" 
d="M9 0l242 361l-235 348h168l167 -253l168 253h166l-234 -348l240 -361h-168l-174 259l-171 -259h-169z" />
    <glyph glyph-name="uni03A8" unicode="&#x3a8;" horiz-adv-x="848" 
d="M342 156q-144 0 -225 77.5t-81 216.5v259h141v-258q0 -82 45 -127.5t125 -45.5h7v431h140v-431h6q81 0 125.5 45.5t44.5 127.5v258h141v-259q0 -139 -80.5 -216.5t-224.5 -77.5h-12v-156h-140v156h-12z" />
    <glyph glyph-name="uni03A9" unicode="&#x3a9;" horiz-adv-x="829" 
d="M174 131q-56 40 -94.5 107.5t-38.5 148.5q0 160 105.5 247.5t268.5 87.5q106 0 189 -37t133.5 -114t50.5 -184q0 -81 -38 -148.5t-94 -107.5h125v-131h-327v96q81 51 133.5 120t52.5 152q0 103 -64 161t-161 58q-99 0 -162 -57.5t-63 -161.5q0 -83 52 -152t133 -120v-96
h-325v131h124z" />
    <glyph glyph-name="uni03AA" unicode="&#x3aa;" horiz-adv-x="295" 
d="M38 759q-35 0 -59.5 24.5t-24.5 59.5t24.5 59.5t59.5 24.5t59 -24.5t24 -59.5t-24 -59.5t-59 -24.5zM262 759q-35 0 -59 24.5t-24 59.5t24 59.5t59 24.5t59 -24.5t24 -59.5t-24 -59.5t-59 -24.5zM75 0v709h145v-709h-145z" />
    <glyph glyph-name="uni03AB" unicode="&#x3ab;" horiz-adv-x="666" 
d="M-1 709h165l170 -321l171 321h162l-262 -463v-246h-144v246zM222 759q-35 0 -59.5 24.5t-24.5 59.5t24.5 59.5t59.5 24.5t59 -24.5t24 -59.5t-24 -59.5t-59 -24.5zM363 843q0 35 24 59.5t59 24.5t59 -24.5t24 -59.5t-24 -59.5t-59 -24.5t-59 24.5t-24 59.5z" />
    <glyph glyph-name="uni03AC" unicode="&#x3ac;" horiz-adv-x="660" 
d="M300 -12q-120 0 -192 77.5t-72 208.5q0 130 71 207.5t187 77.5q107 0 168 -60v47h136v-546h-134v53q-54 -65 -164 -65zM178 274q0 -75 41 -118.5t111 -43.5q94 0 134 72v181q-20 33 -58 51.5t-79 18.5q-67 0 -108 -42.5t-41 -118.5zM367 621h-92l90 167l155 -12z" />
    <glyph glyph-name="uni03AD" unicode="&#x3ad;" horiz-adv-x="559" 
d="M230 621l90 167l155 -12l-153 -155h-92zM504 166l53 -113q-110 -65 -265 -65q-128 0 -192.5 37t-64.5 118q0 105 113 137q-94 37 -94 129q0 80 66 115.5t167 35.5q141 0 248 -56l-48 -109q-83 42 -186 42q-110 0 -110 -56q0 -23 23 -39t73 -16h113v-101h-121
q-56 0 -81.5 -16.5t-25.5 -41.5q0 -57 134 -57q105 0 198 56z" />
    <glyph glyph-name="uni03AE" unicode="&#x3ae;" horiz-adv-x="638" 
d="M263 621l90 167l155 -12l-153 -155h-92zM445 -176v468q0 78 -29.5 110t-85.5 32q-71 0 -126 -57v-377h-138v546h133v-50q76 62 175 62q105 0 156.5 -53.5t51.5 -178.5v-502h-137z" />
    <glyph glyph-name="uni03AF" unicode="&#x3af;" horiz-adv-x="272" 
d="M78 621l90 167l155 -12l-153 -155h-92zM66 0v546h140v-546h-140z" />
    <glyph glyph-name="uni03B0" unicode="&#x3b0;" horiz-adv-x="623" 
d="M50 546h138v-303q0 -68 31 -99.5t93 -31.5t92.5 31.5t30.5 99.5v303h138v-316q0 -243 -261 -243q-262 0 -262 243v316zM491 614q-35 0 -59.5 24.5t-24.5 59.5t24.5 59.5t59.5 24.5q34 0 58 -24.5t24 -59.5t-24 -59.5t-58 -24.5zM67 698q0 35 24.5 59.5t59.5 24.5
q34 0 58 -24.5t24 -59.5t-24 -59.5t-58 -24.5q-35 0 -59.5 24.5t-24.5 59.5zM261 623l20 196l131 -21l-91 -175h-60z" />
    <glyph glyph-name="uni03B1" unicode="&#x3b1;" horiz-adv-x="660" 
d="M36 274q0 130 71 207.5t187 77.5q107 0 168 -60v47h136v-546h-134v53q-54 -65 -164 -65q-120 0 -192 77.5t-72 208.5zM327 435q-67 0 -108 -42.5t-41 -118.5q0 -75 41 -118.5t111 -43.5q94 0 134 72v181q-20 33 -58 51.5t-79 18.5z" />
    <glyph glyph-name="uni03B2" unicode="&#x3b2;" horiz-adv-x="666" 
d="M63 502q0 138 71 204t197 66q113 0 186.5 -55t73.5 -145q0 -107 -86 -155q65 -19 99.5 -71.5t34.5 -125.5q0 -113 -71.5 -172.5t-181.5 -59.5q-55 0 -107 17t-80 51v-232h-136v678zM199 191q23 -37 69.5 -58t96.5 -21q61 0 96 30t35 89q0 55 -37 85.5t-112 30.5h-148
v-156zM333 655q-72 0 -103 -41t-31 -118v-37h127q54 0 92.5 22t38.5 74q0 47 -36 73.5t-88 26.5z" />
    <glyph glyph-name="uni03B3" unicode="&#x3b3;" horiz-adv-x="614" 
d="M238 -1l-234 547h152l102 -256l51 -134l51 135l99 255h151l-234 -550v-172h-138v175z" />
    <glyph glyph-name="uni03B4" unicode="&#x3b4;" horiz-adv-x="670" 
d="M523 502q112 -102 112 -239q0 -124 -82 -200t-215 -76t-217.5 76t-84.5 205q0 118 73 188t196 70h8q-95 77 -209 159v73h488v-116h-268q46 -27 108 -70.5t91 -69.5zM338 114q69 0 112 42t43 108q0 84 -72 145q-44 11 -80 11q-72 0 -117 -38.5t-45 -109.5t44.5 -114.5
t114.5 -43.5z" />
    <glyph glyph-name="uni03B5" unicode="&#x3b5;" horiz-adv-x="559" 
d="M504 166l53 -113q-110 -65 -265 -65q-128 0 -192.5 37t-64.5 118q0 105 113 137q-94 37 -94 129q0 80 66 115.5t167 35.5q141 0 248 -56l-48 -109q-83 42 -186 42q-110 0 -110 -56q0 -23 23 -39t73 -16h113v-101h-121q-56 0 -81.5 -16.5t-25.5 -41.5q0 -57 134 -57
q105 0 198 56z" />
    <glyph glyph-name="uni03B6" unicode="&#x3b6;" horiz-adv-x="553" 
d="M546 688q-89 -59 -148.5 -104.5t-115 -98.5t-82.5 -104.5t-27 -102.5q0 -60 34 -86.5t126 -39.5q116 -18 164 -54.5t48 -107.5q0 -82 -57 -129t-169 -47h-14v103q108 0 108 51q0 25 -28 37.5t-103 20.5q-124 14 -186.5 65t-62.5 153q0 64 21 121.5t62 107t86 88.5t107 83
h-238v114h475v-70z" />
    <glyph glyph-name="uni03B7" unicode="&#x3b7;" horiz-adv-x="638" 
d="M445 -176v468q0 78 -29.5 110t-85.5 32q-71 0 -126 -57v-377h-138v546h133v-50q76 62 175 62q105 0 156.5 -53.5t51.5 -178.5v-502h-137z" />
    <glyph glyph-name="uni03B8" unicode="&#x3b8;" horiz-adv-x="650" 
d="M325 772q142 0 218 -104t76 -294q0 -188 -74 -286.5t-220 -98.5t-220 98.5t-74 286.5q0 190 75.5 294t218.5 104zM325 649q-75 0 -114.5 -59t-41.5 -160h312q-3 101 -42 160t-114 59zM325 112q76 0 114 56t41 153h-311q8 -209 156 -209z" />
    <glyph glyph-name="uni03B9" unicode="&#x3b9;" horiz-adv-x="272" 
d="M66 0v546h140v-546h-140z" />
    <glyph glyph-name="uni03BA" unicode="&#x3ba;" horiz-adv-x="624" 
d="M66 0v546h138v-251l232 251h170l-195 -214l201 -332h-157l-144 236l-107 -105v-131h-138z" />
    <glyph glyph-name="uni03BB" unicode="&#x3bb;" horiz-adv-x="628" 
d="M168 0h-153l259 545l-3 7q-20 54 -46 77.5t-73 23.5q-31 0 -68 -10v119q37 9 85 9q94 0 141.5 -34.5t85.5 -134.5l229 -602h-154l-138 386z" />
    <glyph glyph-name="uni03BC" unicode="&#x3bc;" horiz-adv-x="641" 
d="M64 546h137v-292q0 -142 110 -142q74 0 128 63v371h137v-546h-131v56q-58 -68 -145 -68q-62 0 -99 37v-201h-137v722z" />
    <glyph glyph-name="uni03BD" unicode="&#x3bd;" horiz-adv-x="603" 
d="M4 546h157l94 -225l48 -126l48 124l96 227h152l-257 -549h-80z" />
    <glyph glyph-name="uni03BE" unicode="&#x3be;" horiz-adv-x="551" 
d="M336 149q118 -9 165 -47t47 -112q0 -82 -57 -129t-169 -47h-14v103q108 0 108 51q0 26 -28.5 38t-109.5 17q-130 8 -190 51t-60 133q0 71 44 120.5t119 69.5q-108 31 -108 120q0 43 25 76.5t65 50.5h-128v114h484v-113h-103q-105 0 -154 -23t-49 -75q0 -21 7.5 -36.5
t25.5 -25t36.5 -15t52.5 -8.5t61 -3.5t73 -0.5v-112h-85q-121 0 -173.5 -26t-52.5 -80q0 -43 35.5 -63.5t132.5 -27.5z" />
    <glyph glyph-name="uni03BF" unicode="&#x3bf;" horiz-adv-x="673" 
d="M337 -12q-136 0 -218.5 77.5t-82.5 208.5q0 129 83 206.5t218 77.5t217 -77.5t82 -206.5q0 -131 -82 -208.5t-217 -77.5zM337 114q70 0 113.5 44t43.5 116q0 71 -43.5 114.5t-113.5 43.5q-71 0 -114.5 -43.5t-43.5 -114.5q0 -72 43.5 -116t114.5 -44z" />
    <glyph glyph-name="uni03C0" unicode="&#x3c0;" horiz-adv-x="646" 
d="M64 0v546h518v-546h-138v422h-242v-422h-138z" />
    <glyph glyph-name="uni03C1" unicode="&#x3c1;" horiz-adv-x="655" 
d="M50 -176v452q0 134 75.5 208t207.5 74q134 0 209.5 -77.5t75.5 -210.5q0 -131 -71.5 -206.5t-193.5 -75.5q-110 0 -167 68v-232h-136zM326 112q73 0 111.5 41.5t38.5 116.5q0 77 -40 120t-107 43t-106 -43t-39 -121v-78q24 -40 62.5 -59.5t79.5 -19.5z" />
    <glyph glyph-name="uni03C2" unicode="&#x3c2;" horiz-adv-x="571" 
d="M304 -186v103q108 0 108 51q0 23 -26 35t-92 25q-262 55 -262 259q0 123 74 197t207 74q81 0 145 -29t101 -79l-96 -85q-21 31 -59 49.5t-85 18.5q-67 0 -105.5 -37t-38.5 -96q0 -65 42 -97t125 -53q109 -28 155.5 -61t46.5 -99q0 -82 -57 -129t-169 -47h-14z" />
    <glyph glyph-name="uni03C3" unicode="&#x3c3;" horiz-adv-x="668" 
d="M649 546v-124h-98q35 -32 55.5 -79t20.5 -99q0 -119 -81.5 -188t-210.5 -69q-134 0 -216.5 77.5t-82.5 207.5q0 128 80 201t214 73h319zM335 113q69 0 111.5 42t42.5 112q0 58 -27.5 100.5t-59.5 59.5h-67q-72 0 -115 -42t-43 -113t43.5 -115t114.5 -44z" />
    <glyph glyph-name="uni03C4" unicode="&#x3c4;" horiz-adv-x="519" 
d="M20 422v124h479v-124h-171v-422h-137v422h-171z" />
    <glyph glyph-name="uni03C5" unicode="&#x3c5;" horiz-adv-x="623" 
d="M50 546h138v-303q0 -68 31 -99.5t93 -31.5t92.5 31.5t30.5 99.5v303h138v-316q0 -243 -261 -243q-262 0 -262 243v316z" />
    <glyph glyph-name="uni03C6" unicode="&#x3c6;" horiz-adv-x="838" 
d="M350 -13q-145 2 -229.5 77t-84.5 207t83 208.5t231 78.5v110h138v-110q148 -2 231 -78.5t83 -208.5t-84.5 -207t-229.5 -77v-163h-138v163zM484 437v-329q84 0 130.5 42t46.5 124q0 77 -49 120t-128 43zM354 108v329q-79 0 -128 -43t-49 -120q0 -81 47.5 -123.5
t129.5 -42.5z" />
    <glyph glyph-name="uni03C7" unicode="&#x3c7;" horiz-adv-x="619" 
d="M4 -176l218 373l-211 349h158l138 -252l142 252h157l-213 -347l222 -375h-155l-154 263l-150 -263h-152z" />
    <glyph glyph-name="uni03C8" unicode="&#x3c8;" horiz-adv-x="806" 
d="M50 249v297h136v-293q0 -137 135 -137h16v552h132v-552h16q136 0 136 136v294h135v-297q0 -127 -68.5 -192t-200.5 -65h-15v-168h-138v168h-15q-132 0 -200.5 65t-68.5 192z" />
    <glyph glyph-name="uni03C9" unicode="&#x3c9;" horiz-adv-x="866" 
d="M568 555q112 -3 186.5 -81t74.5 -217q0 -123 -58.5 -196.5t-163.5 -73.5q-68 0 -111.5 31t-62.5 79q-20 -49 -63.5 -79.5t-110.5 -30.5q-106 0 -164.5 73.5t-58.5 196.5q0 139 74 217t187 81v-125q-53 -10 -86 -54t-33 -117q0 -63 26.5 -104.5t73.5 -41.5t69.5 42.5
t22.5 103.5v87h125v-87q0 -61 23 -103.5t70 -42.5q46 0 72.5 41.5t26.5 104.5q0 73 -33.5 117t-85.5 54v125z" />
    <glyph glyph-name="uni03CA" unicode="&#x3ca;" horiz-adv-x="272" 
d="M26 614q-35 0 -59.5 24.5t-24.5 59.5t24.5 59.5t59.5 24.5q34 0 58 -24.5t24 -59.5t-24 -59.5t-58 -24.5zM250 614q-35 0 -59.5 24.5t-24.5 59.5t24.5 59.5t59.5 24.5q34 0 58 -24.5t24 -59.5t-24 -59.5t-58 -24.5zM66 0v546h140v-546h-140z" />
    <glyph glyph-name="uni03CB" unicode="&#x3cb;" horiz-adv-x="623" 
d="M312 -13q-262 0 -262 243v316h138v-303q0 -68 31 -99.5t93 -31.5t92.5 31.5t30.5 99.5v303h138v-316q0 -243 -261 -243zM199 614q-35 0 -59.5 24.5t-24.5 59.5t24.5 59.5t59.5 24.5q34 0 58 -24.5t24 -59.5t-24 -59.5t-58 -24.5zM423 614q-35 0 -59.5 24.5t-24.5 59.5
t24.5 59.5t59.5 24.5q34 0 58 -24.5t24 -59.5t-24 -59.5t-58 -24.5z" />
    <glyph glyph-name="uni03CC" unicode="&#x3cc;" horiz-adv-x="673" 
d="M279 621l90 167l155 -12l-153 -155h-92zM337 -12q-136 0 -218.5 77.5t-82.5 208.5q0 129 83 206.5t218 77.5t217 -77.5t82 -206.5q0 -131 -82 -208.5t-217 -77.5zM337 114q70 0 113.5 44t43.5 116q0 71 -43.5 114.5t-113.5 43.5q-71 0 -114.5 -43.5t-43.5 -114.5
q0 -72 43.5 -116t114.5 -44z" />
    <glyph glyph-name="uni03CD" unicode="&#x3cd;" horiz-adv-x="623" 
d="M50 546h138v-303q0 -68 31 -99.5t93 -31.5t92.5 31.5t30.5 99.5v303h138v-316q0 -243 -261 -243q-262 0 -262 243v316zM251 621l90 167l155 -12l-153 -155h-92z" />
    <glyph glyph-name="uni03CE" unicode="&#x3ce;" horiz-adv-x="866" 
d="M374 621l90 167l155 -12l-153 -155h-92zM568 555q112 -3 186.5 -81t74.5 -217q0 -123 -58.5 -196.5t-163.5 -73.5q-68 0 -111.5 31t-62.5 79q-20 -49 -63.5 -79.5t-110.5 -30.5q-106 0 -164.5 73.5t-58.5 196.5q0 139 74 217t187 81v-125q-53 -10 -86 -54t-33 -117
q0 -63 26.5 -104.5t73.5 -41.5t69.5 42.5t22.5 103.5v87h125v-87q0 -61 23 -103.5t70 -42.5q46 0 72.5 41.5t26.5 104.5q0 73 -33.5 117t-85.5 54v125z" />
    <glyph glyph-name="uni0400" unicode="&#x400;" horiz-adv-x="634" 
d="M68 709h515v-128h-378v-171h318v-121h-318v-162h394v-127h-531v709zM97 919l154 12l124 -167h-97z" />
    <glyph glyph-name="uni0401" unicode="&#x401;" horiz-adv-x="634" 
d="M68 0v709h515v-128h-378v-171h318v-121h-318v-162h394v-127h-531zM207 777q-35 0 -59.5 24.5t-24.5 59.5t24.5 59.5t59.5 24.5q34 0 58 -24.5t24 -59.5t-24 -59.5t-58 -24.5zM347 861q0 35 24.5 59.5t59.5 24.5q34 0 58 -24.5t24 -59.5t-24 -59.5t-58 -24.5
q-35 0 -59.5 24.5t-24.5 59.5z" />
    <glyph glyph-name="uni0402" unicode="&#x402;" horiz-adv-x="822" 
d="M14 709h616v-133h-276v-150q88 26 195 26q125 0 190.5 -59t65.5 -166q0 -122 -68 -176t-207 -54q-33 0 -47 3v113q12 -1 33 -1q143 0 143 105q0 111 -139 111q-90 0 -166 -23v-305h-141v576h-199v133z" />
    <glyph glyph-name="uni0403" unicode="&#x403;" horiz-adv-x="593" 
d="M243 764l124 167l155 -12l-182 -155h-97zM68 0v709h509v-133h-366v-576h-143z" />
    <glyph glyph-name="uni0404" unicode="&#x404;" horiz-adv-x="757" 
d="M623 209l109 -94q-53 -64 -127 -96.5t-186 -32.5q-173 0 -275 98.5t-102 272.5q0 170 101.5 267.5t271.5 97.5q208 0 314 -131l-109 -94q-30 42 -83 68t-121 26q-93 0 -154 -48t-75 -138h357v-116h-353q17 -84 77 -127t151 -43q139 0 204 90z" />
    <glyph glyph-name="uni0405" unicode="&#x405;" horiz-adv-x="627" 
d="M335 -14q-91 0 -158.5 15.5t-144.5 50.5l54 122q129 -62 242 -62q60 0 92.5 21.5t32.5 63.5q0 39 -34.5 58.5t-115.5 34.5q-64 13 -107.5 28t-80.5 39.5t-55 61.5t-18 88q0 99 68 157t198 58q154 0 267 -55l-59 -119q-103 46 -207 46q-58 0 -89.5 -22t-31.5 -56
q0 -39 39 -57.5t134 -39.5q58 -12 97 -26t74 -37.5t52 -60.5t17 -87q0 -110 -67.5 -166t-198.5 -56z" />
    <glyph glyph-name="uni0406" unicode="&#x406;" horiz-adv-x="295" 
d="M75 0v709h145v-709h-145z" />
    <glyph glyph-name="uni0407" unicode="&#x407;" horiz-adv-x="295" 
d="M38 777q-35 0 -59.5 24.5t-24.5 59.5t24.5 59.5t59.5 24.5q34 0 58 -24.5t24 -59.5t-24 -59.5t-58 -24.5zM262 777q-35 0 -59.5 24.5t-24.5 59.5t24.5 59.5t59.5 24.5q34 0 58 -24.5t24 -59.5t-24 -59.5t-58 -24.5zM75 0v709h145v-709h-145z" />
    <glyph glyph-name="uni0408" unicode="&#x408;" horiz-adv-x="618" 
d="M288 -14q-124 0 -198 71.5t-78 200.5h140q4 -73 42 -106t95 -33q127 0 127 164v426h143v-426q0 -155 -66.5 -226t-204.5 -71z" />
    <glyph glyph-name="uni0409" unicode="&#x409;" horiz-adv-x="1147" 
d="M18 0v125q15 -1 38 -1q58 0 82.5 50t24.5 160v375h528v-208h153q140 0 213 -62.5t73 -183.5q0 -255 -302 -255h-277v578h-248v-264q0 -93 -15.5 -156.5t-46.5 -98t-69 -48.5t-90 -14q-43 0 -64 3zM691 125h132q161 0 161 126t-150 126h-143v-252z" />
    <glyph glyph-name="uni040A" unicode="&#x40a;" horiz-adv-x="1129" 
d="M68 709h141v-303h315v303h141v-221h161q140 0 213 -61.5t73 -179.5q0 -247 -302 -247h-286v275h-315v-275h-141v709zM816 363h-151v-238h140q161 0 161 118q0 62 -37 91t-113 29z" />
    <glyph glyph-name="uni040B" unicode="&#x40b;" horiz-adv-x="825" 
d="M14 709h616v-133h-276v-146q76 22 158 22q280 0 280 -267v-185h-140v177q0 85 -38 118t-113 33q-77 0 -147 -20v-308h-141v576h-199v133z" />
    <glyph glyph-name="uni040C" unicode="&#x40c;" horiz-adv-x="704" 
d="M295 764l124 167l155 -12l-182 -155h-97zM700 0h-185l-306 331v-331h-141v709h141v-331l279 331h178l-302 -345z" />
    <glyph glyph-name="uni040D" unicode="&#x40d;" horiz-adv-x="771" 
d="M443 764h-97l-181 155l154 12zM630 713h74v-713h-141v448l-420 -452h-75v713h141v-449z" />
    <glyph glyph-name="uni040E" unicode="&#x40e;" horiz-adv-x="683" 
d="M0 709h163l136 -281l45 -105l45 106l134 280h160l-260 -528q-52 -107 -103.5 -151t-146.5 -44q-37 0 -74 6v125q32 -4 49 -4q44 0 72.5 14t54.5 54zM164 925h88q16 -64 91 -64t90 64h90q-3 -79 -51.5 -120t-128.5 -41t-128.5 41.5t-50.5 119.5z" />
    <glyph glyph-name="uni040F" unicode="&#x40f;" horiz-adv-x="740" 
d="M68 0v709h141v-578h323v578h140v-709h-237v-166h-129v166h-238z" />
    <glyph glyph-name="uni0410" unicode="&#x410;" horiz-adv-x="751" 
d="M5 0l324 712h92l325 -712h-154l-62 135h-310l-61 -135h-154zM268 254h215l-53 126l-55 145l-54 -145z" />
    <glyph glyph-name="uni0411" unicode="&#x411;" horiz-adv-x="679" 
d="M375 0h-307v709h530v-126h-389v-141h182q269 0 269 -215q0 -116 -70.5 -171.5t-214.5 -55.5zM209 120h161q144 0 144 104q0 52 -31.5 76t-100.5 24h-173v-204z" />
    <glyph glyph-name="uni0412" unicode="&#x412;" horiz-adv-x="697" 
d="M407 0h-339v709h318q114 0 173.5 -45t59.5 -129q0 -119 -97 -155q69 -15 110 -59.5t41 -112.5q0 -208 -266 -208zM209 123h199q119 0 119 90q0 88 -133 88h-185v-178zM379 587h-170v-173h163q110 0 110 90q0 41 -27 62t-76 21z" />
    <glyph glyph-name="uni0413" unicode="&#x413;" horiz-adv-x="593" 
d="M68 0v709h509v-133h-366v-576h-143z" />
    <glyph glyph-name="uni0414" unicode="&#x414;" horiz-adv-x="839" 
d="M152 -166h-129v297h74q59 51 59 239v339h540v-578h116v-297h-129v166h-531v-166zM245 131h310v447h-258v-218q0 -163 -52 -229z" />
    <glyph glyph-name="uni0415" unicode="&#x415;" horiz-adv-x="634" 
d="M68 709h515v-128h-378v-171h318v-121h-318v-162h394v-127h-531v709z" />
    <glyph glyph-name="uni0416" unicode="&#x416;" horiz-adv-x="1097" 
d="M183 0h-179l319 359l-297 350h184l269 -333v333h139v-334l271 334h175l-292 -346l321 -363h-185l-290 330v-330h-139v332z" />
    <glyph glyph-name="uni0417" unicode="&#x417;" horiz-adv-x="676" 
d="M495 370q68 -14 112 -58.5t44 -111.5q0 -105 -79.5 -159.5t-228.5 -54.5q-119 0 -194.5 32t-124.5 95l101 94q56 -98 223 -98q157 0 157 101q0 39 -38.5 63.5t-118.5 24.5h-128v109h112q63 0 101 27t38 71q0 47 -40 70.5t-109 23.5q-120 0 -177 -96l-102 92
q49 62 116.5 94.5t169.5 32.5q134 0 207 -49t73 -139q0 -62 -31.5 -104t-82.5 -60z" />
    <glyph glyph-name="uni0418" unicode="&#x418;" horiz-adv-x="771" 
d="M630 713h74v-713h-141v448l-420 -452h-75v713h141v-449z" />
    <glyph glyph-name="uni0419" unicode="&#x419;" horiz-adv-x="771" 
d="M143 -4h-75v713h141v-449l421 453h74v-713h-141v448zM386 764q-80 0 -128.5 41.5t-50.5 119.5h88q16 -64 91 -64t90 64h90q-3 -79 -51.5 -120t-128.5 -41z" />
    <glyph glyph-name="uni041A" unicode="&#x41a;" horiz-adv-x="704" 
d="M700 0h-185l-306 331v-331h-141v709h141v-331l279 331h178l-302 -345z" />
    <glyph glyph-name="uni041B" unicode="&#x41b;" horiz-adv-x="773" 
d="M82 -3q-43 0 -64 3v125q15 -1 38 -1q58 0 82.5 50t24.5 160v375h543v-709h-141v578h-262v-264q0 -93 -15.5 -156.5t-46.5 -98t-69 -48.5t-90 -14z" />
    <glyph glyph-name="uni041C" unicode="&#x41c;" horiz-adv-x="876" 
d="M206 0h-138v712h74l297 -403l295 403h75v-712h-139v400l-205 -278h-53l-206 276v-398z" />
    <glyph glyph-name="uni041D" unicode="&#x41d;" horiz-adv-x="742" 
d="M68 709h141v-317h325v317h140v-709h-140v261h-325v-261h-141v709z" />
    <glyph glyph-name="uni041E" unicode="&#x41e;" horiz-adv-x="845" 
d="M422 -14q-167 0 -273.5 101.5t-106.5 266.5q0 163 104.5 266t275.5 103q168 0 275 -102t107 -267q0 -162 -105.5 -265t-276.5 -103zM422 119q103 0 168.5 64.5t65.5 170.5q0 104 -64 170t-170 66q-102 0 -167.5 -65t-65.5 -171q0 -104 64.5 -169.5t168.5 -65.5z" />
    <glyph glyph-name="uni041F" unicode="&#x41f;" horiz-adv-x="741" 
d="M68 709h605v-709h-140v578h-324v-578h-141v709z" />
    <glyph glyph-name="uni0420" unicode="&#x420;" horiz-adv-x="656" 
d="M209 0h-141v709h282q141 0 214 -65t73 -190q0 -262 -302 -262h-126v-192zM209 583v-267h121q161 0 161 134q0 133 -150 133h-132z" />
    <glyph glyph-name="uni0421" unicode="&#x421;" horiz-adv-x="746" 
d="M412 -14q-168 0 -269 100t-101 271q0 170 100.5 267.5t269.5 97.5q199 0 310 -136l-110 -93q-68 95 -196 95q-103 0 -165 -62t-62 -169q0 -109 62 -173t165 -64q129 0 196 94l110 -93q-111 -135 -310 -135z" />
    <glyph glyph-name="uni0422" unicode="&#x422;" horiz-adv-x="644" 
d="M24 576v133h596v-133h-226v-576h-144v576h-226z" />
    <glyph glyph-name="uni0423" unicode="&#x423;" horiz-adv-x="683" 
d="M275 181l-275 528h163l136 -281l45 -105l45 106l134 280h160l-260 -528q-52 -107 -103.5 -151t-146.5 -44q-37 0 -74 6v125q32 -4 49 -4q44 0 72.5 14t54.5 54z" />
    <glyph glyph-name="uni0424" unicode="&#x424;" horiz-adv-x="884" 
d="M33 360q0 139 88 223t243 84h10v65h136v-65h10q149 0 240 -83.5t91 -223.5q0 -137 -90.5 -222t-245.5 -85h-5v-70h-136v70h-5q-153 0 -244.5 82t-91.5 225zM510 172h12q83 0 134 53t51 135q0 86 -51.5 137.5t-135.5 51.5h-10v-377zM364 549q-84 0 -135 -51t-51 -138
q0 -83 51 -135.5t134 -52.5h11v377h-10z" />
    <glyph glyph-name="uni0425" unicode="&#x425;" horiz-adv-x="701" 
d="M9 0l242 361l-235 348h168l167 -253l168 253h166l-234 -348l240 -361h-168l-174 259l-171 -259h-169z" />
    <glyph glyph-name="uni0426" unicode="&#x426;" horiz-adv-x="786" 
d="M68 709h141v-578h313v578h141v-578h116v-297h-129v166h-582v709z" />
    <glyph glyph-name="uni0427" unicode="&#x427;" horiz-adv-x="688" 
d="M33 709h140v-206q0 -158 169 -158q78 0 138 19v345h141v-709h-141v239q-69 -21 -153 -21q-131 0 -212.5 67t-81.5 211v213z" />
    <glyph glyph-name="uni0428" unicode="&#x428;" horiz-adv-x="1070" 
d="M68 709h141v-578h255v578h141v-578h256v578h141v-709h-934v709z" />
    <glyph glyph-name="uni0429" unicode="&#x429;" horiz-adv-x="1125" 
d="M68 0v709h141v-578h255v578h141v-578h256v578h141v-578h116v-297h-129v166h-921z" />
    <glyph glyph-name="uni042A" unicode="&#x42a;" horiz-adv-x="808" 
d="M213 0v576h-199v133h339v-208h152q141 0 214 -62.5t73 -183.5q0 -255 -302 -255h-277zM354 125h131q161 0 161 126t-150 126h-142v-252z" />
    <glyph glyph-name="uni042B" unicode="&#x42b;" horiz-adv-x="941" 
d="M68 0v709h141v-208h146q141 0 214 -62.5t73 -183.5q0 -255 -302 -255h-272zM729 709h144v-709h-144v709zM346 377h-137v-252h126q161 0 161 126t-150 126z" />
    <glyph glyph-name="uni042C" unicode="&#x42c;" horiz-adv-x="664" 
d="M345 0h-277v709h141v-208h152q140 0 213 -62.5t73 -183.5q0 -255 -302 -255zM351 377h-142v-252h131q161 0 161 126t-150 126z" />
    <glyph glyph-name="uni042D" unicode="&#x42d;" horiz-adv-x="757" 
d="M342 722q170 0 271.5 -97.5t101.5 -267.5q0 -174 -102 -272.5t-275 -98.5q-112 0 -186 32.5t-127 96.5l109 94q65 -90 204 -90q91 0 151 43t77 127h-353v116h357q-14 90 -75 138t-154 48q-68 0 -121 -26t-83 -68l-109 94q106 131 314 131z" />
    <glyph glyph-name="uni042E" unicode="&#x42e;" horiz-adv-x="1128" 
d="M64 0v709h141v-316h130q13 148 115 239t261 91q167 0 273.5 -102t106.5 -267q0 -162 -104.5 -265t-275.5 -103q-141 0 -241 75t-128 203h-137v-264h-141zM481 354q0 -104 63.5 -169.5t166.5 -65.5q102 0 167 64.5t65 170.5q0 104 -64 170t-168 66q-101 0 -165.5 -65
t-64.5 -171z" />
    <glyph glyph-name="uni042F" unicode="&#x42f;" horiz-adv-x="687" 
d="M21 0l156 232q-132 58 -132 224q0 124 65.5 188.5t196.5 64.5h313v-709h-141v202h-133q-20 0 -29 1l-131 -203h-165zM337 583q-75 0 -109 -32.5t-34 -97.5q0 -130 156 -130h129v260h-142z" />
    <glyph glyph-name="uni0430" unicode="&#x430;" horiz-adv-x="621" 
d="M299 556q119 0 189 -62.5t70 -148.5v-345h-134v58q-32 -32 -81.5 -52.5t-101.5 -20.5q-98 0 -154.5 54.5t-54.5 129.5q3 96 71.5 133.5t180.5 37.5h137q0 46 -36 70t-92 24q-100 -2 -144 -57l-89 82q36 50 101.5 73.5t137.5 23.5zM421 216l1 17h-137q-57 0 -85.5 -12.5
t-28.5 -44.5q0 -31 26 -52t73 -21q64 0 107.5 30t43.5 83z" />
    <glyph glyph-name="uni0431" unicode="&#x431;" horiz-adv-x="680" 
d="M374 525q128 0 198.5 -69t70.5 -189q0 -126 -81.5 -202.5t-214.5 -76.5q-145 0 -225 89t-80 256q0 78 7 136.5t27.5 114.5t55 92.5t91.5 61t136 29.5q149 10 223 25l13 -132q-69 -15 -207 -25q-106 -7 -152 -50.5t-58 -146.5q32 41 84 64t112 23zM348 114
q67 0 109.5 43.5t42.5 114.5q0 64 -41.5 103.5t-106.5 39.5q-52 0 -97.5 -32t-67.5 -92q5 -83 47 -130t114 -47z" />
    <glyph glyph-name="uni0432" unicode="&#x432;" horiz-adv-x="618" 
d="M374 0h-308v545h297q192 0 192 -133q0 -87 -74 -115q53 -13 83 -48t30 -89q0 -79 -52 -119.5t-168 -40.5zM201 112h172q82 0 82 56t-89 56h-165v-112zM348 434h-147v-111h142q79 0 79 61q0 50 -74 50z" />
    <glyph glyph-name="uni0433" unicode="&#x433;" horiz-adv-x="509" 
d="M490 546v-124h-286v-422h-138v546h424z" />
    <glyph glyph-name="uni0434" unicode="&#x434;" horiz-adv-x="679" 
d="M7 124h46q63 34 63 239v183h454v-422h92v-272h-122v148h-411v-148h-122v272zM196 123h241v301h-189v-92q0 -148 -52 -209z" />
    <glyph glyph-name="uni0435" unicode="&#x435;" horiz-adv-x="625" 
d="M601 273q0 -30 -1 -41h-424q11 -61 52.5 -94t108.5 -33q102 0 158 70l87 -74q-81 -112 -255 -112q-136 0 -213.5 77t-77.5 209q0 129 79 207.5t205 78.5q137 0 209 -78.5t72 -209.5zM320 446q-55 0 -93 -28.5t-50 -85.5h289q-7 49 -43 81.5t-103 32.5z" />
    <glyph glyph-name="uni0436" unicode="&#x436;" horiz-adv-x="932" 
d="M173 0h-166l244 261l-239 285h169l216 -263v263h137v-267l222 267h163l-240 -279l246 -267h-175l-216 240v-240h-137v242z" />
    <glyph glyph-name="uni0437" unicode="&#x437;" horiz-adv-x="564" 
d="M428 283q114 -31 114 -135q0 -82 -71 -121t-196 -39q-87 0 -147 15.5t-115 49.5l52 121q51 -34 95 -49t101 -15q68 0 106 16.5t38 46.5q0 26 -24.5 39t-83.5 13h-127v100h104q49 0 73 16.5t24 38.5q0 28 -34 43t-82 15q-69 0 -173 -46l-50 109q110 59 238 59
q47 0 87 -7.5t75 -24t55 -47t20 -72.5q0 -88 -79 -126z" />
    <glyph glyph-name="uni0438" unicode="&#x438;" horiz-adv-x="656" 
d="M517 550h72v-550h-131v318l-317 -322h-75v550h132v-318z" />
    <glyph glyph-name="uni0439" unicode="&#x439;" horiz-adv-x="656" 
d="M141 -4h-75v550h132v-318l319 322h72v-550h-131v318zM329 621q-80 0 -128.5 41t-51.5 119h88q18 -64 92 -64t90 64h89q-3 -79 -51 -119.5t-128 -40.5z" />
    <glyph glyph-name="uni043A" unicode="&#x43a;" horiz-adv-x="617" 
d="M66 546h136v-266l231 266h167l-250 -279l255 -267h-180l-223 241v-241h-136v546z" />
    <glyph glyph-name="uni043B" unicode="&#x43b;" horiz-adv-x="656" 
d="M74 -3q-40 0 -60 3v120h30q50 0 69 38t19 114v274h457v-546h-137v422h-187v-181q0 -132 -48 -188t-143 -56z" />
    <glyph glyph-name="uni043C" unicode="&#x43c;" horiz-adv-x="754" 
d="M194 0h-128v549h70l241 -305l240 305h70v-549h-128v289l-159 -205h-47l-159 205v-289z" />
    <glyph glyph-name="uni043D" unicode="&#x43d;" horiz-adv-x="654" 
d="M66 546h138v-234h246v234h138v-546h-138v196h-246v-196h-138v546z" />
    <glyph glyph-name="uni043E" unicode="&#x43e;" horiz-adv-x="673" 
d="M337 -12q-136 0 -218.5 77.5t-82.5 208.5q0 129 83 206.5t218 77.5t217 -77.5t82 -206.5q0 -131 -82 -208.5t-217 -77.5zM337 114q70 0 113.5 44t43.5 116q0 71 -43.5 114.5t-113.5 43.5q-71 0 -114.5 -43.5t-43.5 -114.5q0 -72 43.5 -116t114.5 -44z" />
    <glyph glyph-name="uni043F" unicode="&#x43f;" horiz-adv-x="650" 
d="M66 0v546h518v-546h-138v422h-242v-422h-138z" />
    <glyph glyph-name="uni0440" unicode="&#x440;" horiz-adv-x="664" 
d="M66 -176v722h136v-47q61 60 168 60q116 0 186.5 -77.5t70.5 -207.5q0 -131 -71.5 -208.5t-191.5 -77.5q-108 0 -162 65v-229h-136zM202 368l-1 -1q-1 -1 -1 -2v-181l1 -1q1 -1 1 -2q41 -69 132 -69q69 0 110 43.5t41 118.5q0 76 -40.5 118.5t-107.5 42.5q-40 0 -77 -17.5
t-58 -49.5z" />
    <glyph glyph-name="uni0441" unicode="&#x441;" horiz-adv-x="597" 
d="M330 -11q-138 0 -216 77t-78 208q0 126 79 204.5t214 78.5q77 0 139 -29t99 -80l-96 -86q-21 31 -57 50t-78 19q-72 0 -115.5 -42.5t-43.5 -113.5q0 -73 43 -116.5t115 -43.5q45 0 82 19.5t59 49.5l94 -86q-81 -109 -240 -109z" />
    <glyph glyph-name="uni0442" unicode="&#x442;" horiz-adv-x="519" 
d="M20 422v124h479v-124h-171v-422h-137v422h-171z" />
    <glyph glyph-name="uni0443" unicode="&#x443;" horiz-adv-x="598" 
d="M235 -1l-245 547h154l155 -381l147 381h147l-224 -552q-24 -61 -54 -100t-64 -56.5t-62.5 -23.5t-66.5 -6q-53 0 -89 12v119q44 -14 79 -14q85 0 123 74z" />
    <glyph glyph-name="uni0444" unicode="&#x444;" horiz-adv-x="838" 
d="M350 -13q-145 2 -229.5 77t-84.5 207t83 208.5t231 78.5v200h138v-200q148 -2 231 -78.5t83 -208.5t-84.5 -207t-229.5 -77v-163h-138v163zM484 437v-329q84 0 130.5 42t46.5 124q0 77 -49 120t-128 43zM354 108v329q-79 0 -128 -43t-49 -120q0 -81 47.5 -123.5
t129.5 -42.5z" />
    <glyph glyph-name="uni0445" unicode="&#x445;" horiz-adv-x="594" 
d="M8 0l200 280l-197 266h162l123 -172l125 172h162l-196 -264l199 -282h-160l-130 179l-130 -179h-158z" />
    <glyph glyph-name="uni0446" unicode="&#x446;" horiz-adv-x="687" 
d="M66 0v546h138v-422h237v422h138v-422h92v-272h-122v148h-483z" />
    <glyph glyph-name="uni0447" unicode="&#x447;" horiz-adv-x="602" 
d="M25 546h137v-166q0 -111 131 -111q57 0 105 14v263h138v-546h-138v172q-60 -15 -121 -15q-111 0 -181.5 54t-70.5 170v165z" />
    <glyph glyph-name="uni0448" unicode="&#x448;" horiz-adv-x="949" 
d="M66 546h138v-422h202v422h137v-422h202v422h138v-546h-817v546z" />
    <glyph glyph-name="uni0449" unicode="&#x449;" horiz-adv-x="991" 
d="M66 0v546h138v-422h202v422h137v-422h202v422h138v-422h92v-272h-122v148h-787z" />
    <glyph glyph-name="uni044A" unicode="&#x44a;" horiz-adv-x="696" 
d="M445 404q233 0 233 -199q0 -105 -59 -155t-181 -50h-260v422h-158v124h296v-142h129zM432 114q103 0 103 89q0 88 -99 88h-123v-177h119z" />
    <glyph glyph-name="uni044B" unicode="&#x44b;" horiz-adv-x="846" 
d="M66 546h138v-142h129q233 0 233 -199q0 -105 -59 -155t-180 -50h-261v546zM640 546h139v-546h-139v546zM201 291v-177h119q103 0 103 89q0 88 -99 88h-123z" />
    <glyph glyph-name="uni044C" unicode="&#x44c;" horiz-adv-x="585" 
d="M66 0v546h138v-142h129q233 0 233 -199q0 -105 -59 -155t-180 -50h-261zM201 114h119q103 0 103 89q0 88 -99 88h-123v-177z" />
    <glyph glyph-name="uni044D" unicode="&#x44d;" horiz-adv-x="609" 
d="M281 559q136 0 214 -78.5t78 -205.5q0 -131 -78.5 -208t-219.5 -77q-165 0 -247 107l92 84q54 -67 147 -67q65 0 107.5 29.5t55.5 81.5h-238v99h238q-11 52 -52.5 81t-106.5 29q-91 0 -147 -69l-93 88q39 48 104 77t146 29z" />
    <glyph glyph-name="uni044E" unicode="&#x44e;" horiz-adv-x="934" 
d="M63 0v546h138v-236h103q12 113 92.5 180.5t204.5 67.5q134 0 216 -77.5t82 -206.5q0 -131 -82 -208.5t-216 -77.5q-113 0 -190.5 56t-99.5 153h-110v-197h-138zM445 274q0 -72 43.5 -116t112.5 -44t112 44t43 116q0 71 -43 114.5t-112 43.5t-112.5 -43.5t-43.5 -114.5z
" />
    <glyph glyph-name="uni044F" unicode="&#x44f;" horiz-adv-x="616" 
d="M36 0l117 179q-106 40 -106 169q0 102 58.5 150t180.5 48h264v-546h-138v159h-124l-102 -159h-150zM293 432q-104 0 -104 -84q0 -86 99 -86h127v170h-122z" />
    <glyph glyph-name="uni0450" unicode="&#x450;" horiz-adv-x="625" 
d="M376 622h-98l-181 155l155 12zM601 273q0 -30 -1 -41h-424q11 -61 52.5 -94t108.5 -33q102 0 158 70l87 -74q-81 -112 -255 -112q-136 0 -213.5 77t-77.5 209q0 129 79 207.5t205 78.5q137 0 209 -78.5t72 -209.5zM320 446q-55 0 -93 -28.5t-50 -85.5h289q-7 49 -43 81.5
t-103 32.5z" />
    <glyph glyph-name="uni0451" unicode="&#x451;" horiz-adv-x="625" 
d="M199 616q-35 0 -59.5 24.5t-24.5 59.5t24.5 59.5t59.5 24.5q34 0 58 -24.5t24 -59.5t-24 -59.5t-58 -24.5zM423 616q-35 0 -59.5 24.5t-24.5 59.5t24.5 59.5t59.5 24.5q34 0 58 -24.5t24 -59.5t-24 -59.5t-58 -24.5zM601 273q0 -30 -1 -41h-424q11 -61 52.5 -94
t108.5 -33q102 0 158 70l87 -74q-81 -112 -255 -112q-136 0 -213.5 77t-77.5 209q0 129 79 207.5t205 78.5q137 0 209 -78.5t72 -209.5zM320 446q-55 0 -93 -28.5t-50 -85.5h289q-7 49 -43 81.5t-103 32.5z" />
    <glyph glyph-name="uni0452" unicode="&#x452;" horiz-adv-x="624" 
d="M63 601h-102v104h102v53h137v-53h196v-104h-196v-134q74 62 170 62q107 0 163.5 -76.5t56.5 -247.5q0 -178 -71.5 -279.5t-210.5 -101.5v124q62 0 100.5 71t38.5 178q0 111 -30 159.5t-90 48.5q-71 0 -126 -57v-348h-138v601z" />
    <glyph glyph-name="uni0453" unicode="&#x453;" horiz-adv-x="509" 
d="M182 590l124 167l155 -13l-181 -154h-98zM490 546v-124h-286v-422h-138v546h424z" />
    <glyph glyph-name="uni0454" unicode="&#x454;" horiz-adv-x="609" 
d="M489 181l92 -84q-82 -107 -247 -107q-141 0 -219.5 77t-78.5 208q0 127 78 205.5t214 78.5q81 0 146 -29t104 -77l-93 -88q-56 69 -147 69q-65 0 -106.5 -29t-52.5 -81h238v-99h-238q13 -52 55.5 -81.5t107.5 -29.5q93 0 147 67z" />
    <glyph glyph-name="uni0455" unicode="&#x455;" horiz-adv-x="529" 
d="M264 -14q-129 0 -231 48l44 109q81 -49 183 -49q95 0 95 58q0 24 -25 37t-96 29q-99 22 -146.5 60t-47.5 111q0 82 58.5 125t159.5 43q104 0 214 -43l-45 -110q-79 42 -170 42q-80 0 -80 -47q0 -25 23.5 -38t94.5 -30q103 -25 151.5 -61.5t48.5 -104.5q0 -179 -231 -179z
" />
    <glyph glyph-name="uni0456" unicode="&#x456;" horiz-adv-x="272" 
d="M137 613q-35 0 -60 25t-25 60t25 60t60 25t59.5 -25t24.5 -60t-24.5 -60t-59.5 -25zM66 0v546h140v-546h-140z" />
    <glyph glyph-name="uni0457" unicode="&#x457;" horiz-adv-x="272" 
d="M26 614q-35 0 -59.5 24.5t-24.5 59.5t24.5 59.5t59.5 24.5q34 0 58 -24.5t24 -59.5t-24 -59.5t-58 -24.5zM250 614q-35 0 -59.5 24.5t-24.5 59.5t24.5 59.5t59.5 24.5q34 0 58 -24.5t24 -59.5t-24 -59.5t-58 -24.5zM66 0v546h140v-546h-140z" />
    <glyph glyph-name="uni0458" unicode="&#x458;" horiz-adv-x="279" 
d="M146 613q-35 0 -60 25t-25 60t25 60t60 25t59.5 -25t24.5 -60t-24.5 -60t-59.5 -25zM49 -190q-55 0 -82 9v114q21 -6 40 -6q43 0 55 25t12 88v506h139v-579q0 -81 -45 -119t-119 -38z" />
    <glyph glyph-name="uni0459" unicode="&#x459;" horiz-adv-x="953" 
d="M708 404q232 0 232 -199q0 -105 -59 -155t-180 -50h-258v422h-180v-181q0 -132 -47.5 -188t-142.5 -56q-40 0 -61 3v120h31q50 0 69 38t19 114v274h450v-142h127zM694 114q103 0 103 89q0 88 -99 88h-120v-177h116z" />
    <glyph glyph-name="uni045A" unicode="&#x45a;" horiz-adv-x="956" 
d="M201 0h-138v546h138v-219h241v219h137v-146h136q230 0 230 -198q0 -103 -58 -152.5t-179 -49.5h-266v211h-241v-211zM577 114h124q101 0 101 86q0 87 -96 87h-129v-173z" />
    <glyph glyph-name="uni045B" unicode="&#x45b;" horiz-adv-x="635" 
d="M63 601h-102v104h102v53h137v-53h196v-104h-196v-134q74 62 171 62q105 0 156.5 -53.5t51.5 -177.5v-298h-137v263q0 78 -29.5 110t-85.5 32q-71 0 -126 -57v-348h-138v601z" />
    <glyph glyph-name="uni045C" unicode="&#x45c;" horiz-adv-x="617" 
d="M202 0h-136v546h136v-266l231 266h167l-250 -279l255 -267h-180l-223 241v-241zM250 621l124 167l155 -13l-181 -154h-98z" />
    <glyph glyph-name="uni045D" unicode="&#x45d;" horiz-adv-x="656" 
d="M394 620h-98l-181 155l155 12zM517 550h72v-550h-131v318l-317 -322h-75v550h132v-318z" />
    <glyph glyph-name="uni045E" unicode="&#x45e;" horiz-adv-x="598" 
d="M-10 546h154l155 -381l147 381h147l-224 -552q-24 -61 -54 -100t-64 -56.5t-62.5 -23.5t-66.5 -6q-53 0 -89 12v119q44 -14 79 -14q85 0 123 74zM298 621q-80 0 -128.5 41t-51.5 119h88q18 -64 92 -64t90 64h89q-3 -79 -51 -119.5t-128 -40.5z" />
    <glyph glyph-name="uni045F" unicode="&#x45f;" horiz-adv-x="645" 
d="M66 0v546h138v-422h237v422h138v-546h-196v-148h-122v148h-195z" />
    <glyph glyph-name="uni0462" unicode="&#x462;" horiz-adv-x="805" 
d="M197 512h-183v123h183v74h140v-74h278v-123h-278v-89h196q133 0 194.5 -51.5t61.5 -153.5q0 -121 -73 -169.5t-205 -48.5h-314v512zM338 309v-191h166q69 0 104 22t35 73q0 54 -31 75t-97 21h-177z" />
    <glyph glyph-name="uni0463" unicode="&#x463;" horiz-adv-x="687" 
d="M160 422h-158v124h158v212h138v-212h213v-107h-213v-83h152q218 0 218 -177q0 -89 -54.5 -134t-170.5 -45h-283v422zM295 109h136q96 0 96 75q0 34 -23 53t-67 19h-142v-147z" />
    <glyph glyph-name="uni0472" unicode="&#x472;" horiz-adv-x="845" 
d="M422 723q168 0 275 -102t107 -267q0 -162 -105.5 -265t-276.5 -103q-167 0 -273.5 101.5t-106.5 266.5q0 163 104.5 266t275.5 103zM422 595q-92 0 -156 -51.5t-74 -141.5h461q-9 88 -72 140.5t-159 52.5zM422 113q90 0 154 48t76 132h-459q14 -82 76.5 -131t152.5 -49z
" />
    <glyph glyph-name="uni0473" unicode="&#x473;" horiz-adv-x="673" 
d="M336 561q135 0 217.5 -78.5t82.5 -207.5q0 -131 -82.5 -209t-217.5 -78q-134 0 -217 78.5t-83 208.5q0 129 83 207.5t217 78.5zM336 438q-57 0 -97.5 -30.5t-54.5 -83.5h305q-14 53 -55 83.5t-98 30.5zM336 111q57 0 98 30.5t55 83.5h-305q14 -53 54.5 -83.5t97.5 -30.5z
" />
    <glyph glyph-name="uni0474" unicode="&#x474;" horiz-adv-x="736" 
d="M661 718q41 0 69 -4v-124h-39q-32 0 -54.5 -18.5t-41.5 -65.5l-203 -510h-87l-301 713h160l137 -354l47 -137l43 136l82 230q26 76 71 105t117 29z" />
    <glyph glyph-name="uni0475" unicode="&#x475;" horiz-adv-x="629" 
d="M551 550q28 0 68 -4v-125q-14 1 -38 1q-32 0 -55 -18.5t-44 -65.5l-149 -341h-82l-247 549h155l87 -217l46 -128l43 128l33 83q31 84 73 111t110 27z" />
    <glyph glyph-name="uni0490" unicode="&#x490;" horiz-adv-x="593" 
d="M447 881h130v-305h-366v-576h-143v709h379v172z" />
    <glyph glyph-name="uni0491" unicode="&#x491;" horiz-adv-x="509" 
d="M367 695h123v-273h-286v-422h-138v546h301v149z" />
    <glyph glyph-name="uni0492" unicode="&#x492;" horiz-adv-x="612" 
d="M17 387h70v322h509v-133h-366v-189h201v-123h-201v-264h-143v264h-70v123z" />
    <glyph glyph-name="uni0493" unicode="&#x493;" horiz-adv-x="528" 
d="M17 284h68v262h424v-124h-286v-138h190v-119h-190v-165h-138v165h-68v119z" />
    <glyph glyph-name="uni049A" unicode="&#x49a;" horiz-adv-x="724" 
d="M716 131v-297h-129v166h-72l-306 331v-331h-141v709h141v-331l279 331h178l-302 -345l215 -233h137z" />
    <glyph glyph-name="uni049B" unicode="&#x49b;" horiz-adv-x="632" 
d="M66 546h136v-266l231 266h167l-250 -279l137 -143h132v-272h-122v148h-72l-223 241v-241h-136v546z" />
    <glyph glyph-name="uni04A2" unicode="&#x4a2;" horiz-adv-x="797" 
d="M209 0h-141v709h141v-317h325v317h140v-578h116v-297h-129v166h-127v261h-325v-261z" />
    <glyph glyph-name="uni04A3" unicode="&#x4a3;" horiz-adv-x="696" 
d="M66 0v546h138v-234h246v234h138v-422h92v-272h-122v148h-108v196h-246v-196h-138z" />
    <glyph glyph-name="uni04AE" unicode="&#x4ae;" horiz-adv-x="666" 
d="M261 246l-262 463h165l170 -321l171 321h162l-262 -463v-246h-144v246z" />
    <glyph glyph-name="uni04AF" unicode="&#x4af;" horiz-adv-x="614" 
d="M238 -1l-234 547h152l102 -256l51 -134l51 135l99 255h151l-234 -550v-172h-138v175z" />
    <glyph glyph-name="uni04B0" unicode="&#x4b0;" horiz-adv-x="666" 
d="M226 308l-227 401h165l170 -321l171 321h162l-227 -401h130v-123h-165v-185h-144v185h-163v123h128z" />
    <glyph glyph-name="uni04B1" unicode="&#x4b1;" horiz-adv-x="614" 
d="M4 546h152l102 -256l51 -134l51 135l99 255h151l-182 -427h94v-119h-144l-2 -4v-172h-138v176h-146v119h95z" />
    <glyph glyph-name="uni04BA" unicode="&#x4ba;" horiz-adv-x="696" 
d="M68 0v709h141v-224q79 23 166 23q288 0 288 -268v-240h-141v233q0 84 -42.5 117.5t-118.5 33.5q-85 0 -152 -22v-362h-141z" />
    <glyph glyph-name="uni04BB" unicode="&#x4bb;" horiz-adv-x="635" 
d="M63 0v758h137v-262q74 62 171 62q105 0 156.5 -53.5t51.5 -178.5v-326h-137v292q0 78 -29.5 110t-85.5 32q-71 0 -126 -57v-377h-138z" />
    <glyph glyph-name="uni04D8" unicode="&#x4d8;" horiz-adv-x="809" 
d="M390 722q166 0 272 -101t106 -267q0 -162 -102 -265t-264 -103q-160 0 -260 94.5t-100 258.5q0 30 2 54h576q-12 91 -73.5 143.5t-156.5 52.5q-119 0 -205 -111l-112 84q121 160 317 160zM401 114q78 0 135 42.5t77 119.5h-422q14 -77 68.5 -119.5t141.5 -42.5z" />
    <glyph glyph-name="uni04D9" unicode="&#x4d9;" horiz-adv-x="625" 
d="M24 273q0 30 1 41h424q-11 61 -52.5 94t-108.5 33q-102 0 -158 -70l-87 74q81 112 255 112q136 0 213.5 -77t77.5 -209q0 -129 -79 -207.5t-205 -78.5q-137 0 -209 78.5t-72 209.5zM305 100q55 0 93 28.5t50 85.5h-289q7 -49 43 -81.5t103 -32.5z" />
    <glyph glyph-name="uni04E8" unicode="&#x4e8;" horiz-adv-x="845" 
d="M422 723q168 0 275 -102t107 -267q0 -162 -105.5 -265t-276.5 -103q-167 0 -273.5 101.5t-106.5 266.5q0 163 104.5 266t275.5 103zM422 595q-92 0 -156 -51.5t-74 -141.5h461q-9 88 -72 140.5t-159 52.5zM422 113q90 0 154 48t76 132h-459q14 -82 76.5 -131t152.5 -49z
" />
    <glyph glyph-name="uni04E9" unicode="&#x4e9;" horiz-adv-x="673" 
d="M336 561q135 0 217.5 -78.5t82.5 -207.5q0 -131 -82.5 -209t-217.5 -78q-134 0 -217 78.5t-83 208.5q0 129 83 207.5t217 78.5zM336 438q-57 0 -97.5 -30.5t-54.5 -83.5h305q-14 53 -55 83.5t-98 30.5zM336 111q57 0 98 30.5t55 83.5h-305q14 -53 54.5 -83.5t97.5 -30.5z
" />
    <glyph glyph-name="uni1E20" unicode="&#x1e20;" horiz-adv-x="780" 
d="M241 768v97h357v-97h-357zM395 389h351v-298q-108 -105 -305 -105q-184 0 -291.5 99t-107.5 269q0 169 105 269t279 100q183 0 293 -102l-89 -100q-79 69 -203 69q-108 0 -173 -64t-65 -172q0 -112 69 -175t188 -63q105 0 167 46v103h-218v124z" />
    <glyph glyph-name="uni1E80" unicode="&#x1e80;" horiz-adv-x="1065" 
d="M4 709h157l154 -445l182 447h74l180 -449l155 447h155l-262 -713h-72l-195 458l-192 -458h-72zM493 764l-181 155l154 12l124 -167h-97z" />
    <glyph glyph-name="uni1E81" unicode="&#x1e81;" horiz-adv-x="821" 
d="M4 546h144l98 -321l129 323h70l131 -325l100 323h141l-191 -549h-77l-140 330l-137 -330h-77zM379 620l-181 155l155 12l124 -167h-98z" />
    <glyph glyph-name="uni1E82" unicode="&#x1e82;" horiz-adv-x="1065" 
d="M268 -4l-264 713h157l154 -445l182 447h74l180 -449l155 447h155l-262 -713h-72l-195 458l-192 -458h-72zM476 764l124 167l155 -12l-182 -155h-97z" />
    <glyph glyph-name="uni1E83" unicode="&#x1e83;" horiz-adv-x="821" 
d="M195 -3l-191 549h144l98 -321l129 323h70l131 -325l100 323h141l-191 -549h-77l-140 330l-137 -330h-77zM348 621l124 167l155 -13l-181 -154h-98z" />
    <glyph glyph-name="uni1E84" unicode="&#x1e84;" horiz-adv-x="1065" 
d="M4 709h157l154 -445l182 447h74l180 -449l155 447h155l-262 -713h-72l-195 458l-192 -458h-72zM338 843q0 35 24.5 59.5t59.5 24.5t59 -24.5t24 -59.5t-24 -59.5t-59 -24.5t-59.5 24.5t-24.5 59.5zM563 843q0 35 24 59.5t59 24.5t59 -24.5t24 -59.5t-24 -59.5t-59 -24.5
t-59 24.5t-24 59.5z" />
    <glyph glyph-name="uni1E85" unicode="&#x1e85;" horiz-adv-x="821" 
d="M4 546h144l98 -321l129 323h70l131 -325l100 323h141l-191 -549h-77l-140 330l-137 -330h-77zM216 698q0 35 24.5 59.5t59.5 24.5q34 0 58 -24.5t24 -59.5t-24 -59.5t-58 -24.5q-35 0 -59.5 24.5t-24.5 59.5zM440 698q0 35 24.5 59.5t59.5 24.5q34 0 58 -24.5t24 -59.5
t-24 -59.5t-58 -24.5q-35 0 -59.5 24.5t-24.5 59.5z" />
    <glyph glyph-name="uni1E9E" unicode="&#x1e9e;" horiz-adv-x="747" 
d="M482 422q115 0 178 -60.5t63 -144.5q0 -231 -272 -231q-101 0 -175 23l31 128q61 -27 129 -27q141 0 141 107q0 104 -146 104q-48 0 -94 -20l-48 58l131 164l50 57h-262v-580h-140v709h575v-76l-169 -211h8z" />
    <glyph glyph-name="uni1EF2" unicode="&#x1ef2;" horiz-adv-x="666" 
d="M-1 709h165l170 -321l171 321h162l-262 -463v-246h-144v246zM112 919l154 12l124 -167h-97z" />
    <glyph glyph-name="uni1EF3" unicode="&#x1ef3;" horiz-adv-x="598" 
d="M-10 546h154l155 -381l147 381h147l-224 -552q-24 -61 -54 -100t-64 -56.5t-62.5 -23.5t-66.5 -6q-53 0 -89 12v119q44 -14 79 -14q85 0 123 74zM265 620l-181 155l155 12l124 -167h-98z" />
    <glyph glyph-name="uni2002" unicode="&#x2002;" horiz-adv-x="531" 
 />
    <glyph glyph-name="uni2003" unicode="&#x2003;" horiz-adv-x="903" 
 />
    <glyph glyph-name="uni2009" unicode="&#x2009;" horiz-adv-x="30" 
 />
    <glyph glyph-name="uni2013" unicode="&#x2013;" horiz-adv-x="531" 
d="M44 273v114h444v-114h-444z" />
    <glyph glyph-name="uni2014" unicode="&#x2014;" horiz-adv-x="903" 
d="M44 273v114h816v-114h-816z" />
    <glyph glyph-name="uni2018" unicode="&#x2018;" horiz-adv-x="233" 
d="M207 664q-44 0 -61.5 -22t-17.5 -66q31 -4 49.5 -26t18.5 -53q0 -37 -21 -59t-57 -22q-39 0 -61 28.5t-22 82.5q0 196 172 196v-59z" />
    <glyph glyph-name="uni2019" unicode="&#x2019;" horiz-adv-x="226" 
d="M117 723q39 0 61 -28.5t22 -81.5q0 -197 -171 -197v59q44 0 61 21.5t17 66.5q-31 4 -49 26t-18 53q0 37 20.5 59t56.5 22z" />
    <glyph glyph-name="uni201A" unicode="&#x201a;" horiz-adv-x="228" 
d="M113 157q39 0 61 -28.5t22 -81.5q0 -197 -172 -197v59q44 1 61.5 22.5t17.5 65.5q-31 4 -49.5 26t-18.5 53q0 37 21 59t57 22z" />
    <glyph glyph-name="uni201C" unicode="&#x201c;" horiz-adv-x="438" 
d="M35 527q0 196 172 196v-59q-44 0 -61.5 -22t-17.5 -66q31 -4 49.5 -26t18.5 -53q0 -37 -21 -59t-57 -22q-39 0 -61 28.5t-22 82.5zM412 664q-44 0 -61.5 -22t-17.5 -66q31 -4 49.5 -26t18.5 -53q0 -37 -20.5 -59t-56.5 -22q-39 0 -61 28.5t-22 82.5q0 196 171 196v-59z
" />
    <glyph glyph-name="uni201D" unicode="&#x201d;" horiz-adv-x="431" 
d="M117 723q39 0 61 -28.5t22 -81.5q0 -197 -171 -197v59q44 0 61 21.5t17 66.5q-31 4 -49 26t-18 53q0 37 20.5 59t56.5 22zM322 723q40 0 62 -28.5t22 -81.5q0 -197 -172 -197v59q44 0 61.5 22t17.5 66q-31 4 -49.5 26t-18.5 53q0 37 20.5 59t56.5 22z" />
    <glyph glyph-name="uni201E" unicode="&#x201e;" horiz-adv-x="433" 
d="M113 157q39 0 61 -28.5t22 -81.5q0 -197 -172 -197v59q44 1 61.5 22.5t17.5 65.5q-31 4 -49.5 26t-18.5 53q0 37 21 59t57 22zM318 157q39 0 61 -28.5t22 -81.5q0 -197 -171 -197v59q44 1 61.5 22.5t17.5 65.5q-31 4 -49.5 26t-18.5 53q0 37 20.5 59t56.5 22z" />
    <glyph glyph-name="uni2020" unicode="&#x2020;" horiz-adv-x="351" 
d="M114 522l-104 -5v92l104 -5h20l-4 105h92l-5 -105h21l102 6v-93l-102 5h-22v-120l6 -139h-92l6 139l-1 120h-21z" />
    <glyph glyph-name="uni2021" unicode="&#x2021;" horiz-adv-x="351" 
d="M114 522l-104 -5v92l104 -5h20l-4 105h92l-5 -105h21l102 6v-93l-102 5h-22v-52l4 -116l-5 -114l1 -54h21l103 5v-92l-103 5h-21l5 -104h-91l5 104h-21l-104 -6v93l103 -5h22v54l-5 114l5 116v52h-21z" />
    <glyph glyph-name="uni2022" unicode="&#x2022;" horiz-adv-x="373" 
d="M187 199q-54 0 -92.5 38.5t-38.5 92.5t38.5 92.5t92.5 38.5t91.5 -38.5t37.5 -92.5t-37.5 -92.5t-91.5 -38.5z" />
    <glyph glyph-name="uni2026" unicode="&#x2026;" horiz-adv-x="747" 
d="M127 -14q-35 0 -60 25t-25 60t25 60t60 25t59.5 -25t24.5 -60t-24.5 -60t-59.5 -25zM373 -14q-35 0 -60 25t-25 60t25 60t60 25q34 0 58.5 -25t24.5 -60t-24.5 -60t-58.5 -25zM622 -14q-35 0 -60 25t-25 60t25 60t60 25t59.5 -25t24.5 -60t-24.5 -60t-59.5 -25z" />
    <glyph glyph-name="uni2030" unicode="&#x2030;" horiz-adv-x="1407" 
d="M196 0l489 709h104l-488 -709h-105zM217 272q-91 0 -144 59.5t-53 162.5t53 162.5t144 59.5q92 0 144.5 -59.5t52.5 -162.5t-52.5 -162.5t-144.5 -59.5zM217 352q49 0 77.5 37t28.5 104q0 68 -28.5 105.5t-77.5 37.5t-77.5 -38t-28.5 -105q0 -66 28.5 -103.5t77.5 -37.5z
M761 -10q-91 0 -144 59.5t-53 162.5t53 162.5t144 59.5q92 0 144.5 -59.5t52.5 -162.5t-52.5 -162.5t-144.5 -59.5zM761 70q49 0 77.5 37t28.5 104q0 68 -28.5 105.5t-77.5 37.5t-77.5 -38t-28.5 -105q0 -66 28.5 -103.5t77.5 -37.5zM1189 -10q-91 0 -144 59.5t-53 162.5
t53 162.5t144 59.5q92 0 145 -59.5t53 -162.5t-53 -162.5t-145 -59.5zM1189 70q49 0 77.5 37t28.5 104q0 68 -28.5 105.5t-77.5 37.5t-77.5 -38t-28.5 -105q0 -66 28.5 -103.5t77.5 -37.5z" />
    <glyph glyph-name="uni2039" unicode="&#x2039;" horiz-adv-x="330" 
d="M203 7l-176 261l176 259l91 -68l-140 -191l140 -191z" />
    <glyph glyph-name="uni203A" unicode="&#x203a;" horiz-adv-x="330" 
d="M127 7l-91 70l140 191l-140 191l91 68l176 -259z" />
    <glyph glyph-name="uni2044" unicode="&#x2044;" horiz-adv-x="210" 
d="M-194 0l488 709h105l-488 -709h-105z" />
    <glyph glyph-name="uni2070" unicode="&#x2070;" horiz-adv-x="441" 
d="M220 272q-91 0 -144 59.5t-53 162.5t53 162.5t144 59.5q92 0 145 -59.5t53 -162.5t-53 -162.5t-145 -59.5zM220 352q49 0 77.5 37t28.5 104q0 68 -28.5 105.5t-77.5 37.5q-48 0 -77 -38t-29 -105q0 -66 28.5 -103.5t77.5 -37.5z" />
    <glyph glyph-name="uni2074" unicode="&#x2074;" horiz-adv-x="403" 
d="M13 355v46l251 310h63v-281h66v-75h-66v-73h-87v73h-227zM116 424h132v166z" />
    <glyph glyph-name="uni2075" unicode="&#x2075;" horiz-adv-x="381" 
d="M208 569q68 0 111.5 -40.5t43.5 -109.5q0 -72 -47 -109.5t-123 -37.5q-78 0 -124.5 36.5t-46.5 98.5v7h84v-3q0 -27 24 -43.5t60 -16.5q38 0 60.5 19t22.5 54q0 37 -22 56.5t-60 19.5q-51 0 -77 -28h-76l14 237h286v-80h-210l-6 -78q35 18 86 18z" />
    <glyph glyph-name="uni2076" unicode="&#x2076;" horiz-adv-x="411" 
d="M238 561q68 0 109.5 -33.5t41.5 -102.5q0 -74 -46 -113.5t-124 -39.5q-93 0 -141.5 56t-48.5 159q0 115 48.5 172.5t138.5 57.5q71 0 115.5 -33.5t44.5 -80.5v-8h-89q-5 46 -70 46q-48 0 -74 -34.5t-26 -92.5q42 47 121 47zM218 348q39 0 60.5 21t21.5 54t-24 51t-60 18
q-62 0 -94 -55q3 -38 29 -63.5t67 -25.5z" />
    <glyph glyph-name="uni2077" unicode="&#x2077;" horiz-adv-x="348" 
d="M13 709h322v-45l-196 -382h-102l184 346h-208v81z" />
    <glyph glyph-name="uni2078" unicode="&#x2078;" horiz-adv-x="415" 
d="M309 507q36 -11 57 -39.5t21 -63.5q0 -66 -48 -99t-131 -33q-84 0 -132.5 33t-48.5 98q0 35 21.5 64t57.5 41q-58 27 -58 93q0 57 44 86.5t116 29.5t115.5 -29.5t43.5 -86.5q0 -63 -58 -94zM208 644q-34 0 -55 -14.5t-21 -40.5q0 -23 21 -38.5t55 -15.5t54 15t20 39
q0 26 -20 40.5t-54 14.5zM208 349q41 0 65 15.5t24 45.5q0 29 -24.5 45.5t-64.5 16.5q-41 0 -65.5 -16.5t-24.5 -45.5q0 -61 90 -61z" />
    <glyph glyph-name="uni2079" unicode="&#x2079;" horiz-adv-x="401" 
d="M191 717q92 0 140 -56t48 -158q0 -115 -50 -173t-138 -58q-75 0 -118.5 33t-43.5 82v9h89q5 -48 72 -48q48 0 74 34.5t26 92.5q-42 -47 -120 -47q-69 0 -110.5 34t-41.5 103q0 73 46.5 112.5t126.5 39.5zM192 497q35 0 60 16.5t33 38.5q-2 38 -28 63.5t-67 25.5
q-40 0 -61 -20.5t-21 -53.5t23.5 -51.5t60.5 -18.5z" />
    <glyph glyph-name="uni2080" unicode="&#x2080;" horiz-adv-x="441" 
d="M220 -108q-91 0 -144 59.5t-53 162.5t53 162.5t144 59.5q92 0 145 -59.5t53 -162.5t-53 -162.5t-145 -59.5zM220 -28q49 0 77.5 37t28.5 104q0 68 -28.5 105.5t-77.5 37.5q-48 0 -77 -38t-29 -105q0 -66 28.5 -103.5t77.5 -37.5z" />
    <glyph glyph-name="uni2081" unicode="&#x2081;" horiz-adv-x="259" 
d="M119 -98v333l-87 -30l-26 71l144 53h56v-427h-87z" />
    <glyph glyph-name="uni2082" unicode="&#x2082;" horiz-adv-x="373" 
d="M118 -19h232v-79h-328v31q1 49 28.5 82.5t97.5 79.5q59 37 82 58t23 51q0 25 -19.5 38.5t-48.5 13.5q-36 0 -58 -19t-22 -52v-13h-84v18q0 68 44 106.5t121 38.5q71 0 116.5 -32t45.5 -91q0 -39 -18 -69.5t-42.5 -49t-74.5 -48.5q-79 -47 -95 -64z" />
    <glyph glyph-name="uni2083" unicode="&#x2083;" horiz-adv-x="376" 
d="M219 171q65 -2 101 -41t36 -94q0 -68 -46 -104.5t-123 -36.5q-78 0 -124 35.5t-46 97.5v7h85v-3q0 -27 22.5 -43t59.5 -16q38 0 59.5 18.5t21.5 48.5q0 32 -22.5 50t-60.5 18q-27 0 -57 -12l-32 41l118 113h-172v79h301v-45z" />
    <glyph glyph-name="uni2084" unicode="&#x2084;" horiz-adv-x="403" 
d="M13 -25v46l251 310h63v-281h66v-75h-66v-73h-87v73h-227zM116 44h132v166z" />
    <glyph glyph-name="uni2085" unicode="&#x2085;" horiz-adv-x="381" 
d="M208 189q68 0 111.5 -40.5t43.5 -109.5q0 -72 -47 -109.5t-123 -37.5q-78 0 -124.5 36.5t-46.5 98.5v7h84v-3q0 -27 24 -43.5t60 -16.5q38 0 60.5 19t22.5 54q0 37 -22 56.5t-60 19.5q-51 0 -77 -28h-76l14 237h286v-80h-210l-6 -78q34 18 86 18z" />
    <glyph glyph-name="uni2086" unicode="&#x2086;" horiz-adv-x="411" 
d="M238 181q68 0 109.5 -33.5t41.5 -102.5q0 -74 -46 -113.5t-124 -39.5q-93 0 -141.5 56t-48.5 159q0 115 48.5 172.5t138.5 57.5q71 0 115.5 -33.5t44.5 -80.5v-8h-89q-5 46 -70 46q-48 0 -74 -34.5t-26 -92.5q42 47 121 47zM218 -32q39 0 60.5 21t21.5 54t-24 51t-60 18
q-62 0 -94 -55q3 -38 29 -63.5t67 -25.5z" />
    <glyph glyph-name="uni2087" unicode="&#x2087;" horiz-adv-x="348" 
d="M13 329h322v-45l-196 -382h-102l184 346h-208v81z" />
    <glyph glyph-name="uni2088" unicode="&#x2088;" horiz-adv-x="415" 
d="M309 127q36 -11 57 -39.5t21 -63.5q0 -66 -48 -99t-131 -33q-84 0 -132.5 33t-48.5 98q0 35 21.5 64t57.5 41q-58 27 -58 93q0 57 44 86.5t116 29.5t115.5 -29.5t43.5 -86.5q0 -63 -58 -94zM208 264q-34 0 -55 -14.5t-21 -40.5q0 -23 21 -38.5t55 -15.5t54 15t20 39
q0 26 -20 40.5t-54 14.5zM208 -31q41 0 65 15.5t24 45.5q0 29 -24.5 45.5t-64.5 16.5q-41 0 -65.5 -16.5t-24.5 -45.5q0 -61 90 -61z" />
    <glyph glyph-name="uni2089" unicode="&#x2089;" horiz-adv-x="401" 
d="M191 337q92 0 140 -56t48 -158q0 -115 -50 -173t-138 -58q-75 0 -118.5 33t-43.5 82v9h89q5 -48 72 -48q48 0 74 34.5t26 92.5q-42 -47 -120 -47q-69 0 -110.5 34t-41.5 103q0 73 46.5 112.5t126.5 39.5zM192 117q35 0 60 16.5t33 38.5q-2 38 -28 63.5t-67 25.5
q-40 0 -61 -20.5t-21 -53.5t23.5 -51.5t60.5 -18.5z" />
    <glyph glyph-name="uni20A4" unicode="&#x20a4;" horiz-adv-x="653" 
d="M141 222h-94v76h82q-3 18 -7 63h-75v76h72q3 147 70.5 215t181.5 68q110 0 179.5 -63t69.5 -174v-18h-124v16q0 50 -33 79t-81 29q-123 0 -125 -152h239v-76h-235q3 -31 9 -63h226v-76h-215q9 -61 9 -96h332v-126h-574v98l104 20q1 26 -11 104z" />
    <glyph glyph-name="uni20AC" unicode="&#x20ac;" horiz-adv-x="698" 
d="M28 322h62q-1 10 -1 32t1 32h-62v76h72q26 122 110.5 191t210.5 69q85 0 153 -36t112 -100l-104 -85q-59 90 -159 90q-65 0 -111 -33t-67 -96h222v-76h-237q-1 -10 -1 -32t1 -32h237v-76h-222q21 -63 67.5 -96.5t111.5 -33.5q98 0 159 88l103 -83q-93 -135 -264 -135
q-127 0 -211.5 69t-110.5 191h-72v76z" />
    <glyph glyph-name="uni20B4" unicode="&#x20b4;" horiz-adv-x="621" 
d="M17 322h117q52 35 135 64h-252v76h386q40 23 40 62q0 77 -124 77q-104 0 -200 -55l-58 112q106 64 256 64q114 0 183.5 -51.5t69.5 -137.5q0 -39 -16 -71h50v-76h-129q-60 -37 -143 -64h272v-76h-404q-29 -21 -29 -57q0 -43 36.5 -62.5t91.5 -19.5q129 0 218 69l66 -119
q-64 -38 -129.5 -54.5t-156.5 -16.5q-117 0 -186 48.5t-69 140.5q0 37 14 71h-39v76z" />
    <glyph glyph-name="uni20B8" unicode="&#x20b8;" horiz-adv-x="619" 
d="M24 569h571v-126h-215v-443h-140v443h-216v126zM24 633v76h571v-76h-571z" />
    <glyph glyph-name="uni20BD" unicode="&#x20bd;" horiz-adv-x="644" 
d="M34 243v96h82v370h237q133 0 202.5 -59.5t69.5 -172.5q0 -234 -285 -234h-83v-64h210v-81h-210v-98h-141v98h-82v81h82v64h-82zM257 583v-244h74q147 0 147 123q0 121 -134 121h-87z" />
    <glyph glyph-name="uni2117" unicode="&#x2117;" horiz-adv-x="774" 
d="M24 357q0 158 103 261t261 103q157 0 259 -103t102 -261q0 -160 -102.5 -263t-260.5 -103q-157 0 -259.5 103.5t-102.5 262.5zM96 355q0 -127 82 -211t208 -84t208 84.5t82 212.5q0 127 -82 211t-206 84q-126 0 -209 -84.5t-83 -212.5zM240 565h175q79 0 120.5 -38.5
t41.5 -110.5q0 -148 -172 -148h-70v-113h-95v410zM335 483v-135h61q39 0 58 18.5t19 48.5q0 68 -74 68h-64z" />
    <glyph glyph-name="uni2122" unicode="&#x2122;" horiz-adv-x="681" 
d="M323 395v314h47l121 -189l121 189h47v-314h-69v170l-81 -122h-36l-81 122v-170h-69zM7 709h272v-63h-99v-251h-72v251h-101v63z" />
    <glyph glyph-name="uni2126" unicode="&#x2126;" horiz-adv-x="829" 
d="M174 131q-56 40 -94.5 107.5t-38.5 148.5q0 160 105.5 247.5t268.5 87.5q106 0 189 -37t133.5 -114t50.5 -184q0 -81 -38 -148.5t-94 -107.5h125v-131h-327v96q81 51 133.5 120t52.5 152q0 103 -64 161t-161 58q-99 0 -162 -57.5t-63 -161.5q0 -83 52 -152t133 -120v-96
h-325v131h124z" />
    <glyph glyph-name="uni2202" unicode="&#x2202;" horiz-adv-x="660" 
d="M288 721q156 0 245.5 -94t89.5 -283q0 -173 -79 -265.5t-229 -92.5q-125 0 -202 65t-77 181q0 117 69 174t174 57q138 0 206 -78q0 101 -58 155.5t-152 54.5q-82 0 -145 -36l-56 113q84 49 214 49zM315 106q71 0 113.5 44t45.5 109q-17 37 -58.5 66.5t-105.5 29.5
q-58 0 -95.5 -31.5t-37.5 -90.5q0 -56 36 -91.5t102 -35.5z" />
    <glyph glyph-name="uni2206" unicode="&#x2206;" horiz-adv-x="721" 
d="M405 712l301 -643v-69h-691v69l299 643h91zM358 517l-168 -389h336z" />
    <glyph glyph-name="uni220F" unicode="&#x220f;" horiz-adv-x="731" 
d="M68 709h595v-871h-140v740h-314v-740h-141v871z" />
    <glyph glyph-name="uni2211" unicode="&#x2211;" horiz-adv-x="631" 
d="M214 -31h398v-131h-591v73l241 369l-231 356v73h574v-131h-381l181 -283v-42z" />
    <glyph glyph-name="uni2212" unicode="&#x2212;" horiz-adv-x="510" 
d="M36 271v118h438v-118h-438z" />
    <glyph glyph-name="uni221A" unicode="&#x221a;" horiz-adv-x="676" 
d="M611 920h120l-272 -923h-90l-216 603h-152v109h270l150 -466z" />
    <glyph glyph-name="uni221E" unicode="&#x221e;" horiz-adv-x="831" 
d="M219 132q-82 0 -133.5 54.5t-51.5 143.5q0 94 51 146t134 52q104 0 191 -112q86 112 191 112q83 0 134 -52t51 -146q0 -89 -51.5 -143.5t-133.5 -54.5q-105 0 -191 112q-86 -112 -191 -112zM230 242q71 0 123 88q-27 44 -55.5 66t-67.5 22q-35 0 -57 -22t-22 -66
t22.5 -66t56.5 -22zM590 242q34 0 56.5 22t22.5 66t-22 66t-57 22q-70 0 -124 -88q54 -88 124 -88z" />
    <glyph glyph-name="uni222B" unicode="&#x222b;" horiz-adv-x="375" 
d="M85 -190q-54 0 -81 9v114q21 -6 39 -6q44 0 55.5 25t11.5 88v611q0 89 46 135.5t128 46.5q67 0 113 -20v-106q-42 12 -73 12q-40 0 -59 -20.5t-19 -67.5v-658q0 -85 -44 -124t-117 -39z" />
    <glyph glyph-name="uni2248" unicode="&#x2248;" horiz-adv-x="621" 
d="M435 353q-37 0 -105 27q-75 29 -116 29q-63 0 -127 -44l-38 102q75 60 152 60q48 0 118 -29q64 -27 102 -27q60 0 112 50l39 -108q-62 -60 -137 -60zM435 120q-37 0 -106 27q-72 29 -115 29q-63 0 -127 -44l-38 101q80 60 152 60q47 0 117 -29q66 -27 103 -27
q58 0 112 50l39 -107q-60 -60 -137 -60z" />
    <glyph glyph-name="uni2260" unicode="&#x2260;" horiz-adv-x="584" 
d="M120 148h-71v118h151l86 129h-237v118h317l68 102h95l-68 -102h73v-118h-153l-86 -129h239v-118h-319l-70 -105h-95z" />
    <glyph glyph-name="uni2264" unicode="&#x2264;" horiz-adv-x="584" 
d="M51 455l493 225v-128l-315 -136l315 -137v-128l-493 225v79zM49 -1v117h495v-117h-495z" />
    <glyph glyph-name="uni2265" unicode="&#x2265;" horiz-adv-x="584" 
d="M41 680l493 -225v-79l-493 -225v128l314 137l-314 136v128zM535 -1h-495v117h495v-117z" />
    <glyph glyph-name="uni25CA" unicode="&#x25ca;" horiz-adv-x="494" 
d="M213 -5l-179 358l179 359h68l179 -359l-179 -358h-68zM248 157l88 197l-88 193l-90 -193z" />
    <glyph glyph-name="NULL" 
 />
    <glyph glyph-name="uni00A40301" horiz-adv-x="618" 
d="M396 764l124 167l155 -12l-182 -155h-97zM288 -14q-124 0 -198 71.5t-78 200.5h140q4 -73 42 -106t95 -33q127 0 127 164v426h143v-426q0 -155 -66.5 -226t-204.5 -71z" />
    <glyph glyph-name="uni1E9E.calt" horiz-adv-x="747" 
d="M482 422q115 0 178 -60.5t63 -144.5q0 -231 -272 -231q-101 0 -175 23l31 128q61 -27 129 -27q141 0 141 107q0 104 -146 104q-48 0 -94 -20l-48 58l131 164l50 57h-262v-580h-140v709h575v-76l-169 -211h8z" />
    <glyph glyph-name="IJ.dutch" horiz-adv-x="665" 
d="M336 -14q-126 0 -199.5 64.5t-76.5 191.5h140q3 -72 39.5 -97.5t96.5 -25.5q62 0 94.5 38.5t32.5 125.5v426h144v-426q0 -155 -67 -226t-204 -71zM60 709h143v-395h-143v395z" />
    <glyph glyph-name="K.ss04" horiz-adv-x="704" 
d="M700 0h-185l-306 331v-331h-141v709h141v-331l279 331h178l-302 -345z" />
    <glyph glyph-name="uni0136.ss04" horiz-adv-x="704" 
d="M364 364l336 -364h-185l-306 331v-331h-141v709h141v-331l279 331h178zM351 -43q36 0 57.5 -21.5t21.5 -57.5q0 -21 -6.5 -42t-21.5 -43t-45.5 -36t-73.5 -14h-19v50q4 -1 13 -1q47 0 61 43q-28 4 -43.5 20t-15.5 39q0 28 19.5 45.5t52.5 17.5z" />
    <glyph glyph-name="i.loclTRK" horiz-adv-x="272" 
d="M137 613q-35 0 -60 25t-25 60t25 60t60 25t59.5 -25t24.5 -60t-24.5 -60t-59.5 -25zM66 0v546h140v-546h-140z" />
    <glyph glyph-name="uni006A0301" horiz-adv-x="279" 
d="M83 621l124 167l155 -13l-181 -154h-98zM49 -190q-55 0 -82 9v114q21 -6 40 -6q43 0 55 25t12 88v506h139v-579q0 -81 -45 -119t-119 -38z" />
    <glyph glyph-name="k.ss04" horiz-adv-x="617" 
d="M66 0v758h136v-478l231 266h167l-250 -279l255 -267h-180l-223 241v-241h-136z" />
    <glyph glyph-name="uni0137.ss04" horiz-adv-x="617" 
d="M66 758h136v-478l231 266h167l-250 -279l255 -267h-180l-223 241v-241h-136v758zM234 -257v50q4 -1 13 -1q47 0 61 43q-28 4 -43.5 20t-15.5 39q0 28 19.5 45.5t52.5 17.5q36 0 57.5 -21.5t21.5 -57.5q0 -21 -6.5 -42t-21.5 -43t-45.5 -36t-73.5 -14h-19z" />
    <glyph glyph-name="kgreenlandic.ss04" horiz-adv-x="617" 
d="M66 546h136v-266l231 266h167l-250 -279l255 -267h-180l-223 242v-242h-136v546z" />
    <glyph glyph-name="uni0414.loclBGR" horiz-adv-x="835" 
d="M23 -166v297h79l264 581h89l264 -581h89v-297h-129v166h-527v-166h-129zM252 131h315l-97 230l-61 158l-61 -158z" />
    <glyph glyph-name="uni041B.loclBGR" horiz-adv-x="737" 
d="M5 0l318 712h91l317 -712h-159l-207 489l-204 -489h-156z" />
    <glyph glyph-name="uni0457.calt1" horiz-adv-x="272" 
d="M31 614q-35 0 -59.5 24.5t-24.5 59.5t24.5 59.5t59.5 24.5q34 0 58 -24.5t24 -59.5t-24 -59.5t-58 -24.5zM66 0v546h140v-546h-140z" />
    <glyph glyph-name="uni0457.calt2" horiz-adv-x="272" 
d="M1 614q-35 0 -59.5 24.5t-24.5 59.5t24.5 59.5t59.5 24.5q34 0 58 -24.5t24 -59.5t-24 -59.5t-58 -24.5zM245 614q-35 0 -59.5 24.5t-24.5 59.5t24.5 59.5t59.5 24.5t59 -24.5t24 -59.5t-24 -59.5t-59 -24.5zM66 0v546h140v-546h-140z" />
    <glyph glyph-name="uni0432.loclBGR" horiz-adv-x="642" 
d="M485 414q58 -22 89.5 -74t31.5 -120q0 -77 -39 -131t-99 -78t-134 -24q-142 0 -217 75.5t-75 215.5v186q0 156 74.5 232t200.5 76q111 0 183 -54.5t72 -143.5q0 -114 -87 -160zM319 655q-138 0 -138 -196h118q27 0 47 2.5t43.5 11.5t36 30t12.5 53q0 46 -34.5 72.5
t-84.5 26.5zM333 111q57 0 93.5 30t36.5 87q0 55 -35.5 86.5t-107.5 31.5h-139v-60q0 -82 39.5 -128.5t112.5 -46.5z" />
    <glyph glyph-name="uni0433.loclBGR" horiz-adv-x="536" 
d="M258 -14q-229 0 -229 158q0 69 47 105.5t153 72.5q67 22 92.5 38.5t25.5 40.5q0 44 -80 44q-75 0 -163 -51l-55 107q101 57 227 57q101 0 158.5 -39t57.5 -122q0 -67 -45.5 -101.5t-151.5 -69.5q-65 -22 -90.5 -38t-25.5 -42q0 -48 94 -48q43 0 89 17t79 46l64 -106
q-88 -69 -247 -69z" />
    <glyph glyph-name="uni0434.loclBGR" horiz-adv-x="656" 
d="M300 22q-119 0 -191.5 75t-72.5 194t71.5 193.5t186.5 74.5q107 0 168 -60v47h136v-450q0 -140 -66 -214t-218 -74q-136 0 -224 36v127q102 -46 202 -46q85 0 128.5 29t43.5 97v35q-54 -64 -164 -64zM178 292q0 -65 41.5 -106t110.5 -41q94 0 134 72v148q-20 33 -58 52
t-79 19q-66 0 -107.5 -40t-41.5 -104z" />
    <glyph glyph-name="uni0436.loclBGR" horiz-adv-x="932" 
d="M7 0l244 261l-239 285h169l216 -263v475h137v-479l222 267h163l-240 -279l246 -267h-175l-216 240v-240h-137v242l-224 -242h-166z" />
    <glyph glyph-name="uni0437.loclBGR" horiz-adv-x="553" 
d="M411 210q61 -20 92 -67.5t31 -112.5q0 -112 -76 -167t-210 -55q-135 0 -227 45v137q101 -56 216 -56q76 0 115.5 27.5t39.5 77.5q0 105 -173 105h-91v112h83q33 0 57.5 3t49.5 11.5t38 27.5t13 47q0 93 -121 93q-86 0 -168 -50l-53 110q107 62 229 62q116 0 183.5 -51
t67.5 -144q0 -109 -96 -155z" />
    <glyph glyph-name="uni0438.loclBGR" horiz-adv-x="635" 
d="M56 546h137v-292q0 -142 110 -142q74 0 128 63v371h137v-546h-131v56q-68 -68 -175 -68q-206 0 -206 231v327z" />
    <glyph glyph-name="uni0439.loclBGR" horiz-adv-x="635" 
d="M56 219v327h137v-292q0 -142 110 -142q74 0 128 63v371h137v-546h-131v56q-68 -68 -175 -68q-206 0 -206 231zM136 781h88q18 -64 92 -64t90 64h89q-3 -79 -51 -119.5t-128 -40.5t-128.5 41t-51.5 119z" />
    <glyph glyph-name="uni045D.loclBGR" horiz-adv-x="635" 
d="M56 219v327h137v-292q0 -142 110 -142q74 0 128 63v371h137v-546h-131v56q-68 -68 -175 -68q-206 0 -206 231zM282 620l-181 155l155 12l124 -167h-98z" />
    <glyph glyph-name="uni043A.loclBGR" horiz-adv-x="617" 
d="M66 0v758h136v-478l231 266h167l-250 -279l255 -267h-180l-223 242v-242h-136z" />
    <glyph glyph-name="uni043B.loclBGR" horiz-adv-x="624" 
d="M161 0h-151l262 550h80l261 -550h-155l-98 222l-51 129l-51 -129z" />
    <glyph glyph-name="uni043F.loclBGR" horiz-adv-x="638" 
d="M66 0v546h133v-50q76 62 175 62q105 0 156.5 -53.5t51.5 -178.5v-326h-137v292q0 78 -29.5 110t-85.5 32q-71 0 -126 -57v-377h-138z" />
    <glyph glyph-name="uni0442.loclBGR" horiz-adv-x="986" 
d="M66 546h133v-50q78 63 179 63q109 0 153 -71q83 71 198 71q99 0 150 -55t51 -181v-323h-137v296q0 76 -28.5 107t-81.5 31q-72 0 -121 -52q3 -27 3 -59v-323h-135v304q0 130 -103 130q-70 0 -123 -56v-378h-138v546z" />
    <glyph glyph-name="uni0446.loclBGR" horiz-adv-x="677" 
d="M260 -12q-207 0 -207 231v327h138v-292q0 -142 110 -142q75 0 127 63v371h138v-352q0 -41 13 -55.5t52 -14.5h29v-272h-122v148q-30 0 -55.5 18t-38.5 49q-69 -79 -184 -79z" />
    <glyph glyph-name="uni0448.loclBGR" horiz-adv-x="982" 
d="M56 219v327h137v-292q0 -142 101 -142q77 0 126 64q-2 28 -2 43v327h136v-292q0 -78 26.5 -110t75.5 -32q39 0 71.5 18t50.5 46v370h137v-546h-130v57q-66 -69 -174 -69q-116 0 -162 81q-31 -34 -84.5 -57.5t-113.5 -23.5q-98 0 -146.5 55.5t-48.5 175.5z" />
    <glyph glyph-name="uni0449.loclBGR" horiz-adv-x="1026" 
d="M251 -12q-98 0 -146.5 55.5t-48.5 175.5v327h137v-292q0 -142 101 -142q77 0 126 64q-2 28 -2 43v327h136v-292q0 -78 26.5 -110t75.5 -32q39 0 71.5 18t50.5 46v370h137v-352q0 -41 13.5 -55.5t52.5 -14.5h29v-272h-122v148q-29 0 -55.5 18t-38.5 49q-72 -79 -183 -79
q-116 0 -162 81q-31 -34 -84.5 -57.5t-113.5 -23.5z" />
    <glyph glyph-name="uni044C.loclBGR" horiz-adv-x="591" 
d="M312 -13q-122 0 -189 65t-67 187v307h137v-151q65 57 155 57q97 0 158 -63t61 -168q0 -109 -69.5 -171.5t-185.5 -62.5zM193 276v-24q0 -142 119 -142q52 0 82.5 30t30.5 81q0 52 -29 82t-80 30q-75 0 -123 -57z" />
    <glyph glyph-name="uni044A.loclBGR" horiz-adv-x="703" 
d="M20 546h285v-151q65 57 155 57q97 0 158 -63t61 -168q0 -109 -69.5 -171.5t-185.5 -62.5q-122 0 -189 65t-67 187v183h-148v124zM305 276v-24q0 -142 119 -142q52 0 82.5 30t30.5 81q0 52 -29 82t-80 30q-76 0 -123 -57z" />
    <glyph glyph-name="uni044E.loclBGR" horiz-adv-x="934" 
d="M63 0v758h138v-448h103q12 113 92.5 180.5t204.5 67.5q135 0 217 -77.5t82 -206.5q0 -131 -82 -208.5t-217 -77.5q-113 0 -190.5 56t-99.5 153h-110v-197h-138zM445 274q0 -72 43.5 -116t112.5 -44t112 44t43 116q0 71 -43 114.5t-112 43.5t-112.5 -43.5t-43.5 -114.5z
" />
    <glyph glyph-name="uni0431.loclSRB" horiz-adv-x="672" 
d="M411 518q224 -74 224 -264q0 -122 -81.5 -194.5t-215.5 -72.5q-132 0 -217 74.5t-85 193.5q0 92 42.5 150.5t122.5 79.5q-94 49 -94 136q0 67 45.5 102t131.5 35h75q121 0 222 21l8 -120q-82 -16 -201 -16h-73q-66 0 -66 -36q0 -20 33.5 -39.5t128.5 -49.5zM340 114
q70 0 111.5 40.5t41.5 102.5q0 54 -39 91.5t-118 66.5q-68 -2 -112.5 -40t-44.5 -108q0 -68 45 -110.5t116 -42.5z" />
    <glyph glyph-name="Kappa.ss04" horiz-adv-x="704" 
d="M700 0h-185l-306 331v-331h-141v709h141v-331l279 331h178l-302 -345z" />
    <glyph glyph-name="kappa.ss04" horiz-adv-x="617" 
d="M66 546h136v-266l231 266h167l-250 -279l255 -267h-180l-223 241v-241h-136v546z" />
    <glyph glyph-name="zero.dnom" horiz-adv-x="441" 
d="M220 -10q-91 0 -144 59.5t-53 162.5t53 162.5t144 59.5q92 0 145 -59.5t53 -162.5t-53 -162.5t-145 -59.5zM220 70q49 0 77.5 37t28.5 104q0 68 -28.5 105.5t-77.5 37.5q-48 0 -77 -38t-29 -105q0 -66 28.5 -103.5t77.5 -37.5z" />
    <glyph glyph-name="one.dnom" horiz-adv-x="259" 
d="M119 0v333l-87 -30l-26 71l144 53h56v-427h-87z" />
    <glyph glyph-name="two.dnom" horiz-adv-x="373" 
d="M118 79h232v-79h-328v31q1 49 28.5 82.5t97.5 79.5q59 37 82 58t23 51q0 25 -19.5 38.5t-48.5 13.5q-36 0 -58 -19t-22 -52v-13h-84v18q0 68 44 106.5t121 38.5q71 0 116.5 -32t45.5 -91q0 -39 -18 -69.5t-42.5 -49t-74.5 -48.5q-79 -47 -95 -64z" />
    <glyph glyph-name="three.dnom" horiz-adv-x="376" 
d="M219 269q65 -2 101 -41t36 -94q0 -68 -46 -104.5t-123 -36.5q-78 0 -124 35.5t-46 97.5v7h85v-3q0 -27 22.5 -43t59.5 -16q38 0 59.5 18.5t21.5 48.5q0 32 -22.5 50t-60.5 18q-27 0 -57 -12l-32 41l118 113h-172v79h301v-45z" />
    <glyph glyph-name="four.dnom" horiz-adv-x="403" 
d="M13 73v46l251 310h63v-281h66v-75h-66v-73h-87v73h-227zM116 142h132v166z" />
    <glyph glyph-name="five.dnom" horiz-adv-x="381" 
d="M208 287q68 0 111.5 -40.5t43.5 -109.5q0 -72 -47 -109.5t-123 -37.5q-78 0 -124.5 36.5t-46.5 98.5v7h84v-3q0 -27 24 -43.5t60 -16.5q38 0 60.5 19t22.5 54q0 37 -22 56.5t-60 19.5q-51 0 -77 -28h-76l14 237h286v-80h-210l-6 -78q34 18 86 18z" />
    <glyph glyph-name="six.dnom" horiz-adv-x="411" 
d="M238 279q68 0 109.5 -33.5t41.5 -102.5q0 -74 -46 -113.5t-124 -39.5q-93 0 -141.5 56t-48.5 159q0 115 48.5 172.5t138.5 57.5q71 0 115.5 -33.5t44.5 -80.5v-8h-89q-5 46 -70 46q-48 0 -74 -34.5t-26 -92.5q42 47 121 47zM218 66q39 0 60.5 21t21.5 54t-24 51t-60 18
q-62 0 -94 -55q3 -38 29 -63.5t67 -25.5z" />
    <glyph glyph-name="seven.dnom" horiz-adv-x="348" 
d="M13 427h322v-45l-196 -382h-102l184 346h-208v81z" />
    <glyph glyph-name="eight.dnom" horiz-adv-x="415" 
d="M309 225q36 -11 57 -39.5t21 -63.5q0 -66 -48 -99t-131 -33q-84 0 -132.5 33t-48.5 98q0 35 21.5 64t57.5 41q-58 27 -58 93q0 57 44 86.5t116 29.5t115.5 -29.5t43.5 -86.5q0 -63 -58 -94zM208 362q-34 0 -55 -14.5t-21 -40.5q0 -23 21 -38.5t55 -15.5t54 15t20 39
q0 26 -20 40.5t-54 14.5zM208 67q41 0 65 15.5t24 45.5q0 29 -24.5 45.5t-64.5 16.5q-41 0 -65.5 -16.5t-24.5 -45.5q0 -61 90 -61z" />
    <glyph glyph-name="nine.dnom" horiz-adv-x="401" 
d="M191 435q92 0 140 -56t48 -158q0 -115 -50 -173t-138 -58q-75 0 -118.5 33t-43.5 82v9h89q5 -48 72 -48q48 0 74 34.5t26 92.5q-42 -47 -120 -47q-69 0 -110.5 34t-41.5 103q0 73 46.5 112.5t126.5 39.5zM192 215q35 0 60 16.5t33 38.5q-2 38 -28 63.5t-67 25.5
q-40 0 -61 -20.5t-21 -53.5t23.5 -51.5t60.5 -18.5z" />
    <glyph glyph-name="zero.numr" horiz-adv-x="441" 
d="M220 272q-91 0 -144 59.5t-53 162.5t53 162.5t144 59.5q92 0 145 -59.5t53 -162.5t-53 -162.5t-145 -59.5zM220 352q49 0 77.5 37t28.5 104q0 68 -28.5 105.5t-77.5 37.5q-48 0 -77 -38t-29 -105q0 -66 28.5 -103.5t77.5 -37.5z" />
    <glyph glyph-name="one.numr" horiz-adv-x="259" 
d="M119 282v333l-87 -30l-26 71l144 53h56v-427h-87z" />
    <glyph glyph-name="two.numr" horiz-adv-x="373" 
d="M118 361h232v-79h-328v31q1 49 28.5 82.5t97.5 79.5q59 37 82 58t23 51q0 25 -19.5 38.5t-48.5 13.5q-36 0 -58 -19t-22 -52v-13h-84v18q0 68 44 106.5t121 38.5q71 0 116.5 -32t45.5 -91q0 -39 -18 -69.5t-42.5 -49t-74.5 -48.5q-79 -47 -95 -64z" />
    <glyph glyph-name="three.numr" horiz-adv-x="376" 
d="M219 551q65 -2 101 -41t36 -94q0 -68 -46 -104.5t-123 -36.5q-78 0 -124 35.5t-46 97.5v7h85v-3q0 -27 22.5 -43t59.5 -16q38 0 59.5 18.5t21.5 48.5q0 32 -22.5 50t-60.5 18q-27 0 -57 -12l-32 41l118 113h-172v79h301v-45z" />
    <glyph glyph-name="four.numr" horiz-adv-x="403" 
d="M13 355v46l251 310h63v-281h66v-75h-66v-73h-87v73h-227zM116 424h132v166z" />
    <glyph glyph-name="five.numr" horiz-adv-x="381" 
d="M208 569q68 0 111.5 -40.5t43.5 -109.5q0 -72 -47 -109.5t-123 -37.5q-78 0 -124.5 36.5t-46.5 98.5v7h84v-3q0 -27 24 -43.5t60 -16.5q38 0 60.5 19t22.5 54q0 37 -22 56.5t-60 19.5q-51 0 -77 -28h-76l14 237h286v-80h-210l-6 -78q35 18 86 18z" />
    <glyph glyph-name="six.numr" horiz-adv-x="411" 
d="M238 561q68 0 109.5 -33.5t41.5 -102.5q0 -74 -46 -113.5t-124 -39.5q-93 0 -141.5 56t-48.5 159q0 115 48.5 172.5t138.5 57.5q71 0 115.5 -33.5t44.5 -80.5v-8h-89q-5 46 -70 46q-48 0 -74 -34.5t-26 -92.5q42 47 121 47zM218 348q39 0 60.5 21t21.5 54t-24 51t-60 18
q-62 0 -94 -55q3 -38 29 -63.5t67 -25.5z" />
    <glyph glyph-name="seven.numr" horiz-adv-x="348" 
d="M13 709h322v-45l-196 -382h-102l184 346h-208v81z" />
    <glyph glyph-name="eight.numr" horiz-adv-x="415" 
d="M309 507q36 -11 57 -39.5t21 -63.5q0 -66 -48 -99t-131 -33q-84 0 -132.5 33t-48.5 98q0 35 21.5 64t57.5 41q-58 27 -58 93q0 57 44 86.5t116 29.5t115.5 -29.5t43.5 -86.5q0 -63 -58 -94zM208 644q-34 0 -55 -14.5t-21 -40.5q0 -23 21 -38.5t55 -15.5t54 15t20 39
q0 26 -20 40.5t-54 14.5zM208 349q41 0 65 15.5t24 45.5q0 29 -24.5 45.5t-64.5 16.5q-41 0 -65.5 -16.5t-24.5 -45.5q0 -61 90 -61z" />
    <glyph glyph-name="nine.numr" horiz-adv-x="401" 
d="M191 717q92 0 140 -56t48 -158q0 -115 -50 -173t-138 -58q-75 0 -118.5 33t-43.5 82v9h89q5 -48 72 -48q48 0 74 34.5t26 92.5q-42 -47 -120 -47q-69 0 -110.5 34t-41.5 103q0 73 46.5 112.5t126.5 39.5zM192 497q35 0 60 16.5t33 38.5q-2 38 -28 63.5t-67 25.5
q-40 0 -61 -20.5t-21 -53.5t23.5 -51.5t60.5 -18.5z" />
    <glyph glyph-name="periodcentered.loclCAT.case" horiz-adv-x="247" 
d="M85 291q-35 0 -60 24.5t-25 60.5q0 35 25 60t60 25t59.5 -25t24.5 -60q0 -36 -24.5 -60.5t-59.5 -24.5z" />
    <glyph glyph-name="periodcentered.loclCAT" horiz-adv-x="154" 
d="M81 250q-35 0 -60 25t-25 61q0 35 25 60t60 25q34 0 58.5 -25t24.5 -60q0 -36 -24 -61t-59 -25z" />
    <glyph glyph-name="uni0308.case" 
d="M-407 759q-35 0 -59.5 24.5t-24.5 59.5t24.5 59.5t59.5 24.5t59 -24.5t24 -59.5t-24 -59.5t-59 -24.5zM-183 759q-35 0 -59 24.5t-24 59.5t24 59.5t59 24.5t59 -24.5t24 -59.5t-24 -59.5t-59 -24.5z" />
    <glyph glyph-name="uni0307.case" 
d="M-296 764q-35 0 -60 25t-25 60t25 60t60 25t59.5 -25t24.5 -60t-24.5 -60t-59.5 -25z" />
    <glyph glyph-name="gravecomb.case" 
d="M-239 764h-97l-181 155l154 12z" />
    <glyph glyph-name="acutecomb.case" 
d="M-353 764l124 167l155 -12l-182 -155h-97z" />
    <glyph glyph-name="uni030B.case" 
d="M-265 764l89 175l127 -44l-136 -131h-80zM-437 764l88 175l117 -42l-121 -133h-84z" />
    <glyph glyph-name="uni0302.case" 
d="M-483 764l144 164h91l144 -164h-103l-87 70l-87 -70h-102z" />
    <glyph glyph-name="uni030C.case" 
d="M-339 764l-144 164h102l87 -69l87 69h103l-144 -164h-91z" />
    <glyph glyph-name="uni0306.case" 
d="M-296 764q-80 0 -128.5 41.5t-50.5 119.5h88q16 -64 91 -64t90 64h90q-3 -79 -51.5 -120t-128.5 -41z" />
    <glyph glyph-name="uni030A.case" 
d="M-296 681q-51 0 -84.5 32.5t-33.5 83.5q0 50 33.5 82.5t84.5 32.5t84.5 -32.5t33.5 -82.5q0 -51 -33.5 -83.5t-84.5 -32.5zM-296 740q25 0 41 16.5t16 42.5q0 25 -16 41t-41 16q-24 0 -40 -16.5t-16 -42.5q0 -25 16 -41t40 -16z" />
    <glyph glyph-name="tildecomb.case" 
d="M-442 758l-63 14q10 68 40.5 105.5t77.5 37.5q39 0 97.5 -30t77.5 -30q42 0 65 56l63 -15q-10 -68 -40.5 -105t-76.5 -37q-36 0 -96 30t-77 30q-42 0 -68 -56z" />
    <glyph glyph-name="uni0304.case" 
d="M-475 768v97h357v-97h-357z" />
    <glyph glyph-name="dieresis.short" horiz-adv-x="603" 
d="M201 614q-35 0 -59 24.5t-24 59.5t24 59.5t59 24.5t59 -24.5t24 -59.5t-24 -59.5t-59 -24.5zM415 614q-35 0 -59.5 24.5t-24.5 59.5t24.5 59.5t59.5 24.5q34 0 58 -24.5t24 -59.5t-24 -59.5t-58 -24.5z" />
    <glyph glyph-name="tonos.case" horiz-adv-x="415" 
d="M122 526l85 197l145 -12l-134 -185h-96z" />
    <glyph glyph-name="brevecombcy" 
d="M-295 621q-80 0 -128.5 41t-51.5 119h88q18 -64 92 -64t90 64h89q-3 -79 -51 -119.5t-128 -40.5z" />
    <glyph glyph-name="brevecombcy.case" 
d="M-296 764q-80 0 -128.5 41.5t-50.5 119.5h88q16 -64 91 -64t90 64h90q-3 -79 -51.5 -120t-128.5 -41z" />
    <glyph glyph-name="KB" horiz-adv-x="924" 
d="M473 -1q-94 0 -160 36.5t-94 94.5l21 9q71 -94 200 -94q53 0 87.5 25t34.5 76q0 43 -43.5 86t-117.5 71q-14 -51 -19 -74q42 -7 71 -17l-5 -36h-248l-1 34q49 34 98 50l73 382l-65 19l-2 30q47 29 117 29l70 -35l-63 -194l-66 -189l10 -2q35 131 90.5 187.5t130.5 56.5
q56 0 89 -24t33 -74q0 -60 -49 -98t-146 -38q-37 0 -69 4v-9q51 -6 86.5 -13.5t79.5 -24t67.5 -45.5t23.5 -69q0 -67 -62 -110.5t-172 -43.5zM410 330q90 3 131.5 40.5t41.5 83.5q0 21 -11 35.5t-30 14.5q-26 0 -63.5 -42.5t-68.5 -131.5z" />
    <glyph glyph-name="a.1" horiz-adv-x="660" 
d="M36 274q0 130 71 207.5t187 77.5q107 0 168 -60v47h136v-546h-134v53q-54 -65 -164 -65q-120 0 -192 77.5t-72 208.5zM327 435q-67 0 -108 -42.5t-41 -118.5q0 -75 41 -118.5t111 -43.5q94 0 134 72v181q-20 33 -58 51.5t-79 18.5z" />
    </font>
</defs>
</svg>
